<svg width="24" height="24" viewBox="0 0 24 24" fill="none" xmlns="http://www.w3.org/2000/svg">
<g clip-path="url(#clip0_3239_14652)">
<path d="M19 21H5C3.9 21 3 20.1 3 19V5C3 3.9 3.9 3 5 3H19C20.1 3 21 3.9 21 5V19C21 20.1 20.1 21 19 21ZM5 5V19H19V5H5Z" fill="#1470A4"/>
<path d="M19 2H5C4.20435 2 3.44129 2.31607 2.87868 2.87868C2.31607 3.44129 2 4.20435 2 5V19C2 19.7956 2.31607 20.5587 2.87868 21.1213C3.44129 21.6839 4.20435 22 5 22H19C19.7956 22 20.5587 21.6839 21.1213 21.1213C21.6839 20.5587 22 19.7956 22 19V5C22 4.20435 21.6839 3.44129 21.1213 2.87868C20.5587 2.31607 19.7956 2 19 2ZM17.71 8.69L10.25 16.63C10.1559 16.7287 10.0426 16.8072 9.91705 16.8605C9.79151 16.9138 9.65639 16.9408 9.52 16.94C9.38361 16.9408 9.24849 16.9138 9.12295 16.8605C8.99741 16.8072 8.88411 16.7287 8.79 16.63L6.31 14C6.20874 13.9072 6.12768 13.7945 6.0719 13.669C6.01611 13.5434 5.98678 13.4078 5.98574 13.2704C5.98471 13.133 6.01198 12.9969 6.06587 12.8706C6.11975 12.7442 6.19909 12.6303 6.29894 12.536C6.39879 12.4416 6.51701 12.3689 6.64622 12.3222C6.77543 12.2756 6.91286 12.2561 7.04994 12.2649C7.18703 12.2737 7.32083 12.3107 7.44299 12.3735C7.56516 12.4363 7.67307 12.5236 7.76 12.63L9.52 14.5L16.25 7.34C16.343 7.24627 16.4536 7.17188 16.5754 7.12111C16.6973 7.07034 16.828 7.0442 16.96 7.0442C17.092 7.0442 17.2227 7.07034 17.3446 7.12111C17.4664 7.17188 17.577 7.24627 17.67 7.34C17.8442 7.5193 17.9449 7.75735 17.9523 8.00723C17.9597 8.25711 17.8733 8.5007 17.71 8.69Z" fill="#1470A4"/>
</g>
<defs>
<clipPath id="clip0_3239_14652">
<rect width="24" height="24" fill="white"/>
</clipPath>
</defs>
</svg>
