<svg width="146" height="167" viewBox="0 0 146 167" fill="none" xmlns="http://www.w3.org/2000/svg">
<path d="M73 144.56C112.584 144.56 144.673 112.496 144.673 72.9431C144.673 33.3902 112.584 1.32617 73 1.32617C33.4162 1.32617 1.32727 33.3902 1.32727 72.9431C1.32727 112.496 33.4162 144.56 73 144.56Z" fill="white"/>
<path d="M73 145.886C32.7571 145.886 0 113.155 0 72.9431C0 32.7316 32.7571 0 73 0C113.243 0 146 32.7316 146 72.9431C146 113.155 113.243 145.886 73 145.886ZM73 2.65248C34.1905 2.65248 2.65455 34.1639 2.65455 72.9431C2.65455 111.722 34.1905 143.234 73 143.234C111.809 143.234 143.345 111.722 143.345 72.9431C143.345 34.1639 111.809 2.65248 73 2.65248Z" fill="#282F34"/>
<path d="M73.3375 136.576C108.318 136.576 136.675 108.241 136.675 73.2881C136.675 38.3351 108.318 10 73.3375 10C38.3571 10 10 38.3351 10 73.2881C10 108.241 38.3571 136.576 73.3375 136.576Z" fill="#1470A4"/>
<path d="M122.321 162.332H106.341C105.598 162.332 105.014 161.748 105.014 161.005C105.014 160.263 105.598 159.679 106.341 159.679H122.321C123.065 159.679 123.649 160.263 123.649 161.005C123.649 161.748 123.065 162.332 122.321 162.332Z" fill="#282F34"/>
<path d="M43.3752 162.332H27.3948C26.6516 162.332 26.0676 161.748 26.0676 161.005C26.0676 160.263 26.6516 159.679 27.3948 159.679H43.3752C44.1185 159.679 44.7025 160.263 44.7025 161.005C44.7025 161.748 44.1185 162.332 43.3752 162.332Z" fill="#282F34"/>
<path d="M132.727 154.533H106.341C105.598 154.533 105.014 153.95 105.014 153.207C105.014 152.464 105.598 151.881 106.341 151.881H132.727C133.471 151.881 134.055 152.464 134.055 153.207C134.055 153.95 133.417 154.533 132.727 154.533Z" fill="#282F34"/>
<path d="M43.3753 154.533H16.9891C16.2458 154.533 15.6618 153.95 15.6618 153.207C15.6618 152.464 16.2458 151.881 16.9891 151.881H43.3753C44.1185 151.881 44.7025 152.464 44.7025 153.207C44.7025 153.95 44.1185 154.533 43.3753 154.533Z" fill="#282F34"/>
<path d="M66.7883 165.673H79.424C89.936 165.673 94.1302 161.483 94.1302 150.979V138.353C94.1302 127.849 89.936 123.658 79.424 123.658H66.7883C56.2763 123.658 52.0822 127.849 52.0822 138.353V150.979C52.0822 161.483 56.2763 165.673 66.7883 165.673Z" fill="#1470A4"/>
<path d="M79.424 167H66.7883C55.5331 167 50.7549 162.225 50.7549 150.979V138.353C50.7549 127.106 55.5331 122.332 66.7883 122.332H79.424C90.6793 122.332 95.4574 127.106 95.4574 138.353V150.979C95.4574 162.172 90.6262 167 79.424 167ZM66.7883 124.985C57.0196 124.985 53.4094 128.592 53.4094 138.353V150.979C53.4094 160.74 57.0196 164.347 66.7883 164.347H79.424C89.1927 164.347 92.8029 160.74 92.8029 150.979V138.353C92.8029 128.592 89.1927 124.985 79.424 124.985H66.7883Z" fill="#282F34"/>
<path d="M67.2662 152.093C66.7884 152.093 66.3636 151.934 65.992 151.562C65.3018 150.873 65.3018 149.706 65.992 149.016L77.4596 137.557C78.1498 136.868 79.3178 136.868 80.008 137.557C80.6982 138.247 80.6982 139.414 80.008 140.104L68.5404 151.562C68.1687 151.934 67.744 152.093 67.2662 152.093Z" fill="white"/>
<path d="M78.7338 152.305C78.256 152.305 77.8313 152.146 77.4596 151.775L65.992 140.316C65.3018 139.626 65.3018 138.459 65.992 137.77C66.6822 137.08 67.8502 137.08 68.5404 137.77L80.008 149.228C80.6982 149.918 80.6982 151.085 80.008 151.775C79.6895 152.093 79.2116 152.305 78.7338 152.305Z" fill="white"/>
<path d="M90.3968 76.2001C90.3968 75.1776 89.5693 74.3501 88.5468 74.3501C87.5243 74.3501 86.6968 75.1776 86.6968 76.2001C86.6968 83.34 80.6399 89.1502 73.5 89.1502C66.3601 89.1502 60.3032 83.34 60.3032 76.2001C60.3032 75.1776 59.4757 74.3501 58.4532 74.3501C57.4307 74.3501 56.6032 75.1776 56.6032 76.2001C56.6032 84.7481 63.3478 91.7292 71.65 92.6633V96.5503H65.8533C64.8307 96.5503 64.0033 97.3778 64.0033 98.4003C64.0033 99.4229 64.8307 100.25 65.8533 100.25H81.1468C82.1693 100.25 82.9968 99.4229 82.9968 98.4003C82.9968 97.3778 82.1693 96.5503 81.1468 96.5503H75.35V92.6633C83.6522 91.7292 90.3968 84.7482 90.3968 76.2001Z" fill="white"/>
<path d="M73.5 44.7495C68.3997 44.7495 64.0032 48.8994 64.0032 53.9996V76.1997C64.0032 81.3 68.3998 85.4497 73.5 85.4497C78.6003 85.4497 82.9967 81.2998 82.9967 76.1997V53.9997C82.9966 48.8994 78.6002 44.7495 73.5 44.7495Z" fill="white"/>
<path d="M99.038 47.5537C98.3154 46.8311 97.1446 46.8311 96.4219 47.5537C95.6993 48.2764 95.6993 49.4472 96.4219 50.1698C99.5674 53.3133 101.3 57.4941 101.3 61.9419C101.3 66.3898 99.5673 70.5723 96.4219 73.7159C95.6993 74.4386 95.6993 75.6094 96.4219 76.332C97.1446 77.0547 98.3153 77.0547 99.038 76.332C102.883 72.4892 105 67.3799 105 61.9418C105 56.5056 102.883 51.3963 99.038 47.5537Z" fill="white"/>
<path d="M93.8023 52.7895C93.0797 52.0669 91.9089 52.0669 91.1864 52.7895C90.4637 53.5122 90.4637 54.6847 91.1864 55.4056C92.937 57.1545 93.8999 59.476 93.8999 61.9421C93.8999 64.4083 92.937 66.7298 91.1864 68.4805C90.4636 69.2033 90.4636 70.3739 91.1864 71.0966C91.909 71.8192 93.0798 71.8192 93.8023 71.0966C96.2521 68.6486 97.5999 65.3966 97.5999 61.9423C97.5999 58.486 96.2504 55.2357 93.8023 52.7895Z" fill="white"/>
<path d="M88.572 58.0195C87.8494 57.2969 86.6786 57.2969 85.9559 58.0195C85.2333 58.7422 85.2333 59.913 85.9559 60.6356C86.3065 60.9862 86.4997 61.4503 86.4997 61.9419C86.4997 62.4351 86.3064 62.8994 85.9559 63.2499C85.2333 63.9727 85.2333 65.1433 85.9559 65.866C86.6786 66.5886 87.8494 66.5886 88.572 65.866C89.6217 64.8163 90.1998 63.4234 90.1998 61.942C90.1998 60.4621 89.6216 59.0692 88.572 58.0195Z" fill="white"/>
<path d="M45.7 61.9419C45.7 57.4941 47.4326 53.3134 50.578 50.1698C51.3006 49.4472 51.3006 48.2764 50.578 47.5537C49.8553 46.8311 48.6845 46.8311 47.9619 47.5537C44.1174 51.3965 42 56.5057 42 61.9419C42 67.38 44.1174 72.4892 47.962 76.332C48.6846 77.0547 49.8554 77.0547 50.5781 76.332C51.3007 75.6094 51.3007 74.4386 50.5781 73.7159C47.4326 70.5722 45.7 66.3898 45.7 61.9419Z" fill="white"/>
<path d="M53.1 61.9421C53.1 59.476 54.063 57.1545 55.8136 55.4056C56.5363 54.6847 56.5363 53.5122 55.8136 52.7895C55.0909 52.0669 53.9202 52.0669 53.1975 52.7895C50.7495 55.2357 49.3999 58.4859 49.3999 61.942C49.3999 65.3963 50.7476 68.6483 53.1975 71.0963C53.9202 71.819 55.0909 71.819 55.8136 71.0963C56.5363 70.3737 56.5363 69.2029 55.8136 68.4804C54.063 66.7298 53.1 64.4083 53.1 61.9421Z" fill="white"/>
<path d="M60.5001 61.9419C60.5001 61.4506 60.6934 60.9862 61.0438 60.6356C61.7666 59.913 61.7666 58.7422 61.0438 58.0195C60.3212 57.2969 59.1504 57.2969 58.4277 58.0195C57.3781 59.0692 56.7999 60.4621 56.7999 61.9418C56.7999 63.4233 57.3781 64.8161 58.4277 65.8657C59.1504 66.5884 60.3212 66.5884 61.0438 65.8657C61.7665 65.1431 61.7665 63.9723 61.0438 63.2496C60.6934 62.8993 60.5001 62.4351 60.5001 61.9419Z" fill="white"/>
</svg>
