<svg width="24" height="24" viewBox="0 0 24 24" fill="none" xmlns="http://www.w3.org/2000/svg">
<path d="M19 7H14C13.37 7 12.78 6.7 12.4 6.2L10.6 3.8C10.22 3.3 9.63 3 9 3H5C3.34 3 2 4.34 2 6V18C2 19.66 3.34 21 5 21H19C20.66 21 22 19.66 22 18V10C22 8.34 20.66 7 19 7ZM5 4.5H9C9.16 4.5 9.31 4.57 9.4 4.7L11.12 7H5C4.45 7 3.94 7.16 3.5 7.42V6C3.5 5.17 4.17 4.5 5 4.5ZM20.5 18C20.5 18.83 19.83 19.5 19 19.5H5C4.17 19.5 3.5 18.83 3.5 18V10C3.5 9.17 4.17 8.5 5 8.5H19C19.83 8.5 20.5 9.17 20.5 10V18Z" fill="black"/>
<path d="M10 16.75C9.81 16.75 9.62 16.68 9.47 16.53C9.18 16.24 9.18 15.76 9.47 15.47L13.47 11.47C13.76 11.18 14.24 11.18 14.53 11.47C14.82 11.76 14.82 12.24 14.53 12.53L10.53 16.53C10.38 16.68 10.19 16.75 10 16.75Z" fill="black"/>
<path d="M14 16.75C13.81 16.75 13.62 16.68 13.47 16.53L9.47 12.53C9.18 12.24 9.18 11.76 9.47 11.47C9.76 11.18 10.24 11.18 10.53 11.47L14.53 15.47C14.82 15.76 14.82 16.24 14.53 16.53C14.38 16.68 14.19 16.75 14 16.75Z" fill="black"/>
</svg>
