<svg width="24" height="24" viewBox="0 0 24 24" fill="none" xmlns="http://www.w3.org/2000/svg">
<g clip-path="url(#clip0_2293_12517)">
<path d="M20.4192 6.18091L16.3332 2.16785C16.2236 2.06027 16.0762 2 15.9226 2H5.59253C4.38708 2 3.40625 2.98068 3.40625 4.18628V19.8137C3.40625 21.0192 4.38693 22 5.59253 22H18.4082C19.6137 22 20.5945 21.0193 20.5945 19.8137V6.599C20.5945 6.44168 20.5313 6.29108 20.4192 6.18091ZM16.5085 3.98273L18.5758 6.01306H16.6948C16.5921 6.01306 16.5085 5.92944 16.5085 5.82675V3.98273ZM18.4082 20.8281H5.59253C5.03329 20.8281 4.57812 20.3731 4.57812 19.8137V4.18628C4.57812 3.62689 5.03314 3.17188 5.59253 3.17188H15.3368V5.82675C15.3368 6.57565 15.9461 7.18494 16.695 7.18494H19.4226V19.8137C19.4226 20.3731 18.9676 20.8281 18.4082 20.8281Z" fill="black"/>
<path d="M16.0682 11.2969H7.80835C7.48471 11.2969 7.22241 11.5592 7.22241 11.8828C7.22241 12.2065 7.48471 12.4688 7.80835 12.4688H16.0682C16.3919 12.4688 16.6542 12.2065 16.6542 11.8828C16.6542 11.5592 16.3919 11.2969 16.0682 11.2969Z" fill="black"/>
<path d="M7.80835 14.8125H14.5433C14.8669 14.8125 15.1292 14.5502 15.1292 14.2266C15.1292 13.9029 14.8669 13.6406 14.5433 13.6406H7.80835C7.48471 13.6406 7.22241 13.9029 7.22241 14.2266C7.22241 14.5502 7.48471 14.8125 7.80835 14.8125Z" fill="black"/>
<path d="M15.3558 15.9844H7.80835C7.48471 15.9844 7.22241 16.2467 7.22241 16.5703C7.22241 16.894 7.48471 17.1562 7.80835 17.1562H15.3558C15.6793 17.1562 15.9417 16.894 15.9417 16.5703C15.9417 16.2467 15.6793 15.9844 15.3558 15.9844Z" fill="black"/>
</g>
<defs>
<clipPath id="clip0_2293_12517">
<rect width="20" height="20" fill="white" transform="translate(2 2)"/>
</clipPath>
</defs>
</svg>
