<svg width="24" height="24" viewBox="0 0 24 24" fill="none" xmlns="http://www.w3.org/2000/svg">
<g clip-path="url(#clip0_2755_12320)">
<path d="M11.8912 12.9788L16.3912 16.3538C16.7227 16.6024 17.1926 16.5352 17.4412 16.2037C17.6899 15.8722 17.6228 15.4024 17.2913 15.1537L13.125 12V5.625C13.125 5.21062 12.7894 4.875 12.375 4.875C11.9606 4.875 11.625 5.21062 11.625 5.625V12.375C11.625 12.624 11.7292 12.8483 11.8912 12.9788Z" fill="black"/>
<path d="M12.75 0.75C7.26038 0.75 2.57251 4.71225 1.65751 10.125L1.37251 9.70125C1.14038 9.35738 0.673882 9.26663 0.330007 9.49875C-0.0138676 9.73088 -0.104618 10.1974 0.127507 10.5413L1.62751 12.7913C1.75088 12.9788 1.95188 13.1014 2.17501 13.125H2.25001C2.44876 13.1243 2.63888 13.0448 2.77876 12.9037L4.65376 11.0287C4.94663 10.7359 4.94663 10.2604 4.65376 9.9675C4.36088 9.67463 3.88538 9.67463 3.59251 9.9675L3.12751 10.4362C3.99113 5.121 9.00001 1.51275 14.3149 2.37637C19.6298 3.24 23.2388 8.2485 22.3751 13.5637C21.6083 18.2835 17.5316 21.7507 12.75 21.75C9.73426 21.8048 6.88201 20.382 5.11126 17.94C4.87088 17.6025 4.40251 17.5234 4.06501 17.7638C3.72751 18.0041 3.64838 18.4725 3.88876 18.81C5.93926 21.6495 9.24826 23.3074 12.75 23.25C18.9634 23.25 24 18.2134 24 12C24 5.78662 18.9634 0.75 12.75 0.75Z" fill="black"/>
</g>
<defs>
<clipPath id="clip0_2755_12320">
<rect width="24" height="24" fill="white"/>
</clipPath>
</defs>
</svg>
