<svg width="24" height="24" viewBox="0 0 24 24" fill="none" xmlns="http://www.w3.org/2000/svg">
<g clip-path="url(#clip0_3239_14870)">
<path d="M16.8 19.3H3.80005C2.40005 19.3 1.30005 18.2 1.30005 16.8V3.80005C1.30005 2.40005 2.40005 1.30005 3.80005 1.30005H16.8C18.2 1.30005 19.3 2.40005 19.3 3.80005V16.8C19.3 18.1 18.1 19.3 16.8 19.3ZM3.80005 3.30005C3.50005 3.30005 3.30005 3.50005 3.30005 3.80005V16.8C3.30005 17.1 3.50005 17.3 3.80005 17.3H16.8C17.1 17.3 17.3 17.1 17.3 16.8V3.80005C17.3 3.50005 17.1 3.30005 16.8 3.30005H3.80005Z" fill="#1470A4"/>
<path d="M20.8 22.8H6.30005C5.70005 22.8 5.30005 22.4 5.30005 21.8C5.30005 21.2 5.70005 20.8 6.30005 20.8H20.8V6.30005C20.8 5.70005 21.2 5.30005 21.8 5.30005C22.4 5.30005 22.8 5.70005 22.8 6.30005V20.8C22.8 21.9 21.9 22.8 20.8 22.8Z" fill="#1470A4"/>
<path d="M20.8003 22.8003H6.30029C5.70029 22.8003 5.30029 22.4003 5.30029 21.8003C5.30029 21.2003 5.70029 20.8003 6.30029 20.8003H20.8003V6.30029C20.8003 5.70029 21.2003 5.30029 21.8003 5.30029C22.4003 5.30029 22.8003 5.70029 22.8003 6.30029V20.8003C22.8003 21.9003 21.9003 22.8003 20.8003 22.8003Z" fill="#1470A4"/>
<path d="M16.8 19.3H3.80005C2.40005 19.3 1.30005 18.2 1.30005 16.8V3.80005C1.30005 2.40005 2.40005 1.30005 3.80005 1.30005H16.8C18.2 1.30005 19.3 2.40005 19.3 3.80005V16.8C19.3 18.1 18.1 19.3 16.8 19.3ZM3.80005 3.30005C3.50005 3.30005 3.30005 3.50005 3.30005 3.80005V16.8C3.30005 17.1 3.50005 17.3 3.80005 17.3H16.8C17.1 17.3 17.3 17.1 17.3 16.8V3.80005C17.3 3.50005 17.1 3.30005 16.8 3.30005H3.80005Z" fill="#1470A4"/>
<path d="M20.8 22.8H6.30005C5.70005 22.8 5.30005 22.4 5.30005 21.8C5.30005 21.2 5.70005 20.8 6.30005 20.8H20.8V6.30005C20.8 5.70005 21.2 5.30005 21.8 5.30005C22.4 5.30005 22.8 5.70005 22.8 6.30005V20.8C22.8 21.9 21.9 22.8 20.8 22.8Z" fill="#1470A4"/>
<path d="M20.8003 22.8003H6.30029C5.70029 22.8003 5.30029 22.4003 5.30029 21.8003C5.30029 21.2003 5.70029 20.8003 6.30029 20.8003H20.8003V6.30029C20.8003 5.70029 21.2003 5.30029 21.8003 5.30029C22.4003 5.30029 22.8003 5.70029 22.8003 6.30029V20.8003C22.8003 21.9003 21.9003 22.8003 20.8003 22.8003Z" fill="#1470A4"/>
<path d="M9.29998 13.8001C9.09998 13.8001 8.79998 13.7001 8.59998 13.5001L5.59998 10.7001C5.19998 10.3001 5.19998 9.7001 5.49998 9.3001C5.89998 8.9001 6.49998 8.9001 6.89998 9.2001L9.19998 11.3001L13.5 6.9001C13.9 6.5001 14.5 6.5001 14.9 6.9001C15.3 7.3001 15.3 7.9001 14.9 8.3001L9.89998 13.4001C9.79998 13.7001 9.49998 13.8001 9.29998 13.8001Z" fill="#1470A4"/>
</g>
<defs>
<clipPath id="clip0_3239_14870">
<rect width="24" height="24" fill="white"/>
</clipPath>
</defs>
</svg>
