<svg width="327" height="42" viewBox="0 0 327 42" fill="none" xmlns="http://www.w3.org/2000/svg">
<rect width="327" height="42" rx="20" fill="#1470A4"/>
<path d="M140.524 23.432C140.626 23.432 140.714 23.472 140.788 23.552L141.532 24.36C141.063 24.9253 140.487 25.3627 139.804 25.672C139.122 25.976 138.306 26.128 137.356 26.128C136.514 26.128 135.751 25.984 135.068 25.696C134.391 25.4027 133.812 24.9973 133.332 24.48C132.852 23.9573 132.482 23.336 132.22 22.616C131.964 21.896 131.836 21.104 131.836 20.24C131.836 19.376 131.972 18.584 132.244 17.864C132.522 17.1387 132.908 16.5173 133.404 16C133.906 15.4773 134.503 15.072 135.196 14.784C135.895 14.496 136.663 14.352 137.5 14.352C138.332 14.352 139.066 14.488 139.7 14.76C140.34 15.0267 140.895 15.384 141.364 15.832L140.748 16.704C140.706 16.7627 140.655 16.8133 140.596 16.856C140.538 16.8987 140.458 16.92 140.356 16.92C140.25 16.92 140.127 16.872 139.988 16.776C139.855 16.6747 139.682 16.5653 139.468 16.448C139.26 16.3253 138.996 16.216 138.676 16.12C138.362 16.0187 137.967 15.968 137.492 15.968C136.943 15.968 136.439 16.064 135.98 16.256C135.522 16.448 135.127 16.728 134.796 17.096C134.466 17.464 134.207 17.912 134.02 18.44C133.839 18.968 133.748 19.568 133.748 20.24C133.748 20.9173 133.844 21.5227 134.036 22.056C134.228 22.584 134.492 23.032 134.828 23.4C135.164 23.7627 135.559 24.04 136.012 24.232C136.466 24.424 136.954 24.52 137.476 24.52C137.796 24.52 138.082 24.504 138.332 24.472C138.588 24.4347 138.823 24.3787 139.036 24.304C139.25 24.224 139.45 24.1253 139.636 24.008C139.828 23.8907 140.018 23.7467 140.204 23.576C140.311 23.48 140.418 23.432 140.524 23.432ZM146.185 17.712C146.788 17.712 147.332 17.8107 147.817 18.008C148.308 18.2053 148.724 18.4853 149.065 18.848C149.412 19.2107 149.679 19.6507 149.865 20.168C150.052 20.6853 150.145 21.2667 150.145 21.912C150.145 22.5573 150.052 23.1387 149.865 23.656C149.679 24.1733 149.412 24.616 149.065 24.984C148.724 25.3467 148.308 25.6267 147.817 25.824C147.332 26.0213 146.788 26.12 146.185 26.12C145.577 26.12 145.028 26.0213 144.537 25.824C144.052 25.6267 143.636 25.3467 143.289 24.984C142.943 24.616 142.676 24.1733 142.489 23.656C142.303 23.1387 142.209 22.5573 142.209 21.912C142.209 21.2667 142.303 20.6853 142.489 20.168C142.676 19.6507 142.943 19.2107 143.289 18.848C143.636 18.4853 144.052 18.2053 144.537 18.008C145.028 17.8107 145.577 17.712 146.185 17.712ZM146.185 24.776C146.921 24.776 147.468 24.5307 147.825 24.04C148.188 23.544 148.369 22.8373 148.369 21.92C148.369 21.0027 148.188 20.296 147.825 19.8C147.468 19.2987 146.921 19.048 146.185 19.048C145.439 19.048 144.884 19.2987 144.521 19.8C144.159 20.296 143.977 21.0027 143.977 21.92C143.977 22.8373 144.159 23.544 144.521 24.04C144.884 24.5307 145.439 24.776 146.185 24.776ZM153.406 18.92C153.582 18.7387 153.763 18.576 153.95 18.432C154.142 18.2827 154.345 18.1547 154.558 18.048C154.771 17.9413 154.998 17.8587 155.238 17.8C155.478 17.7413 155.739 17.712 156.022 17.712C156.47 17.712 156.862 17.7867 157.198 17.936C157.539 18.0853 157.825 18.296 158.054 18.568C158.289 18.84 158.465 19.168 158.582 19.552C158.699 19.9307 158.758 20.3493 158.758 20.808V26H157.046V20.808C157.046 20.2587 156.918 19.832 156.662 19.528C156.411 19.224 156.027 19.072 155.51 19.072C155.126 19.072 154.769 19.16 154.438 19.336C154.113 19.512 153.806 19.752 153.518 20.056V26H151.798V17.84H152.838C153.073 17.84 153.222 17.9493 153.286 18.168L153.406 18.92ZM163.273 26.128C162.596 26.128 162.073 25.9387 161.705 25.56C161.343 25.176 161.161 24.6373 161.161 23.944V19.192H160.265C160.169 19.192 160.087 19.1627 160.017 19.104C159.948 19.04 159.913 18.9467 159.913 18.824V18.128L161.233 17.936L161.609 15.576C161.636 15.4853 161.681 15.4133 161.745 15.36C161.809 15.3013 161.895 15.272 162.001 15.272H162.881V17.952H165.145V19.192H162.881V23.824C162.881 24.1173 162.953 24.3413 163.097 24.496C163.241 24.6507 163.433 24.728 163.673 24.728C163.807 24.728 163.921 24.712 164.017 24.68C164.113 24.6427 164.196 24.6053 164.265 24.568C164.335 24.5253 164.393 24.488 164.441 24.456C164.495 24.4187 164.545 24.4 164.593 24.4C164.689 24.4 164.767 24.4533 164.825 24.56L165.337 25.4C165.071 25.6347 164.756 25.816 164.393 25.944C164.031 26.0667 163.657 26.128 163.273 26.128ZM168.293 17.84V26H166.573V17.84H168.293ZM168.581 15.376C168.581 15.5307 168.549 15.6773 168.485 15.816C168.426 15.9547 168.344 16.0773 168.237 16.184C168.13 16.2853 168.005 16.368 167.861 16.432C167.722 16.4907 167.573 16.52 167.413 16.52C167.258 16.52 167.112 16.4907 166.973 16.432C166.84 16.368 166.722 16.2853 166.621 16.184C166.52 16.0773 166.437 15.9547 166.373 15.816C166.314 15.6773 166.285 15.5307 166.285 15.376C166.285 15.216 166.314 15.0667 166.373 14.928C166.437 14.7893 166.52 14.6693 166.621 14.568C166.722 14.4613 166.84 14.3787 166.973 14.32C167.112 14.256 167.258 14.224 167.413 14.224C167.573 14.224 167.722 14.256 167.861 14.32C168.005 14.3787 168.13 14.4613 168.237 14.568C168.344 14.6693 168.426 14.7893 168.485 14.928C168.549 15.0667 168.581 15.216 168.581 15.376ZM172.062 18.92C172.238 18.7387 172.42 18.576 172.606 18.432C172.798 18.2827 173.001 18.1547 173.214 18.048C173.428 17.9413 173.654 17.8587 173.894 17.8C174.134 17.7413 174.396 17.712 174.678 17.712C175.126 17.712 175.518 17.7867 175.854 17.936C176.196 18.0853 176.481 18.296 176.71 18.568C176.945 18.84 177.121 19.168 177.238 19.552C177.356 19.9307 177.414 20.3493 177.414 20.808V26H175.702V20.808C175.702 20.2587 175.574 19.832 175.318 19.528C175.068 19.224 174.684 19.072 174.166 19.072C173.782 19.072 173.425 19.16 173.094 19.336C172.769 19.512 172.462 19.752 172.174 20.056V26H170.454V17.84H171.494C171.729 17.84 171.878 17.9493 171.942 18.168L172.062 18.92ZM186.303 17.84V26H185.263C185.034 26 184.887 25.8907 184.823 25.672L184.695 24.912C184.524 25.0933 184.343 25.2587 184.151 25.408C183.964 25.5573 183.764 25.6853 183.551 25.792C183.338 25.8987 183.108 25.9813 182.863 26.04C182.623 26.0987 182.364 26.128 182.087 26.128C181.639 26.128 181.244 26.0533 180.903 25.904C180.562 25.7547 180.274 25.544 180.039 25.272C179.81 25 179.636 24.6747 179.519 24.296C179.402 23.912 179.343 23.4907 179.343 23.032V17.84H181.063V23.032C181.063 23.5813 181.188 24.008 181.439 24.312C181.695 24.616 182.082 24.768 182.599 24.768C182.978 24.768 183.33 24.6827 183.655 24.512C183.986 24.336 184.295 24.096 184.583 23.792V17.84H186.303ZM193.744 21C193.744 20.712 193.701 20.4453 193.616 20.2C193.536 19.9493 193.416 19.7333 193.256 19.552C193.096 19.3653 192.896 19.2213 192.656 19.12C192.421 19.0133 192.149 18.96 191.84 18.96C191.216 18.96 190.725 19.1387 190.368 19.496C190.01 19.8533 189.784 20.3547 189.688 21H193.744ZM189.64 22.056C189.661 22.52 189.733 22.9227 189.856 23.264C189.978 23.6 190.141 23.88 190.344 24.104C190.552 24.328 190.797 24.496 191.08 24.608C191.368 24.7147 191.688 24.768 192.04 24.768C192.376 24.768 192.666 24.7307 192.912 24.656C193.157 24.576 193.37 24.4907 193.552 24.4C193.733 24.304 193.888 24.2187 194.016 24.144C194.144 24.064 194.261 24.024 194.368 24.024C194.506 24.024 194.613 24.0773 194.688 24.184L195.176 24.816C194.973 25.056 194.744 25.2587 194.488 25.424C194.232 25.5893 193.96 25.7253 193.672 25.832C193.384 25.9333 193.088 26.0053 192.784 26.048C192.48 26.096 192.184 26.12 191.896 26.12C191.33 26.12 190.805 26.0267 190.32 25.84C189.84 25.648 189.421 25.368 189.064 25C188.712 24.632 188.434 24.176 188.232 23.632C188.034 23.088 187.936 22.4613 187.936 21.752C187.936 21.1867 188.024 20.6587 188.2 20.168C188.381 19.6773 188.637 19.2507 188.968 18.888C189.304 18.5253 189.709 18.24 190.184 18.032C190.664 17.8187 191.205 17.712 191.808 17.712C192.309 17.712 192.773 17.7947 193.2 17.96C193.626 18.12 193.994 18.3573 194.304 18.672C194.613 18.9867 194.853 19.3733 195.024 19.832C195.2 20.2853 195.288 20.8027 195.288 21.384C195.288 21.6507 195.258 21.8293 195.2 21.92C195.141 22.0107 195.034 22.056 194.88 22.056H189.64Z" fill="white"/>
</svg>
