<svg width="327" height="42" viewBox="0 0 327 42" fill="none" xmlns="http://www.w3.org/2000/svg">
<path d="M60.6543 26H58.7743V14.48H60.6543V26ZM72.256 19.848C72.016 19.5387 71.752 19.3227 71.464 19.2C71.176 19.0773 70.864 19.016 70.528 19.016C69.856 19.016 69.3307 19.264 68.952 19.76C68.5733 20.2507 68.384 20.9787 68.384 21.944C68.384 22.4453 68.4267 22.8747 68.512 23.232C68.5973 23.584 68.72 23.872 68.88 24.096C69.04 24.32 69.2347 24.4827 69.464 24.584C69.6933 24.6853 69.952 24.736 70.24 24.736C70.6773 24.736 71.0533 24.6427 71.368 24.456C71.688 24.264 71.984 23.9947 72.256 23.648V19.848ZM73.976 14.16V26H72.936C72.7067 26 72.56 25.8907 72.496 25.672L72.344 24.784C72.0027 25.184 71.6133 25.5067 71.176 25.752C70.744 25.9973 70.24 26.12 69.664 26.12C69.2053 26.12 68.7893 26.0293 68.416 25.848C68.0427 25.6613 67.7227 25.392 67.456 25.04C67.1893 24.688 66.9813 24.2533 66.832 23.736C66.688 23.2133 66.616 22.616 66.616 21.944C66.616 21.336 66.696 20.7733 66.856 20.256C67.0213 19.7387 67.256 19.2907 67.56 18.912C67.864 18.528 68.232 18.2293 68.664 18.016C69.1013 17.7973 69.5893 17.688 70.128 17.688C70.608 17.688 71.016 17.7653 71.352 17.92C71.688 18.0693 71.9893 18.28 72.256 18.552V14.16H73.976ZM79.6073 17.712C80.2099 17.712 80.7539 17.8107 81.2393 18.008C81.7299 18.2053 82.1459 18.4853 82.4873 18.848C82.8339 19.2107 83.1006 19.6507 83.2873 20.168C83.4739 20.6853 83.5673 21.2667 83.5673 21.912C83.5673 22.5573 83.4739 23.1387 83.2873 23.656C83.1006 24.1733 82.8339 24.616 82.4873 24.984C82.1459 25.3467 81.7299 25.6267 81.2393 25.824C80.7539 26.0213 80.2099 26.12 79.6073 26.12C78.9993 26.12 78.4499 26.0213 77.9593 25.824C77.4739 25.6267 77.0579 25.3467 76.7113 24.984C76.3646 24.616 76.0979 24.1733 75.9113 23.656C75.7246 23.1387 75.6313 22.5573 75.6313 21.912C75.6313 21.2667 75.7246 20.6853 75.9113 20.168C76.0979 19.6507 76.3646 19.2107 76.7113 18.848C77.0579 18.4853 77.4739 18.2053 77.9593 18.008C78.4499 17.8107 78.9993 17.712 79.6073 17.712ZM79.6073 24.776C80.3433 24.776 80.8899 24.5307 81.2473 24.04C81.6099 23.544 81.7913 22.8373 81.7913 21.92C81.7913 21.0027 81.6099 20.296 81.2473 19.8C80.8899 19.2987 80.3433 19.048 79.6073 19.048C78.8606 19.048 78.3059 19.2987 77.9433 19.8C77.5806 20.296 77.3993 21.0027 77.3993 21.92C77.3993 22.8373 77.5806 23.544 77.9433 24.04C78.3059 24.5307 78.8606 24.776 79.6073 24.776ZM86.8279 18.92C87.0039 18.7387 87.1852 18.576 87.3719 18.432C87.5639 18.2827 87.7665 18.1547 87.9799 18.048C88.1932 17.9413 88.4199 17.8587 88.6599 17.8C88.8999 17.7413 89.1612 17.712 89.4439 17.712C89.8919 17.712 90.2839 17.7867 90.6199 17.936C90.9612 18.0853 91.2465 18.296 91.4759 18.568C91.7105 18.84 91.8865 19.168 92.0039 19.552C92.1212 19.9307 92.1799 20.3493 92.1799 20.808V26H90.4679V20.808C90.4679 20.2587 90.3399 19.832 90.0839 19.528C89.8332 19.224 89.4492 19.072 88.9319 19.072C88.5479 19.072 88.1905 19.16 87.8599 19.336C87.5345 19.512 87.2279 19.752 86.9399 20.056V26H85.2199V17.84H86.2599C86.4945 17.84 86.6439 17.9493 86.7079 18.168L86.8279 18.92ZM95.1303 13.712C95.3703 14.1173 95.5329 14.5413 95.6183 14.984C95.7036 15.4213 95.7116 15.856 95.6423 16.288C95.5729 16.7147 95.4263 17.1253 95.2023 17.52C94.9836 17.9147 94.6903 18.2667 94.3223 18.576L93.7863 18.248C93.6956 18.1893 93.6529 18.1147 93.6583 18.024C93.6689 17.928 93.7009 17.8533 93.7543 17.8C93.8769 17.6507 93.9889 17.4613 94.0903 17.232C94.1916 17.0027 94.2583 16.752 94.2903 16.48C94.3276 16.2027 94.3196 15.912 94.2663 15.608C94.2183 15.304 94.1036 15.0027 93.9223 14.704C93.8369 14.5653 93.8129 14.4453 93.8503 14.344C93.8876 14.2427 93.9649 14.1707 94.0822 14.128L95.1303 13.712ZM100.039 26.128C99.3617 26.128 98.839 25.9387 98.471 25.56C98.1083 25.176 97.927 24.6373 97.927 23.944V19.192H97.031C96.935 19.192 96.8523 19.1627 96.783 19.104C96.7137 19.04 96.679 18.9467 96.679 18.824V18.128L97.999 17.936L98.375 15.576C98.4017 15.4853 98.447 15.4133 98.511 15.36C98.575 15.3013 98.6603 15.272 98.767 15.272H99.647V17.952H101.911V19.192H99.647V23.824C99.647 24.1173 99.719 24.3413 99.863 24.496C100.007 24.6507 100.199 24.728 100.439 24.728C100.572 24.728 100.687 24.712 100.783 24.68C100.879 24.6427 100.962 24.6053 101.031 24.568C101.1 24.5253 101.159 24.488 101.207 24.456C101.26 24.4187 101.311 24.4 101.359 24.4C101.455 24.4 101.532 24.4533 101.591 24.56L102.103 25.4C101.836 25.6347 101.522 25.816 101.159 25.944C100.796 26.0667 100.423 26.128 100.039 26.128ZM108.971 18.808C109.307 18.4773 109.675 18.2133 110.075 18.016C110.475 17.8133 110.942 17.712 111.475 17.712C111.923 17.712 112.315 17.7867 112.651 17.936C112.992 18.0853 113.278 18.296 113.507 18.568C113.742 18.84 113.918 19.168 114.035 19.552C114.152 19.9307 114.211 20.3493 114.211 20.808V26H112.499V20.808C112.499 20.2587 112.371 19.832 112.115 19.528C111.864 19.224 111.48 19.072 110.963 19.072C110.579 19.072 110.222 19.16 109.891 19.336C109.566 19.512 109.259 19.752 108.971 20.056V26H107.251V14.16H108.971V18.808ZM120.58 22.432C119.967 22.4533 119.449 22.504 119.028 22.584C118.607 22.6587 118.265 22.7573 118.004 22.88C117.743 22.9973 117.553 23.1387 117.436 23.304C117.324 23.4693 117.268 23.6507 117.268 23.848C117.268 24.04 117.297 24.2053 117.356 24.344C117.42 24.4773 117.505 24.5893 117.612 24.68C117.724 24.7653 117.852 24.8293 117.996 24.872C118.145 24.9093 118.308 24.928 118.484 24.928C118.932 24.928 119.316 24.8453 119.636 24.68C119.961 24.5093 120.276 24.264 120.58 23.944V22.432ZM116.02 18.976C116.943 18.1173 118.041 17.688 119.316 17.688C119.785 17.688 120.201 17.7653 120.564 17.92C120.932 18.0693 121.239 18.2827 121.484 18.56C121.735 18.8373 121.924 19.168 122.052 19.552C122.185 19.9307 122.252 20.352 122.252 20.816V26H121.484C121.319 26 121.193 25.976 121.108 25.928C121.023 25.8747 120.951 25.7707 120.892 25.616L120.724 24.952C120.516 25.1387 120.311 25.3067 120.108 25.456C119.905 25.6 119.695 25.7227 119.476 25.824C119.263 25.9253 119.031 26 118.78 26.048C118.535 26.1013 118.263 26.128 117.964 26.128C117.633 26.128 117.324 26.0827 117.036 25.992C116.753 25.9013 116.508 25.7653 116.3 25.584C116.092 25.3973 115.927 25.168 115.804 24.896C115.687 24.624 115.628 24.304 115.628 23.936C115.628 23.6213 115.711 23.3147 115.876 23.016C116.047 22.7173 116.324 22.4507 116.708 22.216C117.097 21.976 117.607 21.7787 118.236 21.624C118.871 21.4693 119.652 21.3813 120.58 21.36V20.816C120.58 20.2293 120.455 19.792 120.204 19.504C119.953 19.216 119.585 19.072 119.1 19.072C118.769 19.072 118.492 19.1147 118.268 19.2C118.044 19.28 117.849 19.368 117.684 19.464C117.519 19.56 117.372 19.6507 117.244 19.736C117.116 19.816 116.98 19.856 116.836 19.856C116.719 19.856 116.617 19.8267 116.532 19.768C116.452 19.704 116.385 19.6267 116.332 19.536L116.02 18.976ZM131.263 17.84L127.983 26H126.431L123.151 17.84H124.567C124.701 17.84 124.81 17.8747 124.895 17.944C124.986 18.008 125.045 18.0853 125.071 18.176L126.879 22.928C126.954 23.152 127.021 23.3733 127.079 23.592C127.138 23.8107 127.189 24.032 127.231 24.256C127.274 24.032 127.325 23.8133 127.383 23.6C127.447 23.3813 127.517 23.1573 127.591 22.928L129.431 18.176C129.463 18.08 129.522 18 129.607 17.936C129.693 17.872 129.797 17.84 129.919 17.84H131.263ZM137.556 21C137.556 20.712 137.514 20.4453 137.428 20.2C137.348 19.9493 137.228 19.7333 137.068 19.552C136.908 19.3653 136.708 19.2213 136.468 19.12C136.234 19.0133 135.962 18.96 135.652 18.96C135.028 18.96 134.538 19.1387 134.18 19.496C133.823 19.8533 133.596 20.3547 133.5 21H137.556ZM133.452 22.056C133.474 22.52 133.546 22.9227 133.668 23.264C133.791 23.6 133.954 23.88 134.156 24.104C134.364 24.328 134.61 24.496 134.892 24.608C135.18 24.7147 135.5 24.768 135.852 24.768C136.188 24.768 136.479 24.7307 136.724 24.656C136.97 24.576 137.183 24.4907 137.364 24.4C137.546 24.304 137.7 24.2187 137.828 24.144C137.956 24.064 138.074 24.024 138.18 24.024C138.319 24.024 138.426 24.0773 138.5 24.184L138.988 24.816C138.786 25.056 138.556 25.2587 138.3 25.424C138.044 25.5893 137.772 25.7253 137.484 25.832C137.196 25.9333 136.9 26.0053 136.596 26.048C136.292 26.096 135.996 26.12 135.708 26.12C135.143 26.12 134.618 26.0267 134.132 25.84C133.652 25.648 133.234 25.368 132.876 25C132.524 24.632 132.247 24.176 132.044 23.632C131.847 23.088 131.748 22.4613 131.748 21.752C131.748 21.1867 131.836 20.6587 132.012 20.168C132.194 19.6773 132.45 19.2507 132.78 18.888C133.116 18.5253 133.522 18.24 133.996 18.032C134.476 17.8187 135.018 17.712 135.62 17.712C136.122 17.712 136.586 17.7947 137.012 17.96C137.439 18.12 137.807 18.3573 138.116 18.672C138.426 18.9867 138.666 19.3733 138.836 19.832C139.012 20.2853 139.1 20.8027 139.1 21.384C139.1 21.6507 139.071 21.8293 139.012 21.92C138.954 22.0107 138.847 22.056 138.692 22.056H133.452ZM149.049 22.432C148.435 22.4533 147.918 22.504 147.497 22.584C147.075 22.6587 146.734 22.7573 146.473 22.88C146.211 22.9973 146.022 23.1387 145.905 23.304C145.793 23.4693 145.737 23.6507 145.737 23.848C145.737 24.04 145.766 24.2053 145.825 24.344C145.889 24.4773 145.974 24.5893 146.081 24.68C146.193 24.7653 146.321 24.8293 146.465 24.872C146.614 24.9093 146.777 24.928 146.953 24.928C147.401 24.928 147.785 24.8453 148.105 24.68C148.43 24.5093 148.745 24.264 149.049 23.944V22.432ZM144.489 18.976C145.411 18.1173 146.51 17.688 147.785 17.688C148.254 17.688 148.67 17.7653 149.033 17.92C149.401 18.0693 149.707 18.2827 149.953 18.56C150.203 18.8373 150.393 19.168 150.521 19.552C150.654 19.9307 150.721 20.352 150.721 20.816V26H149.953C149.787 26 149.662 25.976 149.577 25.928C149.491 25.8747 149.419 25.7707 149.361 25.616L149.193 24.952C148.985 25.1387 148.779 25.3067 148.577 25.456C148.374 25.6 148.163 25.7227 147.945 25.824C147.731 25.9253 147.499 26 147.249 26.048C147.003 26.1013 146.731 26.128 146.433 26.128C146.102 26.128 145.793 26.0827 145.505 25.992C145.222 25.9013 144.977 25.7653 144.769 25.584C144.561 25.3973 144.395 25.168 144.273 24.896C144.155 24.624 144.097 24.304 144.097 23.936C144.097 23.6213 144.179 23.3147 144.345 23.016C144.515 22.7173 144.793 22.4507 145.177 22.216C145.566 21.976 146.075 21.7787 146.705 21.624C147.339 21.4693 148.121 21.3813 149.049 21.36V20.816C149.049 20.2293 148.923 19.792 148.673 19.504C148.422 19.216 148.054 19.072 147.569 19.072C147.238 19.072 146.961 19.1147 146.737 19.2C146.513 19.28 146.318 19.368 146.153 19.464C145.987 19.56 145.841 19.6507 145.713 19.736C145.585 19.816 145.449 19.856 145.305 19.856C145.187 19.856 145.086 19.8267 145.001 19.768C144.921 19.704 144.854 19.6267 144.801 19.536L144.489 18.976ZM154.344 18.92C154.52 18.7387 154.701 18.576 154.888 18.432C155.08 18.2827 155.282 18.1547 155.496 18.048C155.709 17.9413 155.936 17.8587 156.176 17.8C156.416 17.7413 156.677 17.712 156.96 17.712C157.408 17.712 157.8 17.7867 158.136 17.936C158.477 18.0853 158.762 18.296 158.992 18.568C159.226 18.84 159.402 19.168 159.52 19.552C159.637 19.9307 159.696 20.3493 159.696 20.808V26H157.984V20.808C157.984 20.2587 157.856 19.832 157.6 19.528C157.349 19.224 156.965 19.072 156.448 19.072C156.064 19.072 155.706 19.16 155.376 19.336C155.05 19.512 154.744 19.752 154.456 20.056V26H152.736V17.84H153.776C154.01 17.84 154.16 17.9493 154.224 18.168L154.344 18.92ZM167.481 17.84V26H165.761V17.84H167.481ZM167.769 15.376C167.769 15.5307 167.737 15.6773 167.673 15.816C167.614 15.9547 167.531 16.0773 167.425 16.184C167.318 16.2853 167.193 16.368 167.049 16.432C166.91 16.4907 166.761 16.52 166.601 16.52C166.446 16.52 166.299 16.4907 166.161 16.432C166.027 16.368 165.91 16.2853 165.809 16.184C165.707 16.0773 165.625 15.9547 165.561 15.816C165.502 15.6773 165.473 15.5307 165.473 15.376C165.473 15.216 165.502 15.0667 165.561 14.928C165.625 14.7893 165.707 14.6693 165.809 14.568C165.91 14.4613 166.027 14.3787 166.161 14.32C166.299 14.256 166.446 14.224 166.601 14.224C166.761 14.224 166.91 14.256 167.049 14.32C167.193 14.3787 167.318 14.4613 167.425 14.568C167.531 14.6693 167.614 14.7893 167.673 14.928C167.737 15.0667 167.769 15.216 167.769 15.376ZM171.25 18.92C171.426 18.7387 171.607 18.576 171.794 18.432C171.986 18.2827 172.188 18.1547 172.402 18.048C172.615 17.9413 172.842 17.8587 173.082 17.8C173.322 17.7413 173.583 17.712 173.866 17.712C174.314 17.712 174.706 17.7867 175.042 17.936C175.383 18.0853 175.668 18.296 175.898 18.568C176.132 18.84 176.308 19.168 176.426 19.552C176.543 19.9307 176.602 20.3493 176.602 20.808V26H174.89V20.808C174.89 20.2587 174.762 19.832 174.506 19.528C174.255 19.224 173.871 19.072 173.354 19.072C172.97 19.072 172.612 19.16 172.282 19.336C171.956 19.512 171.65 19.752 171.362 20.056V26H169.642V17.84H170.682C170.916 17.84 171.066 17.9493 171.13 18.168L171.25 18.92ZM185.623 17.84L182.343 26H180.791L177.511 17.84H178.927C179.06 17.84 179.169 17.8747 179.255 17.944C179.345 18.008 179.404 18.0853 179.431 18.176L181.239 22.928C181.313 23.152 181.38 23.3733 181.439 23.592C181.497 23.8107 181.548 24.032 181.591 24.256C181.633 24.032 181.684 23.8133 181.743 23.6C181.807 23.3813 181.876 23.1573 181.951 22.928L183.791 18.176C183.823 18.08 183.881 18 183.967 17.936C184.052 17.872 184.156 17.84 184.279 17.84H185.623ZM188.59 17.84V26H186.87V17.84H188.59ZM188.878 15.376C188.878 15.5307 188.846 15.6773 188.782 15.816C188.723 15.9547 188.641 16.0773 188.534 16.184C188.427 16.2853 188.302 16.368 188.158 16.432C188.019 16.4907 187.87 16.52 187.71 16.52C187.555 16.52 187.409 16.4907 187.27 16.432C187.137 16.368 187.019 16.2853 186.918 16.184C186.817 16.0773 186.734 15.9547 186.67 15.816C186.611 15.6773 186.582 15.5307 186.582 15.376C186.582 15.216 186.611 15.0667 186.67 14.928C186.734 14.7893 186.817 14.6693 186.918 14.568C187.019 14.4613 187.137 14.3787 187.27 14.32C187.409 14.256 187.555 14.224 187.71 14.224C187.87 14.224 188.019 14.256 188.158 14.32C188.302 14.3787 188.427 14.4613 188.534 14.568C188.641 14.6693 188.723 14.7893 188.782 14.928C188.846 15.0667 188.878 15.216 188.878 15.376ZM193.367 26.128C192.69 26.128 192.167 25.9387 191.799 25.56C191.436 25.176 191.255 24.6373 191.255 23.944V19.192H190.359C190.263 19.192 190.18 19.1627 190.111 19.104C190.042 19.04 190.007 18.9467 190.007 18.824V18.128L191.327 17.936L191.703 15.576C191.73 15.4853 191.775 15.4133 191.839 15.36C191.903 15.3013 191.988 15.272 192.095 15.272H192.975V17.952H195.239V19.192H192.975V23.824C192.975 24.1173 193.047 24.3413 193.191 24.496C193.335 24.6507 193.527 24.728 193.767 24.728C193.9 24.728 194.015 24.712 194.111 24.68C194.207 24.6427 194.29 24.6053 194.359 24.568C194.428 24.5253 194.487 24.488 194.535 24.456C194.588 24.4187 194.639 24.4 194.687 24.4C194.783 24.4 194.86 24.4533 194.919 24.56L195.431 25.4C195.164 25.6347 194.85 25.816 194.487 25.944C194.124 26.0667 193.751 26.128 193.367 26.128ZM200.955 22.432C200.342 22.4533 199.824 22.504 199.403 22.584C198.982 22.6587 198.64 22.7573 198.379 22.88C198.118 22.9973 197.928 23.1387 197.811 23.304C197.699 23.4693 197.643 23.6507 197.643 23.848C197.643 24.04 197.672 24.2053 197.731 24.344C197.795 24.4773 197.88 24.5893 197.987 24.68C198.099 24.7653 198.227 24.8293 198.371 24.872C198.52 24.9093 198.683 24.928 198.859 24.928C199.307 24.928 199.691 24.8453 200.011 24.68C200.336 24.5093 200.651 24.264 200.955 23.944V22.432ZM196.395 18.976C197.318 18.1173 198.416 17.688 199.691 17.688C200.16 17.688 200.576 17.7653 200.939 17.92C201.307 18.0693 201.614 18.2827 201.859 18.56C202.11 18.8373 202.299 19.168 202.427 19.552C202.56 19.9307 202.627 20.352 202.627 20.816V26H201.859C201.694 26 201.568 25.976 201.483 25.928C201.398 25.8747 201.326 25.7707 201.267 25.616L201.099 24.952C200.891 25.1387 200.686 25.3067 200.483 25.456C200.28 25.6 200.07 25.7227 199.851 25.824C199.638 25.9253 199.406 26 199.155 26.048C198.91 26.1013 198.638 26.128 198.339 26.128C198.008 26.128 197.699 26.0827 197.411 25.992C197.128 25.9013 196.883 25.7653 196.675 25.584C196.467 25.3973 196.302 25.168 196.179 24.896C196.062 24.624 196.003 24.304 196.003 23.936C196.003 23.6213 196.086 23.3147 196.251 23.016C196.422 22.7173 196.699 22.4507 197.083 22.216C197.472 21.976 197.982 21.7787 198.611 21.624C199.246 21.4693 200.027 21.3813 200.955 21.36V20.816C200.955 20.2293 200.83 19.792 200.579 19.504C200.328 19.216 199.96 19.072 199.475 19.072C199.144 19.072 198.867 19.1147 198.643 19.2C198.419 19.28 198.224 19.368 198.059 19.464C197.894 19.56 197.747 19.6507 197.619 19.736C197.491 19.816 197.355 19.856 197.211 19.856C197.094 19.856 196.992 19.8267 196.907 19.768C196.827 19.704 196.76 19.6267 196.707 19.536L196.395 18.976ZM207.148 26.128C206.471 26.128 205.948 25.9387 205.58 25.56C205.218 25.176 205.036 24.6373 205.036 23.944V19.192H204.14C204.044 19.192 203.962 19.1627 203.892 19.104C203.823 19.04 203.788 18.9467 203.788 18.824V18.128L205.108 17.936L205.484 15.576C205.511 15.4853 205.556 15.4133 205.62 15.36C205.684 15.3013 205.77 15.272 205.876 15.272H206.756V17.952H209.02V19.192H206.756V23.824C206.756 24.1173 206.828 24.3413 206.972 24.496C207.116 24.6507 207.308 24.728 207.548 24.728C207.682 24.728 207.796 24.712 207.892 24.68C207.988 24.6427 208.071 24.6053 208.14 24.568C208.21 24.5253 208.268 24.488 208.316 24.456C208.37 24.4187 208.42 24.4 208.468 24.4C208.564 24.4 208.642 24.4533 208.7 24.56L209.212 25.4C208.946 25.6347 208.631 25.816 208.268 25.944C207.906 26.0667 207.532 26.128 207.148 26.128ZM212.168 17.84V26H210.448V17.84H212.168ZM212.456 15.376C212.456 15.5307 212.424 15.6773 212.36 15.816C212.301 15.9547 212.219 16.0773 212.112 16.184C212.005 16.2853 211.88 16.368 211.736 16.432C211.597 16.4907 211.448 16.52 211.288 16.52C211.133 16.52 210.987 16.4907 210.848 16.432C210.715 16.368 210.597 16.2853 210.496 16.184C210.395 16.0773 210.312 15.9547 210.248 15.816C210.189 15.6773 210.16 15.5307 210.16 15.376C210.16 15.216 210.189 15.0667 210.248 14.928C210.312 14.7893 210.395 14.6693 210.496 14.568C210.597 14.4613 210.715 14.3787 210.848 14.32C210.987 14.256 211.133 14.224 211.288 14.224C211.448 14.224 211.597 14.256 211.736 14.32C211.88 14.3787 212.005 14.4613 212.112 14.568C212.219 14.6693 212.301 14.7893 212.36 14.928C212.424 15.0667 212.456 15.216 212.456 15.376ZM217.857 17.712C218.46 17.712 219.004 17.8107 219.489 18.008C219.98 18.2053 220.396 18.4853 220.737 18.848C221.084 19.2107 221.351 19.6507 221.537 20.168C221.724 20.6853 221.817 21.2667 221.817 21.912C221.817 22.5573 221.724 23.1387 221.537 23.656C221.351 24.1733 221.084 24.616 220.737 24.984C220.396 25.3467 219.98 25.6267 219.489 25.824C219.004 26.0213 218.46 26.12 217.857 26.12C217.249 26.12 216.7 26.0213 216.209 25.824C215.724 25.6267 215.308 25.3467 214.961 24.984C214.615 24.616 214.348 24.1733 214.161 23.656C213.975 23.1387 213.881 22.5573 213.881 21.912C213.881 21.2667 213.975 20.6853 214.161 20.168C214.348 19.6507 214.615 19.2107 214.961 18.848C215.308 18.4853 215.724 18.2053 216.209 18.008C216.7 17.8107 217.249 17.712 217.857 17.712ZM217.857 24.776C218.593 24.776 219.14 24.5307 219.497 24.04C219.86 23.544 220.041 22.8373 220.041 21.92C220.041 21.0027 219.86 20.296 219.497 19.8C219.14 19.2987 218.593 19.048 217.857 19.048C217.111 19.048 216.556 19.2987 216.193 19.8C215.831 20.296 215.649 21.0027 215.649 21.92C215.649 22.8373 215.831 23.544 216.193 24.04C216.556 24.5307 217.111 24.776 217.857 24.776ZM225.078 18.92C225.254 18.7387 225.435 18.576 225.622 18.432C225.814 18.2827 226.017 18.1547 226.23 18.048C226.443 17.9413 226.67 17.8587 226.91 17.8C227.15 17.7413 227.411 17.712 227.694 17.712C228.142 17.712 228.534 17.7867 228.87 17.936C229.211 18.0853 229.497 18.296 229.726 18.568C229.961 18.84 230.137 19.168 230.254 19.552C230.371 19.9307 230.43 20.3493 230.43 20.808V26H228.718V20.808C228.718 20.2587 228.59 19.832 228.334 19.528C228.083 19.224 227.699 19.072 227.182 19.072C226.798 19.072 226.441 19.16 226.11 19.336C225.785 19.512 225.478 19.752 225.19 20.056V26H223.47V17.84H224.51C224.745 17.84 224.894 17.9493 224.958 18.168L225.078 18.92ZM242.191 19.44C242.138 19.5093 242.087 19.5627 242.039 19.6C241.991 19.6373 241.922 19.656 241.831 19.656C241.74 19.656 241.644 19.624 241.543 19.56C241.447 19.496 241.33 19.4267 241.191 19.352C241.058 19.272 240.895 19.2 240.703 19.136C240.511 19.072 240.271 19.04 239.983 19.04C239.61 19.04 239.282 19.1067 238.999 19.24C238.722 19.3733 238.487 19.5653 238.295 19.816C238.108 20.0613 237.967 20.3627 237.871 20.72C237.78 21.072 237.735 21.4693 237.735 21.912C237.735 22.3707 237.786 22.7787 237.887 23.136C237.988 23.4933 238.132 23.7947 238.319 24.04C238.511 24.2853 238.74 24.472 239.007 24.6C239.279 24.728 239.583 24.792 239.919 24.792C240.25 24.792 240.519 24.752 240.727 24.672C240.935 24.592 241.108 24.504 241.247 24.408C241.386 24.312 241.503 24.224 241.599 24.144C241.7 24.064 241.807 24.024 241.919 24.024C242.058 24.024 242.164 24.0773 242.239 24.184L242.727 24.816C242.53 25.056 242.311 25.2587 242.071 25.424C241.831 25.5893 241.578 25.7253 241.311 25.832C241.044 25.9333 240.767 26.0053 240.479 26.048C240.191 26.096 239.9 26.12 239.607 26.12C239.1 26.12 238.626 26.0267 238.183 25.84C237.746 25.648 237.362 25.3733 237.031 25.016C236.706 24.6533 236.447 24.2133 236.255 23.696C236.068 23.1733 235.975 22.5787 235.975 21.912C235.975 21.3093 236.06 20.752 236.231 20.24C236.402 19.7227 236.65 19.2773 236.975 18.904C237.306 18.5307 237.714 18.24 238.199 18.032C238.684 17.8187 239.244 17.712 239.879 17.712C240.471 17.712 240.991 17.808 241.439 18C241.892 18.192 242.295 18.464 242.647 18.816L242.191 19.44ZM247.498 17.712C248.101 17.712 248.645 17.8107 249.13 18.008C249.621 18.2053 250.037 18.4853 250.378 18.848C250.725 19.2107 250.991 19.6507 251.178 20.168C251.365 20.6853 251.458 21.2667 251.458 21.912C251.458 22.5573 251.365 23.1387 251.178 23.656C250.991 24.1733 250.725 24.616 250.378 24.984C250.037 25.3467 249.621 25.6267 249.13 25.824C248.645 26.0213 248.101 26.12 247.498 26.12C246.89 26.12 246.341 26.0213 245.85 25.824C245.365 25.6267 244.949 25.3467 244.602 24.984C244.255 24.616 243.989 24.1733 243.802 23.656C243.615 23.1387 243.522 22.5573 243.522 21.912C243.522 21.2667 243.615 20.6853 243.802 20.168C243.989 19.6507 244.255 19.2107 244.602 18.848C244.949 18.4853 245.365 18.2053 245.85 18.008C246.341 17.8107 246.89 17.712 247.498 17.712ZM247.498 24.776C248.234 24.776 248.781 24.5307 249.138 24.04C249.501 23.544 249.682 22.8373 249.682 21.92C249.682 21.0027 249.501 20.296 249.138 19.8C248.781 19.2987 248.234 19.048 247.498 19.048C246.751 19.048 246.197 19.2987 245.834 19.8C245.471 20.296 245.29 21.0027 245.29 21.92C245.29 22.8373 245.471 23.544 245.834 24.04C246.197 24.5307 246.751 24.776 247.498 24.776ZM258.319 19.848C258.079 19.5387 257.815 19.3227 257.527 19.2C257.239 19.0773 256.927 19.016 256.591 19.016C255.919 19.016 255.393 19.264 255.015 19.76C254.636 20.2507 254.447 20.9787 254.447 21.944C254.447 22.4453 254.489 22.8747 254.575 23.232C254.66 23.584 254.783 23.872 254.943 24.096C255.103 24.32 255.297 24.4827 255.527 24.584C255.756 24.6853 256.015 24.736 256.303 24.736C256.74 24.736 257.116 24.6427 257.431 24.456C257.751 24.264 258.047 23.9947 258.319 23.648V19.848ZM260.039 14.16V26H258.999C258.769 26 258.623 25.8907 258.559 25.672L258.407 24.784C258.065 25.184 257.676 25.5067 257.239 25.752C256.807 25.9973 256.303 26.12 255.727 26.12C255.268 26.12 254.852 26.0293 254.479 25.848C254.105 25.6613 253.785 25.392 253.519 25.04C253.252 24.688 253.044 24.2533 252.895 23.736C252.751 23.2133 252.679 22.616 252.679 21.944C252.679 21.336 252.759 20.7733 252.919 20.256C253.084 19.7387 253.319 19.2907 253.623 18.912C253.927 18.528 254.295 18.2293 254.727 18.016C255.164 17.7973 255.652 17.688 256.191 17.688C256.671 17.688 257.079 17.7653 257.415 17.92C257.751 18.0693 258.052 18.28 258.319 18.552V14.16H260.039ZM267.494 21C267.494 20.712 267.451 20.4453 267.366 20.2C267.286 19.9493 267.166 19.7333 267.006 19.552C266.846 19.3653 266.646 19.2213 266.406 19.12C266.171 19.0133 265.899 18.96 265.59 18.96C264.966 18.96 264.475 19.1387 264.118 19.496C263.76 19.8533 263.534 20.3547 263.438 21H267.494ZM263.39 22.056C263.411 22.52 263.483 22.9227 263.606 23.264C263.728 23.6 263.891 23.88 264.094 24.104C264.302 24.328 264.547 24.496 264.83 24.608C265.118 24.7147 265.438 24.768 265.79 24.768C266.126 24.768 266.416 24.7307 266.662 24.656C266.907 24.576 267.12 24.4907 267.302 24.4C267.483 24.304 267.638 24.2187 267.766 24.144C267.894 24.064 268.011 24.024 268.118 24.024C268.256 24.024 268.363 24.0773 268.438 24.184L268.926 24.816C268.723 25.056 268.494 25.2587 268.238 25.424C267.982 25.5893 267.71 25.7253 267.422 25.832C267.134 25.9333 266.838 26.0053 266.534 26.048C266.23 26.096 265.934 26.12 265.646 26.12C265.08 26.12 264.555 26.0267 264.07 25.84C263.59 25.648 263.171 25.368 262.814 25C262.462 24.632 262.184 24.176 261.982 23.632C261.784 23.088 261.686 22.4613 261.686 21.752C261.686 21.1867 261.774 20.6587 261.95 20.168C262.131 19.6773 262.387 19.2507 262.718 18.888C263.054 18.5253 263.459 18.24 263.934 18.032C264.414 17.8187 264.955 17.712 265.558 17.712C266.059 17.712 266.523 17.7947 266.95 17.96C267.376 18.12 267.744 18.3573 268.054 18.672C268.363 18.9867 268.603 19.3733 268.774 19.832C268.95 20.2853 269.038 20.8027 269.038 21.384C269.038 21.6507 269.008 21.8293 268.95 21.92C268.891 22.0107 268.784 22.056 268.63 22.056H263.39Z" fill="#52575C"/>
<rect x="0.5" y="0.5" width="326" height="41" rx="19.5" stroke="#1470A4"/>
</svg>
