<svg width="24" height="24" viewBox="0 0 24 24" fill="none" xmlns="http://www.w3.org/2000/svg">
<path d="M21.0525 16.9951L19.77 15.1501C19.5949 14.8993 19.5007 14.6009 19.5 14.2951V9.00006C19.5 7.01094 18.7098 5.10328 17.3033 3.69676C15.8968 2.29024 13.9891 1.50006 12 1.50006C10.0109 1.50006 8.10322 2.29024 6.6967 3.69676C5.29017 5.10328 4.5 7.01094 4.5 9.00006V14.2951C4.49927 14.6009 4.40506 14.8993 4.23 15.1501L2.9475 16.9951C2.75331 17.2102 2.62561 17.477 2.57985 17.7632C2.53409 18.0494 2.57222 18.3428 2.68964 18.6077C2.80706 18.8727 2.99873 19.098 3.24148 19.2564C3.48423 19.4147 3.76766 19.4994 4.0575 19.5001H8.325C8.49713 20.3478 8.95705 21.1099 9.6268 21.6573C10.2966 22.2048 11.135 22.5038 12 22.5038C12.865 22.5038 13.7034 22.2048 14.3732 21.6573C15.043 21.1099 15.5029 20.3478 15.675 19.5001H19.9425C20.2323 19.4994 20.5158 19.4147 20.7585 19.2564C21.0013 19.098 21.1929 18.8727 21.3104 18.6077C21.4278 18.3428 21.4659 18.0494 21.4201 17.7632C21.3744 17.477 21.2467 17.2102 21.0525 16.9951ZM12 21.0001C11.5358 20.9988 11.0833 20.8539 10.7047 20.5854C10.3261 20.3168 10.0397 19.9377 9.885 19.5001H14.115C13.9603 19.9377 13.6739 20.3168 13.2953 20.5854C12.9166 20.8539 12.4642 20.9988 12 21.0001ZM4.0575 18.0001C4.0914 17.9686 4.12159 17.9334 4.1475 17.8951L5.46 16.0051C5.81013 15.5034 5.99855 14.9068 6 14.2951V9.00006C6 7.40876 6.63214 5.88264 7.75736 4.75742C8.88258 3.6322 10.4087 3.00006 12 3.00006C13.5913 3.00006 15.1174 3.6322 16.2426 4.75742C17.3679 5.88264 18 7.40876 18 9.00006V14.2951C18.0014 14.9068 18.1899 15.5034 18.54 16.0051L19.8525 17.8951C19.8784 17.9334 19.9086 17.9686 19.9425 18.0001H4.0575Z" fill="black"/>
</svg>
