<svg width="46" height="52" viewBox="0 0 46 52" fill="none" xmlns="http://www.w3.org/2000/svg">
<g clip-path="url(#clip0_3143_13458)">
<path fill-rule="evenodd" clip-rule="evenodd" d="M40.9967 25.4892C41.2017 25.6026 41.4339 25.6575 41.668 25.6479C41.9021 25.6382 42.129 25.5644 42.3239 25.4345C42.5189 25.3045 42.6744 25.1235 42.7734 24.9112C42.8724 24.6988 42.9111 24.4633 42.8854 24.2304C42.8596 23.9976 42.7703 23.7762 42.6273 23.5907C42.4842 23.4051 42.2929 23.2625 42.0743 23.1783C41.8556 23.0942 41.6181 23.0718 41.3876 23.1136C41.157 23.1553 40.9424 23.2597 40.7672 23.4152L33.0095 18.8438C33.032 18.7762 33.0511 18.7083 33.068 18.6398L40.7794 20.0409C40.8332 20.2675 40.9633 20.4687 41.1479 20.6106C41.3325 20.7526 41.5603 20.8266 41.7931 20.8204C42.0259 20.8141 42.2494 20.728 42.4261 20.5763C42.6028 20.4247 42.722 20.2168 42.7636 19.9877C42.8051 19.7585 42.7666 19.5221 42.6544 19.318C42.5422 19.1139 42.3632 18.9547 42.1475 18.867C41.9317 18.7794 41.6924 18.7687 41.4697 18.8367C41.247 18.9048 41.0545 19.0474 40.9246 19.2406L33.1371 17.8257C33.1306 17.7299 33.119 17.6345 33.1021 17.5399L39.4022 15.968C39.442 16.0034 39.4857 16.0341 39.5324 16.0596C39.66 16.1301 39.8056 16.1613 39.9508 16.1491C40.096 16.1369 40.2344 16.0819 40.3484 15.991C40.4624 15.9002 40.5469 15.7776 40.5912 15.6387C40.6356 15.4998 40.6377 15.3509 40.5974 15.2108C40.5572 15.0707 40.4763 14.9457 40.365 14.8516C40.2537 14.7575 40.1169 14.6985 39.9721 14.6821C39.8273 14.6656 39.6808 14.6925 39.5513 14.7593C39.4218 14.8262 39.3149 14.9299 39.2443 15.0574C39.2222 15.0977 39.2039 15.1399 39.1895 15.1835L32.84 16.7674C32.7815 16.6544 32.7149 16.5458 32.6408 16.4423L35.9096 14.0823C36.156 14.259 36.4573 14.3423 36.7595 14.3173C37.0616 14.2922 37.3451 14.1606 37.5592 13.9458C37.7732 13.731 37.904 13.447 37.928 13.1447C37.952 12.8424 37.8678 12.5414 37.6903 12.2954C37.5128 12.0495 37.2537 11.8747 36.9593 11.8023C36.6648 11.7298 36.3542 11.7645 36.083 11.9C35.8117 12.0355 35.5974 12.2631 35.4785 12.5421C35.3595 12.8211 35.3437 13.1332 35.4337 13.4229L32.0646 15.8551C32.0026 15.8092 31.9382 15.7651 31.8712 15.724L33.6484 10.8211C33.9524 10.8082 34.2418 10.6876 34.465 10.4809C34.6883 10.2742 34.8307 9.99487 34.867 9.69278C34.9032 9.39069 34.8308 9.08556 34.6628 8.83193C34.4948 8.57829 34.2421 8.39268 33.9498 8.30827C33.6575 8.22386 33.3448 8.24615 33.0674 8.37115C32.7901 8.49616 32.5662 8.71573 32.4359 8.99064C32.3055 9.26554 32.2771 9.57785 32.3558 9.87174C32.4345 10.1656 32.6151 10.422 32.8654 10.5949L31.1222 15.405C31.0451 15.3853 30.968 15.3693 30.8902 15.3567L30.7373 11.9896C30.9537 11.9084 31.1359 11.7558 31.2537 11.5569C31.3715 11.358 31.4177 11.1248 31.3849 10.896C31.352 10.6672 31.242 10.4565 31.073 10.2988C30.904 10.1411 30.6862 10.0459 30.4557 10.029C30.2252 10.0121 29.9959 10.0744 29.8056 10.2057C29.6154 10.3369 29.4758 10.5293 29.4098 10.7508C29.3438 10.9724 29.3555 11.2098 29.443 11.4238C29.5304 11.6377 29.6883 11.8154 29.8905 11.9273C29.9007 11.9331 29.9114 11.9385 29.9218 11.9438L30.0764 15.3501C29.6733 15.4086 29.2888 15.5578 28.9516 15.7863C28.7181 15.2838 28.6248 14.5273 28.5254 13.532C28.2779 11.0557 27.9857 8.75419 28.1665 6.19978C28.2309 5.29059 27.7256 5.59047 27.0351 5.59047C26.3447 5.59047 25.8392 5.29068 25.9036 6.19978C26.0843 8.7541 25.7922 11.0557 25.5446 13.532C25.37 15.2773 25.2151 16.2882 24.289 16.4814C24.2947 14.5127 23.3898 9.89263 21.663 9.88954C18.7923 9.88458 16.0161 14.2442 14.5601 17.5863C13.1129 20.9084 12.3749 26.6942 12.4831 30.7488C12.6591 37.3494 13.5023 35.4288 17.3456 32.9884C20.3417 31.0862 21.7059 34.543 23.1453 30.1222C24.435 26.1614 24.5729 24.1542 24.4233 18.7836C24.9333 18.5963 25.4052 17.8332 25.9059 17.2769C26.558 16.5531 27.2817 16.4816 27.9479 17.063C27.7533 17.5821 27.7241 18.1488 27.8643 18.6852C28.0044 19.2215 28.3071 19.7014 28.7308 20.0589L27.7578 24.9136C27.5744 24.9692 27.4148 25.0845 27.3044 25.2411C27.194 25.3978 27.139 25.5868 27.1483 25.7783C27.1575 25.9697 27.2305 26.1526 27.3555 26.2979C27.4805 26.4431 27.6505 26.5425 27.8384 26.5801C28.0263 26.6178 28.2214 26.5916 28.3927 26.5057C28.564 26.4198 28.7017 26.2791 28.784 26.106C28.8663 25.9329 28.8884 25.7373 28.8468 25.5501C28.8053 25.363 28.7024 25.1952 28.5546 25.0732L29.4709 20.5015C29.5389 20.5281 29.6072 20.5521 29.6763 20.5732L31.1085 30.2203C30.9117 30.3439 30.7634 30.5316 30.6886 30.7517C30.6137 30.9719 30.6169 31.211 30.6976 31.4291C30.7782 31.6472 30.9315 31.8308 31.1315 31.9492C31.3316 32.0676 31.5663 32.1136 31.7962 32.0794C32.0262 32.0451 32.2373 31.9328 32.3942 31.7613C32.5512 31.5897 32.6443 31.3694 32.6579 31.1373C32.6716 30.9052 32.605 30.6754 32.4693 30.4867C32.3336 30.2979 32.1371 30.1615 31.9128 30.1005L30.5152 20.6897C30.6297 20.6872 30.7439 20.6774 30.8571 20.6605L36.6667 32.565C36.3901 32.8395 36.2229 33.2053 36.1963 33.5942C36.1697 33.983 36.2856 34.3682 36.5223 34.6778C36.7591 34.9874 37.1004 35.2002 37.4825 35.2764C37.8647 35.3526 38.2615 35.2871 38.5989 35.092C38.9362 34.897 39.191 34.5857 39.3156 34.2164C39.4403 33.8472 39.4262 33.4452 39.276 33.0855C39.1259 32.7259 38.85 32.4332 38.4998 32.2622C38.1496 32.0912 37.7492 32.0536 37.3733 32.1564L31.6533 20.4103C31.7413 20.3666 31.8269 20.3182 31.9097 20.2653L40.7226 29.1009C40.7135 29.1397 40.7069 29.179 40.7028 29.2186C40.6793 29.4353 40.7288 29.6536 40.8435 29.8389C40.9582 30.0242 41.1314 30.1659 41.3357 30.2415C41.54 30.3172 41.7638 30.3224 41.9714 30.2564C42.1791 30.1905 42.3588 30.057 42.482 29.8773C42.6052 29.6976 42.6649 29.4819 42.6516 29.2644C42.6384 29.0469 42.5529 28.84 42.4087 28.6767C42.2645 28.5133 42.0699 28.4027 41.8558 28.3625C41.6417 28.3223 41.4202 28.3547 41.2266 28.4547L32.5202 19.7261C32.55 19.6901 32.5794 19.6529 32.6076 19.6154L40.361 24.1277C40.3097 24.3927 40.3436 24.6671 40.4578 24.9117C40.572 25.1563 40.7606 25.3584 40.9967 25.4892ZM41.3279 19.5659C41.3755 19.4792 41.4478 19.4086 41.5355 19.3629C41.6233 19.3173 41.7226 19.2987 41.8209 19.3095C41.9192 19.3204 42.0121 19.3601 42.0879 19.4237C42.1636 19.4874 42.2188 19.572 42.2464 19.667C42.274 19.762 42.2729 19.863 42.2431 19.9574C42.2133 20.0517 42.1562 20.1351 42.079 20.197C42.0018 20.2588 41.9081 20.2964 41.8095 20.305C41.711 20.3136 41.6121 20.2927 41.5254 20.2451C41.4092 20.1812 41.323 20.0738 41.286 19.9464C41.2489 19.8191 41.2639 19.6822 41.3277 19.5659H41.3279ZM36.139 12.4926C36.248 12.3907 36.3847 12.3235 36.5318 12.2993C36.679 12.2752 36.83 12.2952 36.9658 12.3569C37.1015 12.4186 37.216 12.5191 37.2946 12.6459C37.3732 12.7726 37.4125 12.9198 37.4075 13.0689C37.4025 13.2179 37.3534 13.3622 37.2665 13.4833C37.1795 13.6045 37.0586 13.6971 36.919 13.7496C36.7794 13.802 36.6273 13.8118 36.4821 13.7778C36.3369 13.7439 36.2051 13.6676 36.1032 13.5586C36.0356 13.4863 35.9828 13.4013 35.948 13.3086C35.9132 13.2159 35.897 13.1172 35.9003 13.0182C35.9037 12.9192 35.9264 12.8218 35.9674 12.7316C36.0084 12.6414 36.0667 12.5602 36.139 12.4926ZM31.2084 30.8387C31.256 30.752 31.3283 30.6814 31.416 30.6358C31.5038 30.5902 31.6031 30.5716 31.7014 30.5824C31.7997 30.5932 31.8925 30.633 31.9683 30.6966C32.044 30.7602 32.0992 30.8449 32.1268 30.9398C32.1544 31.0348 32.1532 31.1358 32.1235 31.2302C32.0937 31.3245 32.0366 31.4079 31.9594 31.4697C31.8823 31.5316 31.7885 31.5692 31.69 31.5778C31.5915 31.5864 31.4926 31.5655 31.4059 31.5179C31.2897 31.454 31.2037 31.3465 31.1666 31.2192C31.1296 31.0918 31.1446 30.955 31.2084 30.8387ZM37.1502 33.0109C37.2869 32.8831 37.4583 32.7987 37.6429 32.7684C37.8275 32.7381 38.0169 32.7632 38.1872 32.8406C38.3576 32.9179 38.5011 33.0441 38.5998 33.203C38.6984 33.362 38.7477 33.5466 38.7414 33.7336C38.7351 33.9206 38.6735 34.1015 38.5644 34.2535C38.4553 34.4055 38.3036 34.5217 38.1285 34.5874C37.9534 34.6532 37.7627 34.6655 37.5805 34.6228C37.3984 34.5802 37.233 34.4845 37.1053 34.3478C36.9341 34.1645 36.8427 33.9207 36.8511 33.67C36.8596 33.4193 36.9672 33.1822 37.1504 33.0109H37.1502ZM29.9444 10.7977C29.9923 10.7111 30.0648 10.6408 30.1527 10.5954C30.2406 10.5501 30.3399 10.5319 30.4382 10.543C30.5365 10.5542 30.6292 10.5942 30.7047 10.6581C30.7802 10.722 30.8351 10.8068 30.8624 10.9019C30.8897 10.997 30.8882 11.098 30.858 11.1922C30.8279 11.2864 30.7706 11.3696 30.6932 11.4312C30.6158 11.4928 30.5219 11.53 30.4234 11.5383C30.3248 11.5465 30.226 11.5253 30.1395 11.4774C30.0236 11.4131 29.9379 11.3054 29.9013 11.1779C29.8647 11.0505 29.8802 10.9137 29.9444 10.7977ZM31.8937 18.8005C31.7366 19.0842 31.499 19.3149 31.2108 19.4634C30.9227 19.612 30.5969 19.6718 30.2748 19.6352C29.9527 19.5986 29.6486 19.4673 29.4011 19.2579C29.1536 19.0485 28.9737 18.7704 28.8842 18.4587C28.7947 18.147 28.7997 17.8158 28.8984 17.507C28.9971 17.1981 29.1852 16.9255 29.4388 16.7235C29.6925 16.5216 30.0003 16.3994 30.3233 16.3724C30.6464 16.3454 30.9702 16.4149 31.2539 16.572C31.4422 16.6763 31.6081 16.8167 31.7422 16.9851C31.8763 17.1536 31.9759 17.3468 32.0353 17.5537C32.0947 17.7607 32.1128 17.9773 32.0885 18.1913C32.0642 18.4052 31.998 18.6122 31.8937 18.8006V18.8005Z" fill="url(#paint0_linear_3143_13458)"/>
</g>
<path fill-rule="evenodd" clip-rule="evenodd" d="M12.6173 40.3384C12.6173 40.3384 15.7475 37.0552 20.335 37.8746C25.9052 38.8696 28.2768 40.3799 33.5177 38.2049C35.4289 43.6752 29.0382 43.4939 25.6449 43.4166C19.0605 43.2674 27.1688 47.8272 33.5751 45.9022C36.3172 45.1464 39.8884 43.747 42.3865 42.1422C44.8845 40.5374 45.533 42.3849 45.533 42.3849C33.0266 61.9343 -1.87955 49.6358 0.0792044 23.7978C1.2425 8.45199 16.2947 -4.81683 34.4948 1.69864C34.7934 1.80558 35.0888 1.91731 35.3809 2.03384C7.90294 -6.65406 -4.19278 29.918 12.6173 40.3384ZM31.8624 45.2013C31.8624 45.2013 38.118 41.7109 39.8682 39.8079C40.2826 39.1537 40.739 38.6665 41.253 38.4136C41.253 38.4136 39.9382 37.4863 38.9672 38.6623C37.9962 39.8382 36.2822 41.9134 31.8624 45.2008V45.2013ZM32.1232 45.7288C32.1232 45.7288 38.7971 44.2397 43.0931 41.0236L44.5302 39.872C43.1601 37.8953 41.4387 38.1049 40.1111 40.3218C38.9327 41.8199 32.1232 45.7288 32.1232 45.7288Z" fill="url(#paint1_linear_3143_13458)"/>
<defs>
<linearGradient id="paint0_linear_3143_13458" x1="36.5048" y1="9.73986" x2="20.2322" y2="39.183" gradientUnits="userSpaceOnUse">
<stop stop-color="#008DD5"/>
<stop offset="0.995" stop-color="#1470A4"/>
</linearGradient>
<linearGradient id="paint1_linear_3143_13458" x1="22.7665" y1="0" x2="22.7665" y2="52" gradientUnits="userSpaceOnUse">
<stop stop-color="#38B6FF"/>
<stop offset="1" stop-color="#1470A4"/>
</linearGradient>
<clipPath id="clip0_3143_13458">
<rect width="30.4213" height="29.7614" fill="white" transform="translate(12.4721 5.54312)"/>
</clipPath>
</defs>
</svg>
