<svg width="327" height="42" viewBox="0 0 327 42" fill="none" xmlns="http://www.w3.org/2000/svg">
<rect width="327" height="42" rx="20" fill="#1470A4"/>
<path d="M139.153 20.48C139.595 20.48 139.985 20.4213 140.321 20.304C140.662 20.1867 140.947 20.024 141.177 19.816C141.411 19.6027 141.587 19.3493 141.705 19.056C141.822 18.7627 141.881 18.44 141.881 18.088C141.881 17.3573 141.654 16.7867 141.201 16.376C140.753 15.9653 140.07 15.76 139.153 15.76H137.313V20.48H139.153ZM139.153 14.536C139.878 14.536 140.507 14.6213 141.041 14.792C141.579 14.9573 142.025 15.1947 142.377 15.504C142.729 15.8133 142.99 16.1867 143.161 16.624C143.337 17.0613 143.425 17.5493 143.425 18.088C143.425 18.6213 143.331 19.1093 143.145 19.552C142.958 19.9947 142.683 20.376 142.321 20.696C141.963 21.016 141.518 21.2667 140.985 21.448C140.457 21.624 139.846 21.712 139.153 21.712H137.313V26H135.769V14.536H139.153ZM146.238 19.52C146.494 18.9653 146.808 18.5333 147.182 18.224C147.555 17.9093 148.011 17.752 148.55 17.752C148.72 17.752 148.883 17.7707 149.038 17.808C149.198 17.8453 149.339 17.904 149.462 17.984L149.358 19.048C149.326 19.1813 149.246 19.248 149.118 19.248C149.043 19.248 148.934 19.232 148.79 19.2C148.646 19.168 148.483 19.152 148.302 19.152C148.046 19.152 147.816 19.1893 147.614 19.264C147.416 19.3387 147.238 19.4507 147.078 19.6C146.923 19.744 146.782 19.9253 146.654 20.144C146.531 20.3573 146.419 20.6027 146.318 20.88V26H144.886V17.896H145.702C145.856 17.896 145.963 17.9253 146.022 17.984C146.08 18.0427 146.12 18.144 146.142 18.288L146.238 19.52ZM153.802 17.768C154.394 17.768 154.927 17.8667 155.402 18.064C155.876 18.2613 156.282 18.5413 156.618 18.904C156.954 19.2667 157.21 19.7067 157.386 20.224C157.567 20.736 157.658 21.3093 157.658 21.944C157.658 22.584 157.567 23.16 157.386 23.672C157.21 24.184 156.954 24.6213 156.618 24.984C156.282 25.3467 155.876 25.6267 155.402 25.824C154.927 26.016 154.394 26.112 153.802 26.112C153.204 26.112 152.666 26.016 152.186 25.824C151.711 25.6267 151.306 25.3467 150.97 24.984C150.634 24.6213 150.375 24.184 150.194 23.672C150.018 23.16 149.93 22.584 149.93 21.944C149.93 21.3093 150.018 20.736 150.194 20.224C150.375 19.7067 150.634 19.2667 150.97 18.904C151.306 18.5413 151.711 18.2613 152.186 18.064C152.666 17.8667 153.204 17.768 153.802 17.768ZM153.802 25C154.602 25 155.199 24.7333 155.594 24.2C155.988 23.6613 156.186 22.912 156.186 21.952C156.186 20.9867 155.988 20.2347 155.594 19.696C155.199 19.1573 154.602 18.888 153.802 18.888C153.396 18.888 153.042 18.9573 152.738 19.096C152.439 19.2347 152.188 19.4347 151.986 19.696C151.788 19.9573 151.639 20.28 151.538 20.664C151.442 21.0427 151.394 21.472 151.394 21.952C151.394 22.912 151.591 23.6613 151.986 24.2C152.386 24.7333 152.991 25 153.802 25ZM165.104 19.336C165.061 19.3947 165.019 19.44 164.976 19.472C164.933 19.504 164.875 19.52 164.8 19.52C164.72 19.52 164.632 19.488 164.536 19.424C164.44 19.3547 164.32 19.28 164.176 19.2C164.037 19.12 163.864 19.048 163.656 18.984C163.453 18.9147 163.203 18.88 162.904 18.88C162.504 18.88 162.152 18.952 161.848 19.096C161.544 19.2347 161.288 19.4373 161.08 19.704C160.877 19.9707 160.723 20.2933 160.616 20.672C160.515 21.0507 160.464 21.4747 160.464 21.944C160.464 22.4347 160.52 22.872 160.632 23.256C160.744 23.6347 160.901 23.9547 161.104 24.216C161.312 24.472 161.56 24.6693 161.848 24.808C162.141 24.9413 162.469 25.008 162.832 25.008C163.179 25.008 163.464 24.968 163.688 24.888C163.912 24.8027 164.096 24.7093 164.24 24.608C164.389 24.5067 164.512 24.416 164.608 24.336C164.709 24.2507 164.808 24.208 164.904 24.208C165.021 24.208 165.112 24.2533 165.176 24.344L165.576 24.864C165.4 25.0827 165.2 25.2693 164.976 25.424C164.752 25.5787 164.509 25.7093 164.248 25.816C163.992 25.9173 163.723 25.992 163.44 26.04C163.157 26.088 162.869 26.112 162.576 26.112C162.069 26.112 161.597 26.0187 161.16 25.832C160.728 25.6453 160.352 25.376 160.032 25.024C159.712 24.6667 159.461 24.2293 159.28 23.712C159.099 23.1947 159.008 22.6053 159.008 21.944C159.008 21.3413 159.091 20.784 159.256 20.272C159.427 19.76 159.672 19.32 159.992 18.952C160.317 18.5787 160.715 18.288 161.184 18.08C161.659 17.872 162.203 17.768 162.816 17.768C163.387 17.768 163.888 17.8613 164.32 18.048C164.757 18.2293 165.144 18.488 165.48 18.824L165.104 19.336ZM172.388 21.064C172.388 20.7333 172.34 20.432 172.244 20.16C172.153 19.8827 172.017 19.6453 171.836 19.448C171.66 19.2453 171.444 19.0907 171.188 18.984C170.932 18.872 170.641 18.816 170.316 18.816C169.633 18.816 169.092 19.016 168.692 19.416C168.297 19.8107 168.052 20.36 167.956 21.064H172.388ZM173.54 24.864C173.364 25.0773 173.153 25.264 172.908 25.424C172.663 25.5787 172.399 25.7067 172.116 25.808C171.839 25.9093 171.551 25.984 171.252 26.032C170.953 26.0853 170.657 26.112 170.364 26.112C169.804 26.112 169.287 26.0187 168.812 25.832C168.343 25.64 167.935 25.3627 167.588 25C167.247 24.632 166.98 24.1787 166.788 23.64C166.596 23.1013 166.5 22.4827 166.5 21.784C166.5 21.2187 166.585 20.6907 166.756 20.2C166.932 19.7093 167.183 19.2853 167.508 18.928C167.833 18.5653 168.231 18.2827 168.7 18.08C169.169 17.872 169.697 17.768 170.284 17.768C170.769 17.768 171.217 17.8507 171.628 18.016C172.044 18.176 172.401 18.4107 172.7 18.72C173.004 19.024 173.241 19.4027 173.412 19.856C173.583 20.304 173.668 20.816 173.668 21.392C173.668 21.616 173.644 21.7653 173.596 21.84C173.548 21.9147 173.457 21.952 173.324 21.952H167.908C167.924 22.464 167.993 22.9093 168.116 23.288C168.244 23.6667 168.42 23.984 168.644 24.24C168.868 24.4907 169.135 24.68 169.444 24.808C169.753 24.9307 170.1 24.992 170.484 24.992C170.841 24.992 171.148 24.952 171.404 24.872C171.665 24.7867 171.889 24.696 172.076 24.6C172.263 24.504 172.417 24.416 172.54 24.336C172.668 24.2507 172.777 24.208 172.868 24.208C172.985 24.208 173.076 24.2533 173.14 24.344L173.54 24.864ZM180.841 21.064C180.841 20.7333 180.793 20.432 180.697 20.16C180.606 19.8827 180.47 19.6453 180.289 19.448C180.113 19.2453 179.897 19.0907 179.641 18.984C179.385 18.872 179.094 18.816 178.769 18.816C178.086 18.816 177.545 19.016 177.145 19.416C176.75 19.8107 176.505 20.36 176.409 21.064H180.841ZM181.993 24.864C181.817 25.0773 181.606 25.264 181.361 25.424C181.116 25.5787 180.852 25.7067 180.569 25.808C180.292 25.9093 180.004 25.984 179.705 26.032C179.406 26.0853 179.11 26.112 178.817 26.112C178.257 26.112 177.74 26.0187 177.265 25.832C176.796 25.64 176.388 25.3627 176.041 25C175.7 24.632 175.433 24.1787 175.241 23.64C175.049 23.1013 174.953 22.4827 174.953 21.784C174.953 21.2187 175.038 20.6907 175.209 20.2C175.385 19.7093 175.636 19.2853 175.961 18.928C176.286 18.5653 176.684 18.2827 177.153 18.08C177.622 17.872 178.15 17.768 178.737 17.768C179.222 17.768 179.67 17.8507 180.081 18.016C180.497 18.176 180.854 18.4107 181.153 18.72C181.457 19.024 181.694 19.4027 181.865 19.856C182.036 20.304 182.121 20.816 182.121 21.392C182.121 21.616 182.097 21.7653 182.049 21.84C182.001 21.9147 181.91 21.952 181.777 21.952H176.361C176.377 22.464 176.446 22.9093 176.569 23.288C176.697 23.6667 176.873 23.984 177.097 24.24C177.321 24.4907 177.588 24.68 177.897 24.808C178.206 24.9307 178.553 24.992 178.937 24.992C179.294 24.992 179.601 24.952 179.857 24.872C180.118 24.7867 180.342 24.696 180.529 24.6C180.716 24.504 180.87 24.416 180.993 24.336C181.121 24.2507 181.23 24.208 181.321 24.208C181.438 24.208 181.529 24.2533 181.593 24.344L181.993 24.864ZM189.15 19.824C188.884 19.4667 188.596 19.2187 188.286 19.08C187.977 18.936 187.63 18.864 187.246 18.864C186.494 18.864 185.916 19.1333 185.51 19.672C185.105 20.2107 184.902 20.9787 184.902 21.976C184.902 22.504 184.948 22.9573 185.038 23.336C185.129 23.7093 185.262 24.0187 185.438 24.264C185.614 24.504 185.83 24.68 186.086 24.792C186.342 24.904 186.633 24.96 186.958 24.96C187.428 24.96 187.836 24.8533 188.182 24.64C188.534 24.4267 188.857 24.1253 189.15 23.736V19.824ZM190.574 14.216V26H189.726C189.524 26 189.396 25.9013 189.342 25.704L189.214 24.72C188.868 25.136 188.473 25.472 188.03 25.728C187.588 25.984 187.076 26.112 186.494 26.112C186.03 26.112 185.609 26.024 185.23 25.848C184.852 25.6667 184.529 25.4027 184.262 25.056C183.996 24.7093 183.79 24.2773 183.646 23.76C183.502 23.2427 183.43 22.648 183.43 21.976C183.43 21.3787 183.51 20.824 183.67 20.312C183.83 19.7947 184.06 19.3467 184.358 18.968C184.657 18.5893 185.022 18.2933 185.454 18.08C185.892 17.8613 186.382 17.752 186.926 17.752C187.422 17.752 187.846 17.8373 188.198 18.008C188.556 18.1733 188.873 18.4053 189.15 18.704V14.216H190.574Z" fill="white"/>
</svg>
