<svg width="327" height="42" viewBox="0 0 327 42" fill="none" xmlns="http://www.w3.org/2000/svg">
<rect width="327" height="42" rx="20" fill="#1470A4"/>
<path d="M80.2558 26H78.3758V14.48H80.2558V26ZM88.3696 18.808C88.7056 18.4773 89.0736 18.2133 89.4736 18.016C89.8736 17.8133 90.3402 17.712 90.8736 17.712C91.3216 17.712 91.7136 17.7867 92.0496 17.936C92.3909 18.0853 92.6762 18.296 92.9056 18.568C93.1402 18.84 93.3162 19.168 93.4336 19.552C93.5509 19.9307 93.6096 20.3493 93.6096 20.808V26H91.8976V20.808C91.8976 20.2587 91.7696 19.832 91.5136 19.528C91.2629 19.224 90.8789 19.072 90.3616 19.072C89.9776 19.072 89.6202 19.16 89.2896 19.336C88.9642 19.512 88.6576 19.752 88.3696 20.056V26H86.6496V14.16H88.3696V18.808ZM99.9783 22.432C99.365 22.4533 98.8476 22.504 98.4263 22.584C98.005 22.6587 97.6636 22.7573 97.4023 22.88C97.141 22.9973 96.9516 23.1387 96.8343 23.304C96.7223 23.4693 96.6663 23.6507 96.6663 23.848C96.6663 24.04 96.6956 24.2053 96.7543 24.344C96.8183 24.4773 96.9036 24.5893 97.0103 24.68C97.1223 24.7653 97.2503 24.8293 97.3943 24.872C97.5436 24.9093 97.7063 24.928 97.8823 24.928C98.3303 24.928 98.7143 24.8453 99.0343 24.68C99.3596 24.5093 99.6743 24.264 99.9783 23.944V22.432ZM95.4183 18.976C96.341 18.1173 97.4396 17.688 98.7143 17.688C99.1836 17.688 99.5996 17.7653 99.9623 17.92C100.33 18.0693 100.637 18.2827 100.882 18.56C101.133 18.8373 101.322 19.168 101.45 19.552C101.584 19.9307 101.65 20.352 101.65 20.816V26H100.882C100.717 26 100.592 25.976 100.506 25.928C100.421 25.8747 100.349 25.7707 100.29 25.616L100.122 24.952C99.9143 25.1387 99.709 25.3067 99.5063 25.456C99.3036 25.6 99.093 25.7227 98.8743 25.824C98.661 25.9253 98.429 26 98.1783 26.048C97.933 26.1013 97.661 26.128 97.3623 26.128C97.0316 26.128 96.7223 26.0827 96.4343 25.992C96.1516 25.9013 95.9063 25.7653 95.6983 25.584C95.4903 25.3973 95.325 25.168 95.2023 24.896C95.085 24.624 95.0263 24.304 95.0263 23.936C95.0263 23.6213 95.109 23.3147 95.2743 23.016C95.445 22.7173 95.7223 22.4507 96.1063 22.216C96.4956 21.976 97.005 21.7787 97.6343 21.624C98.269 21.4693 99.0503 21.3813 99.9783 21.36V20.816C99.9783 20.2293 99.853 19.792 99.6023 19.504C99.3516 19.216 98.9836 19.072 98.4983 19.072C98.1676 19.072 97.8903 19.1147 97.6663 19.2C97.4423 19.28 97.2476 19.368 97.0823 19.464C96.917 19.56 96.7703 19.6507 96.6423 19.736C96.5143 19.816 96.3783 19.856 96.2343 19.856C96.117 19.856 96.0156 19.8267 95.9303 19.768C95.8503 19.704 95.7836 19.6267 95.7303 19.536L95.4183 18.976ZM110.662 17.84L107.382 26H105.83L102.55 17.84H103.966C104.099 17.84 104.208 17.8747 104.294 17.944C104.384 18.008 104.443 18.0853 104.47 18.176L106.278 22.928C106.352 23.152 106.419 23.3733 106.478 23.592C106.536 23.8107 106.587 24.032 106.63 24.256C106.672 24.032 106.723 23.8133 106.782 23.6C106.846 23.3813 106.915 23.1573 106.99 22.928L108.83 18.176C108.862 18.08 108.92 18 109.006 17.936C109.091 17.872 109.195 17.84 109.318 17.84H110.662ZM116.955 21C116.955 20.712 116.912 20.4453 116.827 20.2C116.747 19.9493 116.627 19.7333 116.467 19.552C116.307 19.3653 116.107 19.2213 115.867 19.12C115.632 19.0133 115.36 18.96 115.051 18.96C114.427 18.96 113.936 19.1387 113.579 19.496C113.221 19.8533 112.995 20.3547 112.899 21H116.955ZM112.851 22.056C112.872 22.52 112.944 22.9227 113.067 23.264C113.189 23.6 113.352 23.88 113.555 24.104C113.763 24.328 114.008 24.496 114.291 24.608C114.579 24.7147 114.899 24.768 115.251 24.768C115.587 24.768 115.877 24.7307 116.123 24.656C116.368 24.576 116.581 24.4907 116.763 24.4C116.944 24.304 117.099 24.2187 117.227 24.144C117.355 24.064 117.472 24.024 117.579 24.024C117.717 24.024 117.824 24.0773 117.899 24.184L118.387 24.816C118.184 25.056 117.955 25.2587 117.699 25.424C117.443 25.5893 117.171 25.7253 116.883 25.832C116.595 25.9333 116.299 26.0053 115.995 26.048C115.691 26.096 115.395 26.12 115.107 26.12C114.541 26.12 114.016 26.0267 113.531 25.84C113.051 25.648 112.632 25.368 112.275 25C111.923 24.632 111.645 24.176 111.443 23.632C111.245 23.088 111.147 22.4613 111.147 21.752C111.147 21.1867 111.235 20.6587 111.411 20.168C111.592 19.6773 111.848 19.2507 112.179 18.888C112.515 18.5253 112.92 18.24 113.395 18.032C113.875 17.8187 114.416 17.712 115.019 17.712C115.52 17.712 115.984 17.7947 116.411 17.96C116.837 18.12 117.205 18.3573 117.515 18.672C117.824 18.9867 118.064 19.3733 118.235 19.832C118.411 20.2853 118.499 20.8027 118.499 21.384C118.499 21.6507 118.469 21.8293 118.411 21.92C118.352 22.0107 118.245 22.056 118.091 22.056H112.851ZM128.447 22.432C127.834 22.4533 127.316 22.504 126.895 22.584C126.474 22.6587 126.132 22.7573 125.871 22.88C125.61 22.9973 125.42 23.1387 125.303 23.304C125.191 23.4693 125.135 23.6507 125.135 23.848C125.135 24.04 125.164 24.2053 125.223 24.344C125.287 24.4773 125.372 24.5893 125.479 24.68C125.591 24.7653 125.719 24.8293 125.863 24.872C126.012 24.9093 126.175 24.928 126.351 24.928C126.799 24.928 127.183 24.8453 127.503 24.68C127.828 24.5093 128.143 24.264 128.447 23.944V22.432ZM123.887 18.976C124.81 18.1173 125.908 17.688 127.183 17.688C127.652 17.688 128.068 17.7653 128.431 17.92C128.799 18.0693 129.106 18.2827 129.351 18.56C129.602 18.8373 129.791 19.168 129.919 19.552C130.052 19.9307 130.119 20.352 130.119 20.816V26H129.351C129.186 26 129.06 25.976 128.975 25.928C128.89 25.8747 128.818 25.7707 128.759 25.616L128.591 24.952C128.383 25.1387 128.178 25.3067 127.975 25.456C127.772 25.6 127.562 25.7227 127.343 25.824C127.13 25.9253 126.898 26 126.647 26.048C126.402 26.1013 126.13 26.128 125.831 26.128C125.5 26.128 125.191 26.0827 124.903 25.992C124.62 25.9013 124.375 25.7653 124.167 25.584C123.959 25.3973 123.794 25.168 123.671 24.896C123.554 24.624 123.495 24.304 123.495 23.936C123.495 23.6213 123.578 23.3147 123.743 23.016C123.914 22.7173 124.191 22.4507 124.575 22.216C124.964 21.976 125.474 21.7787 126.103 21.624C126.738 21.4693 127.519 21.3813 128.447 21.36V20.816C128.447 20.2293 128.322 19.792 128.071 19.504C127.82 19.216 127.452 19.072 126.967 19.072C126.636 19.072 126.359 19.1147 126.135 19.2C125.911 19.28 125.716 19.368 125.551 19.464C125.386 19.56 125.239 19.6507 125.111 19.736C124.983 19.816 124.847 19.856 124.703 19.856C124.586 19.856 124.484 19.8267 124.399 19.768C124.319 19.704 124.252 19.6267 124.199 19.536L123.887 18.976ZM133.742 18.92C133.918 18.7387 134.099 18.576 134.286 18.432C134.478 18.2827 134.681 18.1547 134.894 18.048C135.107 17.9413 135.334 17.8587 135.574 17.8C135.814 17.7413 136.075 17.712 136.358 17.712C136.806 17.712 137.198 17.7867 137.534 17.936C137.875 18.0853 138.161 18.296 138.39 18.568C138.625 18.84 138.801 19.168 138.918 19.552C139.035 19.9307 139.094 20.3493 139.094 20.808V26H137.382V20.808C137.382 20.2587 137.254 19.832 136.998 19.528C136.747 19.224 136.363 19.072 135.846 19.072C135.462 19.072 135.105 19.16 134.774 19.336C134.449 19.512 134.142 19.752 133.854 20.056V26H132.134V17.84H133.174C133.409 17.84 133.558 17.9493 133.622 18.168L133.742 18.92ZM146.879 17.84V26H145.159V17.84H146.879ZM147.167 15.376C147.167 15.5307 147.135 15.6773 147.071 15.816C147.012 15.9547 146.93 16.0773 146.823 16.184C146.716 16.2853 146.591 16.368 146.447 16.432C146.308 16.4907 146.159 16.52 145.999 16.52C145.844 16.52 145.698 16.4907 145.559 16.432C145.426 16.368 145.308 16.2853 145.207 16.184C145.106 16.0773 145.023 15.9547 144.959 15.816C144.9 15.6773 144.871 15.5307 144.871 15.376C144.871 15.216 144.9 15.0667 144.959 14.928C145.023 14.7893 145.106 14.6693 145.207 14.568C145.308 14.4613 145.426 14.3787 145.559 14.32C145.698 14.256 145.844 14.224 145.999 14.224C146.159 14.224 146.308 14.256 146.447 14.32C146.591 14.3787 146.716 14.4613 146.823 14.568C146.93 14.6693 147.012 14.7893 147.071 14.928C147.135 15.0667 147.167 15.216 147.167 15.376ZM150.648 18.92C150.824 18.7387 151.006 18.576 151.192 18.432C151.384 18.2827 151.587 18.1547 151.8 18.048C152.014 17.9413 152.24 17.8587 152.48 17.8C152.72 17.7413 152.982 17.712 153.264 17.712C153.712 17.712 154.104 17.7867 154.44 17.936C154.782 18.0853 155.067 18.296 155.296 18.568C155.531 18.84 155.707 19.168 155.824 19.552C155.942 19.9307 156 20.3493 156 20.808V26H154.288V20.808C154.288 20.2587 154.16 19.832 153.904 19.528C153.654 19.224 153.27 19.072 152.752 19.072C152.368 19.072 152.011 19.16 151.68 19.336C151.355 19.512 151.048 19.752 150.76 20.056V26H149.04V17.84H150.08C150.315 17.84 150.464 17.9493 150.528 18.168L150.648 18.92ZM165.021 17.84L161.741 26H160.189L156.909 17.84H158.325C158.458 17.84 158.568 17.8747 158.653 17.944C158.744 18.008 158.802 18.0853 158.829 18.176L160.637 22.928C160.712 23.152 160.778 23.3733 160.837 23.592C160.896 23.8107 160.946 24.032 160.989 24.256C161.032 24.032 161.082 23.8133 161.141 23.6C161.205 23.3813 161.274 23.1573 161.349 22.928L163.189 18.176C163.221 18.08 163.28 18 163.365 17.936C163.45 17.872 163.554 17.84 163.677 17.84H165.021ZM167.988 17.84V26H166.268V17.84H167.988ZM168.276 15.376C168.276 15.5307 168.244 15.6773 168.18 15.816C168.122 15.9547 168.039 16.0773 167.932 16.184C167.826 16.2853 167.7 16.368 167.556 16.432C167.418 16.4907 167.268 16.52 167.108 16.52C166.954 16.52 166.807 16.4907 166.668 16.432C166.535 16.368 166.418 16.2853 166.316 16.184C166.215 16.0773 166.132 15.9547 166.068 15.816C166.01 15.6773 165.98 15.5307 165.98 15.376C165.98 15.216 166.01 15.0667 166.068 14.928C166.132 14.7893 166.215 14.6693 166.316 14.568C166.418 14.4613 166.535 14.3787 166.668 14.32C166.807 14.256 166.954 14.224 167.108 14.224C167.268 14.224 167.418 14.256 167.556 14.32C167.7 14.3787 167.826 14.4613 167.932 14.568C168.039 14.6693 168.122 14.7893 168.18 14.928C168.244 15.0667 168.276 15.216 168.276 15.376ZM172.766 26.128C172.088 26.128 171.566 25.9387 171.198 25.56C170.835 25.176 170.654 24.6373 170.654 23.944V19.192H169.758C169.662 19.192 169.579 19.1627 169.51 19.104C169.44 19.04 169.406 18.9467 169.406 18.824V18.128L170.726 17.936L171.102 15.576C171.128 15.4853 171.174 15.4133 171.238 15.36C171.302 15.3013 171.387 15.272 171.494 15.272H172.374V17.952H174.638V19.192H172.374V23.824C172.374 24.1173 172.446 24.3413 172.59 24.496C172.734 24.6507 172.926 24.728 173.166 24.728C173.299 24.728 173.414 24.712 173.51 24.68C173.606 24.6427 173.688 24.6053 173.758 24.568C173.827 24.5253 173.886 24.488 173.934 24.456C173.987 24.4187 174.038 24.4 174.086 24.4C174.182 24.4 174.259 24.4533 174.318 24.56L174.83 25.4C174.563 25.6347 174.248 25.816 173.886 25.944C173.523 26.0667 173.15 26.128 172.766 26.128ZM180.353 22.432C179.74 22.4533 179.223 22.504 178.801 22.584C178.38 22.6587 178.039 22.7573 177.777 22.88C177.516 22.9973 177.327 23.1387 177.209 23.304C177.097 23.4693 177.041 23.6507 177.041 23.848C177.041 24.04 177.071 24.2053 177.129 24.344C177.193 24.4773 177.279 24.5893 177.385 24.68C177.497 24.7653 177.625 24.8293 177.769 24.872C177.919 24.9093 178.081 24.928 178.257 24.928C178.705 24.928 179.089 24.8453 179.409 24.68C179.735 24.5093 180.049 24.264 180.353 23.944V22.432ZM175.793 18.976C176.716 18.1173 177.815 17.688 179.089 17.688C179.559 17.688 179.975 17.7653 180.337 17.92C180.705 18.0693 181.012 18.2827 181.257 18.56C181.508 18.8373 181.697 19.168 181.825 19.552C181.959 19.9307 182.025 20.352 182.025 20.816V26H181.257C181.092 26 180.967 25.976 180.881 25.928C180.796 25.8747 180.724 25.7707 180.665 25.616L180.497 24.952C180.289 25.1387 180.084 25.3067 179.881 25.456C179.679 25.6 179.468 25.7227 179.249 25.824C179.036 25.9253 178.804 26 178.553 26.048C178.308 26.1013 178.036 26.128 177.737 26.128C177.407 26.128 177.097 26.0827 176.809 25.992C176.527 25.9013 176.281 25.7653 176.073 25.584C175.865 25.3973 175.7 25.168 175.577 24.896C175.46 24.624 175.401 24.304 175.401 23.936C175.401 23.6213 175.484 23.3147 175.649 23.016C175.82 22.7173 176.097 22.4507 176.481 22.216C176.871 21.976 177.38 21.7787 178.009 21.624C178.644 21.4693 179.425 21.3813 180.353 21.36V20.816C180.353 20.2293 180.228 19.792 179.977 19.504C179.727 19.216 179.359 19.072 178.873 19.072C178.543 19.072 178.265 19.1147 178.041 19.2C177.817 19.28 177.623 19.368 177.457 19.464C177.292 19.56 177.145 19.6507 177.017 19.736C176.889 19.816 176.753 19.856 176.609 19.856C176.492 19.856 176.391 19.8267 176.305 19.768C176.225 19.704 176.159 19.6267 176.105 19.536L175.793 18.976ZM186.547 26.128C185.869 26.128 185.347 25.9387 184.979 25.56C184.616 25.176 184.435 24.6373 184.435 23.944V19.192H183.539C183.443 19.192 183.36 19.1627 183.291 19.104C183.221 19.04 183.187 18.9467 183.187 18.824V18.128L184.507 17.936L184.883 15.576C184.909 15.4853 184.955 15.4133 185.019 15.36C185.083 15.3013 185.168 15.272 185.275 15.272H186.155V17.952H188.419V19.192H186.155V23.824C186.155 24.1173 186.227 24.3413 186.371 24.496C186.515 24.6507 186.707 24.728 186.947 24.728C187.08 24.728 187.195 24.712 187.291 24.68C187.387 24.6427 187.469 24.6053 187.539 24.568C187.608 24.5253 187.667 24.488 187.715 24.456C187.768 24.4187 187.819 24.4 187.867 24.4C187.963 24.4 188.04 24.4533 188.099 24.56L188.611 25.4C188.344 25.6347 188.029 25.816 187.667 25.944C187.304 26.0667 186.931 26.128 186.547 26.128ZM191.567 17.84V26H189.847V17.84H191.567ZM191.855 15.376C191.855 15.5307 191.823 15.6773 191.759 15.816C191.7 15.9547 191.617 16.0773 191.511 16.184C191.404 16.2853 191.279 16.368 191.135 16.432C190.996 16.4907 190.847 16.52 190.687 16.52C190.532 16.52 190.385 16.4907 190.247 16.432C190.113 16.368 189.996 16.2853 189.895 16.184C189.793 16.0773 189.711 15.9547 189.647 15.816C189.588 15.6773 189.559 15.5307 189.559 15.376C189.559 15.216 189.588 15.0667 189.647 14.928C189.711 14.7893 189.793 14.6693 189.895 14.568C189.996 14.4613 190.113 14.3787 190.247 14.32C190.385 14.256 190.532 14.224 190.687 14.224C190.847 14.224 190.996 14.256 191.135 14.32C191.279 14.3787 191.404 14.4613 191.511 14.568C191.617 14.6693 191.7 14.7893 191.759 14.928C191.823 15.0667 191.855 15.216 191.855 15.376ZM197.256 17.712C197.858 17.712 198.402 17.8107 198.888 18.008C199.378 18.2053 199.794 18.4853 200.136 18.848C200.482 19.2107 200.749 19.6507 200.936 20.168C201.122 20.6853 201.216 21.2667 201.216 21.912C201.216 22.5573 201.122 23.1387 200.936 23.656C200.749 24.1733 200.482 24.616 200.136 24.984C199.794 25.3467 199.378 25.6267 198.888 25.824C198.402 26.0213 197.858 26.12 197.256 26.12C196.648 26.12 196.098 26.0213 195.608 25.824C195.122 25.6267 194.706 25.3467 194.36 24.984C194.013 24.616 193.746 24.1733 193.56 23.656C193.373 23.1387 193.28 22.5573 193.28 21.912C193.28 21.2667 193.373 20.6853 193.56 20.168C193.746 19.6507 194.013 19.2107 194.36 18.848C194.706 18.4853 195.122 18.2053 195.608 18.008C196.098 17.8107 196.648 17.712 197.256 17.712ZM197.256 24.776C197.992 24.776 198.538 24.5307 198.896 24.04C199.258 23.544 199.44 22.8373 199.44 21.92C199.44 21.0027 199.258 20.296 198.896 19.8C198.538 19.2987 197.992 19.048 197.256 19.048C196.509 19.048 195.954 19.2987 195.592 19.8C195.229 20.296 195.048 21.0027 195.048 21.92C195.048 22.8373 195.229 23.544 195.592 24.04C195.954 24.5307 196.509 24.776 197.256 24.776ZM204.476 18.92C204.652 18.7387 204.834 18.576 205.02 18.432C205.212 18.2827 205.415 18.1547 205.628 18.048C205.842 17.9413 206.068 17.8587 206.308 17.8C206.548 17.7413 206.81 17.712 207.092 17.712C207.54 17.712 207.932 17.7867 208.268 17.936C208.61 18.0853 208.895 18.296 209.124 18.568C209.359 18.84 209.535 19.168 209.652 19.552C209.77 19.9307 209.828 20.3493 209.828 20.808V26H208.116V20.808C208.116 20.2587 207.988 19.832 207.732 19.528C207.482 19.224 207.098 19.072 206.58 19.072C206.196 19.072 205.839 19.16 205.508 19.336C205.183 19.512 204.876 19.752 204.588 20.056V26H202.868V17.84H203.908C204.143 17.84 204.292 17.9493 204.356 18.168L204.476 18.92ZM221.589 19.44C221.536 19.5093 221.485 19.5627 221.437 19.6C221.389 19.6373 221.32 19.656 221.229 19.656C221.139 19.656 221.043 19.624 220.941 19.56C220.845 19.496 220.728 19.4267 220.589 19.352C220.456 19.272 220.293 19.2 220.101 19.136C219.909 19.072 219.669 19.04 219.381 19.04C219.008 19.04 218.68 19.1067 218.397 19.24C218.12 19.3733 217.885 19.5653 217.693 19.816C217.507 20.0613 217.365 20.3627 217.269 20.72C217.179 21.072 217.133 21.4693 217.133 21.912C217.133 22.3707 217.184 22.7787 217.285 23.136C217.387 23.4933 217.531 23.7947 217.717 24.04C217.909 24.2853 218.139 24.472 218.405 24.6C218.677 24.728 218.981 24.792 219.317 24.792C219.648 24.792 219.917 24.752 220.125 24.672C220.333 24.592 220.507 24.504 220.645 24.408C220.784 24.312 220.901 24.224 220.997 24.144C221.099 24.064 221.205 24.024 221.317 24.024C221.456 24.024 221.563 24.0773 221.637 24.184L222.125 24.816C221.928 25.056 221.709 25.2587 221.469 25.424C221.229 25.5893 220.976 25.7253 220.709 25.832C220.443 25.9333 220.165 26.0053 219.877 26.048C219.589 26.096 219.299 26.12 219.005 26.12C218.499 26.12 218.024 26.0267 217.581 25.84C217.144 25.648 216.76 25.3733 216.429 25.016C216.104 24.6533 215.845 24.2133 215.653 23.696C215.467 23.1733 215.373 22.5787 215.373 21.912C215.373 21.3093 215.459 20.752 215.629 20.24C215.8 19.7227 216.048 19.2773 216.373 18.904C216.704 18.5307 217.112 18.24 217.597 18.032C218.083 17.8187 218.643 17.712 219.277 17.712C219.869 17.712 220.389 17.808 220.837 18C221.291 18.192 221.693 18.464 222.045 18.816L221.589 19.44ZM226.896 17.712C227.499 17.712 228.043 17.8107 228.528 18.008C229.019 18.2053 229.435 18.4853 229.776 18.848C230.123 19.2107 230.39 19.6507 230.576 20.168C230.763 20.6853 230.856 21.2667 230.856 21.912C230.856 22.5573 230.763 23.1387 230.576 23.656C230.39 24.1733 230.123 24.616 229.776 24.984C229.435 25.3467 229.019 25.6267 228.528 25.824C228.043 26.0213 227.499 26.12 226.896 26.12C226.288 26.12 225.739 26.0213 225.248 25.824C224.763 25.6267 224.347 25.3467 224 24.984C223.654 24.616 223.387 24.1733 223.2 23.656C223.014 23.1387 222.92 22.5573 222.92 21.912C222.92 21.2667 223.014 20.6853 223.2 20.168C223.387 19.6507 223.654 19.2107 224 18.848C224.347 18.4853 224.763 18.2053 225.248 18.008C225.739 17.8107 226.288 17.712 226.896 17.712ZM226.896 24.776C227.632 24.776 228.179 24.5307 228.536 24.04C228.899 23.544 229.08 22.8373 229.08 21.92C229.08 21.0027 228.899 20.296 228.536 19.8C228.179 19.2987 227.632 19.048 226.896 19.048C226.15 19.048 225.595 19.2987 225.232 19.8C224.87 20.296 224.688 21.0027 224.688 21.92C224.688 22.8373 224.87 23.544 225.232 24.04C225.595 24.5307 226.15 24.776 226.896 24.776ZM237.717 19.848C237.477 19.5387 237.213 19.3227 236.925 19.2C236.637 19.0773 236.325 19.016 235.989 19.016C235.317 19.016 234.792 19.264 234.413 19.76C234.034 20.2507 233.845 20.9787 233.845 21.944C233.845 22.4453 233.888 22.8747 233.973 23.232C234.058 23.584 234.181 23.872 234.341 24.096C234.501 24.32 234.696 24.4827 234.925 24.584C235.154 24.6853 235.413 24.736 235.701 24.736C236.138 24.736 236.514 24.6427 236.829 24.456C237.149 24.264 237.445 23.9947 237.717 23.648V19.848ZM239.437 14.16V26H238.397C238.168 26 238.021 25.8907 237.957 25.672L237.805 24.784C237.464 25.184 237.074 25.5067 236.637 25.752C236.205 25.9973 235.701 26.12 235.125 26.12C234.666 26.12 234.25 26.0293 233.877 25.848C233.504 25.6613 233.184 25.392 232.917 25.04C232.65 24.688 232.442 24.2533 232.293 23.736C232.149 23.2133 232.077 22.616 232.077 21.944C232.077 21.336 232.157 20.7733 232.317 20.256C232.482 19.7387 232.717 19.2907 233.021 18.912C233.325 18.528 233.693 18.2293 234.125 18.016C234.562 17.7973 235.05 17.688 235.589 17.688C236.069 17.688 236.477 17.7653 236.813 17.92C237.149 18.0693 237.45 18.28 237.717 18.552V14.16H239.437ZM246.892 21C246.892 20.712 246.85 20.4453 246.764 20.2C246.684 19.9493 246.564 19.7333 246.404 19.552C246.244 19.3653 246.044 19.2213 245.804 19.12C245.57 19.0133 245.298 18.96 244.988 18.96C244.364 18.96 243.874 19.1387 243.516 19.496C243.159 19.8533 242.932 20.3547 242.836 21H246.892ZM242.788 22.056C242.81 22.52 242.882 22.9227 243.004 23.264C243.127 23.6 243.29 23.88 243.492 24.104C243.7 24.328 243.946 24.496 244.228 24.608C244.516 24.7147 244.836 24.768 245.188 24.768C245.524 24.768 245.815 24.7307 246.06 24.656C246.306 24.576 246.519 24.4907 246.7 24.4C246.882 24.304 247.036 24.2187 247.164 24.144C247.292 24.064 247.41 24.024 247.516 24.024C247.655 24.024 247.762 24.0773 247.836 24.184L248.324 24.816C248.122 25.056 247.892 25.2587 247.636 25.424C247.38 25.5893 247.108 25.7253 246.82 25.832C246.532 25.9333 246.236 26.0053 245.932 26.048C245.628 26.096 245.332 26.12 245.044 26.12C244.479 26.12 243.954 26.0267 243.468 25.84C242.988 25.648 242.57 25.368 242.212 25C241.86 24.632 241.583 24.176 241.38 23.632C241.183 23.088 241.084 22.4613 241.084 21.752C241.084 21.1867 241.172 20.6587 241.348 20.168C241.53 19.6773 241.786 19.2507 242.116 18.888C242.452 18.5253 242.858 18.24 243.332 18.032C243.812 17.8187 244.354 17.712 244.956 17.712C245.458 17.712 245.922 17.7947 246.348 17.96C246.775 18.12 247.143 18.3573 247.452 18.672C247.762 18.9867 248.002 19.3733 248.172 19.832C248.348 20.2853 248.436 20.8027 248.436 21.384C248.436 21.6507 248.407 21.8293 248.348 21.92C248.29 22.0107 248.183 22.056 248.028 22.056H242.788Z" fill="white"/>
</svg>
