<svg width="98" height="48" viewBox="0 0 98 48" fill="none" xmlns="http://www.w3.org/2000/svg">
<rect x="0.5" y="0.5" width="97" height="47" rx="23.5" fill="white" stroke="#1470A4"/>
<g clip-path="url(#clip0_3554_12785)">
<path d="M49.5 37C56.4036 37 62 31.1797 62 24C62 16.8203 56.4036 11 49.5 11C42.5964 11 37 16.8203 37 24C37 31.1797 42.5964 37 49.5 37Z" fill="#03A9F4"/>
<path d="M57.597 18.7778C56.988 19.0544 56.3437 19.2382 55.6842 19.3234C56.3795 18.8947 56.8992 18.2154 57.1447 17.4145C56.494 17.8162 55.782 18.0991 55.0395 18.2509C54.5845 17.7449 53.9936 17.3929 53.3437 17.2409C52.6937 17.0888 52.0148 17.1436 51.3953 17.3983C50.7757 17.6529 50.2442 18.0955 49.8698 18.6686C49.4954 19.2417 49.2955 19.9186 49.2961 20.6115C49.2937 20.8759 49.3196 21.1398 49.3734 21.3983C48.0526 21.3308 46.7604 20.9744 45.5811 20.3521C44.4018 19.7299 43.362 18.856 42.5296 17.7874C42.1017 18.5476 41.9692 19.449 42.159 20.3074C42.3489 21.1658 42.8468 21.9164 43.551 22.4058C43.0254 22.3911 42.5109 22.245 42.051 21.9799V22.0175C42.0525 22.8143 42.3177 23.5863 42.802 24.2037C43.2863 24.8211 43.9603 25.2463 44.7105 25.4078C44.4266 25.4854 44.134 25.5233 43.8405 25.5207C43.6291 25.5247 43.4179 25.5052 43.2105 25.4625C43.4255 26.1478 43.8393 26.747 44.3951 27.1776C44.9508 27.6083 45.6213 27.8493 46.3141 27.8675C45.14 28.822 43.6926 29.3404 42.2023 29.3403C41.9368 29.3426 41.6714 29.3266 41.4079 29.2924C42.9274 30.3113 44.6986 30.8496 46.5066 30.8421C52.6168 30.8421 55.9572 25.5788 55.9572 21.0169C55.9572 20.8646 55.9572 20.7175 55.9457 20.5704C56.5963 20.0821 57.1559 19.4747 57.597 18.7778Z" fill="white"/>
</g>
<defs>
<clipPath id="clip0_3554_12785">
<rect width="25" height="26" fill="white" transform="translate(37 11)"/>
</clipPath>
</defs>
</svg>
