<svg width="93" height="55" viewBox="0 0 93 55" fill="none" xmlns="http://www.w3.org/2000/svg">
<g clip-path="url(#clip0_1_106)">
<path d="M13.5036 30.264H7.53088L0.162304 52.4588H5.32355L6.49214 47.8912L13.8607 47.9555C13.8607 47.9555 14.7372 53.07 17.1392 52.9092H20.6775L13.5036 30.264ZM7.92041 43.7739L10.355 35.0889L13.0167 43.7739H7.92041Z" fill="#1A6DA5"/>
<path d="M0.162303 52.4588L0 52.9413H5.19371L5.35601 52.4588H0.162303Z" fill="#1A6DA5"/>
<path d="M33.824 30.8108L28.468 43.7417C28.468 43.7417 27.0397 46.7975 28.468 49.1457H36.4533V52.9735H41.4523V49.1135L44.4387 49.0492V44.6102L41.5172 44.6746L41.4198 38.9489C41.4198 38.9489 36.5183 37.9196 36.4209 41.3936V44.8354L32.7204 44.8997L38.5957 31.422C38.5957 31.422 34.5382 29.0738 33.824 30.8108Z" fill="#1870A3"/>
<path d="M47.6847 51.2044C47.6847 51.2044 47.3601 52.9092 49.6324 52.9735H59.2407C59.2407 52.9735 62.2596 53.07 61.3832 48.631H52.8135L52.5863 32.6121C52.5863 32.6121 52.7811 30.5535 50.1193 30.5535L47.6847 51.2044Z" fill="#59B0E3"/>
<path d="M47.6523 31.0681V30.5535H50.1842L47.6523 51.2687" fill="#59B0E3"/>
<mask id="mask0_1_106" style="mask-type:luminance" maskUnits="userSpaceOnUse" x="8" y="21" width="32" height="32">
<path d="M39.2774 21H8.99161V52.9413H39.2774V21Z" fill="white"/>
</mask>
<g mask="url(#mask0_1_106)">
<path d="M25.9361 36.3434C26.001 36.4399 26.0984 36.5043 26.1633 36.6008C26.3581 36.8259 26.5528 37.0189 26.6827 37.2763C26.9099 37.6301 27.0073 37.9839 27.0397 38.3699C27.0722 38.7559 27.0397 39.1097 26.9748 39.4957C26.8774 40.0426 26.6178 40.4929 26.2282 40.8789C26.0335 41.0719 25.8387 41.2327 25.6439 41.3936C25.6115 41.4257 25.579 41.4257 25.5466 41.4579C25.7089 41.6187 25.8387 41.7474 25.9685 41.9082C26.0335 41.9726 26.0984 42.0369 26.1308 42.1012C26.3905 42.3586 26.4879 42.6802 26.4879 43.0341C26.4879 43.3557 26.5204 43.6774 26.4879 43.9991C26.4555 44.4816 26.2932 44.8997 25.9361 45.2535C25.7413 45.4465 25.5466 45.6074 25.3518 45.8004C25.2869 45.8647 25.2219 45.9612 25.157 46.0255C25.1246 46.0577 25.1246 46.0899 25.0921 46.1542C25.0596 46.2185 25.0921 46.2507 25.157 46.2507C25.2219 46.2507 25.2544 46.315 25.2869 46.3472C25.5141 46.6689 25.6439 46.9905 25.7089 47.3765C25.8062 47.9234 25.6439 48.438 25.3843 48.8884C25.2544 49.1135 25.0596 49.3387 24.8973 49.5639C24.7026 49.8212 24.7026 49.7247 24.8649 50.0142C24.8973 50.0464 24.9298 50.0785 24.9298 50.1429C25.0596 50.3359 25.157 50.5289 25.157 50.754C25.1895 51.1722 25.157 51.5904 24.9947 51.9764C24.8973 52.1693 24.8 52.3302 24.6377 52.491C24.4104 52.7162 24.1183 52.877 23.7612 52.8448C23.6963 52.8448 23.6314 52.8127 23.5665 52.877C23.5015 52.9092 23.534 53.0057 23.534 53.07C23.5015 53.4238 23.5015 53.8098 23.4691 54.1637C23.4691 54.3567 23.4366 54.5175 23.4042 54.7105C23.4042 54.7748 23.3717 54.8392 23.3392 54.8713C23.2743 54.9678 23.1769 54.9678 23.112 54.9035C22.9497 54.807 22.9497 54.6462 22.9172 54.4853C22.8848 54.2602 22.8848 54.0028 22.8848 53.7455C22.8848 53.5203 22.8848 53.3273 22.8848 53.1022C22.8848 53.0378 22.8523 53.0057 22.7874 52.9735C22.6251 52.9092 22.4628 52.8448 22.3005 52.7483C21.7811 52.4588 21.489 52.0407 21.424 51.4617C21.3916 51.2044 21.3916 50.9792 21.3916 50.7219C21.3916 50.5289 21.4565 50.368 21.5539 50.2072C21.5864 50.1429 21.6513 50.0464 21.6837 49.982C21.7811 49.8212 21.7811 49.7569 21.6513 49.596C21.6188 49.5317 21.5539 49.4995 21.5214 49.4352C21.1968 49.1457 21.0345 48.7597 20.9371 48.3094C20.8722 48.0199 20.8398 47.7304 20.8722 47.4409C20.8722 47.28 20.9047 47.1514 20.9696 46.9905C21.0021 46.8619 21.067 46.7654 21.1644 46.6689C21.3267 46.4437 21.3267 46.4437 21.1968 46.2185C21.0345 45.9934 20.8722 45.8004 20.7099 45.6074C20.6125 45.4787 20.5152 45.35 20.4178 45.1892C20.223 44.8997 20.1256 44.5781 20.0932 44.2242C20.0932 43.9669 20.0607 43.6774 20.0607 43.4201C20.0607 43.0984 20.1256 42.7767 20.3204 42.4872C20.5151 42.1656 20.7099 41.8761 20.9696 41.6187C21.0345 41.5222 21.0345 41.5544 20.9696 41.4579C20.6775 41.1362 20.4178 40.8146 20.223 40.4607C20.0282 40.1069 19.9309 39.7531 19.8984 39.3349C19.8984 38.9489 19.8659 38.5629 19.8659 38.1769C19.8659 37.5979 20.1256 37.1154 20.4827 36.6973C20.5476 36.6008 20.6125 36.5364 20.6775 36.4399C20.7099 36.4078 20.7424 36.3434 20.7424 36.3113C20.7424 36.2469 20.7424 36.2148 20.6775 36.2148C20.645 36.2148 20.6125 36.1826 20.5801 36.1826C19.9633 35.7323 19.5089 35.1854 19.2816 34.4456C19.2167 34.2204 19.1518 34.0274 19.1518 33.8023C19.1193 33.5128 19.1518 33.2233 19.2816 32.9659C19.3141 32.9016 19.379 32.8373 19.3466 32.7729C19.3141 32.7086 19.2492 32.6764 19.1843 32.6443C18.9246 32.4513 18.6974 32.2261 18.535 31.9366C18.4701 31.8079 18.3727 31.6471 18.3078 31.5184C18.2429 31.3576 18.178 31.1968 18.1131 31.036C17.9508 31.1003 17.7885 31.1325 17.6586 31.1968C17.3665 31.3255 17.1068 31.2933 16.8471 31.1968C16.5225 31.0681 16.133 31.0038 15.7759 31.0038C15.4837 31.0038 15.2241 30.9716 14.9319 30.843C14.6398 30.7143 14.3152 30.6178 13.9906 30.6178C13.7309 30.5856 13.5036 30.4891 13.2764 30.3605C13.1466 30.2961 13.0167 30.1996 12.8544 30.1353C12.6921 30.071 12.4974 30.0066 12.3026 30.0066C12.1078 30.0066 11.9455 29.9745 11.7832 29.9101C11.3288 29.7493 10.9068 29.4598 10.6146 29.106C10.6146 29.0738 10.6471 29.0738 10.6796 29.0738C11.2639 28.9773 11.8157 28.72 12.3351 28.4626C13.1141 28.0766 13.8932 27.6263 14.6073 27.1116C15.4513 26.5326 16.2953 25.9536 17.1392 25.3746C17.2691 25.2781 17.3989 25.2138 17.5288 25.1173C17.8858 24.8921 18.2429 24.7635 18.6649 24.6991C19.1518 24.6026 19.6387 24.6026 20.1256 24.6991C21.0021 24.9243 21.6188 25.5998 21.7162 26.4683C21.7811 26.9508 21.6188 27.369 21.3267 27.755C21.2293 27.8836 21.1319 28.0123 21.0345 28.141C20.9696 28.2375 20.9696 28.2375 21.067 28.334C21.1644 28.4626 21.2942 28.5591 21.4565 28.6556C21.5539 28.72 21.6513 28.7521 21.7487 28.72C21.8785 28.72 21.9759 28.6878 22.1057 28.6556C22.2356 28.6235 22.3329 28.4948 22.3654 28.3661C22.3979 28.2696 22.3979 28.2053 22.3979 28.1088C22.4303 27.7871 22.3979 27.4333 22.3329 27.1116C22.3005 26.9508 22.2356 26.8221 22.1706 26.6613C22.0733 26.4683 22.0083 26.2753 22.0083 26.0501C21.9759 25.3746 22.3329 24.8921 22.9822 24.667C23.3068 24.5705 23.6314 24.5705 23.956 24.6991C24.5403 24.9565 24.8324 25.5998 24.6701 26.211C24.6377 26.3396 24.5727 26.5005 24.5078 26.6291C24.3455 26.9508 24.3131 27.3046 24.3131 27.6906C24.3455 27.948 24.3455 28.2375 24.3455 28.4948C24.3455 28.527 24.3455 28.5591 24.3455 28.5913C24.3455 28.6235 24.378 28.6556 24.4104 28.6556C24.7675 28.6878 25.157 28.6878 25.4816 28.527C25.5466 28.4948 25.6115 28.4626 25.6764 28.4305C25.7413 28.3661 25.7413 28.3661 25.7089 28.3018C25.6764 28.2375 25.6115 28.1731 25.579 28.1088C25.222 27.6585 25.0921 27.1438 25.0921 26.597C25.1246 25.6963 25.8387 24.9243 26.5528 24.7313C26.8774 24.6348 27.2345 24.6348 27.5591 24.6991C28.2733 24.7956 28.89 25.053 29.5068 25.4068C30.156 25.825 30.7727 26.2431 31.3895 26.6935C32.2335 27.3046 33.1099 27.8836 34.0188 28.3661C34.3109 28.527 34.6031 28.6878 34.8952 28.8165C35.1874 28.9773 35.4795 29.0095 35.7717 28.9773C35.8691 28.9773 35.934 28.9773 36.0314 28.9773C36.1287 28.9773 36.1612 29.0095 36.1612 29.106C36.1612 29.1703 36.1612 29.2346 36.1287 29.2668C36.0963 29.3633 36.0314 29.4276 35.9664 29.5241C35.8366 29.7171 35.6743 29.878 35.4795 30.0388C35.1874 30.264 34.8628 30.3926 34.5057 30.4248C34.246 30.457 33.9863 30.5213 33.7591 30.6178C33.6942 30.65 33.6293 30.6821 33.5643 30.7143C33.3047 30.843 33.0125 30.8751 32.7204 30.843C32.5256 30.8108 32.3308 30.843 32.1361 30.9395C31.9738 31.036 31.779 31.0681 31.5842 31.1325C31.1947 31.1968 30.8376 31.229 30.4481 31.2611C29.9287 31.2933 29.4418 31.3254 28.9225 31.3898C28.7277 31.4219 28.6303 31.4863 28.5654 31.6471C28.5005 31.8079 28.4356 31.9366 28.3382 32.0653C28.1434 32.3548 27.9162 32.5799 27.624 32.7729C27.4942 32.8694 27.4293 32.9659 27.4293 33.1268C27.4293 33.1589 27.4293 33.1911 27.4293 33.2554C27.4293 33.3198 27.4293 33.3841 27.4293 33.4484C27.4617 34.0596 27.267 34.6064 26.8774 35.1211C26.7476 35.2819 26.6502 35.4106 26.5204 35.5714C26.3256 35.7644 26.1633 35.9574 25.9685 36.1826C25.9685 36.2791 25.9361 36.2791 25.9361 36.3434ZM27.0397 28.9773C27.0722 28.9773 27.1047 28.9773 27.1371 28.9773C27.4293 28.9773 27.7214 28.9451 28.0136 28.9451C28.2083 28.9451 28.4031 28.913 28.5654 28.8165C28.8251 28.6556 29.0848 28.4626 29.2471 28.1731C29.5068 27.7871 29.6366 27.3368 29.5392 26.8865C29.5392 26.8543 29.5392 26.8221 29.5392 26.79C29.5392 26.7256 29.5717 26.7256 29.6366 26.7578C29.6691 26.7578 29.7015 26.79 29.734 26.8221C29.7989 26.8865 29.8638 26.983 29.8963 27.0473C29.9937 27.2403 30.1235 27.4011 30.2534 27.562C30.4806 27.7871 30.7403 27.9801 31 28.1731C31.5518 28.5913 32.0712 28.9773 32.6554 29.3311C33.2397 29.6528 33.8565 29.9101 34.5382 29.9745C34.7654 30.0066 34.9926 29.9745 35.2198 29.9101C35.3821 29.8458 35.5444 29.7815 35.6418 29.6528C35.7392 29.5563 35.7067 29.492 35.6094 29.4276C35.5444 29.3955 35.4795 29.3633 35.4146 29.3311C35.1225 29.2346 34.8303 29.106 34.5382 28.9773C33.7591 28.5913 33.0125 28.141 32.2984 27.6585C31.5842 27.2081 30.935 26.6935 30.2534 26.2431C29.7989 25.9215 29.312 25.632 28.8251 25.3746C28.2083 25.053 27.5267 24.8921 26.8125 25.0208C26.6502 25.053 26.4879 25.053 26.3256 25.1495C26.0335 25.3425 25.7738 25.5676 25.6115 25.8893C25.579 25.9215 25.579 25.9858 25.5466 26.018C25.4167 26.3396 25.4167 26.6613 25.5141 26.983C25.6115 27.3046 25.7738 27.5941 26.0335 27.8515C26.1308 27.948 26.2607 28.0766 26.3581 28.1731C26.1958 28.3983 26.0659 28.6235 25.8712 28.8165C25.6439 29.0095 25.4167 29.1381 25.1246 29.1381C24.9298 29.1381 24.735 29.106 24.5403 29.0738C24.4754 29.0416 24.4104 29.0416 24.3455 29.0416C24.3455 29.0416 24.3455 29.0416 24.3455 29.0738C24.3455 29.6206 24.378 30.1996 24.378 30.7465C24.378 30.8108 24.4104 30.8108 24.4429 30.8108C24.8 30.9073 25.157 30.9716 25.5141 30.9395C25.9036 30.8751 26.2282 30.7786 26.5528 30.5213C26.8774 30.264 27.1371 29.9101 27.2345 29.492C27.267 29.3633 27.267 29.2668 27.1696 29.1703C27.0722 29.0738 27.0397 29.0416 27.0397 28.9773ZM11.1665 29.3955C11.1989 29.4276 11.1989 29.4276 11.1989 29.4276C11.6534 29.7171 12.1728 29.7493 12.6921 29.6528C13.0492 29.5885 13.3413 29.4598 13.6659 29.299C14.4125 28.913 15.1267 28.4626 15.8408 27.9801C16.2303 27.7228 16.5874 27.4655 16.912 27.176C17.0094 27.0795 17.1068 26.983 17.1717 26.8543C17.2042 26.8221 17.2366 26.7578 17.2691 26.7256C17.334 26.6613 17.3665 26.6935 17.3989 26.7578C17.3989 26.79 17.4314 26.8221 17.4314 26.8865C17.4638 26.983 17.4638 27.0795 17.4638 27.176C17.4638 27.562 17.5937 27.8836 17.8209 28.2053C18.2429 28.7521 18.7947 29.0738 19.5089 29.0738C19.5738 29.0738 19.6712 29.0738 19.7361 29.106C19.7686 29.106 19.801 29.1381 19.801 29.1703C19.801 29.2025 19.7686 29.2346 19.7361 29.2346C19.6712 29.2346 19.6387 29.299 19.6387 29.3633C19.6387 29.3955 19.6387 29.4276 19.6387 29.4276C19.6712 29.7815 19.7686 30.1031 20.0607 30.3605C20.5152 30.7786 21.0021 31.0038 21.6188 31.0038C21.7811 31.0038 21.9759 30.9395 22.1382 30.9073C22.3005 30.8751 22.3654 30.7786 22.3979 30.65C22.4303 30.5213 22.4303 30.3926 22.4303 30.264C22.4303 29.9101 22.4303 29.5563 22.4303 29.2025C22.4303 29.0416 22.4628 29.0416 22.268 29.0738C22.0083 29.106 21.7487 29.1381 21.489 29.1703C21.424 29.1703 21.3916 29.1703 21.3591 29.1381C21.1968 28.9773 21.0345 28.8165 20.8722 28.6556C20.7748 28.5591 20.7099 28.4626 20.645 28.3661C20.5801 28.2375 20.5801 28.0766 20.6775 27.948C20.7099 27.8836 20.7748 27.8193 20.8398 27.755C20.9047 27.6906 20.9696 27.6263 21.0345 27.562C21.2293 27.369 21.3591 27.1116 21.3916 26.8543C21.424 26.6613 21.424 26.4361 21.3916 26.211C21.3916 26.1145 21.3267 26.018 21.2942 25.9215C21.0345 25.5998 20.7424 25.3103 20.3528 25.1816C20.1256 25.1173 19.9309 25.053 19.7036 25.053C19.1843 25.0208 18.6649 25.053 18.2104 25.3103C17.6261 25.5998 17.0743 25.9215 16.5549 26.2753C16.1005 26.597 15.6136 26.9186 15.1591 27.2403C14.1204 27.948 13.0492 28.5913 11.9131 29.1381C11.6209 29.1703 11.3937 29.2668 11.1665 29.3955ZM24.8 45.6717C24.8973 45.6717 24.9298 45.6717 25.0596 45.6074C25.5141 45.35 25.8387 44.964 26.001 44.4816C26.1633 44.0634 26.1958 43.6452 26.1633 43.1949C26.1633 43.0341 26.1308 42.9054 26.0659 42.7767C25.9361 42.4551 25.7413 42.1334 25.5141 41.8117C25.4492 41.7474 25.3843 41.6831 25.3193 41.6187C25.157 41.4901 24.9947 41.3936 24.8324 41.2649C24.3455 40.9432 23.8261 40.6216 23.3068 40.3321C22.9497 40.1391 22.6251 39.9461 22.3005 39.7209C22.1382 39.5922 21.9759 39.4636 21.911 39.2706C21.8136 39.0454 21.7487 38.8524 21.6837 38.6272C21.5864 38.1769 21.6837 37.7588 22.0083 37.4049C22.0408 37.3728 22.0733 37.3406 22.1057 37.2763C22.1706 37.1798 22.1706 37.0833 22.0733 36.9868C22.0083 36.9224 21.9434 36.8581 21.846 36.8259C21.6188 36.6973 21.3591 36.6008 21.1319 36.4721C21.0994 36.4399 21.067 36.4721 21.0345 36.5043C20.9047 36.6651 20.7424 36.8581 20.6125 37.0189C20.3853 37.3084 20.2555 37.6623 20.1905 38.0483C20.1581 38.3699 20.1581 38.6916 20.1905 39.0132C20.1905 39.2384 20.2555 39.4314 20.3528 39.6566C20.645 40.3642 21.1644 40.9111 21.7811 41.3292C22.1057 41.5544 22.4953 41.7474 22.8199 41.9404C23.2743 42.1977 23.6963 42.4872 24.0858 42.8089C24.4104 43.0984 24.5078 43.4522 24.4429 43.8382C24.378 44.1921 24.2481 44.5137 23.956 44.7711C23.8586 44.8676 23.8586 44.9962 23.9235 45.0927C23.956 45.157 23.9884 45.1892 24.0209 45.2214C24.1832 45.3822 24.378 45.4787 24.5727 45.6074C24.6701 45.6717 24.735 45.6717 24.8 45.6717ZM21.4565 31.9366C20.9371 31.9366 20.4827 32.0974 20.0932 32.4191C19.5738 32.8373 19.379 33.3841 19.5089 34.0274C19.5738 34.3169 19.7036 34.5743 19.8659 34.7994C20.0932 35.1533 20.4178 35.3784 20.7748 35.6036C21.1968 35.8609 21.6188 36.0861 22.0733 36.3113C22.6576 36.6008 23.2743 36.8581 23.8586 37.1798C24.0534 37.2763 24.2481 37.3728 24.4104 37.5336C24.7026 37.7588 24.8973 38.0804 24.8973 38.4342C24.8973 38.7237 24.8324 39.0132 24.7026 39.2706C24.6052 39.4636 24.4754 39.6244 24.3131 39.7852C24.2157 39.8817 24.1183 39.9461 24.0534 40.0426C23.9235 40.2034 23.956 40.2999 24.0858 40.4286C24.313 40.5894 24.5403 40.7181 24.8 40.8146C24.8973 40.8467 24.9623 40.8467 25.0272 40.7824C25.157 40.7181 25.2869 40.6216 25.3843 40.5572C25.8387 40.2356 26.1633 39.8174 26.3256 39.3027C26.4555 38.8846 26.4879 38.4342 26.4555 38.0161C26.423 37.6623 26.2932 37.3728 26.0984 37.1154C25.9685 36.9546 25.8712 36.8259 25.7089 36.6651C25.5141 36.4399 25.2869 36.2469 24.9947 36.1183C24.8324 36.0539 24.7026 35.9574 24.5403 35.8609C24.0858 35.6036 23.5665 35.4428 23.0795 35.2819C22.5602 35.1211 22.0083 34.9603 21.5214 34.7029C21.1968 34.5421 20.8722 34.3169 20.6125 34.0596C20.4502 33.8988 20.3528 33.7058 20.3204 33.4806C20.2879 33.2554 20.2555 33.0624 20.2555 32.8373V32.8051C20.2879 32.6764 20.3204 32.6764 20.4178 32.7408C20.4502 32.7729 20.4827 32.8051 20.5152 32.8373C20.6125 32.9338 20.7424 32.9981 20.8722 33.0303C21.3267 33.1268 21.7162 32.9981 22.0733 32.6764C22.1706 32.5799 22.2356 32.4834 22.268 32.3869C22.3005 32.2583 22.268 32.1939 22.1706 32.1296C22.1382 32.0974 22.1057 32.0974 22.0733 32.0653C21.911 32.0009 21.6837 31.9366 21.4565 31.9366ZM23.7937 48.6954C23.7937 48.8884 23.7937 49.0492 23.8911 49.21C23.956 49.3709 24.0858 49.403 24.2157 49.3709C24.2806 49.3387 24.378 49.3065 24.4429 49.2744C24.6701 49.1135 24.8324 48.9527 24.9947 48.7275C25.2219 48.4059 25.3518 48.0199 25.3518 47.6339C25.3518 47.1835 25.1895 46.7654 24.8973 46.4115C24.6377 46.0899 24.3131 45.8325 23.9884 45.6074C23.7612 45.4465 23.5015 45.3179 23.2743 45.157C22.9497 44.9319 22.6576 44.7067 22.3979 44.4172C22.3005 44.2886 22.2031 44.1599 22.1706 43.9991C22.1057 43.7739 22.1057 43.5487 22.1382 43.3557C22.1706 43.1627 22.268 42.9697 22.3979 42.8089C22.4953 42.6481 22.4628 42.5837 22.3329 42.4872C22.2356 42.4229 22.1382 42.3586 22.0408 42.2942C21.846 42.1656 21.6513 42.0369 21.4565 41.9726C21.2942 41.9082 21.1968 41.9082 21.067 42.0691C21.067 42.1012 21.0345 42.1012 21.0345 42.1334C20.9047 42.3586 20.7748 42.5837 20.6775 42.8411C20.6125 43.0341 20.5801 43.1949 20.5476 43.3879C20.5152 43.7417 20.5801 44.0634 20.6775 44.4172C20.8073 44.8676 21.0021 45.2535 21.3267 45.5752C21.7487 45.9934 22.1706 46.3472 22.7225 46.6045C23.0146 46.7654 23.3068 46.9262 23.5665 47.1514C23.7288 47.3122 23.8911 47.473 23.9884 47.6982C24.0534 47.859 24.0534 48.0199 23.9884 48.1807C23.8261 48.2772 23.7937 48.5024 23.7937 48.6954ZM23.956 28.5913C23.956 28.2696 23.956 27.948 23.956 27.6263C23.956 27.5298 23.956 27.5298 23.8586 27.4976C23.534 27.4655 23.2094 27.4333 22.8848 27.4333C22.69 27.4333 22.7225 27.4333 22.7225 27.5941C22.7225 29.1381 22.7225 30.65 22.7549 32.1939C22.7549 32.9338 22.7549 33.6414 22.8199 34.3813C22.8199 34.5099 22.8523 34.6386 22.8523 34.7673C22.8523 34.8316 22.9172 34.8959 22.9822 34.9281C23.1769 35.0246 23.3717 35.0889 23.5665 35.1211C23.5989 35.1211 23.5989 35.1211 23.6314 35.1211C23.6963 35.1211 23.7288 35.0889 23.7612 35.0246C23.7612 34.9924 23.7612 34.9603 23.7612 34.9281C23.7612 34.6064 23.7937 34.2848 23.7937 33.9953C23.8261 33.3198 23.8261 32.6764 23.8586 32.0009C23.8586 31.6793 23.8911 31.3576 23.8911 31.0681C23.9235 30.5535 23.9235 30.0388 23.956 29.5241C23.956 29.2346 23.956 28.913 23.956 28.5913ZM25.4167 31.8723C25.2544 31.8723 25.0921 31.8723 24.9298 31.9044C24.7675 31.9366 24.6052 32.0009 24.4429 32.0974C24.3131 32.1939 24.2806 32.2904 24.378 32.4513C24.4754 32.6121 24.6052 32.7729 24.735 32.8694C24.8 32.9338 24.8973 32.9659 24.9947 32.9659C25.1246 32.9981 25.2544 32.9981 25.3843 32.9981C25.4816 32.9981 25.579 32.9981 25.6764 32.9981C25.8387 32.9981 25.9685 32.9338 26.0984 32.8373C26.1958 32.7408 26.2932 32.6764 26.423 32.5799C26.4879 32.5478 26.4879 32.5478 26.5204 32.6121C26.5204 32.7086 26.5204 32.8051 26.4879 32.9016C26.4555 33.2233 26.3581 33.5449 26.1308 33.8023C26.0659 33.8988 26.001 33.9953 25.9036 34.0596C25.5141 34.4778 25.0596 34.7994 24.5078 34.9924C24.4429 35.0246 24.378 35.0568 24.3131 35.0889C24.2481 35.1533 24.2481 35.2176 24.2806 35.2819C24.3131 35.3141 24.3455 35.3784 24.4104 35.3784C24.6701 35.5393 24.9298 35.6679 25.2219 35.7966C25.3518 35.8288 25.4492 35.8288 25.579 35.7644C25.6764 35.7323 25.7738 35.6679 25.8387 35.6036C26.1958 35.3784 26.4879 35.0568 26.7151 34.7029C27.0397 34.2204 27.2345 33.7058 27.2345 33.1268C27.2345 32.9338 27.2021 32.7408 27.0722 32.6121C27.0073 32.5156 26.9099 32.4191 26.845 32.3548C26.423 32.0653 25.9685 31.8401 25.4167 31.8723ZM24.2481 52.4267C24.313 52.3945 24.378 52.3302 24.4104 52.298C24.6052 52.0728 24.735 51.8477 24.8324 51.5904C24.8973 51.4617 24.9298 51.333 24.9298 51.1722C24.9623 50.8505 24.8649 50.561 24.6701 50.3037C24.5078 50.0785 24.3455 49.9177 24.1507 49.7247C23.8911 49.4995 23.6314 49.3065 23.3392 49.1135C23.0471 48.8884 22.8199 48.6632 22.6251 48.3737C22.4953 48.2129 22.4303 48.0199 22.4628 47.7947C22.4628 47.5695 22.4953 47.3765 22.4953 47.1514C22.4953 47.087 22.4953 47.0549 22.4303 47.0227C22.3005 46.9262 22.1382 46.8619 22.0083 46.7654C21.911 46.701 21.8136 46.6689 21.6837 46.6367C21.5864 46.6045 21.5214 46.6367 21.4565 46.701C21.3916 46.7654 21.3591 46.8619 21.3267 46.9262C21.2617 47.087 21.2293 47.2479 21.2293 47.4087C21.1644 47.9555 21.2942 48.438 21.6837 48.8562C22.1057 49.3387 22.6251 49.6925 23.2418 49.9499C23.6638 50.1107 23.956 50.368 24.2157 50.7219C24.2806 50.8184 24.3455 50.947 24.378 51.0757C24.4104 51.2365 24.4104 51.4295 24.4104 51.5904C24.378 51.8155 24.3455 52.0407 24.2806 52.2337C24.2481 52.3302 24.2157 52.3623 24.2481 52.4267ZM24.3131 31.5506C24.3131 31.6149 24.3131 31.6471 24.3131 31.7114C24.3131 31.8079 24.378 31.8401 24.4754 31.8401C24.5078 31.8401 24.5078 31.8401 24.5403 31.8401C24.6701 31.8079 24.8 31.7758 24.9298 31.7436C25.0921 31.7114 25.2544 31.6793 25.4492 31.6793C25.9361 31.7114 26.3905 31.8401 26.7801 32.1618C26.8774 32.2261 26.9748 32.3226 27.0722 32.3869C27.2994 32.5156 27.2994 32.5156 27.4617 32.3548C27.7863 32.0974 28.046 31.7758 28.2733 31.4219C28.3706 31.2933 28.3706 31.229 28.2408 31.0681C28.2083 31.036 28.1759 31.0038 28.1759 30.9716C27.9811 30.7786 27.8188 30.5856 27.5916 30.3926C27.4293 30.2318 27.4617 30.2318 27.267 30.3605C27.1047 30.4891 26.9748 30.6178 26.8125 30.7465C26.5204 30.9716 26.2282 31.1646 25.8712 31.229C25.6115 31.2933 25.3193 31.2933 25.0596 31.2933C24.8649 31.2933 24.6377 31.2933 24.4429 31.2611C24.3455 31.2611 24.3131 31.2611 24.2806 31.3898C24.3131 31.4541 24.3131 31.5184 24.3131 31.5506ZM22.4953 31.5828C22.4953 31.5184 22.4953 31.4863 22.4953 31.4219C22.4953 31.3898 22.4628 31.3576 22.4303 31.3576C22.3979 31.3576 22.3654 31.3576 22.3654 31.3576C22.0083 31.3576 21.6513 31.3898 21.2942 31.3576C20.9696 31.3255 20.645 31.2611 20.3853 31.0681C19.9958 30.8108 19.6712 30.4891 19.4439 30.1353C19.379 30.0388 19.3466 30.0388 19.2492 30.1031C19.2167 30.1031 19.2167 30.1353 19.2167 30.1353C19.022 30.3283 18.8272 30.5535 18.6649 30.7786C18.5675 30.9073 18.5675 31.036 18.6324 31.1968C18.6324 31.229 18.6649 31.2611 18.6649 31.2933C18.8272 31.5828 19.022 31.8401 19.2816 32.0331C19.4115 32.1296 19.5413 32.2583 19.7036 32.3226C19.8335 32.3869 19.8984 32.3548 19.9958 32.2583C20.0607 32.1939 20.1256 32.1296 20.1905 32.0974C20.3528 32.0009 20.5476 31.9044 20.7099 31.8401C20.9047 31.7758 21.0994 31.7114 21.2942 31.7436C21.6513 31.7436 22.0083 31.7758 22.3654 31.9044C22.4628 31.9366 22.5277 31.9044 22.5277 31.8079C22.4953 31.7114 22.4953 31.6471 22.4953 31.5828ZM14.0555 30.264C14.1204 30.264 14.1853 30.264 14.2502 30.264C14.5424 30.2318 14.8345 30.1031 15.0942 29.9423C15.7759 29.5563 16.4251 29.106 17.0743 28.6556C17.1392 28.6235 17.2042 28.5591 17.2691 28.4948C17.334 28.4626 17.334 28.4305 17.3015 28.3661C17.2366 28.1088 17.1392 27.8836 17.0094 27.6585C16.9769 27.5941 16.9769 27.5941 16.8796 27.6263C16.7497 27.7228 16.6199 27.7871 16.5225 27.8836C16.1005 28.2053 15.6785 28.527 15.2565 28.8165C14.7696 29.1703 14.2502 29.492 13.7309 29.7493C13.601 29.8136 13.4387 29.878 13.2764 29.9101C13.244 29.9101 13.2115 29.9101 13.2115 29.9423C13.2115 29.9745 13.2115 30.0066 13.244 30.0066C13.3089 30.071 13.3738 30.1031 13.4387 30.1031C13.6335 30.2318 13.8282 30.264 14.0555 30.264ZM32.9476 30.5213C33.045 30.5213 33.1424 30.5213 33.2397 30.4891C33.3371 30.457 33.3696 30.3926 33.3696 30.2961C33.3696 30.2318 33.3371 30.1996 33.3047 30.1996C33.2073 30.1675 33.1099 30.1353 33.0125 30.071C32.7528 29.9101 32.4931 29.7493 32.2335 29.5885C31.6816 29.2346 31.1623 28.8486 30.6429 28.4305C30.513 28.3018 30.3507 28.2053 30.2209 28.0766C30.156 28.0123 30.0586 27.9801 29.9937 27.9158C29.8963 27.8836 29.8314 27.8836 29.7664 28.0123C29.6691 28.2053 29.7015 28.4305 29.7989 28.5913C29.8314 28.6556 29.8638 28.72 29.9287 28.7521C30.0586 28.913 30.2209 29.0416 30.3832 29.2025C30.9026 29.6528 31.4544 30.0388 32.0712 30.2961C32.3633 30.4248 32.6554 30.5213 32.9476 30.5213ZM23.3068 25.053C23.2743 25.053 23.2094 25.053 23.1769 25.053C23.0146 25.053 22.8523 25.0851 22.7549 25.2138C22.6576 25.3103 22.5277 25.4068 22.4628 25.5355C22.3979 25.632 22.3329 25.7606 22.3329 25.8571C22.3329 25.9858 22.3329 26.1466 22.3329 26.2753C22.3329 26.404 22.3979 26.5005 22.4953 26.597C22.6251 26.7578 22.7874 26.8865 22.9497 27.0151C23.0471 27.0795 23.1445 27.1116 23.2743 27.1116C23.4042 27.1116 23.5015 27.0795 23.6314 27.0795C23.9235 27.0473 24.1183 26.9186 24.2481 26.6935C24.2806 26.6291 24.3455 26.5648 24.378 26.4683C24.5403 26.0501 24.4754 25.632 24.1832 25.3425C23.9235 25.1173 23.6314 25.053 23.3068 25.053ZM18.1455 29.2025C17.9508 29.0416 17.8209 28.8486 17.6261 28.72C17.4963 28.6235 17.4963 28.6235 17.3989 28.72C17.2042 28.8808 17.0419 29.0416 16.8471 29.2025C16.3277 29.6528 15.8084 30.071 15.1916 30.3926C15.1267 30.4248 15.0942 30.457 15.0293 30.4891C14.9968 30.5213 14.9319 30.5535 14.9319 30.6178C14.9319 30.6821 14.9968 30.6821 15.0618 30.7143C15.289 30.7465 15.4837 30.7465 15.711 30.7143C16.0031 30.65 16.2628 30.5535 16.5225 30.3926C16.8471 30.1996 17.1392 30.0066 17.4314 29.7815C17.6586 29.5885 17.8858 29.3955 18.1455 29.2025ZM31.4544 30.8108C31.5193 30.8108 31.6167 30.8108 31.6816 30.8108C31.7141 30.8108 31.779 30.8108 31.8115 30.7465C31.8439 30.6821 31.779 30.65 31.7465 30.6178C31.6492 30.5213 31.5518 30.4891 31.4219 30.4248C31.0324 30.1996 30.6429 29.9423 30.3183 29.6528C30.1235 29.492 29.9612 29.299 29.7664 29.1381C29.7015 29.0738 29.6366 29.0095 29.5392 28.9451C29.4743 28.913 29.4418 28.8808 29.3769 28.913C29.2146 28.9773 29.0523 29.0738 28.9549 29.2346C28.9225 29.299 28.9225 29.3633 28.9549 29.3955C29.0198 29.492 29.0523 29.5563 29.1497 29.6206C29.4094 29.878 29.7015 30.1031 29.9937 30.3283C30.3832 30.6821 30.9026 30.8108 31.4544 30.8108ZM23.6638 38.8202C23.6638 38.5629 23.6963 38.3056 23.6638 38.0161C23.6638 37.9196 23.6314 37.7909 23.534 37.7266C23.4366 37.6301 23.3068 37.5658 23.1769 37.5014C23.112 37.4693 23.0795 37.4693 23.0146 37.4693C22.9172 37.4693 22.8848 37.5014 22.8848 37.5979C22.8848 37.6623 22.8848 37.7266 22.8848 37.7588C22.8848 38.4021 22.9172 39.0132 22.9822 39.6566C23.0146 39.8496 23.0795 40.0104 23.2743 40.0747C23.3068 40.0747 23.3392 40.1069 23.3392 40.1069C23.4691 40.1712 23.534 40.1391 23.5665 39.9782C23.5989 39.8496 23.5989 39.7531 23.5989 39.6244C23.6314 39.3671 23.6638 39.1097 23.6638 38.8202ZM17.1392 30.9716C17.4314 30.9395 17.756 30.843 18.0157 30.6821C18.3727 30.457 18.7298 30.1675 19.022 29.8458C19.0869 29.7815 19.1193 29.7171 19.1518 29.6528C19.2167 29.5241 19.1843 29.4276 19.0544 29.3633C18.957 29.3311 18.8597 29.299 18.7623 29.299C18.5675 29.2668 18.4052 29.299 18.2429 29.4598C18.0481 29.6528 17.8534 29.8458 17.6911 30.0388C17.4638 30.2961 17.2042 30.5213 16.9445 30.7143C16.912 30.7465 16.8796 30.7786 16.8471 30.8108C16.7822 30.8751 16.8146 30.9395 16.8796 30.9716C16.9445 30.9716 17.0094 30.9716 17.1392 30.9716ZM28.1759 29.3311C28.0136 29.3311 27.9162 29.3633 27.8188 29.3955C27.689 29.4598 27.6565 29.5563 27.689 29.685C27.7214 29.8136 27.7863 29.9101 27.8513 30.0066C27.9811 30.1675 28.1109 30.3283 28.2733 30.457C28.5329 30.6821 28.7926 30.8751 29.1172 31.0038C29.2471 31.036 29.3769 31.0681 29.5068 31.1003C29.6366 31.1325 29.734 31.1003 29.8314 31.036C29.8963 31.0038 29.9287 30.9395 29.8638 30.8751C29.7989 30.8108 29.734 30.7786 29.6691 30.7143C29.5717 30.65 29.4743 30.5856 29.3769 30.4891C29.2471 30.3605 29.1172 30.2318 29.0198 30.1031C28.8575 29.9101 28.7277 29.685 28.5654 29.492C28.4356 29.3633 28.3057 29.299 28.1759 29.3311ZM25.0921 33.8023C25.0596 33.8666 24.9947 33.8988 24.9623 33.9309C24.8324 34.0274 24.6701 34.0918 24.5403 34.1561C24.4429 34.2204 24.378 34.2526 24.2806 34.3169C24.1183 34.4778 24.1507 34.6386 24.2157 34.7994C24.2481 34.8316 24.2806 34.8638 24.3131 34.8638C24.3455 34.8638 24.378 34.8638 24.4104 34.8316C24.8973 34.6386 25.2869 34.3491 25.6115 33.9953C25.6439 33.9631 25.6764 33.9309 25.7089 33.8666C25.7413 33.8023 25.7413 33.7379 25.6439 33.7058C25.6115 33.7058 25.6115 33.7058 25.579 33.7058C25.5141 33.7058 25.4816 33.6736 25.4816 33.6093C25.4816 33.5771 25.4492 33.5449 25.4167 33.5128C25.3518 33.4806 25.2869 33.4484 25.2219 33.4484C24.9623 33.3841 24.7675 33.2554 24.5403 33.0946C24.4429 33.0303 24.378 32.9659 24.2806 32.9016C24.2481 32.9016 24.2481 32.8694 24.2157 32.8694C24.2157 33.1911 24.1832 33.5449 24.2157 33.8666C24.2157 33.9953 24.2157 33.9953 24.3455 33.9631C24.5078 33.9309 24.6701 33.8666 24.8324 33.8344C24.9298 33.8023 24.9947 33.8023 25.0921 33.8023ZM22.1382 52.2658C22.1706 52.2015 22.1706 52.1693 22.1706 52.1372C22.1382 51.9442 22.1382 51.7833 22.1057 51.5904C22.0733 51.2044 22.1382 50.8505 22.4303 50.561C22.4953 50.4967 22.5277 50.4324 22.5602 50.368C22.5926 50.2394 22.5926 50.1429 22.4628 50.0785C22.3654 50.0464 22.268 50.0142 22.1706 50.0142C22.1057 50.0142 22.0733 50.0142 22.0083 50.0464C21.8136 50.2072 21.6513 50.4002 21.6513 50.6575C21.6513 50.8184 21.6513 50.9792 21.6837 51.14C21.7162 51.333 21.7487 51.526 21.8136 51.719C21.8785 51.9763 22.0083 52.1372 22.1382 52.2658ZM22.9822 42.7767C22.9822 42.8089 22.9822 42.8089 22.9822 42.8411C22.9822 43.2914 22.9822 43.7739 23.0146 44.2242C23.0146 44.3207 23.0146 44.4172 23.0471 44.5137C23.0795 44.7067 23.2094 44.8032 23.3717 44.8675C23.4366 44.8997 23.4691 44.8997 23.5015 44.8032C23.5015 44.7711 23.534 44.7067 23.534 44.6746C23.5665 44.2564 23.5665 43.8704 23.5665 43.4522C23.5665 43.3879 23.5665 43.3236 23.534 43.2271C23.534 43.1306 23.5015 43.0019 23.4042 42.9376C23.2743 42.9054 23.1445 42.8411 22.9822 42.7767ZM21.2942 33.5771C21.3267 33.6093 21.3267 33.6093 21.3591 33.6093C21.6513 33.7379 21.9434 33.8988 22.2356 34.0274C22.268 34.0596 22.3329 34.0596 22.3654 34.0918C22.4303 34.1239 22.4628 34.0918 22.4953 34.0274C22.4953 33.9953 22.4953 33.9953 22.4953 33.9631C22.5277 33.6414 22.5602 33.2876 22.5277 32.9659C22.5277 32.9338 22.5277 32.9016 22.4953 32.9016C22.1057 33.1589 21.7487 33.4484 21.2942 33.5771ZM22.6251 38.7237C22.6251 38.4664 22.6251 38.2412 22.5926 38.0161C22.5926 37.9518 22.5602 37.9196 22.5277 37.8874C22.4628 37.8553 22.4303 37.8874 22.3654 37.9518C22.3654 37.9518 22.3329 37.9839 22.3329 38.0161C22.2031 38.2412 22.1382 38.4664 22.1706 38.7237C22.2031 38.9811 22.3005 39.2062 22.4303 39.4314C22.4628 39.4957 22.4953 39.5601 22.5602 39.5279C22.6251 39.5279 22.6251 39.4314 22.6251 39.3671C22.6576 39.1419 22.6251 38.9167 22.6251 38.7237ZM22.8523 52.6518C22.8523 52.6197 22.8848 52.5875 22.8848 52.5553C22.8848 52.5232 22.9172 52.4588 22.9172 52.4267C22.9822 51.9763 22.9497 51.4939 22.9172 51.0435C22.9172 50.9792 22.8848 50.9149 22.8523 50.8505C22.8199 50.7862 22.7874 50.7862 22.7225 50.8184C22.69 50.8184 22.69 50.8505 22.6576 50.8827C22.5602 51.0114 22.4953 51.1722 22.4628 51.3652C22.4303 51.8477 22.5926 52.2658 22.8523 52.6518ZM23.2094 50.6254C23.1769 50.6575 23.1769 50.6897 23.1769 50.7219C23.1769 50.8505 23.1445 50.9792 23.1445 51.1079C23.1445 51.9442 23.1445 52.8127 23.2094 53.649C23.2094 53.9063 23.2418 54.1637 23.2743 54.421C23.2743 54.4532 23.2743 54.4853 23.3068 54.5175C23.3392 54.3888 23.3392 54.2923 23.3392 54.1637C23.3717 53.6168 23.3392 53.07 23.3392 52.5232C23.3392 51.9763 23.3068 51.3974 23.2743 50.8505C23.2743 50.8184 23.2743 50.7219 23.2094 50.6254ZM24.1507 39.5922C24.2157 39.5601 24.2481 39.5279 24.3131 39.4636C24.4104 39.3349 24.4754 39.2062 24.5078 39.0776C24.6052 38.7237 24.5078 38.4664 24.2481 38.2091C24.2157 38.1769 24.1832 38.1447 24.1183 38.1447C24.0858 38.1769 24.0858 38.2091 24.0534 38.2734C23.9884 38.6594 24.0209 39.0776 24.0534 39.4636C24.0858 39.5279 24.1183 39.5601 24.1507 39.5922ZM21.0994 33.8344C21.0994 33.8988 21.1319 33.9309 21.1644 33.9631C21.2617 34.0596 21.3916 34.1883 21.489 34.2848C21.7162 34.4456 21.9434 34.6064 22.2031 34.7029C22.268 34.7351 22.3329 34.7351 22.3979 34.7351C22.4303 34.7351 22.4953 34.7351 22.5277 34.7029C22.5602 34.6708 22.5277 34.6064 22.5277 34.5743C22.4953 34.5421 22.4628 34.5099 22.4303 34.4778C22.3005 34.3813 22.1382 34.2848 21.9759 34.1883C21.7487 34.0596 21.5214 33.9309 21.2942 33.8666C21.2293 33.8023 21.1644 33.8023 21.0994 33.8344ZM24.0209 51.7833C24.0209 51.6225 24.0209 51.4617 23.956 51.2687C23.9235 51.1722 23.8911 51.14 23.8261 51.0757C23.7612 51.0435 23.7288 51.0435 23.6963 51.1079C23.6963 51.14 23.6638 51.2044 23.6638 51.2365C23.6314 51.5582 23.6314 51.912 23.6314 52.2337C23.6314 52.298 23.6314 52.3623 23.6638 52.3945C23.6963 52.491 23.7288 52.5232 23.8261 52.4588C23.9235 52.3945 23.956 52.298 23.956 52.2015C24.0209 52.0728 24.0209 51.9442 24.0209 51.7833ZM23.4366 48.3737C23.4366 48.1485 23.4366 47.9555 23.3717 47.7304C23.3392 47.666 23.3392 47.6017 23.2743 47.5374C23.2418 47.5052 23.1769 47.473 23.1445 47.473C23.0795 47.473 23.112 47.5374 23.0795 47.6017C23.0471 47.859 23.0795 48.1485 23.0795 48.4059C23.0795 48.5024 23.112 48.5989 23.1445 48.6954C23.1769 48.7597 23.2094 48.824 23.2743 48.8562C23.3392 48.8884 23.3717 48.8562 23.3717 48.824C23.4042 48.7597 23.4042 48.7275 23.4042 48.6632C23.4366 48.5345 23.4366 48.4702 23.4366 48.3737ZM22.6576 44.1277C22.69 44.1277 22.69 44.0956 22.69 44.0956C22.7225 43.9669 22.7549 43.8382 22.7874 43.7096C22.7874 43.6452 22.7874 43.5809 22.7874 43.5166C22.7874 43.4844 22.7549 43.4522 22.7225 43.4522C22.6576 43.4522 22.6576 43.4844 22.6251 43.5166C22.5277 43.7096 22.5926 43.9347 22.6576 44.1277ZM23.8911 44.0956C23.8911 44.1599 23.8911 44.2242 23.8911 44.2564C23.8911 44.2886 23.8911 44.3529 23.9235 44.3529C23.9884 44.3529 23.9884 44.2886 24.0209 44.2564C24.0858 44.0956 24.0858 43.9026 24.0858 43.7417C24.0858 43.7096 24.0858 43.6452 24.0209 43.6131C23.956 43.6131 23.956 43.6774 23.956 43.7096C23.8911 43.8382 23.8911 43.9669 23.8911 44.0956ZM22.8523 48.0842C22.9172 47.8912 22.9172 47.7304 22.8523 47.5695C22.7225 47.7304 22.7225 47.9234 22.8523 48.0842Z" fill="#0E74A3" stroke="#187FBC" stroke-width="0.25" stroke-miterlimit="10"/>
<path d="M21.2942 32.1618C21.3591 32.1618 21.424 32.1618 21.489 32.1939C21.5214 32.1939 21.5214 32.2261 21.5539 32.2583C21.5539 32.2904 21.5214 32.3226 21.5214 32.3226C21.489 32.3226 21.489 32.3548 21.4565 32.3548C21.3591 32.3548 21.2942 32.3869 21.1968 32.4191C21.1644 32.4191 21.1319 32.4513 21.0994 32.4191C21.067 32.4191 21.0021 32.3869 21.0021 32.3548C21.0021 32.2904 21.0345 32.2583 21.067 32.2583C21.0994 32.1618 21.1968 32.1618 21.2942 32.1618Z" fill="#0E74A3" stroke="#187FBC" stroke-width="0.25" stroke-miterlimit="10"/>
<path d="M25.4167 32.0653C25.5141 32.0653 25.579 32.0653 25.6764 32.0974C25.7089 32.0974 25.7413 32.1296 25.7413 32.1618C25.7413 32.1939 25.7089 32.2261 25.6764 32.2261C25.579 32.2583 25.5141 32.3226 25.3843 32.2583C25.3193 32.2261 25.2544 32.2261 25.2219 32.1939C25.1895 32.1618 25.157 32.1618 25.157 32.1296C25.157 32.0974 25.1895 32.0974 25.2219 32.0653C25.2869 32.0653 25.3518 32.0653 25.4167 32.0653Z" fill="#0E74A3" stroke="#187FBC" stroke-width="0.25" stroke-miterlimit="10"/>
<path d="M24.2481 25.9858C24.2481 26.3396 23.9235 26.7256 23.5665 26.7578C23.534 26.7578 23.4691 26.7578 23.4366 26.7578C23.3717 26.7256 23.3392 26.6613 23.4042 26.6291C23.4366 26.597 23.4366 26.597 23.4691 26.597C23.5989 26.5648 23.6963 26.4683 23.7612 26.3396C23.8261 26.2431 23.8586 26.1466 23.8911 26.0501C23.9235 25.9215 23.8911 25.825 23.8261 25.6963C23.7937 25.632 23.7612 25.5676 23.7612 25.5033C23.7612 25.4068 23.8261 25.3425 23.8911 25.3746C24.0534 25.439 24.1507 25.5355 24.2157 25.6963C24.2157 25.7928 24.2481 25.8571 24.2481 25.9858Z" fill="#1371AC" stroke="#187FBC" stroke-width="0.25" stroke-miterlimit="10"/>
</g>
<path d="M73.2338 29.5214L62.5798 32.4983L62.6856 32.8698L73.3396 29.8929L73.2338 29.5214Z" fill="#DCDBDB"/>
<path d="M73.6596 31.9661L63.0476 35.0846L63.1584 35.4546L73.7703 32.3362L73.6596 31.9661Z" fill="#DCDBDB"/>
<path d="M74.5893 34.3442L64.5185 37.4574L64.6345 37.8259L74.7053 34.7127L74.5893 34.3442Z" fill="#DCDBDB"/>
<path d="M73.849 42.7308L66.815 44.9052L66.931 45.2737L73.965 43.0992L73.849 42.7308Z" fill="#DCDBDB"/>
<path d="M76.3157 44.3946L65.9931 47.679L66.1122 48.0465L76.4347 44.7622L76.3157 44.3946Z" fill="#DCDBDB"/>
<path d="M76.9476 47.2568L66.5449 50.2833L66.6546 50.6536L77.0574 47.6272L76.9476 47.2568Z" fill="#DCDBDB"/>
<path d="M76.8669 42.7124C76.8669 43.6452 76.1203 44.4172 75.2114 44.4172H75.0816C74.1727 44.4172 73.4261 43.6452 73.4261 42.7124C73.4261 41.7796 74.1727 41.0076 75.0816 41.0076H75.2114C76.1203 41.0076 76.8669 41.7796 76.8669 42.7124Z" fill="#C9C9C9"/>
<path d="M76.3151 42.7124C76.3151 43.3557 75.7957 43.8704 75.1789 43.8704H75.0816C74.4648 43.8704 73.9454 43.3557 73.9454 42.7124C73.9454 42.0691 74.4648 41.5544 75.0816 41.5544H75.1789C75.8282 41.5544 76.3151 42.0691 76.3151 42.7124Z" fill="#DCDBDB"/>
<path d="M75.7632 42.9376C75.7632 43.0984 75.6334 43.2592 75.4386 43.2592H75.4062C75.2439 43.2592 75.0816 43.1306 75.0816 42.9376C75.0816 42.7767 75.2114 42.6159 75.4062 42.6159H75.4386C75.6334 42.6159 75.7632 42.7446 75.7632 42.9376Z" fill="white"/>
<path d="M78.8795 44.964C78.8795 45.8969 78.1329 46.6689 77.224 46.6689H77.0941C76.1852 46.6689 75.4386 45.8969 75.4386 44.964C75.4386 44.0312 76.1852 43.2592 77.0941 43.2592H77.224C78.1329 43.2592 78.8795 44.0312 78.8795 44.964Z" fill="#C9C9C9"/>
<path d="M78.3276 44.9641C78.3276 45.6074 77.8083 46.122 77.1915 46.122H77.0941C76.4774 46.122 75.958 45.6074 75.958 44.9641C75.958 44.3207 76.4774 43.8061 77.0941 43.8061H77.1915C77.8407 43.7739 78.3276 44.3207 78.3276 44.9641Z" fill="#DCDBDB"/>
<path d="M77.7758 45.157C77.7758 45.3179 77.646 45.4787 77.4512 45.4787H77.4187C77.2564 45.4787 77.0941 45.35 77.0941 45.157C77.0941 44.9962 77.224 44.8354 77.4187 44.8354H77.4512C77.646 44.8354 77.7758 44.9962 77.7758 45.157Z" fill="white"/>
<path d="M79.7559 48.1807C79.7559 49.1135 79.0093 49.8855 78.1004 49.8855H77.9706C77.0617 49.8855 76.3151 49.1135 76.3151 48.1807C76.3151 47.2479 77.0617 46.4759 77.9706 46.4759H78.1004C79.0093 46.4759 79.7559 47.2479 79.7559 48.1807Z" fill="#C9C9C9"/>
<path d="M79.2041 48.1807C79.2041 48.824 78.6847 49.3387 78.0679 49.3387H77.9706C77.3538 49.3387 76.8344 48.824 76.8344 48.1807C76.8344 47.5374 77.3538 47.0227 77.9706 47.0227H78.0679C78.7172 46.9905 79.2041 47.5374 79.2041 48.1807Z" fill="#DCDBDB"/>
<path d="M78.6847 48.3415C78.6847 48.5024 78.5548 48.6632 78.3601 48.6632H78.3276C78.1653 48.6632 78.003 48.5345 78.003 48.3415C78.003 48.1807 78.1329 48.0199 78.3276 48.0199H78.3601C78.5548 48.0199 78.6847 48.1485 78.6847 48.3415Z" fill="white"/>
<path d="M74.4648 41.4901C74.4648 42.4229 73.7182 43.1949 72.8093 43.1949H72.6795C71.7706 43.1949 71.024 42.4229 71.024 41.4901C71.024 40.5572 71.7706 39.7852 72.6795 39.7852H72.8093C73.7182 39.7852 74.4648 40.5572 74.4648 41.4901Z" fill="#C9C9C9"/>
<path d="M73.9779 41.5544C73.9779 42.1977 73.4585 42.7124 72.8418 42.7124H72.7444C72.1276 42.7124 71.6083 42.1977 71.6083 41.5544C71.6083 40.9111 72.1276 40.3964 72.7444 40.3964H72.8418C73.4585 40.3964 73.9779 40.9111 73.9779 41.5544Z" fill="#DCDBDB"/>
<path d="M73.4261 41.7796C73.4261 41.9404 73.2962 42.1012 73.1015 42.1012H73.069C72.9067 42.1012 72.7444 41.9726 72.7444 41.7796C72.7444 41.6187 72.8742 41.4579 73.069 41.4579H73.1015C73.2638 41.4579 73.4261 41.5866 73.4261 41.7796Z" fill="white"/>
<path d="M63.0386 32.5156C63.0386 33.4484 62.292 34.2204 61.3832 34.2204H61.2533C60.3444 34.2204 59.5978 33.4484 59.5978 32.5156C59.5978 31.5828 60.3444 30.8108 61.2533 30.8108H61.3832C62.292 30.8108 63.0386 31.5828 63.0386 32.5156Z" fill="#59B0E3" stroke="#59B0E3" stroke-width="0.25" stroke-miterlimit="10"/>
<path d="M62.5193 32.5156C62.5193 33.1589 61.9999 33.6736 61.3832 33.6736H61.2858C60.669 33.6736 60.1496 33.1589 60.1496 32.5156C60.1496 31.8723 60.669 31.3576 61.2858 31.3576H61.3832C61.9999 31.3576 62.5193 31.8723 62.5193 32.5156Z" fill="#22486E" stroke="#59B0E3" stroke-width="0.25" stroke-miterlimit="10"/>
<path d="M61.935 32.7408C61.935 32.9016 61.8051 33.0624 61.6104 33.0624H61.5779C61.4156 33.0624 61.2533 32.9338 61.2533 32.7408C61.2533 32.5799 61.3831 32.4191 61.5779 32.4191H61.6104C61.8051 32.4191 61.935 32.5478 61.935 32.7408Z" fill="white" stroke="#59B0E3" stroke-width="0.25" stroke-miterlimit="10"/>
<path d="M63.6554 35.6358C63.6554 36.5686 62.9088 37.3406 61.9999 37.3406H61.8701C60.9612 37.3406 60.2146 36.5686 60.2146 35.6358C60.2146 34.7029 60.9612 33.9309 61.8701 33.9309H61.9999C62.9413 33.9309 63.6554 34.7029 63.6554 35.6358Z" fill="#58B2E4" stroke="#59B0E3" stroke-width="0.25" stroke-miterlimit="10"/>
<path d="M63.136 35.6358C63.136 36.2791 62.6167 36.7938 61.9999 36.7938H61.9025C61.2858 36.7938 60.7664 36.2791 60.7664 35.6358C60.7664 34.9924 61.2858 34.4778 61.9025 34.4778H61.9999C62.6167 34.4456 63.136 34.9924 63.136 35.6358Z" fill="#22486E" stroke="#59B0E3" stroke-width="0.25" stroke-miterlimit="10"/>
<path d="M62.5842 35.8288C62.5842 35.9896 62.4544 36.1504 62.2596 36.1504H62.2271C62.0648 36.1504 61.9025 36.0218 61.9025 35.8288C61.9025 35.6679 62.0324 35.5071 62.2271 35.5071H62.2596C62.4219 35.5071 62.5842 35.6679 62.5842 35.8288Z" fill="white" stroke="#59B0E3" stroke-width="0.25" stroke-miterlimit="10"/>
<path d="M65.8627 38.1126C65.8627 39.0454 65.1161 39.8174 64.2072 39.8174H64.0774C63.1685 39.8174 62.4219 39.0454 62.4219 38.1126C62.4219 37.1798 63.1685 36.4078 64.0774 36.4078H64.2072C65.1161 36.4078 65.8627 37.1798 65.8627 38.1126Z" fill="#58B2E4" stroke="#59B0E3" stroke-width="0.25" stroke-miterlimit="10"/>
<path d="M65.3109 38.1126C65.3109 38.7559 64.7915 39.2706 64.1748 39.2706H64.0774C63.4606 39.2706 62.9413 38.7559 62.9413 38.1126C62.9413 37.4693 63.4606 36.9546 64.0774 36.9546H64.1748C64.824 36.9546 65.3109 37.4693 65.3109 38.1126Z" fill="#22486E" stroke="#59B0E3" stroke-width="0.25" stroke-miterlimit="10"/>
<path d="M64.7591 38.3377C64.7591 38.4986 64.6292 38.6594 64.4345 38.6594H64.402C64.2397 38.6594 64.0774 38.5307 64.0774 38.3377C64.0774 38.1769 64.2072 38.0161 64.402 38.0161H64.4345C64.6292 38.0161 64.7591 38.1447 64.7591 38.3377Z" fill="white" stroke="#59B0E3" stroke-width="0.25" stroke-miterlimit="10"/>
<path d="M68.8491 39.3671C68.8491 40.2999 68.1025 41.0719 67.1936 41.0719H67.0638C66.1549 41.0719 65.4083 40.2999 65.4083 39.3671C65.4083 38.4342 66.1549 37.6623 67.0638 37.6623H67.1936C68.1025 37.6623 68.8491 38.4021 68.8491 39.3671Z" fill="#58B2E4" stroke="#59B0E3" stroke-width="0.25" stroke-miterlimit="10"/>
<path d="M68.2973 39.3671C68.2973 40.0104 67.7779 40.5251 67.1611 40.5251H67.0638C66.447 40.5251 65.9276 40.0104 65.9276 39.3671C65.9276 38.7237 66.447 38.2091 67.0638 38.2091H67.1611C67.7779 38.1769 68.2973 38.7237 68.2973 39.3671Z" fill="#22486E" stroke="#59B0E3" stroke-width="0.25" stroke-miterlimit="10"/>
<path d="M67.7454 39.5601C67.7454 39.7209 67.6156 39.8817 67.4208 39.8817H67.3884C67.2261 39.8817 67.0638 39.7531 67.0638 39.5601C67.0638 39.3992 67.1936 39.2384 67.3884 39.2384H67.4208C67.6156 39.2384 67.7454 39.3992 67.7454 39.5601Z" fill="white" stroke="#59B0E3" stroke-width="0.25" stroke-miterlimit="10"/>
<path d="M71.803 40.2999C71.803 41.2327 71.0564 42.0047 70.1475 42.0047H70.0177C69.1088 42.0047 68.3622 41.2327 68.3622 40.2999C68.3622 39.3671 69.1088 38.5951 70.0177 38.5951H70.1475C71.0889 38.5951 71.803 39.3349 71.803 40.2999Z" fill="#58B2E4" stroke="#59B0E3" stroke-width="0.25" stroke-miterlimit="10"/>
<path d="M71.2837 40.2999C71.2837 40.9432 70.7643 41.4579 70.1475 41.4579H70.0502C69.4334 41.4579 68.914 40.9432 68.914 40.2999C68.914 39.6566 69.4334 39.1419 70.0502 39.1419H70.1475C70.7643 39.1097 71.2837 39.6244 71.2837 40.2999Z" fill="#22486E" stroke="#59B0E3" stroke-width="0.25" stroke-miterlimit="10"/>
<path d="M70.7318 40.4929C70.7318 40.6537 70.602 40.8146 70.4072 40.8146H70.3748C70.2125 40.8146 70.0502 40.6859 70.0502 40.4929C70.0502 40.3321 70.18 40.1712 70.3748 40.1712H70.4072C70.5695 40.1712 70.7318 40.3321 70.7318 40.4929Z" fill="white" stroke="#59B0E3" stroke-width="0.25" stroke-miterlimit="10"/>
<path d="M74.0104 38.4342C74.0104 39.3671 73.2638 40.1391 72.3549 40.1391H72.225C71.3161 40.1391 70.5695 39.3671 70.5695 38.4342C70.5695 37.5014 71.3161 36.7294 72.225 36.7294H72.3549C73.2638 36.7294 74.0104 37.4693 74.0104 38.4342Z" fill="#58B2E4" stroke="#59B0E3" stroke-width="0.25" stroke-miterlimit="10"/>
<path d="M73.4585 38.4342C73.4585 39.0776 72.9392 39.5922 72.3224 39.5922H72.225C71.6083 39.5922 71.0889 39.0776 71.0889 38.4342C71.0889 37.7909 71.6083 37.2763 72.225 37.2763H72.3224C72.9716 37.2441 73.4585 37.7909 73.4585 38.4342Z" fill="#22486E" stroke="#59B0E3" stroke-width="0.25" stroke-miterlimit="10"/>
<path d="M72.9067 38.6272C72.9067 38.7881 72.7768 38.9489 72.5821 38.9489H72.5496C72.3873 38.9489 72.225 38.8202 72.225 38.6272C72.225 38.4664 72.3549 38.3056 72.5496 38.3056H72.5821C72.7768 38.3056 72.9067 38.4664 72.9067 38.6272Z" fill="white" stroke="#59B0E3" stroke-width="0.25" stroke-miterlimit="10"/>
<path d="M75.8931 35.6358C75.8931 36.5686 75.1465 37.3406 74.2376 37.3406H74.1077C73.1988 37.3406 72.4522 36.5686 72.4522 35.6358C72.4522 34.7029 73.1988 33.9309 74.1077 33.9309H74.2376C75.1465 33.9309 75.8931 34.7029 75.8931 35.6358Z" fill="#58B2E4" stroke="#59B0E3" stroke-width="0.25" stroke-miterlimit="10"/>
<path d="M75.3412 35.6358C75.3412 36.2791 74.8219 36.7938 74.2051 36.7938H74.1077C73.491 36.7938 72.9716 36.2791 72.9716 35.6358C72.9716 34.9924 73.491 34.4778 74.1077 34.4778H74.2051C74.8543 34.4456 75.3412 34.9924 75.3412 35.6358Z" fill="#22486E" stroke="#59B0E3" stroke-width="0.25" stroke-miterlimit="10"/>
<path d="M74.7894 35.8288C74.7894 35.9896 74.6596 36.1504 74.4648 36.1504H74.4323C74.27 36.1504 74.1077 36.0218 74.1077 35.8288C74.1077 35.6679 74.2376 35.5071 74.4323 35.5071H74.4648C74.6596 35.5071 74.7894 35.6679 74.7894 35.8288Z" fill="white" stroke="#59B0E3" stroke-width="0.25" stroke-miterlimit="10"/>
<path d="M76.8344 32.5156C76.8344 33.4484 76.0878 34.2204 75.1789 34.2204H75.0491C74.1402 34.2204 73.3936 33.4484 73.3936 32.5156C73.3936 31.5828 74.1402 30.8108 75.0491 30.8108H75.1789C76.0878 30.8108 76.8344 31.5828 76.8344 32.5156Z" fill="#58B2E4" stroke="#59B0E3" stroke-width="0.25" stroke-miterlimit="10"/>
<path d="M76.2826 32.5156C76.2826 33.1589 75.7632 33.6736 75.1465 33.6736H75.0491C74.4323 33.6736 73.913 33.1589 73.913 32.5156C73.913 31.8723 74.4323 31.3576 75.0491 31.3576H75.1465C75.7957 31.3576 76.2826 31.8723 76.2826 32.5156Z" fill="#22486E" stroke="#59B0E3" stroke-width="0.25" stroke-miterlimit="10"/>
<path d="M75.7308 32.7408C75.7308 32.9016 75.6009 33.0624 75.4062 33.0624H75.3737C75.2114 33.0624 75.0491 32.9338 75.0491 32.7408C75.0491 32.5799 75.1789 32.4191 75.3737 32.4191H75.4062C75.6009 32.4191 75.7308 32.5478 75.7308 32.7408Z" fill="white" stroke="#59B0E3" stroke-width="0.25" stroke-miterlimit="10"/>
<path d="M76.1852 29.4276C76.1852 30.3605 75.4386 31.1325 74.5297 31.1325H74.3999C73.491 31.1325 72.7444 30.3605 72.7444 29.4276C72.7444 28.4948 73.491 27.7228 74.3999 27.7228H74.5297C75.4711 27.7228 76.1852 28.4948 76.1852 29.4276Z" fill="#58B2E4" stroke="#59B0E3" stroke-width="0.25" stroke-miterlimit="10"/>
<path d="M75.6658 29.4276C75.6658 30.071 75.1465 30.5856 74.5297 30.5856H74.4323C73.8156 30.5856 73.2962 30.071 73.2962 29.4276C73.2962 28.7843 73.8156 28.2696 74.4323 28.2696H74.5297C75.1465 28.2375 75.6658 28.7843 75.6658 29.4276Z" fill="#22486E" stroke="#59B0E3" stroke-width="0.25" stroke-miterlimit="10"/>
<path d="M75.114 29.6206C75.114 29.7815 74.9842 29.9423 74.7894 29.9423H74.7569C74.5946 29.9423 74.4323 29.8136 74.4323 29.6206C74.4323 29.4598 74.5622 29.299 74.7569 29.299H74.7894C74.9842 29.299 75.114 29.4598 75.114 29.6206Z" fill="white" stroke="#59B0E3" stroke-width="0.25" stroke-miterlimit="10"/>
<path d="M69.6282 42.1656C69.6282 43.0984 68.8816 43.8704 67.9727 43.8704H67.8428C66.9339 43.8704 66.1873 43.0984 66.1873 42.1656C66.1873 41.2327 66.9339 40.4607 67.8428 40.4607H67.9727C68.8816 40.4607 69.6282 41.2006 69.6282 42.1656Z" fill="#58B2E4" stroke="#59B0E3" stroke-width="0.25" stroke-miterlimit="10"/>
<path d="M69.0763 42.1656C69.0763 42.8089 68.557 43.3236 67.9402 43.3236H67.8428C67.2261 43.3236 66.7067 42.8089 66.7067 42.1656C66.7067 41.5222 67.2261 41.0076 67.8428 41.0076H67.9402C68.5894 40.9754 69.0763 41.4901 69.0763 42.1656Z" fill="#22486E" stroke="#59B0E3" stroke-width="0.25" stroke-miterlimit="10"/>
<path d="M68.5245 42.3586C68.5245 42.5194 68.3947 42.6802 68.1999 42.6802H68.1674C68.0051 42.6802 67.8428 42.5516 67.8428 42.3586C67.8428 42.1977 67.9727 42.0369 68.1674 42.0369H68.1999C68.3947 42.0369 68.5245 42.1977 68.5245 42.3586Z" fill="white" stroke="#59B0E3" stroke-width="0.25" stroke-miterlimit="10"/>
<path d="M67.7454 44.9319C67.7454 45.8647 66.9988 46.6367 66.0899 46.6367H65.9601C65.0512 46.6367 64.3046 45.8647 64.3046 44.9319C64.3046 43.9991 65.0512 43.2271 65.9601 43.2271H66.0899C66.9988 43.2271 67.7454 43.9991 67.7454 44.9319Z" fill="#58B2E4" stroke="#59B0E3" stroke-width="0.25" stroke-miterlimit="10"/>
<path d="M67.1936 44.9319C67.1936 45.5752 66.6742 46.0899 66.0575 46.0899H65.9601C65.3433 46.0899 64.824 45.5752 64.824 44.9319C64.824 44.2886 65.3433 43.7739 65.9601 43.7739H66.0575C66.7067 43.7739 67.1936 44.2886 67.1936 44.9319Z" fill="#22486E" stroke="#59B0E3" stroke-width="0.25" stroke-miterlimit="10"/>
<path d="M66.6418 45.157C66.6418 45.3179 66.5119 45.4787 66.3172 45.4787H66.2847C66.1224 45.4787 65.9601 45.35 65.9601 45.157C65.9601 44.9962 66.0899 44.8354 66.2847 44.8354H66.3172C66.5119 44.8354 66.6418 44.9962 66.6418 45.157Z" fill="white" stroke="#59B0E3" stroke-width="0.25" stroke-miterlimit="10"/>
<path d="M66.9664 47.7947C66.9664 48.7275 66.2198 49.4995 65.3109 49.4995H65.181C64.2722 49.4995 63.5256 48.7275 63.5256 47.7947C63.5256 46.8619 64.2722 46.0899 65.181 46.0899H65.3109C66.2198 46.0899 66.9664 46.8619 66.9664 47.7947Z" fill="#58B2E4" stroke="#59B0E3" stroke-width="0.25" stroke-miterlimit="10"/>
<path d="M66.4146 47.7947C66.4146 48.438 65.8952 48.9527 65.2784 48.9527H65.181C64.5643 48.9527 64.0449 48.438 64.0449 47.7947C64.0449 47.1514 64.5643 46.6367 65.181 46.6367H65.2784C65.9276 46.6045 66.4146 47.1514 66.4146 47.7947Z" fill="#22486E" stroke="#59B0E3" stroke-width="0.25" stroke-miterlimit="10"/>
<path d="M65.8627 47.9877C65.8627 48.1485 65.7329 48.3094 65.5381 48.3094H65.5057C65.3434 48.3094 65.181 48.1807 65.181 47.9877C65.181 47.8269 65.3109 47.666 65.5057 47.666H65.5381C65.7329 47.6982 65.8627 47.8269 65.8627 47.9877Z" fill="white" stroke="#59B0E3" stroke-width="0.25" stroke-miterlimit="10"/>
<path d="M67.5831 50.8827C67.5831 51.8155 66.8365 52.5875 65.9276 52.5875H65.7978C64.8889 52.5875 64.1423 51.8155 64.1423 50.8827C64.1423 49.9499 64.8889 49.1779 65.7978 49.1779H65.9276C66.8365 49.1779 67.5831 49.9499 67.5831 50.8827Z" fill="#58B2E4" stroke="#59B0E3" stroke-width="0.25" stroke-miterlimit="10"/>
<path d="M67.0638 50.8827C67.0638 51.526 66.5444 52.0407 65.9276 52.0407H65.8303C65.2135 52.0407 64.6941 51.526 64.6941 50.8827C64.6941 50.2394 65.2135 49.7247 65.8303 49.7247H65.9276C66.5444 49.7247 67.0638 50.2394 67.0638 50.8827Z" fill="#22486E" stroke="#59B0E3" stroke-width="0.25" stroke-miterlimit="10"/>
<path d="M66.5119 51.1079C66.5119 51.2687 66.3821 51.4295 66.1873 51.4295H66.1549C65.9926 51.4295 65.8303 51.3009 65.8303 51.1079C65.8303 50.947 65.9601 50.7862 66.1549 50.7862H66.1873C66.3496 50.7862 66.5119 50.947 66.5119 51.1079Z" fill="white" stroke="#59B0E3" stroke-width="0.25" stroke-miterlimit="10"/>
<path d="M77.9706 30.843V52.9413H83.2292V43.8382H90.3056V39.9139L83.359 39.8496L83.4239 34.9603C83.4239 34.9603 92.7402 36.0861 92.2857 32.7408V30.843H77.9706Z" fill="#58B2E4"/>
</g>
<path d="M11.408 15L11.296 14.312L11.856 14.2V10.256L11.312 10.2V9.472H13.312C13.6907 9.472 14.0213 9.51467 14.304 9.6C14.5867 9.68533 14.8213 9.808 15.008 9.968C15.1947 10.128 15.3333 10.3227 15.424 10.552C15.52 10.776 15.568 11.0293 15.568 11.312C15.568 11.6907 15.4827 12.024 15.312 12.312C15.1467 12.5947 14.8933 12.816 14.552 12.976C14.216 13.136 13.792 13.216 13.28 13.216H12.904V14.152L14.12 14.336L14.072 15H11.408ZM12.904 12.376H12.976C13.392 12.3707 13.7067 12.3253 13.92 12.24C14.1333 12.1493 14.2773 12.024 14.352 11.864C14.432 11.6987 14.472 11.5067 14.472 11.288C14.472 10.9893 14.3813 10.752 14.2 10.576C14.0187 10.4 13.7333 10.312 13.344 10.312H12.904V12.376ZM20.7437 15.032C20.365 15.032 20.029 14.9653 19.7357 14.832C19.4477 14.6933 19.205 14.4987 19.0077 14.248C18.8104 13.9973 18.661 13.7013 18.5597 13.36C18.4584 13.0187 18.4077 12.6453 18.4077 12.24C18.4077 11.8293 18.4584 11.456 18.5597 11.12C18.661 10.7787 18.8104 10.4853 19.0077 10.24C19.205 9.98933 19.4477 9.79733 19.7357 9.664C20.029 9.52533 20.365 9.456 20.7437 9.456C21.1224 9.456 21.4557 9.52533 21.7437 9.664C22.0317 9.79733 22.2744 9.98933 22.4717 10.24C22.669 10.4853 22.8184 10.7787 22.9197 11.12C23.021 11.456 23.0717 11.8293 23.0717 12.24C23.0717 12.6453 23.021 13.0187 22.9197 13.36C22.8184 13.7013 22.669 13.9973 22.4717 14.248C22.2744 14.4987 22.0317 14.6933 21.7437 14.832C21.4557 14.9653 21.1224 15.032 20.7437 15.032ZM20.7437 14.192C20.9304 14.192 21.0984 14.144 21.2477 14.048C21.4024 13.9467 21.533 13.808 21.6397 13.632C21.7464 13.456 21.829 13.2507 21.8877 13.016C21.9464 12.7813 21.9757 12.528 21.9757 12.256C21.9757 11.984 21.9464 11.7307 21.8877 11.496C21.829 11.256 21.7464 11.048 21.6397 10.872C21.533 10.6907 21.4024 10.5493 21.2477 10.448C21.0984 10.3467 20.9304 10.296 20.7437 10.296C20.5517 10.296 20.3784 10.3467 20.2237 10.448C20.0744 10.5493 19.9464 10.6907 19.8397 10.872C19.733 11.048 19.6504 11.256 19.5917 11.496C19.533 11.7307 19.5037 11.984 19.5037 12.256C19.5037 12.528 19.533 12.7813 19.5917 13.016C19.6504 13.2507 19.733 13.456 19.8397 13.632C19.9464 13.808 20.0744 13.9467 20.2237 14.048C20.3784 14.144 20.5517 14.192 20.7437 14.192ZM27.1561 15L26.2761 10.296L25.8361 10.192V9.472H27.7881L27.9241 10.104L27.3641 10.184L28.0201 13.88L29.2521 9.576H30.3881L31.5801 13.968L32.2041 10.184L31.5321 10.08L31.6201 9.472H33.6121V10.176L32.9881 10.336L32.1081 15H30.7641L29.6361 10.944L28.5561 15H27.1561ZM36.4549 15L36.3429 14.296L36.8629 14.192V10.24L36.3589 10.184V9.472H40.0069L40.1589 11.104H39.5349L39.2069 10.312H37.9109V11.736H39.1269V12.576H37.9109V14.16H39.2629L39.5589 13.368H40.1909L40.0229 15H36.4549ZM43.2844 15L43.2124 14.32L43.7644 14.208V10.256L43.2204 10.2V9.472H45.1804C45.7031 9.472 46.1351 9.54933 46.4764 9.704C46.8178 9.85867 47.0711 10.072 47.2364 10.344C47.4018 10.6107 47.4844 10.92 47.4844 11.272C47.4844 11.6613 47.3858 11.992 47.1884 12.264C46.9911 12.5307 46.7191 12.736 46.3724 12.88L47.0764 14.224L47.5804 14.304V15H46.2284L45.3964 13.12C45.3058 13.1253 45.2098 13.1307 45.1084 13.136C45.0124 13.1413 44.9138 13.144 44.8124 13.144V14.24L45.2284 14.304V15H43.2844ZM44.8124 12.296H45.0764C45.3911 12.296 45.6444 12.2533 45.8364 12.168C46.0338 12.0773 46.1778 11.9573 46.2684 11.808C46.3591 11.6533 46.4044 11.4827 46.4044 11.296C46.4044 11.0933 46.3591 10.92 46.2684 10.776C46.1831 10.632 46.0311 10.5227 45.8124 10.448C45.5991 10.368 45.2978 10.3253 44.9084 10.32H44.8124V12.296ZM50.6709 15L50.5589 14.296L51.0789 14.192V10.24L50.5749 10.184V9.472H54.2229L54.3749 11.104H53.7509L53.4229 10.312H52.1269V11.736H53.3429V12.576H52.1269V14.16H53.4789L53.7749 13.368H54.4069L54.2389 15H50.6709ZM57.5484 15L57.4364 14.296L57.9564 14.192V10.24L57.4524 10.176V9.472H58.8764C59.527 9.472 60.0817 9.57333 60.5404 9.776C61.0044 9.97333 61.359 10.272 61.6044 10.672C61.8497 11.0667 61.9724 11.5653 61.9724 12.168C61.9724 12.7653 61.8684 13.2773 61.6604 13.704C61.4577 14.1253 61.151 14.448 60.7404 14.672C60.335 14.8907 59.8284 15 59.2204 15H57.5484ZM59.1564 14.168C59.439 14.168 59.687 14.1253 59.9004 14.04C60.1137 13.9547 60.2924 13.8293 60.4364 13.664C60.5804 13.4987 60.6897 13.2933 60.7644 13.048C60.839 12.7973 60.8764 12.512 60.8764 12.192C60.8764 11.776 60.8044 11.4293 60.6604 11.152C60.5217 10.8747 60.3164 10.6667 60.0444 10.528C59.7724 10.3893 59.439 10.3173 59.0444 10.312H59.0044V14.16L59.1564 14.168ZM69.46 15L69.348 14.32L69.86 14.2V10.248L69.3 10.192V9.472H71.516C71.8947 9.472 72.2173 9.536 72.484 9.664C72.7507 9.792 72.9533 9.96533 73.092 10.184C73.236 10.4027 73.308 10.648 73.308 10.92C73.308 11.1653 73.2573 11.3787 73.156 11.56C73.0547 11.736 72.932 11.8747 72.788 11.976C72.6493 12.0773 72.524 12.1413 72.412 12.168C72.6413 12.2267 72.8387 12.312 73.004 12.424C73.1693 12.536 73.2973 12.6827 73.388 12.864C73.484 13.04 73.532 13.2533 73.532 13.504C73.532 14.0053 73.3667 14.3813 73.036 14.632C72.7107 14.8773 72.284 15 71.756 15H69.46ZM70.908 14.16H71.5C71.6707 14.16 71.8253 14.1387 71.964 14.096C72.108 14.048 72.2227 13.9707 72.308 13.864C72.3933 13.752 72.436 13.6 72.436 13.408C72.436 13.1413 72.3427 12.9467 72.156 12.824C71.9747 12.696 71.7133 12.632 71.372 12.632H70.908V14.16ZM70.908 11.792H71.38C71.5667 11.792 71.7213 11.76 71.844 11.696C71.9667 11.632 72.0573 11.544 72.116 11.432C72.18 11.3147 72.212 11.184 72.212 11.04C72.212 10.7733 72.116 10.5867 71.924 10.48C71.7373 10.368 71.5187 10.312 71.268 10.312H70.908V11.792ZM77.1631 15L77.0831 14.416L77.9951 14.232V12.984L76.4671 10.264L76.1471 10.184V9.472H78.0991L78.2191 10.104L77.6511 10.216L78.6431 11.944L79.5391 10.192L79.0511 10.104V9.472H80.8191V10.176L80.4671 10.264L79.0431 12.992V14.232L79.9631 14.416L79.8911 15H77.1631Z" fill="#1870A3"/>
<defs>
<clipPath id="clip0_1_106">
<rect width="92.2857" height="34" fill="white" transform="translate(0 21)"/>
</clipPath>
</defs>
</svg>
