<svg width="376" height="144" viewBox="0 0 376 144" fill="none" xmlns="http://www.w3.org/2000/svg">
<g clip-path="url(#clip0_1_132)">
<path d="M0.0155487 80.7688C0.27478 79.4628 0.535308 78.1542 0.824352 76.8482C1.11728 75.5435 1.44132 74.2414 1.81721 72.9471C2.56898 70.3623 3.5411 67.797 4.93836 65.4109C5.64088 64.2127 6.46523 63.0806 7.39458 62.0329C8.32522 60.9866 9.36474 60.0233 10.5157 59.1847C11.6654 58.3447 12.9305 57.6333 14.2927 57.1114C15.6537 56.5895 17.1171 56.265 18.6064 56.191C18.9758 56.1845 19.3465 56.1624 19.7172 56.1819C19.9025 56.1897 20.0879 56.1897 20.2732 56.2052L20.828 56.2533C21.5642 56.3377 22.3004 56.4571 23.0133 56.6492L23.2829 56.7167L23.5473 56.7959C23.7236 56.8492 23.9012 56.9011 24.0761 56.9569C24.4209 57.0802 24.7709 57.1971 25.1066 57.3399C25.7871 57.6086 26.4403 57.9267 27.0767 58.2642C27.7158 58.6005 28.3224 58.9756 28.9225 59.3586C29.5122 59.7507 30.0955 60.1518 30.6516 60.5763C31.7753 61.4163 32.8265 62.3134 33.8505 63.2234C35.8893 65.0422 37.7765 66.9636 39.6754 68.7214C41.5471 70.4558 43.5483 72.0461 45.6442 73.478C46.6941 74.192 47.7686 74.8632 48.8587 75.5019C49.9552 76.129 51.0712 76.7132 52.2041 77.2519C53.3421 77.7777 54.4931 78.2646 55.6622 78.6891C56.8327 79.1032 58.0135 79.4745 59.2059 79.7718C60.3984 80.06 61.5973 80.2924 62.7976 80.4533C63.9978 80.6026 65.1981 80.6818 66.3905 80.687C67.5817 80.674 68.7625 80.5845 69.9239 80.4157C71.0852 80.2391 72.2207 79.9613 73.3315 79.6173L74.1571 79.3369C74.4306 79.2395 74.6963 79.1227 74.9672 79.0175C75.102 78.963 75.2368 78.9124 75.3703 78.8539L75.7682 78.6709L76.1662 78.4891C76.2984 78.4281 76.4267 78.3567 76.5576 78.2918C77.5984 77.766 78.6068 77.165 79.5764 76.4912C81.5128 75.1346 83.295 73.4949 84.9554 71.6761C86.6184 69.8586 88.1517 67.8503 89.6345 65.7601C91.1122 63.6661 92.5444 61.4799 93.9909 59.2561C94.7142 58.1435 95.4426 57.0205 96.1879 55.8937C96.9358 54.7655 97.6811 53.6439 98.5132 52.4794C100.155 50.1828 101.958 47.9875 103.932 45.9117C104.92 44.8744 105.965 43.8787 107.056 42.9206C108.149 41.9638 109.292 41.0473 110.5 40.1904C112.919 38.4859 115.594 36.9955 118.565 35.9738C120.048 35.4636 121.604 35.0794 123.209 34.8652C124.811 34.6484 126.458 34.6016 128.094 34.7431C129.731 34.8872 131.345 35.2014 132.915 35.7103C133.112 35.77 133.305 35.8388 133.498 35.9089C133.691 35.979 133.885 36.0465 134.076 36.1205C134.454 36.2763 134.838 36.4217 135.206 36.5957C135.954 36.9241 136.668 37.3084 137.371 37.707C138.759 38.5235 140.058 39.4531 141.239 40.4748C141.837 40.9798 142.395 41.5146 142.946 42.056C143.483 42.6038 144.012 43.1595 144.505 43.7346C146.497 46.0272 148.137 48.5068 149.544 51.0617C149.893 51.7017 150.233 52.3457 150.551 52.9974C150.713 53.3219 150.869 53.6491 151.023 53.9762C151.179 54.3034 151.317 54.6214 151.465 54.9447C152.052 56.2338 152.575 57.5203 153.087 58.7965C154.099 61.3449 155.015 63.8569 155.964 66.256C157.85 71.075 159.92 75.4591 162.866 78.9617C165.829 82.5227 169.617 85.4554 173.837 87.5325C178.061 89.6006 182.707 90.83 187.361 91.0637C187.651 91.0793 187.943 91.0819 188.233 91.0922L188.669 91.1065C188.814 91.1091 188.959 91.1039 189.104 91.1039L189.975 91.0961L190.844 91.052C190.989 91.0442 191.133 91.0403 191.278 91.0299L191.71 90.9897C191.997 90.9624 192.286 90.9416 192.573 90.9092C193.143 90.8274 193.72 90.7703 194.284 90.6586C194.566 90.6054 194.853 90.5665 195.133 90.5041L195.974 90.3185C196.254 90.2653 196.538 90.1718 196.819 90.0991L197.667 89.868L198.091 89.7538L198.509 89.6136L199.347 89.3331L199.765 89.1942L199.975 89.1241L200.181 89.0424L201.008 88.7139C205.42 86.9496 209.602 84.3272 213.56 81.2336C215.545 79.6913 217.479 78.0387 219.381 76.3107C219.854 75.8732 220.333 75.4474 220.803 75.0021L222.215 73.6689L223.618 72.3122L225.025 70.9322C228.78 67.2336 232.555 63.3831 236.668 59.7221C238.726 57.8929 240.866 56.1092 243.122 54.4267C245.376 52.7442 247.745 51.163 250.243 49.7531C250.875 49.4104 251.501 49.0651 252.139 48.7262L253.123 48.2355L254.118 47.7707C255.452 47.1671 256.817 46.6348 258.203 46.1648C260.972 45.2236 263.838 44.555 266.765 44.189C268.228 44.0059 269.706 43.8982 271.194 43.8813C272.682 43.867 274.179 43.9397 275.673 44.1111C277.168 44.2824 278.662 44.555 280.137 44.938C281.612 45.3197 283.069 45.8182 284.48 46.444C285.89 47.0671 287.256 47.8097 288.548 48.6652L289.033 48.9872C289.192 49.0975 289.347 49.2143 289.505 49.3286C289.817 49.5584 290.135 49.783 290.43 50.0283C290.731 50.2698 291.033 50.5074 291.318 50.7631C291.608 51.0137 291.897 51.2655 292.171 51.5304C294.404 53.6166 296.236 55.991 297.786 58.4122C299.339 60.8373 300.628 63.3156 301.82 65.7575C303.012 68.1995 304.116 70.6064 305.273 72.9159C305.851 74.07 306.44 75.2008 307.059 76.2952L307.292 76.7028C307.37 76.8365 307.449 76.9806 307.524 77.1026C307.68 77.3532 307.825 77.6103 307.987 77.8582C308.151 78.1049 308.306 78.358 308.477 78.6008C308.649 78.8436 308.812 79.0915 308.993 79.3304C310.403 81.2543 312.051 83.0368 313.886 84.5479C315.717 86.0578 317.742 87.3053 319.847 88.0804C321.952 88.8567 324.119 89.128 326.141 88.7412C327.153 88.5477 328.126 88.1725 329.053 87.6572C329.977 87.1418 330.821 86.4706 331.591 85.6735C332.364 84.8777 333.054 83.9468 333.682 82.9316C334.31 81.9177 334.872 80.8156 335.4 79.6718C336.454 77.3766 337.349 74.9035 338.33 72.3888C338.82 71.1309 339.334 69.8612 339.91 68.5941C340.488 67.3284 341.128 66.0652 341.894 64.8397C342.659 63.6168 343.542 62.4276 344.599 61.3631C345.654 60.2985 346.884 59.3703 348.229 58.6706L348.737 58.4174L349.254 58.1889C349.606 58.0474 349.962 57.9046 350.326 57.793C351.05 57.5606 351.793 57.3879 352.54 57.2893C354.034 57.0919 355.538 57.1348 356.976 57.3931C357.697 57.5203 358.405 57.693 359.094 57.9085C359.782 58.1279 360.454 58.3863 361.106 58.6796C362.41 59.2677 363.636 59.9973 364.765 60.8464C365.33 61.2709 365.874 61.7188 366.392 62.1965C366.907 62.6756 367.4 63.1793 367.864 63.7063C368.771 64.7748 369.6 65.8796 370.314 67.057C371.745 69.4068 372.831 71.9085 373.716 74.4465C374.162 75.7149 374.566 76.9936 374.94 78.2775C375.309 79.5628 375.658 80.8493 376.001 82.1371L375.514 82.2916C374.705 79.7575 373.896 77.226 372.914 74.7659C371.94 72.3044 370.78 69.9157 369.32 67.723C368.594 66.6247 367.764 65.5978 366.883 64.6307C366.433 64.1555 365.959 63.7037 365.464 63.2753C364.967 62.8482 364.447 62.451 363.911 62.0758C363.375 61.7006 362.817 61.3579 362.244 61.0437C361.671 60.7308 361.084 60.4413 360.479 60.196C359.875 59.948 359.258 59.7338 358.631 59.5559C358.004 59.3807 357.366 59.247 356.724 59.1548C355.438 58.964 354.127 58.973 352.852 59.1808C351.577 59.3963 350.346 59.8299 349.216 60.4621C348.086 61.0917 347.065 61.907 346.177 62.8547C345.288 63.8011 344.533 64.876 343.872 66.0055C342.553 68.2735 341.605 70.7557 340.708 73.2495C339.813 75.7486 338.98 78.2853 337.936 80.7571C337.411 81.9917 336.834 83.2108 336.152 84.3779C335.474 85.5463 334.695 86.6666 333.775 87.674C332.859 88.6814 331.805 89.5772 330.629 90.2809C329.456 90.9832 328.176 91.5219 326.837 91.8231C325.498 92.1243 324.116 92.2035 322.756 92.0906C321.395 91.9776 320.058 91.6777 318.773 91.2415C316.2 90.3652 313.844 88.9696 311.725 87.3092C309.606 85.6423 307.712 83.6989 306.079 81.5581C305.871 81.2933 305.68 81.0155 305.479 80.7441C305.28 80.4715 305.098 80.1885 304.906 79.912C304.716 79.6329 304.543 79.3434 304.36 79.0604C304.181 78.7748 304.014 78.4865 303.84 78.1996C303.16 77.0455 302.518 75.8719 301.899 74.6893C300.66 72.3239 299.506 69.9248 298.298 67.5608C297.091 65.198 295.83 62.8677 294.378 60.6672C292.928 58.4693 291.277 56.4052 289.341 54.6448C287.413 52.8779 285.191 51.4525 282.789 50.4295C280.388 49.4013 277.816 48.7924 275.215 48.5198C273.913 48.3835 272.602 48.3342 271.29 48.3601C269.979 48.39 268.669 48.499 267.369 48.6756C264.768 49.03 262.201 49.6557 259.723 50.5294C257.24 51.3992 254.849 52.504 252.572 53.8347C247.999 56.4675 243.832 59.7663 239.906 63.3156C235.981 66.8766 232.275 70.6856 228.505 74.4426C224.741 78.2061 220.863 81.8905 216.658 85.1996L215.865 85.8137C215.599 86.0175 215.339 86.2265 215.066 86.42L213.441 87.5987L211.778 88.7269C211.217 89.093 210.644 89.4409 210.077 89.7992C207.786 91.1909 205.391 92.4242 202.897 93.429L201.96 93.8016L201.725 93.8951L201.487 93.9769L201.008 94.1379L200.052 94.4611L199.573 94.6221L199.087 94.7571L198.114 95.0258C197.789 95.1115 197.468 95.2154 197.137 95.2803L196.149 95.4997C195.82 95.5737 195.487 95.6217 195.155 95.684C194.492 95.8151 193.822 95.8866 193.155 95.9813C192.82 96.0203 192.485 96.0462 192.149 96.0787L191.646 96.1254C191.478 96.1371 191.31 96.1436 191.142 96.154L190.132 96.2059L189.122 96.2176C188.954 96.2176 188.785 96.2241 188.617 96.2215L188.111 96.2072C187.774 96.1968 187.437 96.1929 187.102 96.1761C181.719 95.8995 176.418 94.4702 171.589 92.0945C166.769 89.7044 162.416 86.3369 158.98 82.1748C158.566 81.6425 158.131 81.1271 157.745 80.5728C157.549 80.2976 157.345 80.0301 157.157 79.7497L156.598 78.9059C156.406 78.6281 156.24 78.3347 156.064 78.0477C155.892 77.7582 155.71 77.4739 155.547 77.1805C155.223 76.5912 154.883 76.0095 154.586 75.4072C153.96 74.218 153.409 72.9951 152.866 71.7709C152.341 70.5402 151.831 69.303 151.354 68.058C150.387 65.5693 149.489 63.0663 148.523 60.5958C148.037 59.3625 147.542 58.1344 147.004 56.9271C146.478 55.7145 145.903 54.5305 145.28 53.3699C144.03 51.0539 142.584 48.8418 140.879 46.8503C140.458 46.3492 140.008 45.8727 139.556 45.4015C139.093 44.9406 138.625 44.4836 138.129 44.0604C137.149 43.1984 136.09 42.4338 134.977 41.7665C134.414 41.4432 133.845 41.1291 133.253 40.8655C132.961 40.7227 132.658 40.6085 132.36 40.4812C132.209 40.4215 132.057 40.3683 131.905 40.3125C131.753 40.2567 131.602 40.1995 131.446 40.1528L130.983 40.0048C130.829 39.9581 130.671 39.9178 130.515 39.875C130.206 39.7815 129.885 39.7244 129.57 39.653C129.412 39.6205 129.254 39.5803 129.095 39.553L128.615 39.479L128.136 39.405C127.975 39.3855 127.813 39.3752 127.652 39.3583C125.074 39.1077 122.448 39.4557 119.979 40.2852C117.505 41.107 115.177 42.3585 113.016 43.8462C110.859 45.3457 108.866 47.0814 107.016 48.9586C105.173 50.8436 103.462 52.8623 101.896 54.9901C101.115 56.0521 100.362 57.1465 99.6124 58.2422C98.8645 59.3391 98.1244 60.4426 97.3817 61.5474C95.8963 63.7544 94.407 65.9665 92.8231 68.1177C91.2379 70.2662 89.5723 72.368 87.7214 74.3141C85.8757 76.2588 83.8524 78.0555 81.6113 79.5576C79.369 81.0544 76.9076 82.2319 74.3152 82.9966C73.0165 83.3665 71.6944 83.6534 70.3555 83.8235C69.0165 83.9871 67.6673 84.0559 66.3205 84.0377C64.9738 84.0014 63.631 83.8793 62.3012 83.682C60.9713 83.4743 59.6583 83.1822 58.3621 82.8317C57.0673 82.4734 55.797 82.0372 54.5449 81.5555C53.2967 81.0648 52.0745 80.5105 50.8729 79.9159C49.6779 79.3096 48.5061 78.6566 47.3616 77.9621C46.2236 77.2558 45.1037 76.5197 44.0214 75.7304C41.8568 74.1544 39.8063 72.4213 37.8971 70.5441C35.9943 68.6694 34.1823 66.7273 32.264 64.9033C31.3035 63.9946 30.3236 63.1066 29.2945 62.2874C28.7825 61.8733 28.2524 61.4851 27.7171 61.1047C27.1753 60.736 26.627 60.3751 26.058 60.0532C25.4902 59.7299 24.9109 59.4274 24.312 59.1704C24.0165 59.0328 23.7093 58.9237 23.4073 58.8043C23.2544 58.7498 23.1001 58.7004 22.9459 58.6472L22.7152 58.5693L22.4806 58.5031C21.8584 58.3136 21.2207 58.1902 20.5804 58.0968L20.0982 58.0396C19.9375 58.0202 19.7755 58.0176 19.6135 58.0046C19.2907 57.976 18.9667 57.9864 18.6426 57.9812C17.3491 58.0046 16.0594 58.2447 14.8332 58.6719C13.6058 59.0977 12.4392 59.7026 11.3582 60.4335C9.19494 61.9005 7.36477 63.8556 5.94936 66.0613C4.52877 68.2774 3.48018 70.7206 2.63897 73.2275C1.79647 75.7369 1.15228 78.3152 0.513274 80.8973L0.0168449 80.7753L0.0155487 80.7688Z" fill="#38B6FF"/>
<path d="M375.983 58.4927C375.724 59.7987 375.463 61.1073 375.174 62.4133C374.881 63.718 374.557 65.0201 374.182 66.3144C373.43 68.8992 372.458 71.4645 371.06 73.8506C370.358 75.0488 369.533 76.1809 368.604 77.2285C367.673 78.2749 366.634 79.2382 365.483 80.0768C364.333 80.9168 363.068 81.6282 361.706 82.1501C360.345 82.672 358.882 82.9965 357.392 83.0705C357.023 83.077 356.652 83.0991 356.282 83.0796C356.096 83.0718 355.911 83.0718 355.725 83.0562L355.171 83.0082C354.435 82.9238 353.698 82.8044 352.985 82.6122L352.716 82.5447L352.451 82.4655C352.275 82.4123 352.098 82.3604 351.923 82.3046C351.578 82.1812 351.228 82.0644 350.892 81.9216C350.212 81.6529 349.558 81.3348 348.922 80.9973C348.283 80.661 347.676 80.2858 347.076 79.9029C346.486 79.5108 345.903 79.1097 345.347 78.6851C344.223 77.8452 343.172 76.9481 342.148 76.0381C340.109 74.2193 338.222 72.2979 336.323 70.5401C334.452 68.8057 332.45 67.2154 330.354 65.7835C329.305 65.0694 328.23 64.3983 327.14 63.7595C326.043 63.1325 324.927 62.5483 323.795 62.0095C322.657 61.4838 321.506 60.9969 320.336 60.5724C319.166 60.1583 317.985 59.787 316.793 59.4897C315.6 59.2015 314.401 58.9691 313.201 58.8081C312.001 58.6588 310.801 58.5797 309.608 58.5745C308.417 58.5874 307.236 58.677 306.074 58.8458C304.912 59.0223 303.777 59.3002 302.666 59.6442L301.84 59.9246C301.567 60.022 301.3 60.1388 301.03 60.244C300.895 60.2985 300.761 60.3491 300.627 60.4075L300.229 60.5906L299.831 60.7723C299.699 60.8334 299.571 60.9048 299.44 60.9697C298.399 61.4955 297.391 62.0965 296.421 62.7703C294.485 64.1269 292.702 65.7666 291.042 67.5854C289.379 69.4029 287.846 71.4112 286.363 73.5014C284.885 75.5954 283.453 77.7816 282.006 80.0054C281.283 81.118 280.555 82.241 279.81 83.3678C279.062 84.496 278.316 85.6176 277.484 86.7821C275.842 89.0787 274.039 91.274 272.065 93.3498C271.077 94.3871 270.033 95.3828 268.941 96.3409C267.849 97.2977 266.705 98.2142 265.497 99.071C263.079 100.776 260.403 102.266 257.433 103.288C255.95 103.798 254.393 104.182 252.788 104.396C251.186 104.613 249.539 104.66 247.903 104.518C246.266 104.374 244.653 104.06 243.083 103.551C242.886 103.491 242.693 103.423 242.5 103.353C242.306 103.282 242.112 103.215 241.921 103.141C241.543 102.985 241.159 102.84 240.791 102.666C240.043 102.337 239.329 101.953 238.627 101.555C237.238 100.738 235.94 99.8084 234.759 98.7867C234.16 98.2817 233.603 97.7469 233.052 97.2055C232.514 96.6577 231.985 96.102 231.493 95.5269C229.5 93.2343 227.861 90.7547 226.453 88.1998C226.104 87.5598 225.765 86.9158 225.446 86.2641C225.284 85.9396 225.128 85.6124 224.974 85.2853C224.819 84.9581 224.68 84.6401 224.532 84.3168C223.945 83.0277 223.423 81.7411 222.911 80.465C221.898 77.9166 220.982 75.4045 220.033 73.0054C218.147 68.1865 216.076 63.8024 213.131 60.2998C210.168 56.7388 206.381 53.8061 202.161 51.729C197.936 49.6609 193.291 48.4315 188.636 48.1978C188.346 48.1822 188.054 48.1796 187.764 48.1693L187.329 48.155C187.183 48.1524 187.038 48.1576 186.893 48.1576L186.022 48.1654L185.154 48.2095C185.008 48.2173 184.865 48.2212 184.719 48.2316L184.288 48.2718C184 48.3004 183.711 48.3198 183.425 48.3523C182.854 48.4341 182.277 48.4912 181.714 48.6029C181.431 48.6561 181.145 48.695 180.865 48.7573L180.023 48.943C179.743 48.9962 179.46 49.0897 179.178 49.1624L178.331 49.3935L177.907 49.5077L177.488 49.6479L176.651 49.9283L176.232 50.0672L176.022 50.1374L175.816 50.2191L174.989 50.5476C170.577 52.3119 166.396 54.9343 162.437 58.0279C160.453 59.5702 158.519 61.2228 156.616 62.9507C156.143 63.3882 155.665 63.8141 155.194 64.2594L153.783 65.5926L152.379 66.9493L150.973 68.3293C147.218 72.0279 143.442 75.8784 139.329 79.5394C137.271 81.3686 135.131 83.1523 132.876 84.8348C130.622 86.5173 128.252 88.0972 125.755 89.5084C125.122 89.8511 124.496 90.1964 123.858 90.5353L122.875 91.026L121.879 91.4908C120.545 92.0944 119.18 92.6267 117.795 93.0966C115.025 94.0379 112.159 94.7064 109.232 95.0725C107.769 95.2556 106.291 95.3633 104.803 95.3802C103.315 95.3945 101.818 95.3218 100.324 95.1504C98.8295 94.9791 97.335 94.7064 95.86 94.3235C94.385 93.9418 92.9281 93.4433 91.5179 92.8175C90.1076 92.1944 88.7415 91.4518 87.4492 90.5963L86.9645 90.2743C86.805 90.164 86.6508 90.0471 86.4927 89.9329C86.1803 89.7031 85.8627 89.4785 85.5672 89.2332C85.2678 88.9917 84.9645 88.7541 84.6793 88.4984C84.389 88.2478 84.0999 87.996 83.8265 87.7311C81.5932 85.6449 79.7604 83.2704 78.2115 80.8493C76.6587 78.4242 75.369 75.9459 74.1778 73.504C72.9854 71.062 71.8811 68.6551 70.7249 66.3456C70.1468 65.1915 69.557 64.0607 68.9388 62.9663L68.7055 62.5587C68.6277 62.425 68.5486 62.2809 68.4735 62.1588C68.3179 61.9083 68.1728 61.6512 68.0107 61.4033C67.8461 61.1566 67.6919 60.9035 67.5208 60.6607C67.3484 60.4179 67.1851 60.17 67.0049 59.9311C65.5947 58.0071 63.946 56.2247 62.1119 54.7136C60.2804 53.2037 58.2558 51.9562 56.1509 51.1811C54.0459 50.4048 51.8787 50.1335 49.8567 50.5203C48.8444 50.7138 47.871 51.0889 46.9443 51.6043C46.0201 52.1197 45.1763 52.7909 44.4064 53.588C43.6339 54.3838 42.943 55.3146 42.3157 56.3298C41.687 57.3438 41.1258 58.4459 40.597 59.5897C39.5432 61.8849 38.6488 64.358 37.6677 66.8727C37.1777 68.1306 36.6631 69.4003 36.0876 70.6674C35.5096 71.9331 34.8692 73.1963 34.1032 74.4218C33.3385 75.6447 32.4558 76.8339 31.3981 77.8984C30.3431 78.963 29.113 79.8912 27.7689 80.5909L27.2608 80.8441L26.7436 81.0726C26.3911 81.2141 26.0359 81.3569 25.6717 81.4685C24.9472 81.7009 24.2045 81.8736 23.4579 81.9722C21.9634 82.1696 20.4599 82.1267 19.0211 81.8684C18.3005 81.7411 17.5928 81.5685 16.9032 81.353C16.2149 81.1336 15.5435 80.8752 14.8916 80.5818C13.5876 79.9937 12.3615 79.2641 11.2325 78.4151C10.6674 77.9906 10.123 77.5427 9.60583 77.065C9.08996 76.5859 8.59742 76.0822 8.13339 75.5551C7.22608 74.4867 6.39784 73.3819 5.68365 72.2044C4.25269 69.8547 3.16651 67.353 2.28124 64.815C1.83536 63.5466 1.43096 62.2679 1.05766 60.984C0.688258 59.6987 0.339591 58.4122 -0.00389099 57.1244L0.483465 56.9699C1.29227 59.504 2.10107 62.0355 3.08356 64.4956C4.05697 66.9571 5.21704 69.3458 6.67781 71.5385C7.40365 72.6367 8.2332 73.6636 9.11458 74.6308C9.56435 75.106 10.0387 75.5577 10.5339 75.9861C11.0303 76.4133 11.5501 76.8105 12.0867 77.1857C12.622 77.5609 13.1806 77.9036 13.7535 78.2178C14.3264 78.5307 14.9136 78.8202 15.5189 79.0655C16.1229 79.3135 16.7399 79.5277 17.3659 79.7055C17.9933 79.8808 18.631 80.0145 19.2739 80.1067C20.5597 80.2975 21.8701 80.2884 23.1455 80.0807C24.4209 79.8652 25.651 79.4316 26.7812 78.7994C27.9115 78.1697 28.9328 77.3545 29.8207 76.4068C30.7099 75.4604 31.4642 74.3854 32.1253 73.256C33.4448 70.988 34.3923 68.5058 35.2892 66.0119C36.1849 63.5129 37.017 60.9762 38.0617 58.5044C38.5853 57.2698 39.1634 56.0507 39.8452 54.8836C40.5231 53.7152 41.3021 52.5949 42.2224 51.5875C43.1387 50.58 44.1925 49.6843 45.3681 48.9806C46.5412 48.2783 47.8218 47.7395 49.1607 47.4384C50.4996 47.1372 51.8813 47.058 53.241 47.1709C54.602 47.2839 55.9396 47.5838 57.2241 48.02C59.797 48.8963 62.1534 50.2918 64.2726 51.9523C66.3918 53.6192 68.2842 55.5626 69.9187 57.7034C70.1261 57.9682 70.3179 58.246 70.5188 58.5173C70.7171 58.79 70.8999 59.073 71.0917 59.3495C71.2809 59.6286 71.4546 59.9181 71.6374 60.2011C71.8163 60.4867 71.9835 60.7749 72.1571 61.0618C72.8376 62.216 73.4792 63.3895 74.0988 64.5722C75.3379 66.9376 76.4915 69.3367 77.6995 71.7007C78.9062 74.0635 80.1674 76.3938 81.6191 78.5943C83.0695 80.7921 84.7208 82.8563 86.656 84.6167C88.5847 86.3836 90.8063 87.809 93.208 88.832C95.6098 89.8602 98.1814 90.4691 100.783 90.7417C102.084 90.878 103.396 90.9273 104.708 90.9014C106.018 90.8715 107.328 90.7625 108.628 90.5859C111.23 90.2315 113.796 89.6057 116.274 88.732C118.758 87.8622 121.148 86.7575 123.425 85.4268C127.998 82.794 132.165 79.4952 136.091 75.9446C140.016 72.3836 143.722 68.5746 147.492 64.8176C151.257 61.0541 155.135 57.3697 159.339 54.0606L160.133 53.4465C160.398 53.2427 160.659 53.0337 160.931 52.8402L162.556 51.6615L164.219 50.5333C164.781 50.1672 165.354 49.8193 165.92 49.461C168.212 48.0693 170.607 46.836 173.101 45.8312L174.038 45.4586L174.272 45.3651L174.511 45.2833L174.989 45.1223L175.946 44.7991L176.424 44.6381L176.91 44.5031L177.883 44.2344C178.209 44.1487 178.529 44.0448 178.861 43.9799L179.848 43.7605C180.178 43.6865 180.511 43.6385 180.843 43.5762C181.505 43.445 182.175 43.3736 182.843 43.2789C183.177 43.2399 183.513 43.214 183.848 43.1815L184.351 43.1348C184.52 43.1231 184.687 43.1166 184.856 43.1062L185.865 43.0543L186.875 43.0426C187.043 43.0426 187.212 43.0361 187.38 43.0387L187.886 43.053C188.223 43.0634 188.56 43.0673 188.896 43.0841C194.279 43.3607 199.58 44.79 204.408 47.1657C209.228 49.5557 213.581 52.9233 217.017 57.0854C217.432 57.6177 217.866 58.1331 218.252 58.6874C218.448 58.9626 218.653 59.2301 218.841 59.5105L219.399 60.3543C219.591 60.6321 219.757 60.9255 219.933 61.2124C220.106 61.5019 220.287 61.7862 220.451 62.0796C220.775 62.669 221.114 63.2506 221.411 63.853C222.037 65.0422 222.588 66.2651 223.131 67.4893C223.656 68.72 224.167 69.9572 224.644 71.2022C225.611 73.6909 226.509 76.1939 227.475 78.6644C227.961 79.8977 228.456 81.1258 228.994 82.3331C229.52 83.5457 230.094 84.7296 230.717 85.8902C231.967 88.2063 233.414 90.4184 235.118 92.4099C235.539 92.911 235.989 93.3874 236.441 93.8587C236.904 94.3196 237.372 94.7765 237.868 95.1998C238.848 96.0618 239.907 96.8264 241.021 97.4937C241.583 97.817 242.152 98.1311 242.745 98.3947C243.036 98.5375 243.339 98.6517 243.638 98.7789C243.788 98.8387 243.941 98.8919 244.093 98.9477C244.244 99.0035 244.396 99.0607 244.551 99.1074L245.014 99.2554C245.168 99.3021 245.327 99.3424 245.482 99.3852C245.792 99.4787 246.112 99.5358 246.427 99.6072C246.585 99.6397 246.743 99.6799 246.903 99.7072L247.382 99.7799L247.862 99.8539C248.023 99.8733 248.185 99.8837 248.345 99.8993C250.923 100.15 253.549 99.8019 256.019 98.9724C258.493 98.1506 260.821 96.8991 262.981 95.4114C265.138 93.9119 267.132 92.1762 268.981 90.299C270.825 88.414 272.535 86.3953 274.101 84.2675C274.883 83.2055 275.636 82.1111 276.385 81.0154C277.133 79.9184 277.873 78.815 278.616 77.7102C280.101 75.5032 281.59 73.2911 283.174 71.1399C284.76 68.9914 286.425 66.8895 288.276 64.9435C290.122 62.9988 292.145 61.2021 294.386 59.7C296.628 58.2032 299.09 57.0257 301.682 56.261C302.981 55.891 304.303 55.6041 305.642 55.4341C306.981 55.2705 308.33 55.2017 309.677 55.2199C311.024 55.2562 312.366 55.3783 313.696 55.5756C315.026 55.7833 316.339 56.0754 317.635 56.4259C318.93 56.7842 320.2 57.2204 321.452 57.7021C322.701 58.1928 323.923 58.7471 325.125 59.3417C326.32 59.948 327.491 60.601 328.636 61.2955C329.774 62.0018 330.894 62.7378 331.976 63.5272C334.141 65.1032 336.191 66.8363 338.1 68.7135C340.003 70.5882 341.815 72.5303 343.733 74.3543C344.694 75.263 345.674 76.151 346.703 76.9702C347.215 77.3843 347.745 77.7725 348.28 78.1529C348.822 78.5216 349.37 78.8825 349.939 79.2044C350.507 79.5277 351.087 79.8302 351.685 80.0872C351.981 80.2248 352.287 80.3339 352.59 80.4533C352.743 80.5078 352.897 80.5572 353.052 80.6104L353.282 80.6883L353.517 80.7545C354.139 80.944 354.777 81.0674 355.417 81.1608L355.899 81.218C356.06 81.2374 356.222 81.24 356.384 81.253C356.707 81.2816 357.031 81.2712 357.355 81.2764C358.648 81.253 359.938 81.0128 361.164 80.5857C362.392 80.1599 363.558 79.5549 364.639 78.8241C366.802 77.3571 368.633 75.402 370.048 73.1963C371.469 70.9802 372.517 68.537 373.358 66.0301C374.201 63.5207 374.845 60.9424 375.484 58.3603L375.981 58.4823L375.983 58.4927Z" fill="#5B97B6"/>
<path d="M100.429 119C99.9507 119 99.5631 118.612 99.5631 118.133V25.8672C99.5631 25.3882 99.9507 25 100.429 25C100.907 25 101.295 25.3882 101.295 25.8672V118.131C101.295 118.611 100.907 118.999 100.429 118.999V119Z" fill="#2E5482"/>
<path d="M93.3429 114.521C92.8646 114.521 92.477 114.133 92.477 113.654V30.346C92.477 29.867 92.8646 29.4788 93.3429 29.4788C93.8211 29.4788 94.2087 29.867 94.2087 30.346V113.653C94.2087 114.132 93.8211 114.52 93.3429 114.52V114.521Z" fill="#2E5482"/>
<path d="M86.2567 97.9494C85.7785 97.9494 85.3909 97.5613 85.3909 97.0822V46.9178C85.3909 46.4388 85.7785 46.0506 86.2567 46.0506C86.735 46.0506 87.1226 46.4388 87.1226 46.9178V97.0809C87.1226 97.56 86.735 97.9481 86.2567 97.9481V97.9494Z" fill="#2E5482"/>
<path d="M79.1707 88.5438C78.6924 88.5438 78.3048 88.1556 78.3048 87.6766V56.3247C78.3048 55.8456 78.6924 55.4575 79.1707 55.4575C79.6489 55.4575 80.0365 55.8456 80.0365 56.3247V87.6766C80.0365 88.1556 79.6489 88.5438 79.1707 88.5438Z" fill="#2E5482"/>
<path d="M72.0833 80.4819C71.605 80.4819 71.2174 80.0937 71.2174 79.6147V64.3866C71.2174 63.9076 71.605 63.5194 72.0833 63.5194C72.5615 63.5194 72.9491 63.9076 72.9491 64.3866V79.6147C72.9491 80.0937 72.5615 80.4819 72.0833 80.4819Z" fill="#2E5482"/>
<path d="M64.9972 76.7378C64.5189 76.7378 64.1313 76.3497 64.1313 75.8706V68.1294C64.1313 67.6503 64.5189 67.2621 64.9972 67.2621C65.4754 67.2621 65.863 67.6503 65.863 68.1294V75.8706C65.863 76.3497 65.4754 76.7378 64.9972 76.7378Z" fill="#2E5482"/>
<path d="M57.9111 89.7577C57.4328 89.7577 57.0452 89.3695 57.0452 88.8905V55.1109C57.0452 54.6318 57.4328 54.2437 57.9111 54.2437C58.3893 54.2437 58.7769 54.6318 58.7769 55.1109V88.8892C58.7769 89.3682 58.3893 89.7564 57.9111 89.7564V89.7577Z" fill="#2E5482"/>
<path d="M50.825 95.0349C50.3467 95.0349 49.9591 94.6467 49.9591 94.1677V49.8323C49.9591 49.3533 50.3467 48.9651 50.825 48.9651C51.3033 48.9651 51.6908 49.3533 51.6908 49.8323V94.1664C51.6908 94.6455 51.3033 95.0336 50.825 95.0336V95.0349Z" fill="#2E5482"/>
<path d="M43.7389 106.294C43.2606 106.294 42.873 105.906 42.873 105.427V38.5728C42.873 38.0938 43.2606 37.7056 43.7389 37.7056C44.2172 37.7056 44.6047 38.0938 44.6047 38.5728V105.427C44.6047 105.906 44.2172 106.294 43.7389 106.294Z" fill="#2E5482"/>
<path d="M36.6528 106.998C36.1745 106.998 35.7869 106.61 35.7869 106.131V37.8692C35.7869 37.3902 36.1745 37.002 36.6528 37.002C37.1311 37.002 37.5186 37.3902 37.5186 37.8692V106.131C37.5186 106.61 37.1311 106.998 36.6528 106.998Z" fill="#2E5482"/>
<path d="M29.5654 88.7009C29.0871 88.7009 28.6995 88.3127 28.6995 87.8337V56.1663C28.6995 55.6872 29.0871 55.2991 29.5654 55.2991C30.0437 55.2991 30.4312 55.6872 30.4312 56.1663V87.8337C30.4312 88.3127 30.0437 88.7009 29.5654 88.7009Z" fill="#2E5482"/>
<path d="M22.4793 84.8309C22.001 84.8309 21.6134 84.4427 21.6134 83.9637V60.0376C21.6134 59.5585 22.001 59.1703 22.4793 59.1703C22.9576 59.1703 23.3451 59.5585 23.3451 60.0376V83.9637C23.3451 84.4427 22.9576 84.8309 22.4793 84.8309Z" fill="#2E5482"/>
<path d="M15.3932 77.7933C14.9149 77.7933 14.5273 77.4051 14.5273 76.9261V67.0739C14.5273 66.5949 14.9149 66.2067 15.3932 66.2067C15.8715 66.2067 16.259 66.5949 16.259 67.0739V76.9261C16.259 77.4051 15.8715 77.7933 15.3932 77.7933Z" fill="#2E5482"/>
<path d="M275.55 119C276.029 119 276.416 118.612 276.416 118.133V25.8672C276.416 25.3882 276.029 25 275.55 25C275.072 25 274.684 25.3882 274.684 25.8672V118.131C274.684 118.611 275.072 118.999 275.55 118.999V119Z" fill="#2E5482"/>
<path d="M282.636 114.521C283.115 114.521 283.502 114.133 283.502 113.654V30.346C283.502 29.867 283.115 29.4788 282.636 29.4788C282.158 29.4788 281.771 29.867 281.771 30.346V113.653C281.771 114.132 282.158 114.52 282.636 114.52V114.521Z" fill="#2E5482"/>
<path d="M289.723 97.9494C290.201 97.9494 290.588 97.5613 290.588 97.0822V46.9178C290.588 46.4388 290.201 46.0506 289.723 46.0506C289.244 46.0506 288.857 46.4388 288.857 46.9178V97.0809C288.857 97.56 289.244 97.9481 289.723 97.9481V97.9494Z" fill="#2E5482"/>
<path d="M296.809 88.5438C297.287 88.5438 297.674 88.1556 297.674 87.6766V56.3247C297.674 55.8456 297.287 55.4575 296.809 55.4575C296.33 55.4575 295.943 55.8456 295.943 56.3247V87.6766C295.943 88.1556 296.33 88.5438 296.809 88.5438Z" fill="#2E5482"/>
<path d="M303.895 80.4819C304.373 80.4819 304.761 80.0937 304.761 79.6147V64.3866C304.761 63.9076 304.373 63.5194 303.895 63.5194C303.416 63.5194 303.029 63.9076 303.029 64.3866V79.6147C303.029 80.0937 303.416 80.4819 303.895 80.4819Z" fill="#2E5482"/>
<path d="M310.981 76.7378C311.459 76.7378 311.847 76.3497 311.847 75.8706V68.1294C311.847 67.6503 311.459 67.2621 310.981 67.2621C310.503 67.2621 310.115 67.6503 310.115 68.1294V75.8706C310.115 76.3497 310.503 76.7378 310.981 76.7378Z" fill="#2E5482"/>
<path d="M318.068 89.7577C318.546 89.7577 318.934 89.3695 318.934 88.8905V55.1109C318.934 54.6318 318.546 54.2437 318.068 54.2437C317.59 54.2437 317.202 54.6318 317.202 55.1109V88.8892C317.202 89.3682 317.59 89.7564 318.068 89.7564V89.7577Z" fill="#2E5482"/>
<path d="M325.154 95.0349C325.633 95.0349 326.02 94.6467 326.02 94.1677V49.8323C326.02 49.3533 325.633 48.9651 325.154 48.9651C324.676 48.9651 324.288 49.3533 324.288 49.8323V94.1664C324.288 94.6455 324.676 95.0336 325.154 95.0336V95.0349Z" fill="#2E5482"/>
<path d="M332.24 106.294C332.719 106.294 333.106 105.906 333.106 105.427V38.5728C333.106 38.0938 332.719 37.7056 332.24 37.7056C331.762 37.7056 331.375 38.0938 331.375 38.5728V105.427C331.375 105.906 331.762 106.294 332.24 106.294Z" fill="#2E5482"/>
<path d="M339.327 106.998C339.805 106.998 340.192 106.61 340.192 106.131V37.8692C340.192 37.3902 339.805 37.002 339.327 37.002C338.848 37.002 338.461 37.3902 338.461 37.8692V106.131C338.461 106.61 338.848 106.998 339.327 106.998Z" fill="#2E5482"/>
<path d="M346.413 88.7009C346.891 88.7009 347.278 88.3127 347.278 87.8337V56.1663C347.278 55.6872 346.891 55.2991 346.413 55.2991C345.934 55.2991 345.547 55.6872 345.547 56.1663V87.8337C345.547 88.3127 345.934 88.7009 346.413 88.7009Z" fill="#2E5482"/>
<path d="M353.499 84.8309C353.977 84.8309 354.365 84.4427 354.365 83.9637V60.0376C354.365 59.5585 353.977 59.1703 353.499 59.1703C353.02 59.1703 352.633 59.5585 352.633 60.0376V83.9637C352.633 84.4427 353.02 84.8309 353.499 84.8309Z" fill="#2E5482"/>
<path d="M360.585 77.7933C361.063 77.7933 361.451 77.4051 361.451 76.9261V67.0739C361.451 66.5949 361.063 66.2067 360.585 66.2067C360.107 66.2067 359.719 66.5949 359.719 67.0739V76.9261C359.719 77.4051 360.107 77.7933 360.585 77.7933Z" fill="#2E5482"/>
</g>
<g clip-path="url(#clip1_1_132)">
<rect x="116" width="144" height="144" rx="72" fill="#C3DDE8"/>
<g clip-path="url(#clip2_1_132)">
<path d="M140.535 54.7113C137.144 57.3263 134.104 60.3667 131.49 63.7577C127.634 68.9476 127.782 77.4006 134.604 80.9592C141.426 84.5179 146.912 83.7772 149.284 77.5487C150.706 73.8688 151.264 69.9117 150.916 65.9822L174.791 59.1604L177.46 64.4992C177.46 64.4992 182.354 64.9437 184.134 63.3125C185.913 61.6813 185.913 57.0848 184.433 55.0069C182.953 52.929 181.319 50.8548 181.319 50.8548C181.319 50.8548 177.167 38.2498 163.82 37.2119C150.473 36.1741 140.535 44.3316 140.535 54.7113Z" fill="#263238" stroke="#263238" stroke-linecap="round" stroke-linejoin="round"/>
<path d="M149.813 67.3934C149.813 67.3934 148.76 77.5824 147.304 79.8466C145.848 82.1108 139.057 78.2289 132.426 80.9787C125.796 83.7285 121.106 89.7145 118.842 96.5034C116.578 103.292 107.843 130.624 108.492 131.758C109.142 132.892 123.694 134.507 123.694 134.507C123.694 134.507 119.327 157.31 120.459 159.574C121.591 161.837 131.618 165.234 142.615 166.043C153.612 166.852 164.608 166.205 170.43 164.748C176.252 163.292 173.179 156.178 172.533 153.914C171.886 151.65 169.621 139.197 169.621 139.197C169.621 139.197 175.607 119.467 175.928 113.484C176.249 107.501 173.179 97.6355 171.077 94.5624C168.974 91.4894 164.193 86.2314 163.188 85.5453C162.183 84.8591 161.374 81.7868 161.536 81.3019C161.697 80.8171 160.242 80.6547 156.037 71.1137C151.832 61.5728 149.813 67.3934 149.813 67.3934Z" fill="#1470A4" stroke="#263238" stroke-linecap="round" stroke-linejoin="round"/>
<path d="M156.519 90.1964L154.74 133.052C154.74 133.052 162.665 134.67 168.972 133.375L163.797 90.0348L156.519 90.1964Z" fill="#263238" stroke="#263238" stroke-linecap="round" stroke-linejoin="round"/>
<path d="M148.598 73.5396C148.598 73.5396 144.393 79.1993 145.202 80.4931C146.011 81.7868 149.083 88.4178 153.773 90.5196C158.463 92.6215 164.597 92.3603 165.417 90.8436C166.236 89.3269 166.873 82.7977 166.873 82.7977C166.873 82.7977 157.978 81.7868 155.229 78.8761C152.48 75.9654 149.406 71.2754 148.598 73.5396Z" fill="#263238" stroke="#263238" stroke-linecap="round" stroke-linejoin="round"/>
<path d="M171.784 55.2949C171.784 55.2949 163.344 59.753 160.16 61.1859C156.975 62.6188 152.198 62.9376 152.198 62.9376L146.625 61.8234C146.625 61.8234 147.421 66.4409 148.058 66.9183C148.589 67.2307 149.194 67.3958 149.81 67.3964C149.81 67.3964 152.35 78.0672 153.942 80.1376C155.535 82.208 158.743 87.246 163.042 86.6085C167.341 85.971 174.331 78.2236 175.446 75.6758C176.561 73.128 178.79 65.326 180.063 62.1414C181.337 58.9569 171.784 55.2949 171.784 55.2949Z" fill="white" stroke="#263238" stroke-linecap="round" stroke-linejoin="round"/>
<path d="M165.736 75.1984C165.736 75.1984 168.28 76.4705 169.239 75.0391" stroke="#263238" stroke-linecap="round" stroke-linejoin="round"/>
<path d="M177.2 66.9153C176.564 65.8011 172.105 66.9153 172.105 66.9153" stroke="#263238" stroke-width="2" stroke-linecap="round" stroke-linejoin="round"/>
<path d="M167.805 66.2785C167.805 66.2785 164.78 63.4127 162.867 63.2533" stroke="#263238" stroke-width="2" stroke-linecap="round" stroke-linejoin="round"/>
<path d="M161.929 67.0762C161.929 67.0762 165.708 67.2752 166.305 69.4631" stroke="#263238" stroke-linecap="round" stroke-linejoin="round"/>
<path d="M171.874 70.0594C171.874 70.0594 174.46 68.6669 175.455 70.0594" stroke="#263238" stroke-linecap="round" stroke-linejoin="round"/>
<path d="M166.873 82.7977C166.873 82.7977 165.44 85.0275 165.601 86.1417C165.762 87.2558 167.034 99.0393 167.034 99.0393L174.676 98.8807L175.948 92.3521C175.948 92.3521 180.247 85.3455 179.61 84.5494C178.974 83.7532 170.216 80.4093 169.42 80.2507C168.624 80.092 166.873 82.7977 166.873 82.7977Z" fill="white" stroke="#263238" stroke-linecap="round" stroke-linejoin="round"/>
<path d="M176.109 85.0275C176.905 84.5494 177.381 85.983 176.905 86.9378C176.429 87.8926 174.516 87.2565 174.038 87.2565C173.56 87.2565 168.306 84.072 166.873 82.7977C165.44 81.5234 170.376 78.1802 170.376 78.1802C170.376 78.1802 178.815 82.0016 179.611 82.9571C180.407 83.9126 178.662 87.3605 178.662 87.3605" fill="white"/>
<path d="M176.109 85.0275C176.905 84.5494 177.381 85.983 176.905 86.9378C176.429 87.8926 174.516 87.2565 174.038 87.2565C173.56 87.2565 168.306 84.072 166.873 82.7977C165.44 81.5234 170.376 78.1802 170.376 78.1802C170.376 78.1802 178.815 82.0016 179.611 82.9571C180.407 83.9126 178.662 87.3605 178.662 87.3605" stroke="#263238" stroke-linecap="round" stroke-linejoin="round"/>
<path d="M178.023 81.9327C178.023 81.9327 175.534 81.4838 175.342 82.1243C175.151 82.7648 173.437 86.8323 174.038 87.255" stroke="#263238" stroke-linecap="round" stroke-linejoin="round"/>
<path d="M174.001 79.6992C174.001 79.6992 172.281 80.5971 172.281 81.168C172.281 81.7389 171.383 85.8281 171.383 85.8281" stroke="#263238" stroke-linecap="round" stroke-linejoin="round"/>
<path d="M171.512 78.8058C171.512 78.8058 169.342 80.657 169.342 81.8736C169.342 83.0903 169.151 84.8105 169.151 84.8105" stroke="#263238" stroke-linecap="round" stroke-linejoin="round"/>
<path d="M166.236 89.3262C166.236 89.3262 164.166 84.8681 164.166 83.9126C164.166 82.9571 166.71 80.0913 167.51 78.6584C168.31 77.2255 168.958 77.9101 168.958 78.9973C168.922 80.7672 168.343 82.4832 167.299 83.9126C167.299 83.9126 170.746 85.6336 171.384 86.6579C172.022 87.6823 170.618 90.2967 170.618 90.2967" fill="white"/>
<path d="M166.236 89.3262C166.236 89.3262 164.166 84.8681 164.166 83.9126C164.166 82.9571 166.71 80.0913 167.51 78.6584C168.31 77.2255 168.958 77.9101 168.958 78.9973C168.922 80.7672 168.343 82.4832 167.299 83.9126C167.299 83.9126 170.746 85.6336 171.384 86.6579C172.022 87.6823 170.618 90.2967 170.618 90.2967" stroke="#263238" stroke-linecap="round" stroke-linejoin="round"/>
<path d="M166.226 95.3713L176.252 96.5034C177.153 100.308 178.342 104.038 179.809 107.662C182.235 113.648 186.279 127.068 186.602 130.464C186.925 133.861 184.661 137.903 177.06 137.742C169.46 137.58 170.592 123.187 169.621 118.982C168.651 114.778 166.226 95.3713 166.226 95.3713Z" fill="#1470A4" stroke="#263238" stroke-linecap="round" stroke-linejoin="round"/>
<path d="M136.954 128.362C138.506 126.835 139.964 125.214 141.321 123.511C142.294 122.055 145.202 121.731 146.334 119.144C147.466 116.557 148.76 114.94 149.568 116.88C150.376 118.82 148.436 122.379 147.466 122.866C146.643 123.275 155.856 120.92 158.744 120.172C158.85 120.145 158.961 120.141 159.068 120.16C159.176 120.179 159.278 120.222 159.368 120.284C159.458 120.347 159.534 120.428 159.59 120.522C159.645 120.616 159.68 120.721 159.692 120.83C159.711 120.996 159.674 121.164 159.588 121.307C159.502 121.451 159.371 121.562 159.216 121.624L151.671 124.642L160.65 124.081C160.821 124.07 160.992 124.096 161.152 124.157C161.312 124.218 161.457 124.313 161.577 124.435C161.698 124.556 161.791 124.702 161.85 124.863C161.91 125.024 161.934 125.195 161.922 125.366C161.904 125.624 161.803 125.87 161.633 126.066C161.464 126.262 161.236 126.398 160.983 126.453L152.316 128.362L158.971 128.905C159.108 128.917 159.24 128.962 159.354 129.038C159.469 129.113 159.563 129.216 159.627 129.337C159.692 129.458 159.725 129.593 159.725 129.73C159.724 129.867 159.689 130.002 159.622 130.122C159.563 130.229 159.48 130.321 159.381 130.392C159.281 130.463 159.167 130.511 159.047 130.532L151.185 131.92L155.714 132.165C155.865 132.173 156.012 132.22 156.139 132.301C156.267 132.383 156.371 132.495 156.442 132.629C156.513 132.763 156.548 132.912 156.544 133.063C156.54 133.215 156.497 133.362 156.419 133.492C156.35 133.607 156.256 133.704 156.144 133.777C156.032 133.85 155.905 133.896 155.772 133.912C153.607 134.169 143.887 135.316 142.453 135.316H137.277L136.954 128.362Z" fill="white" stroke="#263238" stroke-linecap="round" stroke-linejoin="round"/>
<path d="M115.122 107.662C115.122 107.662 106.436 128.814 107.036 133.213C107.522 136.771 138.088 137.419 138.088 137.419V126.419L117.55 120.597" fill="#1470A4"/>
<path d="M115.122 107.662C115.122 107.662 106.436 128.814 107.036 133.213C107.522 136.771 138.088 137.419 138.088 137.419V126.419L117.55 120.597" stroke="#263238" stroke-linecap="round" stroke-linejoin="round"/>
<path d="M126.443 122.864L133.558 96.9883" stroke="#263238" stroke-linecap="round" stroke-linejoin="round"/>
</g>
<g clip-path="url(#clip3_1_132)">
<path d="M222.926 79.0362C222.926 79.0362 202.424 84.5134 201.486 87.7997C200.549 91.086 196.166 107.518 196.166 107.518C196.166 107.518 190.063 123.949 191.314 125.827C192.566 127.704 194.914 130.366 196.635 129.583C198.357 128.8 204.303 123.01 205.399 121.445C206.494 119.88 211.189 116.125 211.189 116.125C211.189 116.125 212.597 136.938 212.441 141.476C212.284 146.014 211.032 153.683 211.659 154.934C212.285 156.186 223.082 160.881 234.976 159.629C246.869 158.377 259.075 155.091 259.857 153.526C260.427 152.07 260.796 150.544 260.953 148.988L259.857 120.819L279.419 121.602C279.419 121.602 270.655 102.193 267.995 95.7806C265.335 89.3681 263.77 79.6625 259.39 79.1926C255.011 78.7227 241.013 76.2811 241.013 76.2811L222.926 79.0362Z" fill="#1470A4" stroke="#263238" stroke-linecap="round" stroke-linejoin="round"/>
<path d="M258.449 116.75C258.449 116.75 253.598 109.239 253.598 106.579C253.598 103.919 255.319 95.4678 255.319 95.4678" fill="#1470A4"/>
<path d="M258.449 116.75C258.449 116.75 253.598 109.239 253.598 106.579C253.598 103.919 255.319 95.4678 255.319 95.4678" stroke="#263238" stroke-linecap="round" stroke-linejoin="round"/>
<path d="M211.189 116.125L207.902 105.014" stroke="#263238" stroke-linecap="round" stroke-linejoin="round"/>
<path d="M204.062 53.7101C204.062 53.7101 206.812 65.1651 207.117 68.0676C207.422 70.97 206.201 79.0669 212.463 83.7988C216.287 86.6901 221.627 83.7988 221.627 83.7988C221.627 83.7988 221.804 88.3459 222.696 88.9924C225.694 91.1661 231.002 90.7763 234.818 88.6378C238.634 86.4993 242.093 82.2716 242.398 80.1331C242.704 77.9946 242.704 77.0788 241.788 76.7735C240.871 76.4682 236.442 75.2456 236.442 75.2456L231.86 61.9581L230.332 54.1681C230.332 54.1681 228.652 46.5314 226.056 44.0876C223.459 41.6438 215.057 40.8798 209.712 44.0876C204.368 47.2954 201.466 49.5858 204.062 53.7101Z" fill="white" stroke="#263238" stroke-linecap="round" stroke-linejoin="round"/>
<path d="M206.659 58.7503C207.058 58.4805 207.517 58.3118 207.996 58.2586C208.475 58.2054 208.959 58.2694 209.408 58.445C210.435 58.944 211.287 59.7426 211.852 60.7354L212.31 69.5947L216.281 67.7615" stroke="#263238" stroke-linecap="round" stroke-linejoin="round"/>
<path d="M215.06 58.139C215.06 58.139 219.03 55.8486 221.474 56.9171" stroke="#263238" stroke-linecap="round" stroke-linejoin="round"/>
<path d="M216.892 61.1941C216.892 61.1941 219.183 59.5136 220.864 60.8889" stroke="#263238" stroke-linecap="round" stroke-linejoin="round"/>
<path d="M207.269 62.2634C207.269 62.2634 209.561 60.5828 211.086 61.9581" stroke="#263238" stroke-linecap="round" stroke-linejoin="round"/>
<path d="M232.927 46.5314C232.777 43.935 230.025 34.6177 224.832 33.8538C219.64 33.0898 211.85 33.2432 206.046 35.9923C200.243 38.7413 194.285 45.3095 193.826 46.9916C193.368 48.6736 200.242 44.0898 200.242 44.0898C198.731 46.3109 197.835 48.8926 197.645 51.5724C197.492 55.696 200.852 55.5433 202.686 55.8494C204.519 56.1554 203.755 54.4741 204.06 53.7109C204.365 52.9477 208.489 49.1286 208.489 49.1286C208.489 49.1286 207.879 54.0162 209.558 52.795C211.238 51.5739 219.945 46.075 219.945 46.075C219.945 46.075 219.487 49.7414 219.487 51.7258C219.487 53.7101 221.777 52.795 223.153 52.795C224.111 52.795 226.327 54.5736 227.584 55.6526C228.055 58.353 228.821 63.712 228.041 66.3885C226.972 70.0549 224.528 72.04 223.764 72.1927C223 72.3453 216.281 69.291 214.141 69.4436C212.001 69.5963 207.727 73.2597 207.727 73.2597L207.41 74.2601C207.814 77.4993 208.981 81.1672 212.462 83.7981C216.285 86.6893 221.625 83.7981 221.625 83.7981C221.625 83.7981 224.986 82.1182 226.513 79.8271C228.04 77.536 230.329 72.3446 230.485 68.3721C230.598 65.43 230.459 59.0541 230.38 55.9452L231.859 55.5418C231.859 55.5418 233.083 49.1278 232.927 46.5314Z" fill="#263238" stroke="#263238" stroke-linecap="round" stroke-linejoin="round"/>
<path d="M230.333 62.874C230.333 62.874 228.653 56.6118 230.333 54.168C232.013 51.7243 233.541 53.4041 233.85 56.1539C234.159 58.9037 234.919 63.18 232.17 64.2485" fill="white"/>
<path d="M230.333 62.874C230.333 62.874 228.653 56.6118 230.333 54.168C232.013 51.7243 233.541 53.4041 233.85 56.1539C234.159 58.9037 234.919 63.18 232.17 64.2485" stroke="#263238" stroke-linecap="round" stroke-linejoin="round"/>
<path d="M216.79 76.546C216.79 76.546 217.999 78.7444 217.34 80.0628C216.681 81.3812 211.844 88.417 211.184 88.747C210.525 89.077 200.634 124.803 199.643 126.671C199.059 127.619 198.274 128.425 197.343 129.033C196.411 129.641 195.357 130.035 194.255 130.188C192.277 130.408 188.429 129.199 187.659 127.44C186.889 125.681 186.67 120.075 188.209 117.437C189.748 114.8 204.698 88.9662 204.698 88.9662C204.698 88.9662 202.279 81.6012 202.279 80.722C202.279 79.8428 207.336 75.5591 208.765 74.6761C210.194 73.7932 211.514 74.2362 212.613 75.3353C213.712 76.4345 214.371 76.9815 214.371 76.9815L216.79 76.546Z" fill="white" stroke="#263238" stroke-linecap="round" stroke-linejoin="round"/>
<path d="M203.27 84.131C203.27 84.131 201.291 80.5035 201.071 79.7343C200.851 78.9651 207.73 73.2604 207.73 73.2604C207.73 73.2604 212.946 74.1277 213.275 74.3476C213.604 74.5676 214.374 76.986 214.374 76.986C214.374 76.986 208.548 83.4718 207.669 84.0195C206.79 84.5673 205.471 84.8987 205.031 84.2395C204.591 83.5803 204.151 81.8212 205.141 81.7112" fill="white"/>
<path d="M203.27 84.131C203.27 84.131 201.291 80.5035 201.071 79.7343C200.851 78.9651 207.73 73.2604 207.73 73.2604C207.73 73.2604 212.946 74.1277 213.275 74.3476C213.604 74.5676 214.374 76.986 214.374 76.986C214.374 76.986 208.548 83.4718 207.669 84.0195C206.79 84.5673 205.471 84.8987 205.031 84.2395C204.591 83.5803 204.151 81.8212 205.141 81.7112" stroke="#263238" stroke-linecap="round" stroke-linejoin="round"/>
<path d="M202.39 78.1951C202.39 78.1951 206.128 77.9751 206.898 78.4151C207.668 78.8551 207.667 84.021 207.667 84.021" fill="white"/>
<path d="M202.39 78.1951C202.39 78.1951 206.128 77.9751 206.898 78.4151C207.668 78.8551 207.667 84.021 207.667 84.021" stroke="#263238" stroke-linecap="round" stroke-linejoin="round"/>
<path d="M204.808 75.7798C204.808 75.7798 208.107 75.6698 208.986 76.879C209.865 78.0882 210.085 82.0419 210.085 82.0419" stroke="#263238" stroke-linecap="round" stroke-linejoin="round"/>
<path d="M206.568 74.3477C206.568 74.3477 211.074 74.7876 211.514 75.4468C211.954 76.106 212.174 79.8443 212.174 79.8443" stroke="#263238" stroke-linecap="round" stroke-linejoin="round"/>
<path d="M215.032 78.7444C215.032 78.7444 211.734 81.1627 210.964 80.7235C210.194 80.2843 209.755 79.5143 209.865 79.1844C209.975 78.8544 215.032 75.3368 215.801 75.5568C216.57 75.7768 217.34 77.316 217.23 77.8652" fill="white"/>
<path d="M215.032 78.7444C215.032 78.7444 211.734 81.1627 210.964 80.7235C210.194 80.2843 209.755 79.5143 209.865 79.1844C209.975 78.8544 215.032 75.3368 215.801 75.5568C216.57 75.7768 217.34 77.316 217.23 77.8652" stroke="#263238" stroke-linecap="round" stroke-linejoin="round"/>
<path d="M199.643 126.672C199.95 126.091 201.118 122.237 202.602 117.191C196.532 117.944 192.617 115.686 190.405 113.653C189.31 115.544 188.507 116.928 188.209 117.439C186.67 120.076 186.89 125.683 187.659 127.441C188.428 129.2 192.277 130.41 194.255 130.19C195.357 130.037 196.411 129.642 197.343 129.034C198.274 128.426 199.059 127.619 199.643 126.672Z" fill="#1470A4" stroke="#263238" stroke-linecap="round" stroke-linejoin="round"/>
<path d="M271.402 115.394C271.402 115.394 245.423 111.638 241.981 111.322C238.539 111.006 234.313 109.444 232.592 108.974C230.871 108.505 226.645 110.07 224.767 111.009C222.89 111.948 221.794 113.513 222.733 113.982C223.672 114.451 226.019 112.417 226.019 112.417L230.245 111.635L231.809 112.261C231.809 112.261 227.427 113.513 226.332 114.452C225.236 115.391 223.202 117.268 223.985 117.738C224.767 118.208 227.427 116.799 227.427 116.799L229.934 115.55L232.751 115.394C232.751 115.394 228.996 116.802 228.213 118.054C227.43 119.306 225.083 121.184 226.179 121.809C227.274 122.435 230.091 119.306 230.717 118.993C232.262 118.589 233.829 118.275 235.411 118.054C235.411 118.054 231.186 121.34 231.656 122.279C232.126 123.218 236.35 119.619 236.35 119.619C237.569 119.698 238.792 119.538 239.949 119.149C241.515 118.524 243.549 117.585 243.549 117.585C243.549 117.585 259.667 125.722 262.641 127.444C265.614 129.165 276.259 132.294 278.76 131.199C281.26 130.104 281.42 126.036 280.324 123.218C280.246 123.017 280.161 122.816 280.071 122.616C278.686 119.617 276.192 117.272 273.113 116.075L271.402 115.394Z" fill="white" stroke="#263238" stroke-linecap="round" stroke-linejoin="round"/>
</g>
</g>
<defs>
<clipPath id="clip0_1_132">
<rect width="376" height="94" fill="white" transform="translate(0 25)"/>
</clipPath>
<clipPath id="clip1_1_132">
<rect x="116" width="144" height="144" rx="72" fill="white"/>
</clipPath>
<clipPath id="clip2_1_132">
<rect width="80.0629" height="160.842" fill="white" transform="translate(107 31.4654)"/>
</clipPath>
<clipPath id="clip3_1_132">
<rect width="94.2797" height="171" fill="white" transform="translate(187.063 23)"/>
</clipPath>
</defs>
</svg>
