<svg width="24" height="24" viewBox="0 0 24 24" fill="none" xmlns="http://www.w3.org/2000/svg">
<g clip-path="url(#clip0_2309_13045)">
<path d="M15.3104 8.69531C15 8.69531 14.7484 8.94692 14.7484 9.25737V19.8803C14.7484 20.1905 15 20.4423 15.3104 20.4423C15.6209 20.4423 15.8725 20.1905 15.8725 19.8803V9.25737C15.8725 8.94692 15.6209 8.69531 15.3104 8.69531Z" fill="#EB272C"/>
<path d="M8.67815 8.69531C8.3677 8.69531 8.11609 8.94692 8.11609 9.25737V19.8803C8.11609 20.1905 8.3677 20.4423 8.67815 20.4423C8.9886 20.4423 9.24021 20.1905 9.24021 19.8803V9.25737C9.24021 8.94692 8.9886 8.69531 8.67815 8.69531Z" fill="#EB272C"/>
<path d="M3.84443 7.14503V20.993C3.84443 21.8115 4.14456 22.5801 4.66886 23.1317C5.19074 23.6847 5.91703 23.9987 6.67712 24H17.3115C18.0718 23.9987 18.7981 23.6847 19.3197 23.1317C19.844 22.5801 20.1441 21.8115 20.1441 20.993V7.14503C21.1864 6.86839 21.8617 5.86152 21.7223 4.79207C21.5827 3.72284 20.6717 2.923 19.5933 2.92278H16.7156V2.22021C16.7189 1.62939 16.4853 1.06206 16.067 0.644685C15.6488 0.227532 15.0806 -0.00475635 14.4897 7.385e-05H9.49883C8.90801 -0.00475635 8.33981 0.227532 7.92156 0.644685C7.50331 1.06206 7.2697 1.62939 7.27299 2.22021V2.92278H4.39529C3.31684 2.923 2.40591 3.72284 2.26628 4.79207C2.12686 5.86152 2.80221 6.86839 3.84443 7.14503ZM17.3115 22.8759H6.67712C5.71613 22.8759 4.96855 22.0504 4.96855 20.993V7.19443H19.02V20.993C19.02 22.0504 18.2724 22.8759 17.3115 22.8759ZM8.39711 2.22021C8.39338 1.92754 8.50843 1.64585 8.71612 1.43925C8.9236 1.23265 9.20595 1.11914 9.49883 1.12419H14.4897C14.7826 1.11914 15.065 1.23265 15.2725 1.43925C15.4802 1.64563 15.5952 1.92754 15.5915 2.22021V2.92278H8.39711V2.22021ZM4.39529 4.0469H19.5933C20.1521 4.0469 20.605 4.49984 20.605 5.05861C20.605 5.61737 20.1521 6.07031 19.5933 6.07031H4.39529C3.83653 6.07031 3.38359 5.61737 3.38359 5.05861C3.38359 4.49984 3.83653 4.0469 4.39529 4.0469Z" fill="#EB272C"/>
<path d="M11.9943 8.69531C11.6838 8.69531 11.4322 8.94692 11.4322 9.25737V19.8803C11.4322 20.1905 11.6838 20.4423 11.9943 20.4423C12.3047 20.4423 12.5564 20.1905 12.5564 19.8803V9.25737C12.5564 8.94692 12.3047 8.69531 11.9943 8.69531Z" fill="#EB272C"/>
</g>
<defs>
<clipPath id="clip0_2309_13045">
<rect width="24" height="24" fill="white"/>
</clipPath>
</defs>
</svg>
