<svg width="142" height="142" viewBox="0 0 142 142" fill="none" xmlns="http://www.w3.org/2000/svg">
<path d="M0 71C0 31.7878 31.7878 0 71 0C110.212 0 142 31.7878 142 71C142 110.212 110.212 142 71 142C31.7878 142 0 110.212 0 71Z" fill="url(#paint0_radial_3061_13598)"/>
<path d="M19 71.5C19 42.5051 42.5051 19 71.5 19C100.495 19 124 42.5051 124 71.5C124 100.495 100.495 124 71.5 124C42.5051 124 19 100.495 19 71.5Z" fill="#1470A4"/>
<g clip-path="url(#clip0_3061_13598)">
<path d="M84.8302 74.8302C84.8302 74.0487 84.1967 73.4152 83.4152 73.4152C82.6337 73.4152 82.0001 74.0487 82.0001 74.8302C82.0001 80.2922 77.5141 84.7359 72.0001 84.7359C66.486 84.7359 62 80.2923 62 74.8302C62 74.0487 61.3665 73.4152 60.585 73.4152C59.8035 73.4152 59.1699 74.0487 59.1699 74.8302C59.1699 81.462 64.294 86.7976 70.585 87.488V90.3963H66.2454C65.4639 90.3963 64.8304 91.0298 64.8304 91.8113C64.8304 92.5928 65.4639 93.2264 66.2454 93.2264H77.7549C78.5364 93.2264 79.17 92.5928 79.17 91.8113C79.17 91.0298 78.5364 90.3963 77.7549 90.3963H73.4153V87.488C79.7092 86.7973 84.8302 81.4588 84.8302 74.8302Z" fill="white"/>
<path d="M72 50.7735C68.0883 50.7735 64.8302 53.9372 64.8302 57.849V74.8302C64.8302 78.7419 68.0882 81.9057 72 81.9057C75.9116 81.9057 79.1698 78.7421 79.1698 74.8302V57.849C79.1698 53.9374 75.9119 50.7735 72 50.7735ZM76.3396 74.8302C76.3396 77.1315 74.3523 79.0755 72 79.0755C69.6477 79.0755 67.6604 77.1314 67.6604 74.8302V57.849C67.6604 55.5477 69.6477 53.6037 72 53.6037C74.3523 53.6037 76.3396 55.5478 76.3396 57.849V74.8302Z" fill="white"/>
<path d="M91.4407 52.9175C90.8881 52.3649 89.9921 52.3648 89.4395 52.9175C88.8869 53.4701 88.8869 54.3661 89.4395 54.9188C91.845 57.3242 93.1698 60.5225 93.1698 63.9244C93.1698 67.3263 91.845 70.5246 89.4395 72.9301C88.8869 73.4827 88.8869 74.3787 89.4395 74.9313C89.9921 75.484 90.8881 75.484 91.4407 74.9314C94.3808 71.9912 96 68.0823 96 63.9244C96 59.7665 94.3808 55.8575 91.4407 52.9175Z" fill="white"/>
<path d="M87.4356 56.9226C86.883 56.37 85.987 56.37 85.4344 56.9226C84.8817 57.4752 84.8817 58.3712 85.4344 58.9237C86.7726 60.2618 87.5095 62.0378 87.5095 63.9242C87.5095 65.8106 86.7725 67.5864 85.4344 68.9246C84.8817 69.4775 84.8817 70.3734 85.4344 70.9261C85.987 71.4788 86.8829 71.4788 87.4356 70.9261C89.3083 69.0533 90.3397 66.5668 90.3397 63.9244C90.3396 61.2818 89.3082 58.7953 87.4356 56.9226Z" fill="white"/>
<path d="M83.4346 60.9235C82.8821 60.371 81.986 60.3711 81.4334 60.9237C80.8808 61.4764 80.881 62.3723 81.4336 62.9249C81.7016 63.1928 81.8491 63.5478 81.8491 63.9244C81.8491 64.301 81.7016 64.656 81.4335 64.9239C80.881 65.4766 80.8809 66.3726 81.4334 66.9251C81.9863 67.478 82.8823 67.4777 83.4347 66.9252C84.2373 66.1227 84.6793 65.057 84.6793 63.9244C84.6793 62.7918 84.2371 61.726 83.4346 60.9235Z" fill="white"/>
<path d="M50.8302 63.9244C50.8302 60.5225 52.1549 57.3243 54.5605 54.9188C55.1132 54.3661 55.1132 53.4701 54.5605 52.9175C54.0079 52.3649 53.1119 52.3648 52.5593 52.9175C49.6192 55.8575 48 59.7665 48 63.9244C48 68.0822 49.6192 71.9913 52.5592 74.9313C53.1118 75.4839 54.008 75.4839 54.5604 74.9313C55.1131 74.3786 55.1131 73.4827 54.5604 72.93C52.1549 70.5247 50.8302 67.3263 50.8302 63.9244Z" fill="white"/>
<path d="M56.4906 63.9244C56.4906 62.0379 57.2276 60.2621 58.5657 58.9239C59.1183 58.3713 59.1183 57.4753 58.5657 56.9227C58.0131 56.3701 57.1171 56.3701 56.5645 56.9227C54.6917 58.7954 53.6604 61.282 53.6604 63.9244C53.6604 66.5667 54.6917 69.0533 56.5645 70.926C57.1171 71.4787 58.0132 71.4787 58.5657 70.926C59.1183 70.3733 59.1183 69.4774 58.5657 68.9248C57.2277 67.5867 56.4906 65.8108 56.4906 63.9244Z" fill="white"/>
<path d="M62.5666 64.924C62.2987 64.656 62.151 64.301 62.151 63.9244C62.151 63.5478 62.2986 63.1928 62.5665 62.9248C63.1193 62.3723 63.1193 61.4762 62.5666 60.9236C62.0141 60.371 61.1181 60.3709 60.5655 60.9235C59.7629 61.7261 59.3209 62.7918 59.3209 63.9244C59.3209 65.057 59.7629 66.1227 60.5655 66.9252C61.118 67.4779 62.0142 67.4779 62.5666 66.9252C63.1193 66.3727 63.1193 65.4767 62.5666 64.924Z" fill="white"/>
</g>
<defs>
<radialGradient id="paint0_radial_3061_13598" cx="0" cy="0" r="1" gradientUnits="userSpaceOnUse" gradientTransform="translate(71 71) rotate(90) scale(71)">
<stop stop-color="#59B0E3" stop-opacity="0.88"/>
<stop offset="1" stop-color="#ECEFF3"/>
</radialGradient>
<clipPath id="clip0_3061_13598">
<rect width="48" height="48" fill="white" transform="translate(48 48)"/>
</clipPath>
</defs>
</svg>
