<svg width="327" height="61" viewBox="0 0 327 61" fill="none" xmlns="http://www.w3.org/2000/svg">
<path d="M129.915 0.685999L123.615 21H119.821L115.663 7.714C115.598 7.52733 115.532 7.322 115.467 7.098C115.402 6.874 115.341 6.636 115.285 6.384C115.229 6.636 115.168 6.874 115.103 7.098C115.038 7.322 114.972 7.52733 114.907 7.714L110.707 21H106.899L100.613 0.685999H104.141C104.505 0.685999 104.808 0.769999 105.051 0.937999C105.303 1.106 105.466 1.33 105.541 1.61L108.691 13.062C108.766 13.3793 108.84 13.7247 108.915 14.098C108.999 14.462 109.078 14.8493 109.153 15.26C109.237 14.84 109.326 14.448 109.419 14.084C109.512 13.72 109.615 13.3793 109.727 13.062L113.395 1.61C113.47 1.37667 113.628 1.16667 113.871 0.979999C114.123 0.783999 114.426 0.685999 114.781 0.685999H116.013C116.377 0.685999 116.671 0.774666 116.895 0.951999C117.128 1.12 117.301 1.33933 117.413 1.61L121.067 13.062C121.179 13.3607 121.282 13.6873 121.375 14.042C121.468 14.3873 121.557 14.756 121.641 15.148C121.716 14.756 121.786 14.3873 121.851 14.042C121.926 13.6873 122 13.3607 122.075 13.062L125.225 1.61C125.29 1.36733 125.449 1.15267 125.701 0.965998C125.953 0.779332 126.256 0.685999 126.611 0.685999H129.915ZM139.047 12.082C139.047 11.6807 138.991 11.298 138.879 10.934C138.776 10.57 138.608 10.248 138.375 9.968C138.142 9.688 137.848 9.46867 137.493 9.31C137.138 9.142 136.714 9.058 136.219 9.058C135.295 9.058 134.572 9.31933 134.049 9.842C133.526 10.3647 133.186 11.1113 133.027 12.082H139.047ZM132.971 14.378C133.092 15.7313 133.475 16.7207 134.119 17.346C134.772 17.9713 135.622 18.284 136.667 18.284C137.199 18.284 137.656 18.2233 138.039 18.102C138.431 17.9713 138.772 17.8313 139.061 17.682C139.36 17.5233 139.626 17.3833 139.859 17.262C140.102 17.1313 140.34 17.066 140.573 17.066C140.872 17.066 141.105 17.178 141.273 17.402L142.393 18.802C141.982 19.278 141.53 19.6747 141.035 19.992C140.54 20.3 140.027 20.5473 139.495 20.734C138.963 20.9113 138.426 21.0327 137.885 21.098C137.344 21.1727 136.821 21.21 136.317 21.21C135.309 21.21 134.366 21.0467 133.489 20.72C132.621 20.384 131.86 19.894 131.207 19.25C130.563 18.5967 130.054 17.7893 129.681 16.828C129.308 15.8667 129.121 14.7513 129.121 13.482C129.121 12.502 129.28 11.578 129.597 10.71C129.924 9.842 130.39 9.086 130.997 8.442C131.604 7.798 132.341 7.28933 133.209 6.916C134.077 6.53333 135.057 6.342 136.149 6.342C137.073 6.342 137.922 6.49133 138.697 6.79C139.481 7.07933 140.153 7.504 140.713 8.064C141.282 8.624 141.721 9.31467 142.029 10.136C142.346 10.948 142.505 11.8767 142.505 12.922C142.505 13.2113 142.491 13.4493 142.463 13.636C142.435 13.8227 142.388 13.972 142.323 14.084C142.258 14.196 142.169 14.2753 142.057 14.322C141.945 14.3593 141.8 14.378 141.623 14.378H132.971ZM148.795 0.125999V21H144.931V0.125999H148.795ZM162.484 9.786C162.372 9.93533 162.26 10.052 162.148 10.136C162.036 10.2107 161.877 10.248 161.672 10.248C161.485 10.248 161.303 10.1967 161.126 10.094C160.958 9.982 160.762 9.86533 160.538 9.744C160.314 9.61333 160.048 9.49667 159.74 9.394C159.432 9.282 159.049 9.226 158.592 9.226C158.013 9.226 157.509 9.33333 157.08 9.548C156.66 9.75333 156.31 10.052 156.03 10.444C155.75 10.836 155.54 11.312 155.4 11.872C155.269 12.432 155.204 13.062 155.204 13.762C155.204 15.2367 155.498 16.366 156.086 17.15C156.683 17.934 157.495 18.326 158.522 18.326C158.877 18.326 159.18 18.298 159.432 18.242C159.693 18.1767 159.917 18.0973 160.104 18.004C160.3 17.9107 160.468 17.808 160.608 17.696C160.748 17.584 160.879 17.4813 161 17.388C161.131 17.2947 161.257 17.22 161.378 17.164C161.509 17.0987 161.653 17.066 161.812 17.066C162.111 17.066 162.344 17.178 162.512 17.402L163.618 18.802C163.207 19.278 162.769 19.6747 162.302 19.992C161.835 20.3 161.35 20.5473 160.846 20.734C160.351 20.9113 159.847 21.0327 159.334 21.098C158.821 21.1727 158.312 21.21 157.808 21.21C156.921 21.21 156.081 21.0467 155.288 20.72C154.495 20.384 153.799 19.8987 153.202 19.264C152.605 18.6293 152.129 17.85 151.774 16.926C151.429 16.002 151.256 14.9473 151.256 13.762C151.256 12.7073 151.41 11.7273 151.718 10.822C152.026 9.91667 152.479 9.13267 153.076 8.47C153.673 7.80733 154.411 7.28933 155.288 6.916C156.175 6.53333 157.197 6.342 158.354 6.342C159.455 6.342 160.421 6.51933 161.252 6.874C162.083 7.22867 162.829 7.742 163.492 8.414L162.484 9.786ZM171.838 6.342C172.921 6.342 173.906 6.51467 174.792 6.86C175.679 7.20533 176.44 7.7 177.074 8.344C177.709 8.97867 178.199 9.75333 178.544 10.668C178.89 11.5827 179.062 12.614 179.062 13.762C179.062 14.91 178.89 15.946 178.544 16.87C178.199 17.7847 177.709 18.564 177.074 19.208C176.44 19.852 175.679 20.3467 174.792 20.692C173.906 21.0373 172.921 21.21 171.838 21.21C170.746 21.21 169.752 21.0373 168.856 20.692C167.97 20.3467 167.209 19.852 166.574 19.208C165.94 18.564 165.445 17.7847 165.09 16.87C164.745 15.946 164.572 14.91 164.572 13.762C164.572 12.614 164.745 11.5827 165.09 10.668C165.445 9.75333 165.94 8.97867 166.574 8.344C167.209 7.7 167.97 7.20533 168.856 6.86C169.752 6.51467 170.746 6.342 171.838 6.342ZM171.838 18.312C172.94 18.312 173.756 17.934 174.288 17.178C174.82 16.4127 175.086 15.2787 175.086 13.776C175.086 12.2827 174.82 11.158 174.288 10.402C173.756 9.63667 172.94 9.254 171.838 9.254C170.709 9.254 169.878 9.63667 169.346 10.402C168.814 11.158 168.548 12.2827 168.548 13.776C168.548 15.2787 168.814 16.4127 169.346 17.178C169.878 17.934 170.709 18.312 171.838 18.312ZM181.489 21V6.566H183.869C184.354 6.566 184.676 6.79 184.835 7.238L185.059 8.176C185.311 7.91467 185.567 7.672 185.829 7.448C186.099 7.224 186.389 7.03267 186.697 6.874C187.005 6.706 187.336 6.57533 187.691 6.482C188.055 6.38867 188.447 6.342 188.867 6.342C189.753 6.342 190.486 6.58 191.065 7.056C191.643 7.52267 192.082 8.148 192.381 8.932C192.614 8.47467 192.899 8.08267 193.235 7.756C193.58 7.42 193.953 7.14933 194.355 6.944C194.765 6.73867 195.195 6.58933 195.643 6.496C196.1 6.39333 196.557 6.342 197.015 6.342C197.827 6.342 198.545 6.46333 199.171 6.706C199.796 6.94867 200.319 7.308 200.739 7.784C201.168 8.25067 201.495 8.82467 201.719 9.506C201.943 10.1873 202.055 10.962 202.055 11.83V21H198.191V11.83C198.191 10.1407 197.467 9.296 196.021 9.296C195.694 9.296 195.391 9.352 195.111 9.464C194.84 9.56667 194.597 9.72533 194.383 9.94C194.177 10.1547 194.014 10.4207 193.893 10.738C193.781 11.0553 193.725 11.4193 193.725 11.83V21H189.861V11.83C189.861 10.9153 189.679 10.2667 189.315 9.884C188.96 9.492 188.433 9.296 187.733 9.296C187.285 9.296 186.86 9.40333 186.459 9.618C186.067 9.82333 185.698 10.1127 185.353 10.486V21H181.489ZM214.27 12.082C214.27 11.6807 214.214 11.298 214.102 10.934C213.999 10.57 213.831 10.248 213.598 9.968C213.364 9.688 213.07 9.46867 212.716 9.31C212.361 9.142 211.936 9.058 211.442 9.058C210.518 9.058 209.794 9.31933 209.272 9.842C208.749 10.3647 208.408 11.1113 208.25 12.082H214.27ZM208.194 14.378C208.315 15.7313 208.698 16.7207 209.342 17.346C209.995 17.9713 210.844 18.284 211.89 18.284C212.422 18.284 212.879 18.2233 213.262 18.102C213.654 17.9713 213.994 17.8313 214.284 17.682C214.582 17.5233 214.848 17.3833 215.082 17.262C215.324 17.1313 215.562 17.066 215.796 17.066C216.094 17.066 216.328 17.178 216.496 17.402L217.616 18.802C217.205 19.278 216.752 19.6747 216.258 19.992C215.763 20.3 215.25 20.5473 214.718 20.734C214.186 20.9113 213.649 21.0327 213.108 21.098C212.566 21.1727 212.044 21.21 211.54 21.21C210.532 21.21 209.589 21.0467 208.712 20.72C207.844 20.384 207.083 19.894 206.43 19.25C205.786 18.5967 205.277 17.7893 204.904 16.828C204.53 15.8667 204.344 14.7513 204.344 13.482C204.344 12.502 204.502 11.578 204.82 10.71C205.146 9.842 205.613 9.086 206.22 8.442C206.826 7.798 207.564 7.28933 208.432 6.916C209.3 6.53333 210.28 6.342 211.372 6.342C212.296 6.342 213.145 6.49133 213.92 6.79C214.704 7.07933 215.376 7.504 215.936 8.064C216.505 8.624 216.944 9.31467 217.252 10.136C217.569 10.948 217.728 11.8767 217.728 12.922C217.728 13.2113 217.714 13.4493 217.686 13.636C217.658 13.8227 217.611 13.972 217.546 14.084C217.48 14.196 217.392 14.2753 217.28 14.322C217.168 14.3593 217.023 14.378 216.846 14.378H208.194ZM224.353 0.685999V8.694C224.353 9.54333 224.307 10.3833 224.213 11.214C224.129 12.0447 224.008 12.908 223.849 13.804H221.245C221.087 12.908 220.961 12.0447 220.867 11.214C220.783 10.3833 220.741 9.54333 220.741 8.694V0.685999H224.353ZM220.223 18.97C220.223 18.662 220.279 18.3727 220.391 18.102C220.513 17.822 220.676 17.584 220.881 17.388C221.087 17.1827 221.325 17.024 221.595 16.912C221.875 16.7907 222.179 16.73 222.505 16.73C222.823 16.73 223.117 16.7907 223.387 16.912C223.667 17.024 223.91 17.1827 224.115 17.388C224.321 17.584 224.484 17.822 224.605 18.102C224.727 18.3727 224.787 18.662 224.787 18.97C224.787 19.2873 224.727 19.5813 224.605 19.852C224.484 20.1227 224.321 20.3607 224.115 20.566C223.91 20.762 223.667 20.916 223.387 21.028C223.117 21.14 222.823 21.196 222.505 21.196C222.179 21.196 221.875 21.14 221.595 21.028C221.325 20.916 221.087 20.762 220.881 20.566C220.676 20.3607 220.513 20.1227 220.391 19.852C220.279 19.5813 220.223 19.2873 220.223 18.97Z" fill="#1470A4"/>
<path d="M52.0824 49.48C52.525 49.48 52.9144 49.4213 53.2504 49.304C53.5917 49.1867 53.877 49.024 54.1064 48.816C54.341 48.6027 54.517 48.3493 54.6344 48.056C54.7517 47.7627 54.8104 47.44 54.8104 47.088C54.8104 46.3573 54.5837 45.7867 54.1304 45.376C53.6824 44.9653 52.9997 44.76 52.0824 44.76H50.2424V49.48H52.0824ZM52.0824 43.536C52.8077 43.536 53.437 43.6213 53.9704 43.792C54.509 43.9573 54.9544 44.1947 55.3064 44.504C55.6584 44.8133 55.9197 45.1867 56.0904 45.624C56.2664 46.0613 56.3544 46.5493 56.3544 47.088C56.3544 47.6213 56.261 48.1093 56.0744 48.552C55.8877 48.9947 55.613 49.376 55.2504 49.696C54.893 50.016 54.4477 50.2667 53.9144 50.448C53.3864 50.624 52.7757 50.712 52.0824 50.712H50.2424V55H48.6984V43.536H52.0824ZM59.3969 43.216V55H57.9729V43.216H59.3969ZM67.1301 50.064C67.1301 49.7333 67.0821 49.432 66.9861 49.16C66.8955 48.8827 66.7595 48.6453 66.5781 48.448C66.4021 48.2453 66.1861 48.0907 65.9301 47.984C65.6741 47.872 65.3835 47.816 65.0581 47.816C64.3755 47.816 63.8341 48.016 63.4341 48.416C63.0395 48.8107 62.7941 49.36 62.6981 50.064H67.1301ZM68.2821 53.864C68.1061 54.0773 67.8955 54.264 67.6501 54.424C67.4048 54.5787 67.1408 54.7067 66.8581 54.808C66.5808 54.9093 66.2928 54.984 65.9941 55.032C65.6955 55.0853 65.3995 55.112 65.1061 55.112C64.5461 55.112 64.0288 55.0187 63.5541 54.832C63.0848 54.64 62.6768 54.3627 62.3301 54C61.9888 53.632 61.7221 53.1787 61.5301 52.64C61.3381 52.1013 61.2421 51.4827 61.2421 50.784C61.2421 50.2187 61.3275 49.6907 61.4981 49.2C61.6741 48.7093 61.9248 48.2853 62.2501 47.928C62.5755 47.5653 62.9728 47.2827 63.4421 47.08C63.9115 46.872 64.4395 46.768 65.0261 46.768C65.5115 46.768 65.9595 46.8507 66.3701 47.016C66.7861 47.176 67.1435 47.4107 67.4421 47.72C67.7461 48.024 67.9835 48.4027 68.1541 48.856C68.3248 49.304 68.4101 49.816 68.4101 50.392C68.4101 50.616 68.3861 50.7653 68.3381 50.84C68.2901 50.9147 68.1995 50.952 68.0661 50.952H62.6501C62.6661 51.464 62.7355 51.9093 62.8581 52.288C62.9861 52.6667 63.1621 52.984 63.3861 53.24C63.6101 53.4907 63.8768 53.68 64.1861 53.808C64.4955 53.9307 64.8421 53.992 65.2261 53.992C65.5835 53.992 65.8901 53.952 66.1461 53.872C66.4075 53.7867 66.6315 53.696 66.8181 53.6C67.0048 53.504 67.1595 53.416 67.2821 53.336C67.4101 53.2507 67.5195 53.208 67.6101 53.208C67.7275 53.208 67.8181 53.2533 67.8821 53.344L68.2821 53.864ZM74.5513 51.352C73.8953 51.3733 73.3353 51.4267 72.8713 51.512C72.4126 51.592 72.0366 51.6987 71.7433 51.832C71.4553 51.9653 71.2446 52.1227 71.1113 52.304C70.9833 52.4853 70.9193 52.688 70.9193 52.912C70.9193 53.1253 70.9539 53.3093 71.0233 53.464C71.0926 53.6187 71.1859 53.7467 71.3033 53.848C71.4259 53.944 71.5673 54.016 71.7273 54.064C71.8926 54.1067 72.0686 54.128 72.2553 54.128C72.5059 54.128 72.7353 54.104 72.9433 54.056C73.1513 54.0027 73.3459 53.928 73.5273 53.832C73.7139 53.736 73.8899 53.6213 74.0553 53.488C74.2259 53.3547 74.3913 53.2027 74.5513 53.032V51.352ZM69.9513 48.04C70.3993 47.608 70.8819 47.2853 71.3993 47.072C71.9166 46.8587 72.4899 46.752 73.1193 46.752C73.5726 46.752 73.9753 46.8267 74.3273 46.976C74.6793 47.1253 74.9753 47.3333 75.2153 47.6C75.4553 47.8667 75.6366 48.1893 75.7593 48.568C75.8819 48.9467 75.9433 49.3627 75.9433 49.816V55H75.3113C75.1726 55 75.0659 54.9787 74.9913 54.936C74.9166 54.888 74.8579 54.7973 74.8153 54.664L74.6553 53.896C74.4419 54.0933 74.2339 54.2693 74.0312 54.424C73.8286 54.5733 73.6153 54.7013 73.3913 54.808C73.1673 54.9093 72.9273 54.9867 72.6713 55.04C72.4206 55.0987 72.1406 55.128 71.8313 55.128C71.5166 55.128 71.2206 55.0853 70.9433 55C70.6659 54.9093 70.4233 54.776 70.2153 54.6C70.0126 54.424 69.8499 54.2027 69.7273 53.936C69.6099 53.664 69.5513 53.344 69.5513 52.976C69.5513 52.656 69.6393 52.3493 69.8153 52.056C69.9913 51.7573 70.2766 51.4933 70.6713 51.264C71.0659 51.0347 71.5806 50.848 72.2153 50.704C72.8499 50.5547 73.6286 50.4693 74.5513 50.448V49.816C74.5513 49.1867 74.4153 48.712 74.1433 48.392C73.8713 48.0667 73.4739 47.904 72.9513 47.904C72.5993 47.904 72.3033 47.9493 72.0633 48.04C71.8286 48.1253 71.6233 48.224 71.4473 48.336C71.2766 48.4427 71.1273 48.5413 70.9993 48.632C70.8766 48.7173 70.7539 48.76 70.6313 48.76C70.5353 48.76 70.4526 48.736 70.3833 48.688C70.3139 48.6347 70.2553 48.5707 70.2072 48.496L69.9513 48.04ZM82.8324 48.232C82.7684 48.3493 82.6697 48.408 82.5364 48.408C82.4564 48.408 82.3657 48.3787 82.2644 48.32C82.163 48.2613 82.0377 48.1973 81.8884 48.128C81.7444 48.0533 81.571 47.9867 81.3684 47.928C81.1657 47.864 80.9257 47.832 80.6484 47.832C80.4084 47.832 80.1924 47.864 80.0004 47.928C79.8084 47.9867 79.643 48.0693 79.5044 48.176C79.371 48.2827 79.267 48.408 79.1924 48.552C79.123 48.6907 79.0884 48.8427 79.0884 49.008C79.0884 49.216 79.147 49.3893 79.2644 49.528C79.387 49.6667 79.547 49.7867 79.7444 49.888C79.9417 49.9893 80.1657 50.08 80.4164 50.16C80.667 50.2347 80.923 50.3173 81.1844 50.408C81.451 50.4933 81.7097 50.5893 81.9604 50.696C82.211 50.8027 82.435 50.936 82.6324 51.096C82.8297 51.256 82.987 51.4533 83.1044 51.688C83.227 51.9173 83.2884 52.1947 83.2884 52.52C83.2884 52.8933 83.2217 53.24 83.0884 53.56C82.955 53.8747 82.7577 54.1493 82.4964 54.384C82.235 54.6133 81.915 54.7947 81.5364 54.928C81.1577 55.0613 80.7204 55.128 80.2244 55.128C79.659 55.128 79.147 55.0373 78.6884 54.856C78.2297 54.6693 77.8404 54.432 77.5204 54.144L77.8564 53.6C77.899 53.5307 77.9497 53.4773 78.0084 53.44C78.067 53.4027 78.1417 53.384 78.2324 53.384C78.3284 53.384 78.4297 53.4213 78.5364 53.496C78.643 53.5707 78.771 53.6533 78.9204 53.744C79.075 53.8347 79.2617 53.9173 79.4804 53.992C79.699 54.0667 79.971 54.104 80.2964 54.104C80.5737 54.104 80.8164 54.0693 81.0244 54C81.2324 53.9253 81.4057 53.8267 81.5444 53.704C81.683 53.5813 81.7844 53.44 81.8484 53.28C81.9177 53.12 81.9524 52.9493 81.9524 52.768C81.9524 52.544 81.891 52.36 81.7684 52.216C81.651 52.0667 81.4937 51.9413 81.2964 51.84C81.099 51.7333 80.8724 51.6427 80.6164 51.568C80.3657 51.488 80.107 51.4053 79.8404 51.32C79.579 51.2347 79.3204 51.1387 79.0644 51.032C78.8137 50.92 78.5897 50.7813 78.3924 50.616C78.195 50.4507 78.035 50.248 77.9124 50.008C77.795 49.7627 77.7364 49.4667 77.7364 49.12C77.7364 48.8107 77.8004 48.5147 77.9284 48.232C78.0564 47.944 78.243 47.6933 78.4884 47.48C78.7337 47.2613 79.035 47.088 79.3924 46.96C79.7497 46.832 80.1577 46.768 80.6164 46.768C81.1497 46.768 81.627 46.8533 82.0484 47.024C82.475 47.1893 82.843 47.4187 83.1524 47.712L82.8324 48.232ZM90.4583 50.064C90.4583 49.7333 90.4103 49.432 90.3143 49.16C90.2236 48.8827 90.0876 48.6453 89.9063 48.448C89.7303 48.2453 89.5143 48.0907 89.2583 47.984C89.0023 47.872 88.7116 47.816 88.3863 47.816C87.7036 47.816 87.1623 48.016 86.7623 48.416C86.3676 48.8107 86.1223 49.36 86.0263 50.064H90.4583ZM91.6103 53.864C91.4343 54.0773 91.2236 54.264 90.9783 54.424C90.7329 54.5787 90.4689 54.7067 90.1863 54.808C89.9089 54.9093 89.6209 54.984 89.3223 55.032C89.0236 55.0853 88.7276 55.112 88.4343 55.112C87.8743 55.112 87.3569 55.0187 86.8823 54.832C86.4129 54.64 86.0049 54.3627 85.6583 54C85.3169 53.632 85.0503 53.1787 84.8583 52.64C84.6663 52.1013 84.5703 51.4827 84.5703 50.784C84.5703 50.2187 84.6556 49.6907 84.8263 49.2C85.0023 48.7093 85.2529 48.2853 85.5783 47.928C85.9036 47.5653 86.3009 47.2827 86.7703 47.08C87.2396 46.872 87.7676 46.768 88.3543 46.768C88.8396 46.768 89.2876 46.8507 89.6983 47.016C90.1143 47.176 90.4716 47.4107 90.7703 47.72C91.0743 48.024 91.3116 48.4027 91.4823 48.856C91.6529 49.304 91.7383 49.816 91.7383 50.392C91.7383 50.616 91.7143 50.7653 91.6663 50.84C91.6183 50.9147 91.5276 50.952 91.3943 50.952H85.9783C85.9943 51.464 86.0636 51.9093 86.1863 52.288C86.3143 52.6667 86.4903 52.984 86.7143 53.24C86.9383 53.4907 87.2049 53.68 87.5143 53.808C87.8236 53.9307 88.1703 53.992 88.5543 53.992C88.9116 53.992 89.2183 53.952 89.4743 53.872C89.7356 53.7867 89.9596 53.696 90.1463 53.6C90.3329 53.504 90.4876 53.416 90.6103 53.336C90.7383 53.2507 90.8476 53.208 90.9383 53.208C91.0556 53.208 91.1463 53.2533 91.2103 53.344L91.6103 53.864ZM103.221 48.336C103.178 48.3947 103.136 48.44 103.093 48.472C103.05 48.504 102.992 48.52 102.917 48.52C102.837 48.52 102.749 48.488 102.653 48.424C102.557 48.3547 102.437 48.28 102.293 48.2C102.154 48.12 101.981 48.048 101.773 47.984C101.57 47.9147 101.32 47.88 101.021 47.88C100.621 47.88 100.269 47.952 99.9651 48.096C99.6611 48.2347 99.4051 48.4373 99.1971 48.704C98.9945 48.9707 98.8398 49.2933 98.7331 49.672C98.6318 50.0507 98.5811 50.4747 98.5811 50.944C98.5811 51.4347 98.6371 51.872 98.7491 52.256C98.8611 52.6347 99.0185 52.9547 99.2211 53.216C99.4291 53.472 99.6771 53.6693 99.9651 53.808C100.258 53.9413 100.586 54.008 100.949 54.008C101.296 54.008 101.581 53.968 101.805 53.888C102.029 53.8027 102.213 53.7093 102.357 53.608C102.506 53.5067 102.629 53.416 102.725 53.336C102.826 53.2507 102.925 53.208 103.021 53.208C103.138 53.208 103.229 53.2533 103.293 53.344L103.693 53.864C103.517 54.0827 103.317 54.2693 103.093 54.424C102.869 54.5787 102.626 54.7093 102.365 54.816C102.109 54.9173 101.84 54.992 101.557 55.04C101.274 55.088 100.986 55.112 100.693 55.112C100.186 55.112 99.7145 55.0187 99.2771 54.832C98.8451 54.6453 98.4691 54.376 98.1491 54.024C97.8291 53.6667 97.5785 53.2293 97.3971 52.712C97.2158 52.1947 97.1251 51.6053 97.1251 50.944C97.1251 50.3413 97.2078 49.784 97.3731 49.272C97.5438 48.76 97.7891 48.32 98.1091 47.952C98.4345 47.5787 98.8318 47.288 99.3011 47.08C99.7758 46.872 100.32 46.768 100.933 46.768C101.504 46.768 102.005 46.8613 102.437 47.048C102.874 47.2293 103.261 47.488 103.597 47.824L103.221 48.336ZM106.654 47.976C107 47.608 107.384 47.3147 107.806 47.096C108.227 46.8773 108.712 46.768 109.262 46.768C109.704 46.768 110.094 46.8427 110.43 46.992C110.771 47.136 111.054 47.344 111.278 47.616C111.507 47.8827 111.68 48.2053 111.798 48.584C111.915 48.9627 111.974 49.3813 111.974 49.84V55H110.542V49.84C110.542 49.2267 110.4 48.752 110.118 48.416C109.84 48.0747 109.416 47.904 108.846 47.904C108.424 47.904 108.03 48.0053 107.662 48.208C107.299 48.4107 106.963 48.6853 106.654 49.032V55H105.222V43.216H106.654V47.976ZM117.56 46.768C118.152 46.768 118.685 46.8667 119.16 47.064C119.634 47.2613 120.04 47.5413 120.376 47.904C120.712 48.2667 120.968 48.7067 121.144 49.224C121.325 49.736 121.416 50.3093 121.416 50.944C121.416 51.584 121.325 52.16 121.144 52.672C120.968 53.184 120.712 53.6213 120.376 53.984C120.04 54.3467 119.634 54.6267 119.16 54.824C118.685 55.016 118.152 55.112 117.56 55.112C116.962 55.112 116.424 55.016 115.944 54.824C115.469 54.6267 115.064 54.3467 114.728 53.984C114.392 53.6213 114.133 53.184 113.952 52.672C113.776 52.16 113.688 51.584 113.688 50.944C113.688 50.3093 113.776 49.736 113.952 49.224C114.133 48.7067 114.392 48.2667 114.728 47.904C115.064 47.5413 115.469 47.2613 115.944 47.064C116.424 46.8667 116.962 46.768 117.56 46.768ZM117.56 54C118.36 54 118.957 53.7333 119.352 53.2C119.746 52.6613 119.944 51.912 119.944 50.952C119.944 49.9867 119.746 49.2347 119.352 48.696C118.957 48.1573 118.36 47.888 117.56 47.888C117.154 47.888 116.8 47.9573 116.496 48.096C116.197 48.2347 115.946 48.4347 115.744 48.696C115.546 48.9573 115.397 49.28 115.296 49.664C115.2 50.0427 115.152 50.472 115.152 50.952C115.152 51.912 115.349 52.6613 115.744 53.2C116.144 53.7333 116.749 54 117.56 54ZM126.638 46.768C127.23 46.768 127.763 46.8667 128.238 47.064C128.712 47.2613 129.118 47.5413 129.454 47.904C129.79 48.2667 130.046 48.7067 130.222 49.224C130.403 49.736 130.494 50.3093 130.494 50.944C130.494 51.584 130.403 52.16 130.222 52.672C130.046 53.184 129.79 53.6213 129.454 53.984C129.118 54.3467 128.712 54.6267 128.238 54.824C127.763 55.016 127.23 55.112 126.638 55.112C126.04 55.112 125.502 55.016 125.022 54.824C124.547 54.6267 124.142 54.3467 123.806 53.984C123.47 53.6213 123.211 53.184 123.03 52.672C122.854 52.16 122.766 51.584 122.766 50.944C122.766 50.3093 122.854 49.736 123.03 49.224C123.211 48.7067 123.47 48.2667 123.806 47.904C124.142 47.5413 124.547 47.2613 125.022 47.064C125.502 46.8667 126.04 46.768 126.638 46.768ZM126.638 54C127.438 54 128.035 53.7333 128.43 53.2C128.824 52.6613 129.022 51.912 129.022 50.952C129.022 49.9867 128.824 49.2347 128.43 48.696C128.035 48.1573 127.438 47.888 126.638 47.888C126.232 47.888 125.878 47.9573 125.574 48.096C125.275 48.2347 125.024 48.4347 124.822 48.696C124.624 48.9573 124.475 49.28 124.374 49.664C124.278 50.0427 124.23 50.472 124.23 50.952C124.23 51.912 124.427 52.6613 124.822 53.2C125.222 53.7333 125.827 54 126.638 54ZM137.02 48.232C136.956 48.3493 136.857 48.408 136.724 48.408C136.644 48.408 136.553 48.3787 136.452 48.32C136.351 48.2613 136.225 48.1973 136.076 48.128C135.932 48.0533 135.759 47.9867 135.556 47.928C135.353 47.864 135.113 47.832 134.836 47.832C134.596 47.832 134.38 47.864 134.188 47.928C133.996 47.9867 133.831 48.0693 133.692 48.176C133.559 48.2827 133.455 48.408 133.38 48.552C133.311 48.6907 133.276 48.8427 133.276 49.008C133.276 49.216 133.335 49.3893 133.452 49.528C133.575 49.6667 133.735 49.7867 133.932 49.888C134.129 49.9893 134.353 50.08 134.604 50.16C134.855 50.2347 135.111 50.3173 135.372 50.408C135.639 50.4933 135.897 50.5893 136.148 50.696C136.399 50.8027 136.623 50.936 136.82 51.096C137.017 51.256 137.175 51.4533 137.292 51.688C137.415 51.9173 137.476 52.1947 137.476 52.52C137.476 52.8933 137.409 53.24 137.276 53.56C137.143 53.8747 136.945 54.1493 136.684 54.384C136.423 54.6133 136.103 54.7947 135.724 54.928C135.345 55.0613 134.908 55.128 134.412 55.128C133.847 55.128 133.335 55.0373 132.876 54.856C132.417 54.6693 132.028 54.432 131.708 54.144L132.044 53.6C132.087 53.5307 132.137 53.4773 132.196 53.44C132.255 53.4027 132.329 53.384 132.42 53.384C132.516 53.384 132.617 53.4213 132.724 53.496C132.831 53.5707 132.959 53.6533 133.108 53.744C133.263 53.8347 133.449 53.9173 133.668 53.992C133.887 54.0667 134.159 54.104 134.484 54.104C134.761 54.104 135.004 54.0693 135.212 54C135.42 53.9253 135.593 53.8267 135.732 53.704C135.871 53.5813 135.972 53.44 136.036 53.28C136.105 53.12 136.14 52.9493 136.14 52.768C136.14 52.544 136.079 52.36 135.956 52.216C135.839 52.0667 135.681 51.9413 135.484 51.84C135.287 51.7333 135.06 51.6427 134.804 51.568C134.553 51.488 134.295 51.4053 134.028 51.32C133.767 51.2347 133.508 51.1387 133.252 51.032C133.001 50.92 132.777 50.7813 132.58 50.616C132.383 50.4507 132.223 50.248 132.1 50.008C131.983 49.7627 131.924 49.4667 131.924 49.12C131.924 48.8107 131.988 48.5147 132.116 48.232C132.244 47.944 132.431 47.6933 132.676 47.48C132.921 47.2613 133.223 47.088 133.58 46.96C133.937 46.832 134.345 46.768 134.804 46.768C135.337 46.768 135.815 46.8533 136.236 47.024C136.663 47.1893 137.031 47.4187 137.34 47.712L137.02 48.232ZM144.646 50.064C144.646 49.7333 144.598 49.432 144.502 49.16C144.411 48.8827 144.275 48.6453 144.094 48.448C143.918 48.2453 143.702 48.0907 143.446 47.984C143.19 47.872 142.899 47.816 142.574 47.816C141.891 47.816 141.35 48.016 140.95 48.416C140.555 48.8107 140.31 49.36 140.214 50.064H144.646ZM145.798 53.864C145.622 54.0773 145.411 54.264 145.166 54.424C144.92 54.5787 144.656 54.7067 144.374 54.808C144.096 54.9093 143.808 54.984 143.51 55.032C143.211 55.0853 142.915 55.112 142.622 55.112C142.062 55.112 141.544 55.0187 141.07 54.832C140.6 54.64 140.192 54.3627 139.846 54C139.504 53.632 139.238 53.1787 139.046 52.64C138.854 52.1013 138.758 51.4827 138.758 50.784C138.758 50.2187 138.843 49.6907 139.014 49.2C139.19 48.7093 139.44 48.2853 139.766 47.928C140.091 47.5653 140.488 47.2827 140.958 47.08C141.427 46.872 141.955 46.768 142.542 46.768C143.027 46.768 143.475 46.8507 143.886 47.016C144.302 47.176 144.659 47.4107 144.958 47.72C145.262 48.024 145.499 48.4027 145.67 48.856C145.84 49.304 145.926 49.816 145.926 50.392C145.926 50.616 145.902 50.7653 145.854 50.84C145.806 50.9147 145.715 50.952 145.582 50.952H140.166C140.182 51.464 140.251 51.9093 140.374 52.288C140.502 52.6667 140.678 52.984 140.902 53.24C141.126 53.4907 141.392 53.68 141.702 53.808C142.011 53.9307 142.358 53.992 142.742 53.992C143.099 53.992 143.406 53.952 143.662 53.872C143.923 53.7867 144.147 53.696 144.334 53.6C144.52 53.504 144.675 53.416 144.798 53.336C144.926 53.2507 145.035 53.208 145.126 53.208C145.243 53.208 145.334 53.2533 145.398 53.344L145.798 53.864ZM155.185 46.768C155.777 46.768 156.31 46.8667 156.785 47.064C157.259 47.2613 157.665 47.5413 158.001 47.904C158.337 48.2667 158.593 48.7067 158.769 49.224C158.95 49.736 159.041 50.3093 159.041 50.944C159.041 51.584 158.95 52.16 158.769 52.672C158.593 53.184 158.337 53.6213 158.001 53.984C157.665 54.3467 157.259 54.6267 156.785 54.824C156.31 55.016 155.777 55.112 155.185 55.112C154.587 55.112 154.049 55.016 153.569 54.824C153.094 54.6267 152.689 54.3467 152.353 53.984C152.017 53.6213 151.758 53.184 151.577 52.672C151.401 52.16 151.313 51.584 151.313 50.944C151.313 50.3093 151.401 49.736 151.577 49.224C151.758 48.7067 152.017 48.2667 152.353 47.904C152.689 47.5413 153.094 47.2613 153.569 47.064C154.049 46.8667 154.587 46.768 155.185 46.768ZM155.185 54C155.985 54 156.582 53.7333 156.977 53.2C157.371 52.6613 157.569 51.912 157.569 50.952C157.569 49.9867 157.371 49.2347 156.977 48.696C156.582 48.1573 155.985 47.888 155.185 47.888C154.779 47.888 154.425 47.9573 154.121 48.096C153.822 48.2347 153.571 48.4347 153.369 48.696C153.171 48.9573 153.022 49.28 152.921 49.664C152.825 50.0427 152.777 50.472 152.777 50.952C152.777 51.912 152.974 52.6613 153.369 53.2C153.769 53.7333 154.374 54 155.185 54ZM162.191 48.072C162.367 47.8747 162.553 47.696 162.751 47.536C162.948 47.376 163.156 47.24 163.375 47.128C163.599 47.0107 163.833 46.9227 164.079 46.864C164.329 46.8 164.599 46.768 164.887 46.768C165.329 46.768 165.719 46.8427 166.055 46.992C166.396 47.136 166.679 47.344 166.903 47.616C167.132 47.8827 167.305 48.2053 167.423 48.584C167.54 48.9627 167.599 49.3813 167.599 49.84V55H166.167V49.84C166.167 49.2267 166.025 48.752 165.743 48.416C165.465 48.0747 165.041 47.904 164.471 47.904C164.049 47.904 163.655 48.0053 163.287 48.208C162.924 48.4107 162.588 48.6853 162.279 49.032V55H160.847V46.896H161.703C161.905 46.896 162.031 46.9947 162.079 47.192L162.191 48.072ZM175.193 50.064C175.193 49.7333 175.145 49.432 175.049 49.16C174.958 48.8827 174.822 48.6453 174.641 48.448C174.465 48.2453 174.249 48.0907 173.993 47.984C173.737 47.872 173.446 47.816 173.121 47.816C172.438 47.816 171.897 48.016 171.497 48.416C171.102 48.8107 170.857 49.36 170.761 50.064H175.193ZM176.345 53.864C176.169 54.0773 175.958 54.264 175.713 54.424C175.467 54.5787 175.203 54.7067 174.921 54.808C174.643 54.9093 174.355 54.984 174.057 55.032C173.758 55.0853 173.462 55.112 173.169 55.112C172.609 55.112 172.091 55.0187 171.617 54.832C171.147 54.64 170.739 54.3627 170.393 54C170.051 53.632 169.785 53.1787 169.593 52.64C169.401 52.1013 169.305 51.4827 169.305 50.784C169.305 50.2187 169.39 49.6907 169.561 49.2C169.737 48.7093 169.987 48.2853 170.313 47.928C170.638 47.5653 171.035 47.2827 171.505 47.08C171.974 46.872 172.502 46.768 173.089 46.768C173.574 46.768 174.022 46.8507 174.433 47.016C174.849 47.176 175.206 47.4107 175.505 47.72C175.809 48.024 176.046 48.4027 176.217 48.856C176.387 49.304 176.473 49.816 176.473 50.392C176.473 50.616 176.449 50.7653 176.401 50.84C176.353 50.9147 176.262 50.952 176.129 50.952H170.713C170.729 51.464 170.798 51.9093 170.921 52.288C171.049 52.6667 171.225 52.984 171.449 53.24C171.673 53.4907 171.939 53.68 172.249 53.808C172.558 53.9307 172.905 53.992 173.289 53.992C173.646 53.992 173.953 53.952 174.209 53.872C174.47 53.7867 174.694 53.696 174.881 53.6C175.067 53.504 175.222 53.416 175.345 53.336C175.473 53.2507 175.582 53.208 175.673 53.208C175.79 53.208 175.881 53.2533 175.945 53.344L176.345 53.864ZM184.804 55.128C184.164 55.128 183.67 54.9493 183.324 54.592C182.982 54.2347 182.812 53.72 182.812 53.048V48.088H181.836C181.75 48.088 181.678 48.064 181.62 48.016C181.561 47.9627 181.532 47.8827 181.532 47.776V47.208L182.86 47.04L183.188 44.536C183.204 44.456 183.238 44.392 183.292 44.344C183.35 44.2907 183.425 44.264 183.516 44.264H184.236V47.056H186.58V48.088H184.236V52.952C184.236 53.2933 184.318 53.5467 184.484 53.712C184.649 53.8773 184.862 53.96 185.124 53.96C185.273 53.96 185.401 53.9413 185.508 53.904C185.62 53.8613 185.716 53.816 185.796 53.768C185.876 53.72 185.942 53.6773 185.996 53.64C186.054 53.5973 186.105 53.576 186.148 53.576C186.222 53.576 186.289 53.6213 186.348 53.712L186.764 54.392C186.518 54.6213 186.222 54.8027 185.876 54.936C185.529 55.064 185.172 55.128 184.804 55.128ZM191.419 46.768C192.011 46.768 192.544 46.8667 193.019 47.064C193.494 47.2613 193.899 47.5413 194.235 47.904C194.571 48.2667 194.827 48.7067 195.003 49.224C195.184 49.736 195.275 50.3093 195.275 50.944C195.275 51.584 195.184 52.16 195.003 52.672C194.827 53.184 194.571 53.6213 194.235 53.984C193.899 54.3467 193.494 54.6267 193.019 54.824C192.544 55.016 192.011 55.112 191.419 55.112C190.822 55.112 190.283 55.016 189.803 54.824C189.328 54.6267 188.923 54.3467 188.587 53.984C188.251 53.6213 187.992 53.184 187.811 52.672C187.635 52.16 187.547 51.584 187.547 50.944C187.547 50.3093 187.635 49.736 187.811 49.224C187.992 48.7067 188.251 48.2667 188.587 47.904C188.923 47.5413 189.328 47.2613 189.803 47.064C190.283 46.8667 190.822 46.768 191.419 46.768ZM191.419 54C192.219 54 192.816 53.7333 193.211 53.2C193.606 52.6613 193.803 51.912 193.803 50.952C193.803 49.9867 193.606 49.2347 193.211 48.696C192.816 48.1573 192.219 47.888 191.419 47.888C191.014 47.888 190.659 47.9573 190.355 48.096C190.056 48.2347 189.806 48.4347 189.603 48.696C189.406 48.9573 189.256 49.28 189.155 49.664C189.059 50.0427 189.011 50.472 189.011 50.952C189.011 51.912 189.208 52.6613 189.603 53.2C190.003 53.7333 190.608 54 191.419 54ZM203.999 51.04C204.287 51.04 204.54 51 204.759 50.92C204.978 50.84 205.162 50.728 205.311 50.584C205.46 50.44 205.572 50.2693 205.647 50.072C205.722 49.8693 205.759 49.648 205.759 49.408C205.759 48.912 205.607 48.5173 205.303 48.224C205.004 47.9307 204.57 47.784 203.999 47.784C203.423 47.784 202.983 47.9307 202.679 48.224C202.38 48.5173 202.231 48.912 202.231 49.408C202.231 49.648 202.268 49.8693 202.343 50.072C202.423 50.2693 202.538 50.44 202.687 50.584C202.836 50.728 203.02 50.84 203.239 50.92C203.458 51 203.711 51.04 203.999 51.04ZM206.567 55.44C206.567 55.2427 206.511 55.0827 206.399 54.96C206.287 54.8373 206.135 54.7413 205.943 54.672C205.756 54.6027 205.538 54.5547 205.287 54.528C205.036 54.496 204.77 54.472 204.487 54.456C204.21 54.44 203.927 54.424 203.639 54.408C203.351 54.392 203.074 54.3653 202.807 54.328C202.508 54.4667 202.263 54.6427 202.071 54.856C201.884 55.064 201.791 55.3093 201.791 55.592C201.791 55.7733 201.836 55.9413 201.927 56.096C202.023 56.256 202.167 56.392 202.359 56.504C202.551 56.6213 202.791 56.712 203.079 56.776C203.372 56.8453 203.716 56.88 204.111 56.88C204.495 56.88 204.839 56.8453 205.143 56.776C205.447 56.7067 205.703 56.608 205.911 56.48C206.124 56.352 206.287 56.2 206.399 56.024C206.511 55.848 206.567 55.6533 206.567 55.44ZM208.015 47.216V47.744C208.015 47.92 207.903 48.032 207.679 48.08L206.759 48.2C206.94 48.552 207.031 48.9413 207.031 49.368C207.031 49.7627 206.954 50.1227 206.799 50.448C206.65 50.768 206.442 51.0427 206.175 51.272C205.908 51.5013 205.588 51.6773 205.215 51.8C204.842 51.9227 204.436 51.984 203.999 51.984C203.62 51.984 203.263 51.9387 202.927 51.848C202.756 51.9547 202.626 52.0693 202.535 52.192C202.444 52.3093 202.399 52.4293 202.399 52.552C202.399 52.744 202.476 52.8907 202.631 52.992C202.791 53.088 202.999 53.1573 203.255 53.2C203.511 53.2427 203.802 53.2693 204.127 53.28C204.458 53.2907 204.794 53.3093 205.135 53.336C205.482 53.3573 205.818 53.3973 206.143 53.456C206.474 53.5147 206.767 53.6107 207.023 53.744C207.279 53.8773 207.484 54.0613 207.639 54.296C207.799 54.5307 207.879 54.8347 207.879 55.208C207.879 55.5547 207.791 55.8907 207.615 56.216C207.444 56.5413 207.196 56.8293 206.871 57.08C206.546 57.336 206.146 57.5387 205.671 57.688C205.202 57.8427 204.671 57.92 204.079 57.92C203.487 57.92 202.97 57.8613 202.527 57.744C202.084 57.6267 201.716 57.4693 201.423 57.272C201.13 57.0747 200.908 56.8453 200.759 56.584C200.615 56.328 200.543 56.0587 200.543 55.776C200.543 55.376 200.668 55.0373 200.919 54.76C201.17 54.4827 201.514 54.2613 201.951 54.096C201.711 53.9893 201.519 53.848 201.375 53.672C201.236 53.4907 201.167 53.248 201.167 52.944C201.167 52.8267 201.188 52.7067 201.231 52.584C201.274 52.456 201.338 52.3307 201.423 52.208C201.514 52.08 201.623 51.96 201.751 51.848C201.879 51.736 202.028 51.6373 202.199 51.552C201.799 51.328 201.487 51.032 201.263 50.664C201.039 50.2907 200.927 49.8587 200.927 49.368C200.927 48.9733 201.002 48.616 201.151 48.296C201.306 47.9707 201.519 47.696 201.791 47.472C202.063 47.2427 202.386 47.0667 202.759 46.944C203.138 46.8213 203.551 46.76 203.999 46.76C204.351 46.76 204.679 46.8 204.983 46.88C205.287 46.9547 205.564 47.0667 205.815 47.216H208.015ZM214.786 50.064C214.786 49.7333 214.738 49.432 214.642 49.16C214.552 48.8827 214.416 48.6453 214.234 48.448C214.058 48.2453 213.842 48.0907 213.586 47.984C213.33 47.872 213.04 47.816 212.714 47.816C212.032 47.816 211.49 48.016 211.09 48.416C210.696 48.8107 210.45 49.36 210.354 50.064H214.786ZM215.938 53.864C215.762 54.0773 215.552 54.264 215.306 54.424C215.061 54.5787 214.797 54.7067 214.514 54.808C214.237 54.9093 213.949 54.984 213.65 55.032C213.352 55.0853 213.056 55.112 212.762 55.112C212.202 55.112 211.685 55.0187 211.21 54.832C210.741 54.64 210.333 54.3627 209.986 54C209.645 53.632 209.378 53.1787 209.186 52.64C208.994 52.1013 208.898 51.4827 208.898 50.784C208.898 50.2187 208.984 49.6907 209.154 49.2C209.33 48.7093 209.581 48.2853 209.906 47.928C210.232 47.5653 210.629 47.2827 211.098 47.08C211.568 46.872 212.096 46.768 212.682 46.768C213.168 46.768 213.616 46.8507 214.026 47.016C214.442 47.176 214.8 47.4107 215.098 47.72C215.402 48.024 215.64 48.4027 215.81 48.856C215.981 49.304 216.066 49.816 216.066 50.392C216.066 50.616 216.042 50.7653 215.994 50.84C215.946 50.9147 215.856 50.952 215.722 50.952H210.306C210.322 51.464 210.392 51.9093 210.514 52.288C210.642 52.6667 210.818 52.984 211.042 53.24C211.266 53.4907 211.533 53.68 211.842 53.808C212.152 53.9307 212.498 53.992 212.882 53.992C213.24 53.992 213.546 53.952 213.802 53.872C214.064 53.7867 214.288 53.696 214.474 53.6C214.661 53.504 214.816 53.416 214.938 53.336C215.066 53.2507 215.176 53.208 215.266 53.208C215.384 53.208 215.474 53.2533 215.538 53.344L215.938 53.864ZM220.241 55.128C219.601 55.128 219.108 54.9493 218.761 54.592C218.42 54.2347 218.249 53.72 218.249 53.048V48.088H217.273C217.188 48.088 217.116 48.064 217.057 48.016C216.998 47.9627 216.969 47.8827 216.969 47.776V47.208L218.297 47.04L218.625 44.536C218.641 44.456 218.676 44.392 218.729 44.344C218.788 44.2907 218.862 44.264 218.953 44.264H219.673V47.056H222.017V48.088H219.673V52.952C219.673 53.2933 219.756 53.5467 219.921 53.712C220.086 53.8773 220.3 53.96 220.561 53.96C220.71 53.96 220.838 53.9413 220.945 53.904C221.057 53.8613 221.153 53.816 221.233 53.768C221.313 53.72 221.38 53.6773 221.433 53.64C221.492 53.5973 221.542 53.576 221.585 53.576C221.66 53.576 221.726 53.6213 221.785 53.712L222.201 54.392C221.956 54.6213 221.66 54.8027 221.313 54.936C220.966 55.064 220.609 55.128 220.241 55.128ZM232.301 48.232C232.237 48.3493 232.138 48.408 232.005 48.408C231.925 48.408 231.834 48.3787 231.733 48.32C231.632 48.2613 231.506 48.1973 231.357 48.128C231.213 48.0533 231.04 47.9867 230.837 47.928C230.634 47.864 230.394 47.832 230.117 47.832C229.877 47.832 229.661 47.864 229.469 47.928C229.277 47.9867 229.112 48.0693 228.973 48.176C228.84 48.2827 228.736 48.408 228.661 48.552C228.592 48.6907 228.557 48.8427 228.557 49.008C228.557 49.216 228.616 49.3893 228.733 49.528C228.856 49.6667 229.016 49.7867 229.213 49.888C229.41 49.9893 229.634 50.08 229.885 50.16C230.136 50.2347 230.392 50.3173 230.653 50.408C230.92 50.4933 231.178 50.5893 231.429 50.696C231.68 50.8027 231.904 50.936 232.101 51.096C232.298 51.256 232.456 51.4533 232.573 51.688C232.696 51.9173 232.757 52.1947 232.757 52.52C232.757 52.8933 232.69 53.24 232.557 53.56C232.424 53.8747 232.226 54.1493 231.965 54.384C231.704 54.6133 231.384 54.7947 231.005 54.928C230.626 55.0613 230.189 55.128 229.693 55.128C229.128 55.128 228.616 55.0373 228.157 54.856C227.698 54.6693 227.309 54.432 226.989 54.144L227.325 53.6C227.368 53.5307 227.418 53.4773 227.477 53.44C227.536 53.4027 227.61 53.384 227.701 53.384C227.797 53.384 227.898 53.4213 228.005 53.496C228.112 53.5707 228.24 53.6533 228.389 53.744C228.544 53.8347 228.73 53.9173 228.949 53.992C229.168 54.0667 229.44 54.104 229.765 54.104C230.042 54.104 230.285 54.0693 230.493 54C230.701 53.9253 230.874 53.8267 231.013 53.704C231.152 53.5813 231.253 53.44 231.317 53.28C231.386 53.12 231.421 52.9493 231.421 52.768C231.421 52.544 231.36 52.36 231.237 52.216C231.12 52.0667 230.962 51.9413 230.765 51.84C230.568 51.7333 230.341 51.6427 230.085 51.568C229.834 51.488 229.576 51.4053 229.309 51.32C229.048 51.2347 228.789 51.1387 228.533 51.032C228.282 50.92 228.058 50.7813 227.861 50.616C227.664 50.4507 227.504 50.248 227.381 50.008C227.264 49.7627 227.205 49.4667 227.205 49.12C227.205 48.8107 227.269 48.5147 227.397 48.232C227.525 47.944 227.712 47.6933 227.957 47.48C228.202 47.2613 228.504 47.088 228.861 46.96C229.218 46.832 229.626 46.768 230.085 46.768C230.618 46.768 231.096 46.8533 231.517 47.024C231.944 47.1893 232.312 47.4187 232.621 47.712L232.301 48.232ZM236.991 55.128C236.351 55.128 235.858 54.9493 235.511 54.592C235.17 54.2347 234.999 53.72 234.999 53.048V48.088H234.023C233.938 48.088 233.866 48.064 233.807 48.016C233.748 47.9627 233.719 47.8827 233.719 47.776V47.208L235.047 47.04L235.375 44.536C235.391 44.456 235.426 44.392 235.479 44.344C235.538 44.2907 235.612 44.264 235.703 44.264H236.423V47.056H238.767V48.088H236.423V52.952C236.423 53.2933 236.506 53.5467 236.671 53.712C236.836 53.8773 237.05 53.96 237.311 53.96C237.46 53.96 237.588 53.9413 237.695 53.904C237.807 53.8613 237.903 53.816 237.983 53.768C238.063 53.72 238.13 53.6773 238.183 53.64C238.242 53.5973 238.292 53.576 238.335 53.576C238.41 53.576 238.476 53.6213 238.535 53.712L238.951 54.392C238.706 54.6213 238.41 54.8027 238.063 54.936C237.716 55.064 237.359 55.128 236.991 55.128ZM244.629 51.352C243.973 51.3733 243.413 51.4267 242.949 51.512C242.491 51.592 242.115 51.6987 241.821 51.832C241.533 51.9653 241.323 52.1227 241.189 52.304C241.061 52.4853 240.997 52.688 240.997 52.912C240.997 53.1253 241.032 53.3093 241.101 53.464C241.171 53.6187 241.264 53.7467 241.381 53.848C241.504 53.944 241.645 54.016 241.805 54.064C241.971 54.1067 242.147 54.128 242.333 54.128C242.584 54.128 242.813 54.104 243.021 54.056C243.229 54.0027 243.424 53.928 243.605 53.832C243.792 53.736 243.968 53.6213 244.133 53.488C244.304 53.3547 244.469 53.2027 244.629 53.032V51.352ZM240.029 48.04C240.477 47.608 240.96 47.2853 241.477 47.072C241.995 46.8587 242.568 46.752 243.197 46.752C243.651 46.752 244.053 46.8267 244.405 46.976C244.757 47.1253 245.053 47.3333 245.293 47.6C245.533 47.8667 245.715 48.1893 245.837 48.568C245.96 48.9467 246.021 49.3627 246.021 49.816V55H245.389C245.251 55 245.144 54.9787 245.069 54.936C244.995 54.888 244.936 54.7973 244.893 54.664L244.733 53.896C244.52 54.0933 244.312 54.2693 244.109 54.424C243.907 54.5733 243.693 54.7013 243.469 54.808C243.245 54.9093 243.005 54.9867 242.749 55.04C242.499 55.0987 242.219 55.128 241.909 55.128C241.595 55.128 241.299 55.0853 241.021 55C240.744 54.9093 240.501 54.776 240.293 54.6C240.091 54.424 239.928 54.2027 239.805 53.936C239.688 53.664 239.629 53.344 239.629 52.976C239.629 52.656 239.717 52.3493 239.893 52.056C240.069 51.7573 240.355 51.4933 240.749 51.264C241.144 51.0347 241.659 50.848 242.293 50.704C242.928 50.5547 243.707 50.4693 244.629 50.448V49.816C244.629 49.1867 244.493 48.712 244.221 48.392C243.949 48.0667 243.552 47.904 243.029 47.904C242.677 47.904 242.381 47.9493 242.141 48.04C241.907 48.1253 241.701 48.224 241.525 48.336C241.355 48.4427 241.205 48.5413 241.077 48.632C240.955 48.7173 240.832 48.76 240.709 48.76C240.613 48.76 240.531 48.736 240.461 48.688C240.392 48.6347 240.333 48.5707 240.285 48.496L240.029 48.04ZM249.543 48.52C249.799 47.9653 250.113 47.5333 250.487 47.224C250.86 46.9093 251.316 46.752 251.855 46.752C252.025 46.752 252.188 46.7707 252.343 46.808C252.503 46.8453 252.644 46.904 252.767 46.984L252.663 48.048C252.631 48.1813 252.551 48.248 252.423 48.248C252.348 48.248 252.239 48.232 252.095 48.2C251.951 48.168 251.788 48.152 251.607 48.152C251.351 48.152 251.121 48.1893 250.919 48.264C250.721 48.3387 250.543 48.4507 250.383 48.6C250.228 48.744 250.087 48.9253 249.959 49.144C249.836 49.3573 249.724 49.6027 249.623 49.88V55H248.191V46.896H249.007C249.161 46.896 249.268 46.9253 249.327 46.984C249.385 47.0427 249.425 47.144 249.447 47.288L249.543 48.52ZM256.507 55.128C255.867 55.128 255.373 54.9493 255.027 54.592C254.685 54.2347 254.515 53.72 254.515 53.048V48.088H253.539C253.453 48.088 253.381 48.064 253.323 48.016C253.264 47.9627 253.235 47.8827 253.235 47.776V47.208L254.563 47.04L254.891 44.536C254.907 44.456 254.941 44.392 254.995 44.344C255.053 44.2907 255.128 44.264 255.219 44.264H255.939V47.056H258.283V48.088H255.939V52.952C255.939 53.2933 256.021 53.5467 256.187 53.712C256.352 53.8773 256.565 53.96 256.827 53.96C256.976 53.96 257.104 53.9413 257.211 53.904C257.323 53.8613 257.419 53.816 257.499 53.768C257.579 53.72 257.645 53.6773 257.699 53.64C257.757 53.5973 257.808 53.576 257.851 53.576C257.925 53.576 257.992 53.6213 258.051 53.712L258.467 54.392C258.221 54.6213 257.925 54.8027 257.579 54.936C257.232 55.064 256.875 55.128 256.507 55.128ZM265.13 50.064C265.13 49.7333 265.082 49.432 264.986 49.16C264.895 48.8827 264.759 48.6453 264.578 48.448C264.402 48.2453 264.186 48.0907 263.93 47.984C263.674 47.872 263.383 47.816 263.058 47.816C262.375 47.816 261.834 48.016 261.434 48.416C261.039 48.8107 260.794 49.36 260.698 50.064H265.13ZM266.282 53.864C266.106 54.0773 265.895 54.264 265.65 54.424C265.405 54.5787 265.141 54.7067 264.858 54.808C264.581 54.9093 264.293 54.984 263.994 55.032C263.695 55.0853 263.399 55.112 263.106 55.112C262.546 55.112 262.029 55.0187 261.554 54.832C261.085 54.64 260.677 54.3627 260.33 54C259.989 53.632 259.722 53.1787 259.53 52.64C259.338 52.1013 259.242 51.4827 259.242 50.784C259.242 50.2187 259.327 49.6907 259.498 49.2C259.674 48.7093 259.925 48.2853 260.25 47.928C260.575 47.5653 260.973 47.2827 261.442 47.08C261.911 46.872 262.439 46.768 263.026 46.768C263.511 46.768 263.959 46.8507 264.37 47.016C264.786 47.176 265.143 47.4107 265.442 47.72C265.746 48.024 265.983 48.4027 266.154 48.856C266.325 49.304 266.41 49.816 266.41 50.392C266.41 50.616 266.386 50.7653 266.338 50.84C266.29 50.9147 266.199 50.952 266.066 50.952H260.65C260.666 51.464 260.735 51.9093 260.858 52.288C260.986 52.6667 261.162 52.984 261.386 53.24C261.61 53.4907 261.877 53.68 262.186 53.808C262.495 53.9307 262.842 53.992 263.226 53.992C263.583 53.992 263.89 53.952 264.146 53.872C264.407 53.7867 264.631 53.696 264.818 53.6C265.005 53.504 265.159 53.416 265.282 53.336C265.41 53.2507 265.519 53.208 265.61 53.208C265.727 53.208 265.818 53.2533 265.882 53.344L266.282 53.864ZM273.439 48.824C273.173 48.4667 272.885 48.2187 272.575 48.08C272.266 47.936 271.919 47.864 271.535 47.864C270.783 47.864 270.205 48.1333 269.799 48.672C269.394 49.2107 269.191 49.9787 269.191 50.976C269.191 51.504 269.237 51.9573 269.327 52.336C269.418 52.7093 269.551 53.0187 269.727 53.264C269.903 53.504 270.119 53.68 270.375 53.792C270.631 53.904 270.922 53.96 271.247 53.96C271.717 53.96 272.125 53.8533 272.471 53.64C272.823 53.4267 273.146 53.1253 273.439 52.736V48.824ZM274.863 43.216V55H274.015C273.813 55 273.685 54.9013 273.631 54.704L273.503 53.72C273.157 54.136 272.762 54.472 272.319 54.728C271.877 54.984 271.365 55.112 270.783 55.112C270.319 55.112 269.898 55.024 269.519 54.848C269.141 54.6667 268.818 54.4027 268.551 54.056C268.285 53.7093 268.079 53.2773 267.935 52.76C267.791 52.2427 267.719 51.648 267.719 50.976C267.719 50.3787 267.799 49.824 267.959 49.312C268.119 48.7947 268.349 48.3467 268.647 47.968C268.946 47.5893 269.311 47.2933 269.743 47.08C270.181 46.8613 270.671 46.752 271.215 46.752C271.711 46.752 272.135 46.8373 272.487 47.008C272.845 47.1733 273.162 47.4053 273.439 47.704V43.216H274.863ZM276.872 54.12C276.872 53.9813 276.896 53.8507 276.944 53.728C276.998 53.6053 277.067 53.4987 277.152 53.408C277.243 53.3173 277.35 53.2453 277.472 53.192C277.595 53.1387 277.726 53.112 277.864 53.112C278.003 53.112 278.134 53.1387 278.256 53.192C278.379 53.2453 278.486 53.3173 278.576 53.408C278.667 53.4987 278.739 53.6053 278.792 53.728C278.846 53.8507 278.872 53.9813 278.872 54.12C278.872 54.264 278.846 54.3973 278.792 54.52C278.739 54.6373 278.667 54.7413 278.576 54.832C278.486 54.9227 278.379 54.992 278.256 55.04C278.134 55.0933 278.003 55.12 277.864 55.12C277.726 55.12 277.595 55.0933 277.472 55.04C277.35 54.992 277.243 54.9227 277.152 54.832C277.067 54.7413 276.998 54.6373 276.944 54.52C276.896 54.3973 276.872 54.264 276.872 54.12Z" fill="#6C7175"/>
</svg>
