<svg width="24" height="24" viewBox="0 0 24 24" fill="none" xmlns="http://www.w3.org/2000/svg">
<g clip-path="url(#clip0_2293_11740)">
<path d="M4.56459 16.162H0.788906C0.478266 16.162 0.226406 16.4138 0.226406 16.7245V23.1934C0.226406 23.5041 0.478266 23.7559 0.788906 23.7559H4.56464C4.87528 23.7559 5.12714 23.5041 5.12714 23.1934V16.7245C5.12709 16.4138 4.87528 16.162 4.56459 16.162ZM4.00209 22.6309H1.35141V17.287H4.00214L4.00209 22.6309ZM10.7931 10.1096H7.01733C6.70669 10.1096 6.45483 10.3615 6.45483 10.6721V23.0465C6.45483 23.3571 6.70669 23.609 7.01733 23.609H10.7931C11.1037 23.609 11.3556 23.3571 11.3556 23.0465V10.6721C11.3556 10.3614 11.1038 10.1096 10.7931 10.1096ZM10.2306 22.484H7.57983V11.2346H10.2306V22.484ZM17.0215 12.1682H13.2458C12.9352 12.1682 12.6833 12.4201 12.6833 12.7307V22.8995C12.6833 23.2101 12.9352 23.462 13.2458 23.462H17.0215C17.3322 23.462 17.584 23.2101 17.584 22.8995V12.7307C17.584 12.42 17.3322 12.1682 17.0215 12.1682ZM16.459 22.337H13.8083V13.2932H16.459V22.337ZM23.25 6.43399H19.4743C19.1636 6.43399 18.9118 6.68585 18.9118 6.99649V22.7525C18.9118 23.0631 19.1636 23.315 19.4743 23.315H23.25C23.5606 23.315 23.8125 23.0631 23.8125 22.7525V6.99649C23.8125 6.6858 23.5606 6.43399 23.25 6.43399ZM22.6875 22.19H20.0368V7.55899H22.6875V22.19ZM2.30723 13.3992C3.47611 13.3992 4.42706 12.4483 4.42706 11.2794C4.42706 10.9489 4.35094 10.6359 4.21547 10.3568L7.7385 7.27338C8.07342 7.49505 8.47439 7.62457 8.90522 7.62457C9.62634 7.62457 10.2641 7.26236 10.6472 6.7106L13.0194 7.54108C13.0162 7.5888 13.014 7.63685 13.014 7.68536C13.014 8.85419 13.9649 9.8051 15.1337 9.8051C16.3026 9.8051 17.2535 8.85419 17.2535 7.68536C17.2535 7.36385 17.1812 7.05902 17.0526 6.78569L20.1743 4.1185C20.5133 4.34875 20.9223 4.48352 21.3622 4.48352C22.531 4.48352 23.482 3.53257 23.482 2.36369C23.482 1.19486 22.531 0.243958 21.3622 0.243958C20.1933 0.243958 19.2424 1.19486 19.2424 2.36369C19.2424 2.68521 19.3147 2.99004 19.4433 3.26332L16.3216 5.93055C15.9825 5.7003 15.5736 5.56554 15.1337 5.56554C14.4126 5.56554 13.7748 5.92774 13.3917 6.4795L11.0196 5.64902C11.0228 5.6013 11.025 5.55325 11.025 5.50474C11.025 4.33586 10.074 3.38496 8.90517 3.38496C7.7363 3.38496 6.78539 4.33586 6.78539 5.50474C6.78539 5.83525 6.86152 6.14824 6.99698 6.42733L3.47391 9.51077C3.13898 9.2891 2.73802 9.15963 2.30723 9.15963C1.13841 9.15968 0.1875 10.1106 0.1875 11.2794C0.1875 12.4482 1.13841 13.3992 2.30723 13.3992ZM21.3621 1.369C21.9106 1.369 22.3569 1.81525 22.3569 2.36374C22.3569 2.91227 21.9106 3.35857 21.3621 3.35857C20.8136 3.35857 20.3673 2.91227 20.3673 2.36374C20.3673 1.81525 20.8136 1.369 21.3621 1.369ZM15.1336 6.69058C15.6822 6.69058 16.1285 7.13688 16.1285 7.68541C16.1285 8.23389 15.6822 8.68015 15.1336 8.68015C14.5852 8.68015 14.1389 8.23389 14.1389 7.68541C14.1389 7.13688 14.5852 6.69058 15.1336 6.69058ZM8.90522 4.51C9.45375 4.51 9.90005 4.95625 9.90005 5.50479C9.90005 6.05336 9.45375 6.49961 8.90522 6.49961C8.35669 6.49961 7.91044 6.05332 7.91044 5.50479C7.91044 4.95625 8.35669 4.51 8.90522 4.51ZM2.30723 10.2847C2.85581 10.2847 3.30206 10.7309 3.30206 11.2794C3.30206 11.8279 2.85577 12.2742 2.30723 12.2742C1.75875 12.2742 1.3125 11.8279 1.3125 11.2794C1.3125 10.7309 1.75875 10.2847 2.30723 10.2847Z" fill="black"/>
</g>
<defs>
<clipPath id="clip0_2293_11740">
<rect width="24" height="24" fill="white"/>
</clipPath>
</defs>
</svg>
