<svg width="24" height="24" viewBox="0 0 24 24" fill="none" xmlns="http://www.w3.org/2000/svg">
<g clip-path="url(#clip0_2365_16825)">
<path d="M22.1511 3.52337C19.8327 1.20428 16.1503 1.05902 13.6634 3.10883C13.3756 3.34496 13.312 3.4151 12 4.7291C10.6995 3.42669 10.6261 3.34637 10.3378 3.10986C7.83027 1.04303 4.14997 1.22168 1.84884 3.52337C-0.616263 5.98894 -0.61631 10.0016 1.84888 12.4683C4.68351 15.3028 11.4353 22.0594 11.4929 22.1145C11.7601 22.3811 12.1919 22.4225 12.5163 22.1062C12.6029 22.0217 13.0882 21.5354 13.566 21.0571C14.7229 19.8989 17.1303 17.4889 22.1513 12.4681C24.6163 10.0016 24.6162 5.98898 22.1511 3.52337ZM2.84371 11.4738C0.926687 9.55563 0.92664 6.43522 2.84357 4.51792C4.63709 2.72402 7.47378 2.57206 9.44435 4.19631C9.66936 4.38095 9.68709 4.40379 11.0055 5.72393L7.75173 8.97759C7.47725 9.25203 7.47706 9.69761 7.75173 9.97223L8.66994 10.8904C9.47562 11.6961 10.777 11.6925 11.5789 10.8905L13.4156 9.05388C13.6692 8.80031 14.0818 8.80035 14.3353 9.05388L18.5031 13.2075C18.751 13.4555 18.7639 13.8544 18.5318 14.0969C18.2888 14.3509 17.8886 14.3549 17.6398 14.106L14.5592 11.0395C14.284 10.7655 13.8386 10.7665 13.5646 11.0418C13.2905 11.3171 13.2916 11.7624 13.5669 12.0364L16.6463 15.1017C16.8889 15.3444 16.8894 15.7396 16.6463 15.9826C16.4042 16.2248 16.0113 16.2285 15.7643 15.9815L12.6837 12.915C12.4085 12.641 11.9631 12.6419 11.6891 12.9173C11.415 13.1926 11.4161 13.6379 11.6914 13.9119L14.7708 16.9772C15.0139 17.2204 15.0134 17.6155 14.7708 17.8581C14.6059 18.0229 14.211 18.141 13.9119 17.9169C13.5537 17.5372 13.0847 17.3204 12.5835 17.2844C12.5114 16.2816 11.7123 15.4809 10.7079 15.4089C10.6359 14.4061 9.83685 13.6055 8.83241 13.5334C8.75701 12.4836 7.88292 11.652 6.80872 11.652C6.26659 11.652 5.75683 11.8631 5.37347 12.2465L4.49492 13.125C3.97845 12.6086 3.42906 12.0592 2.84371 11.4738ZM8.68424 14.9342C9.23617 14.9342 9.51609 15.606 9.12452 15.9976L8.24546 16.8767C7.97014 16.6012 7.67694 16.308 7.36476 15.9956C7.37616 15.9842 8.24926 15.1112 8.24378 15.1166C8.36156 14.999 8.51793 14.9342 8.68424 14.9342ZM10.5598 16.8097C11.1181 16.8097 11.3885 17.4847 11.0001 17.8732L10.1204 18.7528C9.8572 18.4894 9.56457 18.1966 9.23982 17.8716L10.1192 16.9923C10.2369 16.8746 10.3934 16.8097 10.5598 16.8097ZM12.4353 18.6853C12.9922 18.6853 13.2648 19.3595 12.8755 19.7488L11.996 20.6286L11.1146 19.7479L11.9947 18.8678C12.1123 18.7502 12.2689 18.6853 12.4353 18.6853ZM7.249 14.1221L6.37031 15.0008C6.08978 14.7202 5.79635 14.4267 5.48952 14.1198L6.36811 13.2413C6.48589 13.1235 6.64236 13.0587 6.80872 13.0587C7.36064 13.0586 7.64056 13.7306 7.249 14.1221ZM21.1565 11.4736C20.7113 11.9187 20.2872 12.3429 19.8822 12.7479C19.7855 12.5541 19.6573 12.3724 19.4965 12.2117L15.33 8.05919C14.528 7.25717 13.223 7.25722 12.421 8.05914L10.5843 9.8958C10.3307 10.1493 9.91815 10.1494 9.66458 9.8958L9.24367 9.47489C14.6294 4.08945 14.2899 4.41434 14.5568 4.19528C16.5187 2.57824 19.3559 2.71694 21.1564 4.51792C23.0733 6.43522 23.0733 9.55563 21.1565 11.4736Z" fill="#1470A4"/>
</g>
<defs>
<clipPath id="clip0_2365_16825">
<rect width="24" height="24" fill="white"/>
</clipPath>
</defs>
</svg>
