<svg width="32" height="32" viewBox="0 0 32 32" fill="none" xmlns="http://www.w3.org/2000/svg">
<path d="M3.99896 18.786C4.29896 18.786 4.59596 18.652 4.79196 18.396L5.22696 17.831C5.87796 21.693 8.58296 24.997 12.423 26.33C13.605 26.74 14.818 26.937 16.015 26.937C19.599 26.937 23.048 25.169 25.113 22.056C25.418 21.596 25.292 20.975 24.832 20.67C24.37 20.363 23.752 20.491 23.445 20.951C21.196 24.345 16.933 25.781 13.08 24.441C9.88296 23.331 7.65296 20.548 7.17696 17.316L8.03296 17.975C8.47196 18.31 9.09896 18.23 9.43496 17.792C9.77196 17.354 9.69096 16.727 9.25296 16.39C9.25296 16.39 6.88796 14.569 6.88196 14.565C6.38496 14.182 5.67796 13.967 5.22796 14.554L3.20796 17.177C2.87096 17.615 2.95196 18.242 3.38996 18.579C3.57096 18.718 3.78596 18.786 3.99896 18.786Z" fill="#1470A4"/>
<path d="M7.16889 11.331C7.62789 11.636 8.24889 11.51 8.55589 11.05C10.8049 7.65701 15.0719 6.22101 18.9209 7.56001C22.1179 8.67001 24.3479 11.453 24.8239 14.685L23.9679 14.026C23.5289 13.69 22.9019 13.77 22.5659 14.209C22.2289 14.647 22.3099 15.274 22.7479 15.611C22.7479 15.611 25.1129 17.431 25.1189 17.436C25.6249 17.825 26.3159 18.043 26.7729 17.447L28.7929 14.824C29.1299 14.386 29.0489 13.759 28.6109 13.422C28.1729 13.085 27.5449 13.167 27.2089 13.605L26.7739 14.17C26.1229 10.308 23.4179 7.00401 19.5779 5.67101C14.8579 4.03301 9.64189 5.79001 6.88789 9.94401C6.58289 10.405 6.70889 11.025 7.16889 11.331Z" fill="#1470A4"/>
</svg>
