<svg width="362" height="186" viewBox="0 0 362 186" fill="none" xmlns="http://www.w3.org/2000/svg">
<g opacity="0.15">
<mask id="mask0_1_150" style="mask-type:alpha" maskUnits="userSpaceOnUse" x="197" y="49" width="36" height="36">
<rect x="197" y="49" width="35.0547" height="35.0547" fill="#D9D9D9"/>
</mask>
<g mask="url(#mask0_1_150)">
<path d="M213.797 77.6645C212.75 77.6645 211.85 77.3115 211.095 76.6056C210.34 75.8996 209.926 75.0354 209.853 74.013H212.044C212.117 74.4512 212.318 74.8041 212.648 75.0719C212.976 75.3397 213.359 75.4736 213.797 75.4736C214.308 75.4736 214.74 75.2969 215.093 74.9434C215.446 74.5909 215.623 74.159 215.623 73.6478C215.623 73.161 215.446 72.7349 215.093 72.3698C214.74 72.0046 214.308 71.8221 213.797 71.8221H200.286V69.6311H213.797C214.917 69.6311 215.866 70.027 216.645 70.8186C217.424 71.6093 217.814 72.5524 217.814 73.6478C217.814 74.7676 217.424 75.717 216.645 76.496C215.866 77.275 214.917 77.6645 213.797 77.6645ZM200.286 63.4235V61.2326H219.639C220.37 61.2326 220.978 60.9829 221.465 60.4833C221.952 59.9848 222.196 59.3825 222.196 58.6766C222.196 57.9462 221.952 57.3377 221.465 56.8508C220.978 56.3639 220.37 56.1205 219.639 56.1205C218.958 56.1205 218.392 56.3274 217.942 56.7412C217.491 57.1551 217.229 57.6785 217.156 58.3114H214.929C215.002 57.0455 215.489 55.9988 216.39 55.1711C217.29 54.3434 218.374 53.9296 219.639 53.9296C220.978 53.9296 222.104 54.3858 223.016 55.2982C223.93 56.2115 224.386 57.3377 224.386 58.6766C224.386 59.9911 223.93 61.1109 223.016 62.036C222.104 62.961 220.978 63.4235 219.639 63.4235H200.286ZM224.386 74.8893V72.6619C225.019 72.5889 225.543 72.3269 225.957 71.8761C226.37 71.4262 226.577 70.8605 226.577 70.1789C226.577 69.4486 226.334 68.84 225.847 68.3531C225.36 67.8662 224.752 67.6228 224.021 67.6228H200.286V65.4319H224.021C225.36 65.4319 226.486 65.8886 227.398 66.8019C228.312 67.7143 228.768 68.84 228.768 70.1789C228.768 71.4447 228.349 72.528 227.509 73.4287C226.669 74.3294 225.628 74.8163 224.386 74.8893Z" fill="#1A6DA5"/>
</g>
</g>
<g opacity="0.2">
<path d="M314.684 -2.95297C313.637 -2.95297 312.821 -2.65904 312.235 -2.07118C311.648 -1.48265 311.355 -0.66231 311.355 0.394508C311.355 1.15005 311.503 1.77932 311.799 2.28168C312.095 2.78604 312.481 3.15279 312.958 3.38526C313.434 3.6164 314.036 3.7333 314.764 3.7333C315.479 3.7333 316.076 3.59903 316.556 3.32981C317.035 3.05993 317.401 2.6825 317.655 2.20152C317.909 1.71653 318.036 1.09794 318.036 0.341065C318.036 -0.700388 317.745 -1.51004 317.165 -2.08721C316.584 -2.66505 315.757 -2.95297 314.684 -2.95297ZM315.691 1.81941C315.456 2.09864 315.125 2.23826 314.698 2.23826C314.281 2.23826 313.952 2.09597 313.711 1.81005C313.468 1.52414 313.348 1.05585 313.348 0.403191C313.348 -0.254815 313.469 -0.727109 313.713 -1.01236C313.956 -1.2976 314.279 -1.44123 314.681 -1.44123C315.099 -1.44123 315.432 -1.30028 315.677 -1.0197C315.922 -0.739134 316.045 -0.294229 316.045 0.315011C316.044 1.03782 315.926 1.54017 315.691 1.81941Z" fill="#1A6DA5"/>
<path d="M320.81 2.44811C320.891 2.38264 321.05 2.23968 321.29 2.07334C321.691 1.78876 321.968 1.51487 322.121 1.27839C322.272 1.04057 322.349 0.78472 322.349 0.524858C322.349 0.279692 322.282 0.0545667 322.149 -0.142501C322.016 -0.340905 321.834 -0.489207 321.603 -0.582731C321.37 -0.678926 321.047 -0.727692 320.629 -0.727692C320.229 -0.727692 319.917 -0.678257 319.69 -0.577385C319.465 -0.478518 319.288 -0.334224 319.166 -0.145841C319.042 0.0412068 318.957 0.302404 318.91 0.637753L320.097 0.735285C320.13 0.494127 320.195 0.325117 320.291 0.228921C320.387 0.134062 320.51 0.0866323 320.662 0.0866323C320.808 0.0866323 320.929 0.132057 321.025 0.224913C321.122 0.317769 321.169 0.428661 321.169 0.558926C321.169 0.679171 321.12 0.807432 321.024 0.941037C320.926 1.07531 320.704 1.27104 320.357 1.52957C319.788 1.95377 319.401 2.26573 319.194 2.57436C318.988 2.88566 318.864 3.51494 318.823 3.51494H322.071V2.76208H320.529C320.635 2.76274 320.73 2.51357 320.81 2.44811Z" fill="#1A6DA5"/>
<path d="M323.588 5.77414L323.588 5.77461C322.043 8.05943 319.53 9.47018 316.499 9.4151C310.144 9.26985 306.288 2.22975 309.53 -3.31314C309.53 -3.31316 309.53 -3.31317 309.53 -3.31318L316.473 -15.1823L316.473 -15.1831C316.513 -15.2522 316.565 -15.2888 316.621 -15.3076C316.684 -15.3285 316.755 -15.3274 316.816 -15.3049L316.818 -15.3042C316.87 -15.2852 316.919 -15.2499 316.959 -15.1823C316.959 -15.1823 316.959 -15.1823 316.959 -15.1823L323.902 -3.31314L323.902 -3.31312C325.674 -0.283344 325.328 3.20564 323.588 5.77414Z" stroke="#1A6DA5" stroke-width="2.00588"/>
</g>
<g opacity="0.3">
<mask id="mask1_1_150" style="mask-type:alpha" maskUnits="userSpaceOnUse" x="132" y="100" width="25" height="25">
<rect x="132" y="100" width="25" height="25" fill="#D9D9D9"/>
</mask>
<g mask="url(#mask1_1_150)">
<path d="M134.604 109.635V106.563C134.604 106.042 134.786 105.599 135.151 105.234C135.516 104.87 135.958 104.688 136.479 104.688H152.521C153.042 104.688 153.484 104.87 153.849 105.234C154.213 105.599 154.396 106.042 154.396 106.563V109.635H152.833V106.563C152.833 106.493 152.799 106.424 152.729 106.354C152.66 106.285 152.59 106.25 152.521 106.25H136.479C136.41 106.25 136.34 106.285 136.271 106.354C136.201 106.424 136.167 106.493 136.167 106.563V109.635H134.604ZM136.479 120.312C135.958 120.312 135.516 120.13 135.151 119.766C134.786 119.401 134.604 118.958 134.604 118.438V115.365H136.167V118.438C136.167 118.507 136.201 118.576 136.271 118.646C136.34 118.715 136.41 118.75 136.479 118.75H152.521C152.59 118.75 152.66 118.715 152.729 118.646C152.799 118.576 152.833 118.507 152.833 118.438V115.365H154.396V118.438C154.396 118.958 154.213 119.401 153.849 119.766C153.484 120.13 153.042 120.312 152.521 120.312H136.479ZM142.417 117.448C142.555 117.448 142.69 117.413 142.821 117.344C142.951 117.274 143.05 117.161 143.12 117.005L146.583 110.104L147.963 112.839C148.033 112.995 148.133 113.108 148.263 113.177C148.393 113.247 148.528 113.281 148.667 113.281H154.396V111.719H149.161L147.286 107.995C147.217 107.856 147.121 107.756 147 107.695C146.878 107.634 146.739 107.604 146.583 107.604C146.444 107.604 146.31 107.634 146.18 107.695C146.05 107.756 145.95 107.856 145.88 107.995L142.417 114.896L141.036 112.161C140.967 112.005 140.867 111.892 140.737 111.823C140.607 111.753 140.472 111.719 140.333 111.719H134.604V113.281H139.838L141.713 117.005C141.783 117.161 141.883 117.274 142.013 117.344C142.143 117.413 142.278 117.448 142.417 117.448Z" fill="#1A6DA5"/>
</g>
</g>
<g opacity="0.2">
<path d="M333.09 169.647C333.249 170.074 333.656 170.357 334.112 170.357H338.909C339.511 170.357 340 169.868 340 169.266C340 168.664 339.511 168.175 338.909 168.175H334.869L332.696 162.341C332.54 161.924 332.145 161.643 331.7 161.632C331.251 161.622 330.846 161.883 330.671 162.292L328.709 166.869L326.171 157.408C326.04 156.917 325.581 156.579 325.078 156.601C324.57 156.619 324.142 156.986 324.046 157.485L321.009 173.253L318.857 164.742C318.74 164.279 318.336 163.947 317.86 163.92C317.381 163.899 316.945 164.18 316.778 164.626L315.214 168.797H311.091C310.488 168.797 310 169.285 310 169.887C310 170.489 310.488 170.978 311.091 170.978H315.969C316.424 170.978 316.831 170.696 316.991 170.27L317.596 168.656L320.095 178.54C320.218 179.026 320.654 179.365 321.152 179.365C321.163 179.365 321.173 179.365 321.184 179.364C321.695 179.349 322.127 178.981 322.224 178.48L325.291 162.552L327.418 170.474C327.539 170.923 327.93 171.247 328.394 171.28C328.85 171.31 329.291 171.049 329.474 170.622L331.602 165.656L333.09 169.647Z" fill="#1A6DA5"/>
</g>
<g opacity="0.3">
<mask id="mask2_1_150" style="mask-type:alpha" maskUnits="userSpaceOnUse" x="0" y="59" width="25" height="25">
<rect y="59" width="25" height="25" fill="#D9D9D9"/>
</mask>
<g mask="url(#mask2_1_150)">
<path d="M2.60406 68.6354V65.5625C2.60406 65.0417 2.78636 64.599 3.15094 64.2344C3.51552 63.8698 3.95823 63.6875 4.47907 63.6875H20.5207C21.0416 63.6875 21.4843 63.8698 21.8489 64.2344C22.2134 64.599 22.3957 65.0417 22.3957 65.5625V68.6354H20.8332V65.5625C20.8332 65.4931 20.7985 65.4236 20.7291 65.3542C20.6596 65.2847 20.5902 65.25 20.5207 65.25H4.47907C4.40962 65.25 4.34018 65.2847 4.27073 65.3542C4.20129 65.4236 4.16656 65.4931 4.16656 65.5625V68.6354H2.60406ZM4.47907 79.3125C3.95823 79.3125 3.51552 79.1302 3.15094 78.7656C2.78636 78.401 2.60406 77.9583 2.60406 77.4375V74.3646H4.16656V77.4375C4.16656 77.5069 4.20129 77.5764 4.27073 77.6458C4.34018 77.7153 4.40962 77.75 4.47907 77.75H20.5207C20.5902 77.75 20.6596 77.7153 20.7291 77.6458C20.7985 77.5764 20.8332 77.5069 20.8332 77.4375V74.3646H22.3957V77.4375C22.3957 77.9583 22.2134 78.401 21.8489 78.7656C21.4843 79.1302 21.0416 79.3125 20.5207 79.3125H4.47907ZM10.4166 76.4479C10.5555 76.4479 10.6902 76.4132 10.8207 76.3437C10.9506 76.2743 11.0502 76.1615 11.1197 76.0052L14.5832 69.1042L15.9634 71.8385C16.0329 71.9948 16.1329 72.1076 16.2634 72.1771C16.3933 72.2465 16.5277 72.2812 16.6666 72.2812H22.3957V70.7187H17.1614L15.2864 66.9948C15.2169 66.8559 15.1214 66.7559 14.9999 66.6948C14.8784 66.6344 14.7395 66.6042 14.5832 66.6042C14.4443 66.6042 14.31 66.6344 14.1801 66.6948C14.0496 66.7559 13.9496 66.8559 13.8801 66.9948L10.4166 73.8958L9.03636 71.1615C8.96691 71.0052 8.86726 70.8924 8.7374 70.8229C8.60684 70.7535 8.47212 70.7187 8.33323 70.7187H2.60406V72.2812H7.83844L9.71344 76.0052C9.78288 76.1615 9.88288 76.2743 10.0134 76.3437C10.1433 76.4132 10.2777 76.4479 10.4166 76.4479Z" fill="#1A6DA5"/>
</g>
</g>
<g opacity="0.2">
<path d="M72.0896 148.647C72.2489 149.074 72.6562 149.357 73.1117 149.357H77.909C78.511 149.357 78.9999 148.868 78.9999 148.266C78.9999 147.664 78.511 147.175 77.909 147.175H73.8691L71.6959 141.341C71.5405 140.924 71.1451 140.643 70.6998 140.632C70.2513 140.622 69.8465 140.883 69.6707 141.292L67.7089 145.869L65.1706 136.408C65.0397 135.917 64.5806 135.579 64.0779 135.601C63.5701 135.619 63.1419 135.986 63.0459 136.485L60.0094 152.253L57.857 143.742C57.7397 143.279 57.3363 142.947 56.86 142.92C56.3806 142.899 55.9451 143.18 55.7777 143.626L54.2139 147.797H50.0908C49.4881 147.797 49 148.285 49 148.887C49 149.489 49.4881 149.978 50.0908 149.978H54.9693C55.4242 149.978 55.8311 149.696 55.991 149.27L56.5959 147.656L59.0946 157.54C59.2178 158.026 59.6544 158.365 60.1517 158.365C60.1625 158.365 60.173 158.365 60.1838 158.364C60.6949 158.349 61.1269 157.981 61.2237 157.48L64.2913 141.552L66.4183 149.474C66.5385 149.923 66.9295 150.247 67.3942 150.28C67.8501 150.31 68.2911 150.049 68.4737 149.622L70.6019 144.656L72.0896 148.647Z" fill="#1A6DA5"/>
</g>
<g opacity="0.2">
<path d="M183.09 25.6465C183.249 26.0736 183.656 26.3566 184.112 26.3566H188.909C189.511 26.3566 190 25.8682 190 25.2656C190 24.6639 189.511 24.1747 188.909 24.1747H184.869L182.696 18.3415C182.54 17.9236 182.145 17.6427 181.7 17.6317C181.251 17.6224 180.846 17.8832 180.671 18.2922L178.709 22.8687L176.171 13.4085C176.04 12.9167 175.581 12.5791 175.078 12.601C174.57 12.6191 174.142 12.9855 174.046 13.4846L171.009 29.2532L168.857 20.7421C168.74 20.2795 168.336 19.9467 167.86 19.9198C167.381 19.8994 166.945 20.1803 166.778 20.6264L165.214 24.7965H161.091C160.488 24.7965 160 25.2848 160 25.8874C160 26.4894 160.488 26.9783 161.091 26.9783H165.969C166.424 26.9783 166.831 26.696 166.991 26.2697L167.596 24.6564L170.095 34.5405C170.218 35.0264 170.654 35.3647 171.152 35.3647C171.163 35.3647 171.173 35.3647 171.184 35.3641C171.695 35.349 172.127 34.9815 172.224 34.4798L175.291 18.5519L177.418 26.4743C177.539 26.9234 177.93 27.2466 178.394 27.2801C178.85 27.3102 179.291 27.049 179.474 26.6218L181.602 21.656L183.09 25.6465Z" fill="#1A6DA5"/>
</g>
<g opacity="0.3">
<mask id="mask3_1_150" style="mask-type:alpha" maskUnits="userSpaceOnUse" x="277" y="24" width="25" height="25">
<rect x="277" y="24" width="25" height="25" fill="#D9D9D9"/>
</mask>
<g mask="url(#mask3_1_150)">
<path d="M279.604 33.6354V30.5625C279.604 30.0417 279.786 29.599 280.151 29.2344C280.516 28.8698 280.958 28.6875 281.479 28.6875H297.521C298.042 28.6875 298.484 28.8698 298.849 29.2344C299.213 29.599 299.396 30.0417 299.396 30.5625V33.6354H297.833V30.5625C297.833 30.4931 297.799 30.4236 297.729 30.3542C297.66 30.2847 297.59 30.25 297.521 30.25H281.479C281.41 30.25 281.34 30.2847 281.271 30.3542C281.201 30.4236 281.167 30.4931 281.167 30.5625V33.6354H279.604ZM281.479 44.3125C280.958 44.3125 280.516 44.1302 280.151 43.7656C279.786 43.401 279.604 42.9583 279.604 42.4375V39.3646H281.167V42.4375C281.167 42.5069 281.201 42.5764 281.271 42.6458C281.34 42.7153 281.41 42.75 281.479 42.75H297.521C297.59 42.75 297.66 42.7153 297.729 42.6458C297.799 42.5764 297.833 42.5069 297.833 42.4375V39.3646H299.396V42.4375C299.396 42.9583 299.213 43.401 298.849 43.7656C298.484 44.1302 298.042 44.3125 297.521 44.3125H281.479ZM287.417 41.4479C287.555 41.4479 287.69 41.4132 287.821 41.3437C287.951 41.2743 288.05 41.1615 288.12 41.0052L291.583 34.1042L292.963 36.8385C293.033 36.9948 293.133 37.1076 293.263 37.1771C293.393 37.2465 293.528 37.2812 293.667 37.2812H299.396V35.7187H294.161L292.286 31.9948C292.217 31.8559 292.121 31.7559 292 31.6948C291.878 31.6344 291.739 31.6042 291.583 31.6042C291.444 31.6042 291.31 31.6344 291.18 31.6948C291.05 31.7559 290.95 31.8559 290.88 31.9948L287.417 38.8958L286.036 36.1615C285.967 36.0052 285.867 35.8924 285.737 35.8229C285.607 35.7535 285.472 35.7187 285.333 35.7187H279.604V37.2812H284.838L286.713 41.0052C286.783 41.1615 286.883 41.2743 287.013 41.3437C287.143 41.4132 287.278 41.4479 287.417 41.4479Z" fill="#1A6DA5"/>
</g>
</g>
<g clip-path="url(#clip0_1_150)">
<path d="M91 68.5983C94.3592 68.5983 97.0921 65.8653 97.0921 62.5061V55.0921C97.0921 51.733 94.3592 49 91 49C87.6408 49 84.9079 51.733 84.9079 55.0921V62.506C84.9079 65.8654 87.6408 68.5983 91 68.5983ZM86.6579 55.0921C86.6579 52.6979 88.6057 50.75 91 50.75C93.3943 50.75 95.3421 52.6979 95.3421 55.0921V62.506C95.3421 64.9003 93.3943 66.8482 91 66.8482C88.6057 66.8482 86.6579 64.9003 86.6579 62.506V55.0921ZM101.04 64.2674C100.63 66.5956 99.4028 68.7288 97.5838 70.274C95.9667 71.6477 93.9665 72.4792 91.875 72.6615V75.25H97.5625C98.0458 75.25 98.4375 75.6417 98.4375 76.125C98.4375 76.6083 98.0458 77 97.5625 77H84.4375C83.9542 77 83.5625 76.6083 83.5625 76.125C83.5625 75.6417 83.9542 75.25 84.4375 75.25H90.125V72.6615C88.0335 72.4792 86.0333 71.6477 84.4162 70.274C82.5972 68.7288 81.3698 66.5956 80.96 64.2674C80.8763 63.7914 81.1941 63.3377 81.6701 63.254C82.146 63.1702 82.5998 63.4881 82.6835 63.964C83.3959 68.0119 86.8935 70.9498 91 70.9498C95.1065 70.9498 98.6041 68.0118 99.3165 63.964C99.4002 63.4881 99.8539 63.1701 100.33 63.254C100.806 63.3377 101.124 63.7914 101.04 64.2674ZM101.053 54.8936V59.9486C101.053 60.4319 100.661 60.8236 100.178 60.8236C99.6949 60.8236 99.3032 60.4319 99.3032 59.9486V54.8936C99.3032 54.4103 99.6949 54.0186 100.178 54.0186C100.661 54.0186 101.053 54.4103 101.053 54.8936ZM105 56.0975V58.7445C105 59.2278 104.608 59.6195 104.125 59.6195C103.642 59.6195 103.25 59.2278 103.25 58.7445V56.0975C103.25 55.6142 103.642 55.2225 104.125 55.2225C104.608 55.2225 105 55.6142 105 56.0975ZM80.9468 59.9485V54.8935C80.9468 54.4102 81.3385 54.0185 81.8218 54.0185C82.3051 54.0185 82.6968 54.4102 82.6968 54.8935V59.9485C82.6968 60.4318 82.3051 60.8235 81.8218 60.8235C81.3385 60.8235 80.9468 60.4318 80.9468 59.9485ZM78.75 56.0975V58.7445C78.75 59.2278 78.3583 59.6195 77.875 59.6195C77.3917 59.6195 77 59.2278 77 58.7445V56.0975C77 55.6142 77.3917 55.2225 77.875 55.2225C78.3583 55.2225 78.75 55.6142 78.75 56.0975Z" fill="#1A6DA5" fill-opacity="0.3"/>
</g>
<g clip-path="url(#clip1_1_150)">
<path d="M356 105.598C359.359 105.598 362.092 102.865 362.092 99.5061V92.0921C362.092 88.733 359.359 86 356 86C352.641 86 349.908 88.733 349.908 92.0921V99.506C349.908 102.865 352.641 105.598 356 105.598ZM351.658 92.0921C351.658 89.6979 353.606 87.75 356 87.75C358.394 87.75 360.342 89.6979 360.342 92.0921V99.506C360.342 101.9 358.394 103.848 356 103.848C353.606 103.848 351.658 101.9 351.658 99.506V92.0921ZM366.04 101.267C365.63 103.596 364.403 105.729 362.584 107.274C360.967 108.648 358.967 109.479 356.875 109.661V112.25H362.562C363.046 112.25 363.438 112.642 363.438 113.125C363.438 113.608 363.046 114 362.562 114H349.438C348.954 114 348.562 113.608 348.562 113.125C348.562 112.642 348.954 112.25 349.438 112.25H355.125V109.661C353.033 109.479 351.033 108.648 349.416 107.274C347.597 105.729 346.37 103.596 345.96 101.267C345.876 100.791 346.194 100.338 346.67 100.254C347.146 100.17 347.6 100.488 347.684 100.964C348.396 105.012 351.894 107.95 356 107.95C360.106 107.95 363.604 105.012 364.316 100.964C364.4 100.488 364.854 100.17 365.33 100.254C365.806 100.338 366.124 100.791 366.04 101.267ZM366.053 91.8936V96.9486C366.053 97.4319 365.661 97.8236 365.178 97.8236C364.695 97.8236 364.303 97.4319 364.303 96.9486V91.8936C364.303 91.4103 364.695 91.0186 365.178 91.0186C365.661 91.0186 366.053 91.4103 366.053 91.8936ZM370 93.0975V95.7445C370 96.2278 369.608 96.6195 369.125 96.6195C368.642 96.6195 368.25 96.2278 368.25 95.7445V93.0975C368.25 92.6142 368.642 92.2225 369.125 92.2225C369.608 92.2225 370 92.6142 370 93.0975ZM345.947 96.9485V91.8935C345.947 91.4102 346.339 91.0185 346.822 91.0185C347.305 91.0185 347.697 91.4102 347.697 91.8935V96.9485C347.697 97.4318 347.305 97.8235 346.822 97.8235C346.339 97.8235 345.947 97.4318 345.947 96.9485ZM343.75 93.0975V95.7445C343.75 96.2278 343.358 96.6195 342.875 96.6195C342.392 96.6195 342 96.2278 342 95.7445V93.0975C342 92.6142 342.392 92.2225 342.875 92.2225C343.358 92.2225 343.75 92.6142 343.75 93.0975Z" fill="#1A6DA5" fill-opacity="0.3"/>
</g>
<g clip-path="url(#clip2_1_150)">
<path d="M238.062 140.649C237.318 140.649 237.317 141.774 238.062 141.774C239.921 141.774 240.874 140.295 240.874 138.399C240.874 134.834 236.937 134.842 236.937 137.837C236.937 138.58 238.062 138.582 238.062 137.837C238.062 136.297 239.749 136.384 239.749 138.399C239.749 139.076 239.585 140.649 238.062 140.649Z" fill="#1A6DA5" fill-opacity="0.4"/>
<path d="M239.187 152C238.143 152.001 237.142 152.416 236.404 153.155C235.666 153.893 235.25 154.894 235.249 155.938V160.438C235.249 161.181 236.374 161.182 236.374 160.438V155.938C236.374 155.192 236.67 154.476 237.198 153.949C237.725 153.421 238.441 153.125 239.187 153.125C239.933 153.125 240.648 153.421 241.175 153.949C241.703 154.476 241.999 155.192 241.999 155.938V160.438C241.999 161.181 243.124 161.182 243.124 160.438V155.938C243.123 154.894 242.708 153.893 241.97 153.155C241.231 152.416 240.231 152.001 239.187 152Z" fill="#1A6DA5" fill-opacity="0.4"/>
<path d="M224.562 144.125H225.687C226.43 144.125 226.431 143 225.687 143H224.562C224.413 143 224.27 143.059 224.165 143.165C224.059 143.27 224 143.413 224 143.562C224 143.712 224.059 143.855 224.165 143.96C224.27 144.066 224.413 144.125 224.562 144.125Z" fill="#1A6DA5" fill-opacity="0.4"/>
<path d="M227.374 147.5V148.625C227.374 149.369 228.499 149.37 228.499 148.625V147.5C228.499 146.756 227.374 146.755 227.374 147.5Z" fill="#1A6DA5" fill-opacity="0.4"/>
<path d="M224.726 146.54C224.648 146.619 224.595 146.719 224.573 146.828C224.552 146.937 224.563 147.05 224.605 147.152C224.648 147.255 224.72 147.343 224.812 147.405C224.904 147.467 225.013 147.5 225.124 147.5C225.523 147.5 225.617 147.174 226.647 146.21C227.173 145.684 226.378 144.888 225.851 145.415L224.726 146.54Z" fill="#1A6DA5" fill-opacity="0.4"/>
<path d="M225.125 149.188C224.678 149.188 224.249 149.366 223.932 149.682C223.616 149.999 223.438 150.428 223.438 150.875V152.144C223.438 152.616 222.772 152.724 222.623 152.277L221.773 149.727L222.449 147.023C222.518 146.746 222.523 146.457 222.464 146.177C222.405 145.898 222.283 145.636 222.107 145.41C221.931 145.185 221.706 145.003 221.449 144.878C221.193 144.753 220.911 144.687 220.625 144.688C219.93 144.688 220.128 145.332 218.411 149.552C218.298 149.852 218.363 149.615 220.063 157.127V160.438C220.063 160.587 220.122 160.73 220.227 160.835C220.333 160.941 220.476 161 220.625 161C220.774 161 220.917 160.941 221.023 160.835C221.128 160.73 221.188 160.587 221.188 160.438V157.062C221.188 156.941 221.271 157.384 219.524 149.789L220.981 145.901C221.13 145.981 221.247 146.108 221.316 146.261C221.384 146.415 221.398 146.587 221.358 146.751C220.647 149.713 220.563 149.655 220.654 149.928L221.555 152.632C222.107 154.286 224.563 153.888 224.563 152.144V150.875C224.563 150.131 225.687 150.131 225.687 150.875C225.62 151.417 226.092 154.086 224.113 156.725C223.889 157.023 224.043 157.035 224.261 160.481C224.318 161.223 225.44 161.136 225.383 160.394L225.139 157.227C227.225 154.299 226.746 151.416 226.812 150.875C226.812 150.428 226.634 149.999 226.318 149.682C226.001 149.366 225.572 149.188 225.125 149.188Z" fill="#1A6DA5" fill-opacity="0.4"/>
<path d="M247.197 136.639C247.855 133.842 247.757 131.309 246.92 129.505C246.277 128.12 245.24 127.282 243.977 127.113C242.737 124.782 239.968 124.774 237.375 125.249C236.643 125.383 236.847 126.49 237.578 126.356C243.327 125.303 242.59 128.172 243.589 128.208C244.84 128.253 245.536 129.196 245.899 129.979C246.62 131.532 246.694 133.865 246.102 136.381C245.428 139.248 243.949 142.23 241.816 145.03C240.847 144.604 240.089 144.011 239.507 143.227C239.064 142.63 238.16 143.3 238.604 143.898C239.31 144.849 240.262 145.585 241.437 146.09V148.286C240.431 148.804 236.966 150.477 233.587 150.815C235.245 148.439 234.488 150.522 234.687 146.375C234.687 146.29 234.667 146.205 234.63 146.128C234.592 146.051 234.538 145.984 234.47 145.932C234.094 145.638 233.873 145.927 231.47 146.459C231.154 146.538 230.821 146.518 230.518 146.401C230.214 146.283 229.954 146.075 229.774 145.804C230.432 145.378 231.541 145.234 231.28 144.499C230.874 143.358 230.469 142.557 228.759 142.657C228.478 141.84 228.528 141.579 228.231 141.396L226.938 140.6C228.345 138.729 228.499 138.737 228.499 138.399V135.31C230.256 135.98 231.776 135.541 235.812 135.688C236.555 135.688 236.556 134.563 235.812 134.563H230.599C230.494 134.488 226.109 135.025 225.711 128.412C227.429 129.305 230.279 128.327 233.3 127.448C234.014 127.239 233.697 126.16 232.983 126.369C229.692 127.4 226.462 128.34 225.641 126.895C225.405 126.387 224.621 126.514 224.578 127.11C224.395 129.666 225.151 133.132 227.374 134.71V138.207L225.665 140.405C225.616 140.467 225.581 140.539 225.563 140.616C225.544 140.693 225.541 140.773 225.555 140.851C225.569 140.928 225.6 141.002 225.644 141.068C225.689 141.133 225.747 141.188 225.814 141.229L227.46 142.242C227.732 142.872 227.688 143.929 228.434 143.821C229.669 143.643 229.856 143.948 230.047 144.41C229.31 144.878 228.284 144.99 228.499 145.705C228.698 146.371 229.146 146.935 229.75 147.279C230.355 147.623 231.068 147.72 231.743 147.55L233.562 147.095V148.98C231.11 151.924 229.062 156.317 229.062 160.438C229.062 161.181 230.187 161.182 230.187 160.438C230.187 157.063 231.602 154.002 232.82 151.993C236.578 151.872 240.53 150.015 241.834 149.349C247.175 156.718 244.284 161 245.937 161C246.086 161 246.229 160.941 246.334 160.835C246.44 160.73 246.499 160.587 246.499 160.438C246.499 156.317 245.837 152.862 242.562 148.438V145.905C244.87 142.925 246.471 139.725 247.197 136.639Z" fill="#1A6DA5" fill-opacity="0.4"/>
<path d="M235.812 126.125C235.812 125.381 234.688 125.38 234.688 126.125C234.688 126.87 235.812 126.87 235.812 126.125Z" fill="#1A6DA5" fill-opacity="0.4"/>
</g>
<g clip-path="url(#clip3_1_150)">
<path d="M35.0616 3.64924C34.3179 3.64924 34.317 4.77424 35.0616 4.77424C36.9211 4.77424 37.8741 3.29494 37.8741 1.39924C37.8741 -2.16609 33.9366 -2.15801 33.9366 0.836745C33.9366 1.58037 35.0616 1.58157 35.0616 0.836745C35.0616 -0.703099 36.7491 -0.615911 36.7491 1.39924C36.7491 2.07579 36.5847 3.64924 35.0616 3.64924Z" fill="#1A6DA5" fill-opacity="0.4"/>
<path d="M36.1866 15C35.1427 15.0012 34.1419 15.4164 33.4037 16.1546C32.6655 16.8927 32.2503 17.8936 32.2491 18.9375V23.4375C32.2491 24.1811 33.3741 24.1823 33.3741 23.4375V18.9375C33.3741 18.1916 33.6705 17.4762 34.1979 16.9488C34.7254 16.4213 35.4407 16.125 36.1866 16.125C36.9326 16.125 37.6479 16.4213 38.1754 16.9488C38.7028 17.4762 38.9991 18.1916 38.9991 18.9375V23.4375C38.9991 24.1811 40.1241 24.1823 40.1241 23.4375V18.9375C40.123 17.8936 39.7078 16.8927 38.9696 16.1546C38.2314 15.4164 37.2306 15.0012 36.1866 15Z" fill="#1A6DA5" fill-opacity="0.4"/>
<path d="M21.5625 7.125H22.6867C23.4304 7.125 23.4313 6 22.6867 6H21.5625C21.4133 6 21.2702 6.05926 21.1648 6.16475C21.0593 6.27024 21 6.41332 21 6.5625C21 6.71168 21.0593 6.85476 21.1648 6.96025C21.2702 7.06574 21.4133 7.125 21.5625 7.125Z" fill="#1A6DA5" fill-opacity="0.4"/>
<path d="M24.3741 10.5V11.625C24.3741 12.3686 25.4991 12.3698 25.4991 11.625V10.5C25.4991 9.75638 24.3741 9.75525 24.3741 10.5Z" fill="#1A6DA5" fill-opacity="0.4"/>
<path d="M21.7264 9.53974C21.648 9.61853 21.5947 9.71874 21.5732 9.82775C21.5517 9.93676 21.5629 10.0497 21.6054 10.1524C21.6479 10.255 21.7199 10.3428 21.8122 10.4047C21.9045 10.4665 22.013 10.4997 22.1241 10.5C22.5232 10.5 22.6171 10.1736 23.647 9.21026C24.1728 8.68439 23.3782 7.88838 22.8514 8.41474L21.7264 9.53974Z" fill="#1A6DA5" fill-opacity="0.4"/>
<path d="M22.125 12.1875C21.6776 12.188 21.2487 12.366 20.9323 12.6823C20.616 12.9987 20.438 13.4276 20.4375 13.875V15.1444C20.4375 15.616 19.7717 15.7237 19.6226 15.2765L18.7729 12.7275L19.4489 10.0235C19.5182 9.74632 19.5235 9.45698 19.4642 9.17747C19.405 8.89797 19.2828 8.63565 19.107 8.41044C18.9311 8.18524 18.7063 8.00308 18.4495 7.87781C18.1927 7.75254 17.9107 7.68746 17.625 7.6875C16.9304 7.6875 17.1282 8.33206 15.4109 12.5525C15.2984 12.852 15.3627 12.6151 17.0625 20.1266V23.4375C17.0625 23.5867 17.1218 23.7298 17.2272 23.8352C17.3327 23.9407 17.4758 24 17.625 24C17.7742 24 17.9173 23.9407 18.0227 23.8352C18.1282 23.7298 18.1875 23.5867 18.1875 23.4375V20.0625C18.1875 19.9414 18.2713 20.3842 16.5238 12.7887L17.9815 8.90138C18.1298 8.98081 18.2474 9.10751 18.3155 9.26137C18.3837 9.41523 18.3985 9.58745 18.3576 9.75068C17.6474 12.7129 17.563 12.6546 17.6538 12.9279L18.5553 15.6323C19.1066 17.2862 21.5625 16.888 21.5625 15.1444V13.875C21.5625 13.1305 22.6875 13.1314 22.6875 13.875C22.6201 14.4171 23.0919 17.0857 21.1125 19.725C20.8889 20.0231 21.0433 20.0354 21.2613 23.4807C21.3184 24.2232 22.44 24.136 22.383 23.3943L22.1391 20.2265C24.225 17.2992 23.7461 14.4164 23.8125 13.875C23.812 13.4276 23.634 12.9987 23.3177 12.6823C23.0013 12.366 22.5724 12.188 22.125 12.1875Z" fill="#1A6DA5" fill-opacity="0.4"/>
<path d="M44.1974 -0.361392C44.8553 -3.15821 44.7566 -5.6915 43.9196 -7.49481C43.2765 -8.87996 42.2401 -9.71809 40.9766 -9.88705C39.7369 -12.218 36.968 -12.2256 34.3755 -11.751C33.6427 -11.6169 33.8469 -10.5101 34.578 -10.6445C40.3267 -11.697 39.59 -8.82835 40.5891 -8.792C41.8401 -8.74658 42.5358 -7.8039 42.8992 -7.02111C43.62 -5.46819 43.6941 -3.13473 43.1023 -0.619016C42.4279 2.24791 40.949 5.23028 38.8163 8.03005C37.8472 7.60368 37.0891 7.01122 36.507 6.22717C36.064 5.63008 35.1598 6.2998 35.6038 6.89781C36.3101 7.84914 37.2624 8.58482 38.4367 9.09023V11.2862C37.4313 11.8039 33.9659 13.4774 30.5867 13.8149C32.2455 11.4394 31.4875 13.5224 31.6867 9.37499C31.6867 9.2895 31.6672 9.20514 31.6298 9.12831C31.5923 9.05148 31.5378 8.98421 31.4704 8.9316C31.0945 8.63812 30.8727 8.92703 28.4697 9.45894C28.154 9.53832 27.8215 9.51798 27.5178 9.40071C27.2142 9.28344 26.9543 9.07501 26.7738 8.80405C27.4325 8.37754 28.5414 8.23382 28.28 7.49905C27.8742 6.35788 27.4692 5.55667 25.7588 5.65736C25.4776 4.8404 25.5281 4.57855 25.2315 4.39609L23.9377 3.60001C25.345 1.72935 25.499 1.73673 25.499 1.39923V-1.69009C27.2562 -1.01966 28.7756 -1.45897 32.8115 -1.31251C33.5553 -1.31251 33.5562 -2.43751 32.8115 -2.43751H27.5992C27.4938 -2.51197 23.1085 -1.97499 22.7108 -8.58831C24.4286 -7.69534 27.2791 -8.67324 30.2997 -9.55159C31.014 -9.76119 30.6969 -10.8398 29.9833 -10.6312C26.6917 -9.59968 23.4621 -8.66038 22.6412 -10.1047C22.4051 -10.6129 21.6209 -10.4863 21.5783 -9.89028C21.3945 -7.33386 22.1506 -3.86781 24.3744 -2.29034V1.20679L22.6649 3.40497C22.6163 3.46737 22.5815 3.53929 22.5626 3.61606C22.5437 3.69283 22.5413 3.77271 22.5553 3.85049C22.5694 3.92828 22.5997 4.00223 22.6443 4.06751C22.6889 4.1328 22.7467 4.18795 22.8141 4.22938L24.4597 5.24188C24.7316 5.87195 24.6876 6.92875 25.4342 6.82117C26.6688 6.64321 26.8556 6.94844 27.0474 7.4099C26.3097 7.87811 25.284 7.98984 25.4986 8.70491C25.6975 9.37117 26.1459 9.93495 26.7503 10.2787C27.3547 10.6225 28.0685 10.7198 28.7428 10.5503L30.5619 10.0955V11.9803C28.1096 14.9245 26.0619 19.317 26.0619 23.4376C26.0619 24.1812 27.1869 24.1823 27.1869 23.4376C27.1869 20.0626 28.6023 17.002 29.82 14.9935C33.5784 14.8719 37.5305 13.0147 38.8341 12.3485C44.175 19.718 41.2842 24 42.9367 24C43.0858 24 43.2289 23.9407 43.3344 23.8352C43.4399 23.7297 43.4992 23.5867 43.4992 23.4375C43.4992 19.3172 42.8367 15.8624 39.5617 11.4385V8.90544C41.8695 5.92532 43.4714 2.7249 44.1974 -0.361392Z" fill="#1A6DA5" fill-opacity="0.4"/>
</g>
<defs>
<clipPath id="clip0_1_150">
<rect width="28" height="28" fill="white" transform="translate(77 49)"/>
</clipPath>
<clipPath id="clip1_1_150">
<rect width="28" height="28" fill="white" transform="translate(342 86)"/>
</clipPath>
<clipPath id="clip2_1_150">
<rect width="36" height="36" fill="white" transform="translate(215 125)"/>
</clipPath>
<clipPath id="clip3_1_150">
<rect width="36" height="36" fill="white" transform="translate(12 -12)"/>
</clipPath>
</defs>
</svg>
