<svg width="150" height="167" viewBox="0 0 150 167" fill="none" xmlns="http://www.w3.org/2000/svg">
<path d="M62.3712 4.6683C70.1913 0.142467 79.7772 0.142467 87.5972 4.6683L136.094 32.7728C143.914 37.2986 148.707 45.654 148.707 54.7057V110.915C148.707 119.966 143.914 128.322 136.094 132.848L87.5972 160.952C79.7772 165.478 70.1913 165.478 62.3712 160.952L13.8743 132.848C6.05423 128.322 1.26129 119.966 1.26129 110.915V54.7057C1.26129 45.654 6.05423 37.2986 13.8743 32.7728L62.3712 4.6683Z" fill="white"/>
<path d="M74.9842 165.604C70.412 165.604 65.8398 164.433 61.7406 162.06L13.2436 133.924C5.07673 129.176 0 120.378 0 110.915V54.7056C0 45.2425 5.07673 36.4124 13.2436 31.665L61.7406 3.56053L62.3712 4.66826L61.7406 3.56053C69.9075 -1.18684 80.061 -1.18684 88.2279 3.56053L136.756 31.665C144.923 36.4124 150 45.2109 150 54.674V110.883C150 120.346 144.923 129.176 136.756 133.892L88.2279 162.06C84.1602 164.402 79.588 165.604 74.9842 165.604ZM74.9842 2.54776C70.8535 2.54776 66.6912 3.62383 63.0019 5.74433L14.5049 33.8805C7.12634 38.1531 2.5226 46.1603 2.5226 54.7056V110.915C2.5226 119.492 7.12634 127.467 14.5049 131.74L63.0019 159.844C70.3805 164.117 79.588 164.117 86.9666 159.844L135.464 131.74C142.842 127.467 147.446 119.46 147.446 110.915V54.7056C147.446 46.1287 142.842 38.1531 135.464 33.8805L86.9666 5.74433C83.2773 3.62383 79.1465 2.54776 74.9842 2.54776Z" fill="#282F34"/>
<path d="M48.8124 164.434C48.5917 164.434 48.3709 164.37 48.1817 164.244L11.0049 142.121C10.4058 141.773 10.2166 140.982 10.5635 140.38C10.9103 139.779 11.6987 139.589 12.2978 139.937L49.443 162.06C50.0422 162.408 50.2314 163.199 49.8845 163.801C49.6638 164.212 49.2223 164.434 48.8124 164.434Z" fill="#282F34"/>
<path d="M32.321 166.016C32.1002 166.016 31.8795 165.953 31.6903 165.826L14.1583 155.382C13.5591 155.034 13.37 154.242 13.7168 153.641C14.0637 153.04 14.852 152.85 15.4511 153.198L32.9832 163.642C33.5823 163.99 33.7715 164.782 33.4246 165.383C33.1723 165.794 32.7624 166.016 32.321 166.016Z" fill="#282F34"/>
<path d="M62.3714 23.9745C70.1915 19.4486 79.7774 19.4486 87.5974 23.9745L119.445 42.4259C127.265 46.9518 132.058 55.3072 132.058 64.3588V101.262C132.058 110.313 127.265 118.669 119.445 123.195L87.5974 141.646C79.7774 146.172 70.1915 146.172 62.3714 141.646L30.5236 123.195C22.7036 118.669 17.9106 110.313 17.9106 101.262V64.3588C17.9106 55.3072 22.7036 46.9518 30.5236 42.4259L62.3714 23.9745Z" fill="#1470A4"/>
<path d="M56.4117 106.801C54.9296 106.801 53.4791 106.231 52.3755 105.091C50.1682 102.844 50.1998 99.2364 52.4386 97.0209L89.0163 60.9408C91.2551 58.7254 94.8498 58.757 97.057 61.0041C99.2643 63.2512 99.2328 66.8592 96.994 69.0747L60.4163 105.155C59.2811 106.262 57.8621 106.801 56.4117 106.801Z" fill="white"/>
<path d="M90.4666 106.801C89.0161 106.801 87.5657 106.263 86.462 105.155L50.1997 69.0748C47.9609 66.8593 47.9609 63.2513 50.1681 61.0042C52.3754 58.7571 55.9701 58.7571 58.2089 60.9726L94.4713 97.0527C96.7101 99.2681 96.7101 102.876 94.5028 105.123C93.3992 106.231 91.9171 106.801 90.4666 106.801Z" fill="white"/>
</svg>
