<svg width="146" height="167" viewBox="0 0 146 167" fill="none" xmlns="http://www.w3.org/2000/svg">
<g clip-path="url(#clip0_2827_12373)">
<path d="M73 144.56C112.584 144.56 144.673 112.496 144.673 72.9431C144.673 33.3902 112.584 1.32617 73 1.32617C33.4163 1.32617 1.32729 33.3902 1.32729 72.9431C1.32729 112.496 33.4163 144.56 73 144.56Z" fill="white"/>
<path d="M73 145.886C32.7571 145.886 0 113.155 0 72.9431C0 32.7316 32.7571 0 73 0C113.243 0 146 32.7316 146 72.9431C146 113.155 113.243 145.886 73 145.886ZM73 2.65248C34.1905 2.65248 2.65455 34.1639 2.65455 72.9431C2.65455 111.722 34.1905 143.234 73 143.234C111.809 143.234 143.345 111.722 143.345 72.9431C143.345 34.1639 111.809 2.65248 73 2.65248Z" fill="#282F34"/>
<path d="M73 136.231C107.98 136.231 136.337 107.896 136.337 72.9434C136.337 37.9903 107.98 9.65527 73 9.65527C38.0197 9.65527 9.66257 37.9903 9.66257 72.9434C9.66257 107.896 38.0197 136.231 73 136.231Z" fill="#1470A4"/>
<path d="M122.321 162.332H106.341C105.598 162.332 105.014 161.748 105.014 161.005C105.014 160.263 105.598 159.679 106.341 159.679H122.321C123.065 159.679 123.649 160.263 123.649 161.005C123.649 161.748 123.065 162.332 122.321 162.332Z" fill="#282F34"/>
<path d="M43.3752 162.332H27.3949C26.6516 162.332 26.0676 161.748 26.0676 161.005C26.0676 160.263 26.6516 159.679 27.3949 159.679H43.3752C44.1185 159.679 44.7025 160.263 44.7025 161.005C44.7025 161.748 44.1185 162.332 43.3752 162.332Z" fill="#282F34"/>
<path d="M132.727 154.533H106.341C105.598 154.533 105.014 153.95 105.014 153.207C105.014 152.464 105.598 151.881 106.341 151.881H132.727C133.471 151.881 134.055 152.464 134.055 153.207C134.055 153.95 133.417 154.533 132.727 154.533Z" fill="#282F34"/>
<path d="M43.3753 154.533H16.9891C16.2458 154.533 15.6618 153.95 15.6618 153.207C15.6618 152.464 16.2458 151.881 16.9891 151.881H43.3753C44.1185 151.881 44.7025 152.464 44.7025 153.207C44.7025 153.95 44.1185 154.533 43.3753 154.533Z" fill="#282F34"/>
<path d="M66.7883 165.673H79.4239C89.9359 165.673 94.1301 161.483 94.1301 150.979V138.353C94.1301 127.849 89.9359 123.658 79.4239 123.658H66.7883C56.2763 123.658 52.0821 127.849 52.0821 138.353V150.979C52.0821 161.483 56.2763 165.673 66.7883 165.673Z" fill="#1470A4"/>
<path d="M79.4239 167H66.7883C55.533 167 50.7549 162.225 50.7549 150.979V138.353C50.7549 127.106 55.533 122.332 66.7883 122.332H79.4239C90.6792 122.332 95.4574 127.106 95.4574 138.353V150.979C95.4574 162.172 90.6261 167 79.4239 167ZM66.7883 124.985C57.0196 124.985 53.4094 128.592 53.4094 138.353V150.979C53.4094 160.74 57.0196 164.347 66.7883 164.347H79.4239C89.1927 164.347 92.8029 160.74 92.8029 150.979V138.353C92.8029 128.592 89.1927 124.985 79.4239 124.985H66.7883Z" fill="#282F34"/>
<path d="M67.2662 152.093C66.7884 152.093 66.3637 151.934 65.992 151.562C65.3019 150.873 65.3019 149.706 65.992 149.016L77.4597 137.557C78.1498 136.868 79.3178 136.868 80.008 137.557C80.6982 138.247 80.6982 139.414 80.008 140.104L68.5404 151.562C68.1688 151.934 67.744 152.093 67.2662 152.093Z" fill="white"/>
<path d="M78.7338 152.305C78.256 152.305 77.8313 152.146 77.4597 151.775L65.992 140.316C65.3019 139.626 65.3019 138.459 65.992 137.77C66.6822 137.08 67.8502 137.08 68.5404 137.77L80.008 149.228C80.6982 149.918 80.6982 151.085 80.008 151.775C79.6895 152.093 79.2117 152.305 78.7338 152.305Z" fill="white"/>
<path d="M72.9957 102.863C68.7487 102.863 65.298 99.415 65.298 95.2241C65.298 91.0332 68.7487 87.585 72.9957 87.585C77.2427 87.585 80.6934 91.0332 80.6934 95.2241C80.6934 99.415 77.2427 102.863 72.9957 102.863ZM72.9957 91.1393C70.766 91.1393 69.0141 92.943 69.0141 95.2241C69.0141 97.4522 70.8191 99.3089 72.9957 99.3089C75.1723 99.3089 76.9772 97.5052 76.9772 95.2241C76.9772 92.996 75.2254 91.1393 72.9957 91.1393Z" fill="white"/>
<path d="M102.618 66.8957C101.344 66.8957 100.07 66.4713 99.0085 65.6755C83.9317 53.8985 62.0066 53.8985 46.9298 65.6755C44.3816 67.6384 40.7186 67.214 38.7012 64.6676C36.737 62.1212 37.1617 58.4608 39.7099 56.4449C49.1594 49.1241 60.9448 45.0923 72.9957 45.0923C85.0465 45.0923 96.8319 49.1241 106.228 56.4449C108.777 58.4077 109.254 62.1212 107.237 64.6676C106.069 66.0999 104.37 66.8957 102.618 66.8957Z" fill="white"/>
<path d="M90.3022 84.1366C89.0281 84.1366 87.754 83.7122 86.6922 82.9164C78.7822 76.7096 67.2623 76.7096 59.2992 82.9164C56.751 84.8792 53.0879 84.4548 51.0706 81.9085C49.1064 79.3621 49.5311 75.7017 52.0793 73.6858C57.972 69.0705 65.4042 66.5771 72.9426 66.5771C80.5341 66.5771 87.9132 69.1235 93.8059 73.6858C96.3541 75.6486 96.8319 79.3621 94.8146 81.9085C93.7529 83.3939 92.001 84.1366 90.3022 84.1366Z" fill="white"/>
<path d="M73.155 102.067C76.9665 102.067 80.0564 98.9796 80.0564 95.1709C80.0564 91.3621 76.9665 88.2744 73.155 88.2744C69.3435 88.2744 66.2536 91.3621 66.2536 95.1709C66.2536 98.9796 69.3435 102.067 73.155 102.067Z" fill="white"/>
</g>
<defs>
<clipPath id="clip0_2827_12373">
<rect width="146" height="167" fill="white"/>
</clipPath>
</defs>
</svg>
