<svg width="24" height="24" viewBox="0 0 24 24" fill="none" xmlns="http://www.w3.org/2000/svg">
<path d="M9.51567 10.5789C10.4382 10.5789 11.34 10.3054 12.1071 9.79283C12.8742 9.28029 13.472 8.5518 13.8251 7.69948C14.1781 6.84716 14.2705 5.90929 14.0905 5.00448C13.9105 4.09966 13.4663 3.26853 12.8139 2.61619C12.1616 1.96386 11.3305 1.51961 10.4257 1.33963C9.52084 1.15965 8.58298 1.25202 7.73066 1.60506C6.87834 1.95811 6.14985 2.55596 5.63731 3.32303C5.12477 4.0901 4.8512 4.99192 4.8512 5.91447C4.85266 7.15112 5.34456 8.3367 6.219 9.21114C7.09344 10.0856 8.27902 10.5775 9.51567 10.5789ZM9.51567 2.89628C10.1126 2.89628 10.6961 3.0733 11.1925 3.40494C11.6888 3.73658 12.0757 4.20796 12.3041 4.75946C12.5325 5.31096 12.5923 5.91782 12.4759 6.50329C12.3594 7.08876 12.0719 7.62655 11.6498 8.04865C11.2277 8.47075 10.69 8.7582 10.1045 8.87466C9.51902 8.99112 8.91216 8.93135 8.36066 8.70291C7.80916 8.47447 7.33778 8.08762 7.00614 7.59128C6.6745 7.09494 6.49749 6.51141 6.49749 5.91447C6.49836 5.11426 6.81662 4.34708 7.38245 3.78125C7.94829 3.21542 8.71547 2.89716 9.51567 2.89628ZM12.6678 13.9374C12.3477 13.8901 12.0244 13.8681 11.7008 13.8715H7.31075C6.68399 13.8232 6.05422 13.9115 5.46489 14.1302C4.87557 14.349 4.34072 14.693 3.89727 15.1385C3.45381 15.5841 3.11231 16.1205 2.89634 16.7109C2.68036 17.3012 2.59504 17.9314 2.64628 18.5579C2.64628 20.2733 3.38491 21.0054 5.11571 21.0054H10.6033C10.8216 21.0054 11.031 21.0921 11.1854 21.2465C11.3397 21.4009 11.4265 21.6102 11.4265 21.8285C11.4265 22.0468 11.3397 22.2562 11.1854 22.4106C11.031 22.5649 10.8216 22.6517 10.6033 22.6517H5.11571C2.4619 22.6517 1 21.1975 1 18.5579C1 15.6363 2.65287 12.2252 7.31075 12.2252H11.7008C12.1119 12.2214 12.5226 12.2507 12.929 12.313C13.0357 12.33 13.1381 12.3678 13.2301 12.4244C13.3222 12.481 13.4022 12.5553 13.4656 12.6428C13.5289 12.7304 13.5743 12.8297 13.5992 12.9349C13.624 13.04 13.6279 13.1491 13.6105 13.2558C13.5741 13.4703 13.4549 13.662 13.2786 13.7895C13.1022 13.917 12.8829 13.9701 12.6678 13.9374ZM22.9318 17.9872L23.0777 17.906C23.1739 17.8524 23.2583 17.78 23.326 17.6932C23.3937 17.6064 23.4433 17.5069 23.4718 17.4005C23.5004 17.2942 23.5073 17.1832 23.4922 17.0742C23.4771 16.9651 23.4403 16.8602 23.384 16.7657L22.3786 15.0777C22.2689 14.8933 22.0916 14.759 21.8843 14.7034C21.677 14.6478 21.4563 14.6754 21.269 14.7802L21.1231 14.8615C21.0151 14.9219 20.8934 14.9537 20.7697 14.9537C20.6459 14.9537 20.5242 14.9219 20.4163 14.8615C20.318 14.8069 20.2359 14.7275 20.1781 14.6312C20.1203 14.5349 20.0889 14.425 20.087 14.3127C20.087 14.0507 19.9829 13.7995 19.7977 13.6142C19.6124 13.429 19.3612 13.3249 19.0992 13.3249H17.4189C17.1569 13.3249 16.9057 13.429 16.7205 13.6142C16.5352 13.7995 16.4312 14.0507 16.4312 14.3127C16.4292 14.425 16.3977 14.5348 16.3399 14.6311C16.2821 14.7274 16.2 14.8069 16.1019 14.8615C15.9939 14.9219 15.8722 14.9537 15.7485 14.9537C15.6247 14.9537 15.5031 14.9219 15.3951 14.8615C15.1693 14.7368 14.9041 14.7044 14.6549 14.7708C14.4058 14.8373 14.192 14.9976 14.0583 15.2182L13.2209 16.623C13.1532 16.7354 13.1088 16.8603 13.0902 16.9902C13.0716 17.1201 13.0793 17.2524 13.1127 17.3793C13.1462 17.5062 13.2048 17.6251 13.285 17.7289C13.3652 17.8328 13.4655 17.9195 13.5798 17.9839L13.6017 17.996C13.7001 18.051 13.7817 18.1317 13.8378 18.2294C13.8939 18.3272 13.9224 18.4383 13.9203 18.551C13.9181 18.6637 13.8854 18.7737 13.8257 18.8692C13.7659 18.9648 13.6813 19.0423 13.5809 19.0935C13.351 19.2251 13.1828 19.4426 13.1133 19.6982C13.0802 19.8249 13.0728 19.9569 13.0917 20.0864C13.1105 20.2159 13.1552 20.3403 13.2231 20.4522L14.0638 21.8604C14.1959 22.0827 14.4099 22.2443 14.6598 22.3106C14.9097 22.3769 15.1757 22.3425 15.4006 22.2149C15.5085 22.1547 15.6299 22.1231 15.7534 22.1231C15.877 22.1231 15.9984 22.1547 16.1063 22.2149C16.2047 22.2691 16.2871 22.3485 16.3449 22.4449C16.4027 22.5412 16.434 22.6512 16.4355 22.7636C16.4355 23.0256 16.5396 23.2768 16.7249 23.4621C16.9101 23.6473 17.1613 23.7514 17.4233 23.7514H19.0992C19.3612 23.7514 19.6124 23.6473 19.7977 23.4621C19.9829 23.2768 20.087 23.0256 20.087 22.7636C20.0889 22.6513 20.1203 22.5414 20.1781 22.4451C20.2359 22.3488 20.318 22.2694 20.4163 22.2149C20.5242 22.1544 20.6459 22.1226 20.7697 22.1226C20.8934 22.1226 21.0151 22.1544 21.1231 22.2149C21.349 22.3391 21.6141 22.3715 21.8633 22.3052C22.1125 22.239 22.3265 22.0793 22.4609 21.8593L23.3027 20.4457C23.3681 20.333 23.4105 20.2085 23.4276 20.0794C23.4446 19.9502 23.436 19.819 23.4021 19.6932C23.3682 19.5674 23.3098 19.4496 23.2302 19.3465C23.1507 19.2434 23.0515 19.157 22.9384 19.0924L22.9186 19.0814C22.8205 19.0266 22.739 18.9463 22.6827 18.8491C22.6264 18.7518 22.5974 18.6411 22.5987 18.5288C22.6001 18.4164 22.6317 18.3064 22.6903 18.2105C22.749 18.1147 22.8324 18.0364 22.9318 17.9839V17.9872ZM21.5884 20.1065L21.3272 20.5455C20.7448 20.4062 20.1314 20.4908 19.6085 20.7826C19.0953 21.0712 18.7121 21.5451 18.5373 22.1073H17.9732C17.799 21.5448 17.4156 21.0706 16.902 20.7826C16.3793 20.4901 15.7656 20.4054 15.1833 20.5455L14.9232 20.1065C15.33 19.6856 15.5574 19.123 15.5574 18.5376C15.5574 17.9522 15.33 17.3897 14.9232 16.9687L15.1833 16.5297C15.7656 16.6696 16.3793 16.5849 16.902 16.2926C17.4151 16.0041 17.7984 15.5301 17.9732 14.9679H18.5373C18.7121 15.5301 19.0953 16.0041 19.6085 16.2926C20.1313 16.5847 20.7449 16.6694 21.3272 16.5297L21.5884 16.9687C21.1822 17.3897 20.9551 17.952 20.9551 18.5371C20.9551 19.1221 21.1822 19.6855 21.5884 20.1065ZM19.4054 18.536C19.4054 18.7526 19.3413 18.9643 19.2212 19.1446C19.1011 19.3248 18.9303 19.4655 18.7304 19.5489C18.5305 19.6322 18.3104 19.6546 18.0978 19.6131C17.8852 19.5717 17.6896 19.4682 17.5357 19.3158C17.3818 19.1634 17.2764 18.9689 17.2328 18.7567C17.1893 18.5446 17.2094 18.3242 17.2908 18.1235C17.3722 17.9228 17.5112 17.7506 17.6902 17.6287C17.8692 17.5068 18.0804 17.4406 18.2969 17.4384H18.3079C18.599 17.4384 18.8782 17.5541 19.084 17.7599C19.2898 17.9657 19.4054 18.2449 19.4054 18.536Z" fill="black"/>
</svg>
