<svg width="149" height="136" viewBox="0 0 149 136" fill="none" xmlns="http://www.w3.org/2000/svg">
<g clip-path="url(#clip0_3154_18444)">
<path fill-rule="evenodd" clip-rule="evenodd" d="M110.525 49.9981C110.926 50.2206 111.381 50.3283 111.838 50.3094C112.296 50.2905 112.74 50.1457 113.121 49.8908C113.503 49.636 113.807 49.2809 114.001 48.8643C114.194 48.4478 114.27 47.9859 114.22 47.5291C114.169 47.0723 113.995 46.6381 113.715 46.2742C113.435 45.9102 113.061 45.6304 112.633 45.4653C112.205 45.3003 111.741 45.2563 111.29 45.3383C110.839 45.4202 110.419 45.6249 110.076 45.93L94.9023 36.9629C94.9463 36.8304 94.9837 36.6971 95.0166 36.5628L110.1 39.3111C110.205 39.7556 110.46 40.1502 110.821 40.4286C111.182 40.7071 111.628 40.8523 112.083 40.8401C112.538 40.8278 112.976 40.6588 113.321 40.3614C113.667 40.0639 113.9 39.6562 113.981 39.2067C114.063 38.7572 113.987 38.2934 113.768 37.8931C113.548 37.4928 113.198 37.1805 112.776 37.0086C112.354 36.8367 111.886 36.8157 111.451 36.9491C111.015 37.0825 110.638 37.3623 110.384 37.7413L95.1518 34.9659C95.1392 34.7779 95.1164 34.5908 95.0833 34.4054L107.406 31.322C107.484 31.3914 107.57 31.4516 107.661 31.5016C107.911 31.64 108.195 31.7011 108.48 31.6771C108.764 31.6532 109.034 31.5453 109.257 31.3671C109.48 31.1889 109.646 30.9484 109.732 30.676C109.819 30.4036 109.823 30.1115 109.744 29.8367C109.666 29.5619 109.507 29.3167 109.29 29.1321C109.072 28.9475 108.805 28.8317 108.521 28.7995C108.238 28.7673 107.951 28.8201 107.698 28.9511C107.445 29.0822 107.236 29.2857 107.098 29.5359C107.054 29.6148 107.019 29.6976 106.99 29.7832L94.5708 32.8901C94.4562 32.6684 94.326 32.4553 94.1811 32.2522L100.575 27.6232C101.057 27.9697 101.646 28.1331 102.237 28.084C102.828 28.0349 103.383 27.7766 103.801 27.3553C104.22 26.9339 104.476 26.377 104.523 25.784C104.57 25.1909 104.405 24.6005 104.058 24.1181C103.711 23.6357 103.204 23.2928 102.628 23.1507C102.052 23.0087 101.445 23.0766 100.914 23.3424C100.383 23.6083 99.9643 24.0547 99.7316 24.6019C99.499 25.1491 99.4679 25.7615 99.644 26.3296L93.054 31.1006C92.9328 31.0105 92.8067 30.924 92.6758 30.8433L96.152 21.2261C96.7465 21.2008 97.3127 20.9643 97.7493 20.5589C98.186 20.1534 98.4646 19.6054 98.5355 19.0129C98.6063 18.4203 98.4648 17.8218 98.1362 17.3243C97.8075 16.8268 97.3132 16.4627 96.7415 16.2971C96.1698 16.1315 95.5581 16.1752 95.0156 16.4205C94.4731 16.6657 94.0352 17.0964 93.7802 17.6356C93.5252 18.1748 93.4698 18.7874 93.6237 19.3639C93.7776 19.9404 94.1309 20.4432 94.6204 20.7825L91.2107 30.2175C91.0599 30.1789 90.9091 30.1476 90.757 30.1229L90.4579 23.5182C90.8811 23.359 91.2375 23.0595 91.4679 22.6694C91.6982 22.2793 91.7888 21.8219 91.7245 21.3731C91.6602 20.9243 91.4449 20.511 91.1144 20.2017C90.7839 19.8924 90.3579 19.7056 89.907 19.6724C89.4562 19.6391 89.0075 19.7614 88.6355 20.0189C88.2634 20.2764 87.9902 20.6537 87.8612 21.0883C87.7322 21.5228 87.7551 21.9886 87.9261 22.4083C88.0971 22.828 88.406 23.1765 88.8015 23.3961C88.8215 23.4074 88.8424 23.4179 88.8628 23.4283L89.1651 30.1098C88.3767 30.2247 87.6245 30.5173 86.965 30.9655C86.5082 29.9799 86.3258 28.496 86.1314 26.5437C85.6471 21.6863 85.0756 17.1718 85.4292 12.1612C85.5552 10.3778 84.5668 10.966 83.2163 10.966C81.8658 10.966 80.8771 10.378 81.0031 12.1612C81.3564 17.1716 80.785 21.6863 80.3009 26.5437C79.9593 29.9671 79.6563 31.95 77.8449 32.329C77.856 28.4673 76.086 19.4049 72.7084 19.3988C67.0933 19.3891 61.6629 27.9406 58.815 34.4963C55.9843 41.0127 54.5407 52.3618 54.7523 60.315C55.0966 73.2623 56.746 69.4951 64.2635 64.7081C70.1239 60.9769 72.7922 67.7576 75.6078 59.0859C78.1304 51.3168 78.4002 47.3795 78.1075 36.8449C79.105 36.4774 80.0281 34.9806 81.0076 33.8895C82.283 32.4696 83.6986 32.3294 85.0017 33.4699C84.621 34.4881 84.5639 35.5996 84.8381 36.6518C85.1123 37.7039 85.7044 38.6452 86.5331 39.3464L84.6298 48.869C84.2711 48.9781 83.959 49.2042 83.743 49.5115C83.527 49.8188 83.4195 50.1897 83.4377 50.5652C83.4558 50.9407 83.5984 51.2994 83.843 51.5844C84.0875 51.8693 84.4199 52.0642 84.7875 52.138C85.155 52.2119 85.5366 52.1605 85.8717 51.992C86.2069 51.8235 86.4762 51.5476 86.6372 51.208C86.7981 50.8685 86.8414 50.4847 86.76 50.1177C86.6787 49.7507 86.4775 49.4214 86.1884 49.1822L87.9808 40.2145C88.1138 40.2668 88.2474 40.3139 88.3825 40.3552L91.1839 59.2783C90.7989 59.5209 90.5089 59.889 90.3625 60.3208C90.2161 60.7526 90.2224 61.2218 90.3801 61.6495C90.5379 62.0772 90.8376 62.4375 91.229 62.6698C91.6203 62.902 92.0794 62.9922 92.5291 62.925C92.9789 62.8579 93.3919 62.6375 93.6988 62.301C94.0057 61.9646 94.1879 61.5324 94.2146 61.0771C94.2413 60.6218 94.1111 60.1712 93.8457 59.8009C93.5803 59.4305 93.1959 59.1631 92.7571 59.0435L90.0234 40.5838C90.2473 40.5789 90.4707 40.5597 90.6922 40.5265L102.056 63.8775C101.515 64.416 101.188 65.1336 101.136 65.8964C101.084 66.6591 101.31 67.4146 101.773 68.0219C102.236 68.6292 102.904 69.0466 103.652 69.1961C104.399 69.3457 105.175 69.2171 105.835 68.8345C106.495 68.4518 106.993 67.8413 107.237 67.117C107.481 66.3926 107.453 65.6041 107.16 64.8986C106.866 64.1931 106.326 63.6191 105.641 63.2837C104.956 62.9482 104.173 62.8744 103.438 63.076L92.2495 40.0356C92.4217 39.95 92.5891 39.8551 92.7511 39.7513L109.989 57.0826C109.971 57.1587 109.959 57.2359 109.95 57.3136C109.905 57.7386 110.001 58.1667 110.226 58.5302C110.45 58.8937 110.789 59.1716 111.188 59.32C111.588 59.4684 112.026 59.4787 112.432 59.3493C112.838 59.2199 113.19 58.9581 113.431 58.6056C113.672 58.2531 113.788 57.83 113.762 57.4033C113.736 56.9767 113.569 56.571 113.287 56.2505C113.005 55.93 112.625 55.7131 112.206 55.6342C111.787 55.5553 111.354 55.619 110.975 55.815L93.9451 38.6937C94.0036 38.623 94.061 38.55 94.1161 38.4765L109.282 47.3274C109.182 47.8473 109.248 48.3856 109.471 48.8653C109.695 49.3451 110.064 49.7416 110.525 49.9981ZM111.173 38.3794C111.266 38.2093 111.408 38.0707 111.579 37.9812C111.751 37.8917 111.945 37.8553 112.137 37.8765C112.33 37.8977 112.512 37.9757 112.66 38.1005C112.808 38.2253 112.916 38.3914 112.97 38.5777C113.024 38.764 113.022 38.9622 112.963 39.1473C112.905 39.3323 112.793 39.4958 112.642 39.6172C112.491 39.7386 112.308 39.8123 112.115 39.8292C111.922 39.846 111.729 39.8051 111.56 39.7117C111.332 39.5864 111.164 39.3757 111.091 39.1258C111.019 38.876 111.048 38.6075 111.173 38.3794H111.173ZM101.024 24.5048C101.237 24.305 101.504 24.1731 101.792 24.1257C102.08 24.0783 102.375 24.1176 102.641 24.2386C102.906 24.3596 103.13 24.5569 103.284 24.8055C103.438 25.054 103.515 25.3428 103.505 25.6352C103.495 25.9276 103.399 26.2105 103.229 26.4482C103.059 26.6858 102.822 26.8676 102.549 26.9704C102.276 27.0732 101.979 27.0925 101.695 27.0259C101.411 26.9592 101.153 26.8096 100.954 26.5959C100.821 26.454 100.718 26.2873 100.65 26.1055C100.582 25.9236 100.55 25.73 100.557 25.5358C100.563 25.3416 100.608 25.1506 100.688 24.9737C100.768 24.7968 100.882 24.6375 101.024 24.5048ZM91.3793 60.4914C91.4724 60.3214 91.6137 60.1828 91.7854 60.0934C91.957 60.0039 92.1513 59.9675 92.3435 59.9887C92.5358 60.0099 92.7175 60.0879 92.8656 60.2127C93.0137 60.3375 93.1216 60.5035 93.1757 60.6898C93.2297 60.8761 93.2274 61.0743 93.1692 61.2593C93.1109 61.4443 92.9992 61.6078 92.8483 61.7292C92.6974 61.8506 92.514 61.9243 92.3213 61.9411C92.1286 61.958 91.9352 61.9171 91.7657 61.8237C91.5384 61.6983 91.37 61.4876 91.2976 61.2378C91.2251 60.988 91.2545 60.7195 91.3793 60.4914ZM103.002 64.7522C103.269 64.5016 103.604 64.3361 103.965 64.2766C104.326 64.2171 104.697 64.2664 105.03 64.4181C105.363 64.5699 105.644 64.8173 105.837 65.1291C106.03 65.4409 106.126 65.8031 106.114 66.1699C106.102 66.5367 105.981 66.8916 105.768 67.1897C105.554 67.4878 105.258 67.7157 104.915 67.8447C104.573 67.9736 104.2 67.9978 103.843 67.9141C103.487 67.8305 103.164 67.6427 102.914 67.3746C102.579 67.0151 102.4 66.5369 102.417 66.0451C102.433 65.5534 102.644 65.0883 103.002 64.7522H103.002ZM88.9068 21.1801C89.0005 21.0104 89.1423 20.8724 89.3143 20.7835C89.4862 20.6946 89.6805 20.6588 89.8727 20.6807C90.065 20.7026 90.2464 20.7811 90.3941 20.9064C90.5417 21.0317 90.6491 21.1981 90.7024 21.3846C90.7558 21.5711 90.7529 21.7692 90.694 21.954C90.6351 22.1388 90.5229 22.302 90.3715 22.4228C90.2202 22.5436 90.0365 22.6167 89.8438 22.6329C89.651 22.649 89.4578 22.6074 89.2886 22.5134C89.0618 22.3873 88.8941 22.176 88.8226 21.926C88.751 21.676 88.7813 21.4077 88.9068 21.1801ZM92.7197 36.878C92.4125 37.4344 91.9477 37.8869 91.384 38.1784C90.8204 38.4698 90.1832 38.587 89.5531 38.5153C88.9231 38.4435 88.3283 38.186 87.8442 37.7752C87.36 37.3644 87.0082 36.8189 86.8332 36.2076C86.6582 35.5962 86.6678 34.9466 86.8609 34.3408C87.054 33.7349 87.4218 33.2001 87.918 32.804C88.4141 32.4079 89.0162 32.1682 89.6481 32.1153C90.2801 32.0623 90.9134 32.1985 91.4682 32.5067C91.8366 32.7113 92.1612 32.9866 92.4234 33.3171C92.6857 33.6475 92.8805 34.0265 92.9967 34.4324C93.113 34.8384 93.1483 35.2633 93.1008 35.683C93.0533 36.1026 92.9238 36.5088 92.7197 36.8782V36.878Z" fill="url(#paint0_linear_3154_18444)"/>
</g>
<path fill-rule="evenodd" clip-rule="evenodd" d="M55.0149 79.1253C55.0149 79.1253 61.1375 72.6853 70.1109 74.2924C81.0062 76.2443 85.6451 79.2067 95.8964 74.9404C99.6346 85.6706 87.1343 85.315 80.497 85.1633C67.6179 84.8707 83.4778 93.8149 96.0086 90.0389C101.372 88.5564 108.357 85.8114 113.244 82.6636C118.13 79.5157 119.398 83.1395 119.398 83.1395C94.9357 121.486 26.6589 97.3625 30.4903 46.6803C32.7657 16.5789 62.2079 -9.44839 97.8075 3.33194C98.3917 3.54171 98.9694 3.76088 99.5408 3.98946C45.7936 -13.0522 22.1342 58.6853 55.0149 79.1253ZM92.6585 88.664C92.6585 88.664 104.894 81.8175 108.318 78.0846C109.128 76.8015 110.021 75.8459 111.027 75.3497C111.027 75.3497 108.455 73.5307 106.556 75.8375C104.656 78.1442 101.304 82.2147 92.6585 88.6631V88.664ZM93.1686 89.6987C93.1686 89.6987 106.223 86.7779 114.626 80.4694L117.437 78.2104C114.757 74.3332 111.39 74.7443 108.793 79.0927C106.488 82.0313 93.1686 89.6987 93.1686 89.6987Z" fill="url(#paint1_linear_3154_18444)"/>
<path d="M10.571 129.012C9.32437 129.012 8.25337 128.763 7.35804 128.264C6.47404 127.754 5.79404 127.04 5.31804 126.122C4.84204 125.193 4.60404 124.099 4.60404 122.841C4.60404 121.583 4.84204 120.495 5.31804 119.577C5.79404 118.659 6.47404 117.951 7.35804 117.452C8.25337 116.942 9.32437 116.687 10.571 116.687C11.3757 116.687 12.135 116.812 12.849 117.061C13.5744 117.31 14.1694 117.667 14.634 118.132L13.92 119.866C13.41 119.435 12.8887 119.124 12.356 118.931C11.8234 118.727 11.251 118.625 10.639 118.625C9.42637 118.625 8.5027 118.993 7.86804 119.73C7.23337 120.455 6.91604 121.492 6.91604 122.841C6.91604 124.19 7.23337 125.232 7.86804 125.969C8.5027 126.706 9.42637 127.074 10.639 127.074C11.251 127.074 11.8234 126.978 12.356 126.785C12.8887 126.581 13.41 126.264 13.92 125.833L14.634 127.567C14.1694 128.02 13.5744 128.377 12.849 128.638C12.135 128.887 11.3757 129.012 10.571 129.012ZM19.5225 129.012C18.6611 129.012 17.9131 128.836 17.2785 128.485C16.6438 128.134 16.1508 127.635 15.7995 126.989C15.4481 126.332 15.2725 125.561 15.2725 124.677C15.2725 123.793 15.4481 123.028 15.7995 122.382C16.1508 121.736 16.6438 121.237 17.2785 120.886C17.9131 120.535 18.6611 120.359 19.5225 120.359C20.3838 120.359 21.1318 120.535 21.7665 120.886C22.4011 121.237 22.8941 121.736 23.2455 122.382C23.5968 123.028 23.7725 123.793 23.7725 124.677C23.7725 125.561 23.5968 126.332 23.2455 126.989C22.8941 127.635 22.4011 128.134 21.7665 128.485C21.1318 128.836 20.3838 129.012 19.5225 129.012ZM19.5225 127.397C20.1571 127.397 20.6671 127.17 21.0525 126.717C21.4378 126.252 21.6305 125.572 21.6305 124.677C21.6305 123.77 21.4378 123.096 21.0525 122.654C20.6671 122.201 20.1571 121.974 19.5225 121.974C18.8878 121.974 18.3778 122.201 17.9925 122.654C17.6071 123.096 17.4145 123.77 17.4145 124.677C17.4145 125.572 17.6071 126.252 17.9925 126.717C18.3778 127.17 18.8878 127.397 19.5225 127.397ZM28.5354 129.012C26.4954 129.012 25.4754 127.867 25.4754 125.578V120.529H27.6004V125.612C27.6004 126.201 27.7194 126.638 27.9574 126.921C28.1954 127.204 28.5751 127.346 29.0964 127.346C29.6631 127.346 30.1277 127.153 30.4904 126.768C30.8531 126.371 31.0344 125.85 31.0344 125.204V120.529H33.1594V128.842H31.0854V127.601C30.5301 128.542 29.6801 129.012 28.5354 129.012ZM39.2471 132.072C38.4764 132.072 37.7511 131.981 37.0711 131.8C36.4024 131.63 35.8131 131.364 35.3031 131.001L35.9151 129.522C36.3911 129.839 36.9011 130.072 37.4451 130.219C37.9891 130.378 38.5331 130.457 39.0771 130.457C40.5958 130.457 41.3551 129.726 41.3551 128.264V127.125C41.1171 127.59 40.7488 127.958 40.2501 128.23C39.7628 128.502 39.2188 128.638 38.6181 128.638C37.8701 128.638 37.2184 128.468 36.6631 128.128C36.1078 127.777 35.6771 127.289 35.3711 126.666C35.0651 126.043 34.9121 125.317 34.9121 124.49C34.9121 123.663 35.0651 122.943 35.3711 122.331C35.6771 121.708 36.1078 121.226 36.6631 120.886C37.2184 120.535 37.8701 120.359 38.6181 120.359C39.2414 120.359 39.7968 120.501 40.2841 120.784C40.7714 121.056 41.1284 121.424 41.3551 121.889V120.529H43.4291V128.009C43.4291 129.358 43.0721 130.372 42.3581 131.052C41.6441 131.732 40.6071 132.072 39.2471 132.072ZM39.1961 127.023C39.8534 127.023 40.3748 126.796 40.7601 126.343C41.1454 125.89 41.3381 125.272 41.3381 124.49C41.3381 123.708 41.1454 123.096 40.7601 122.654C40.3748 122.201 39.8534 121.974 39.1961 121.974C38.5388 121.974 38.0174 122.201 37.6321 122.654C37.2468 123.096 37.0541 123.708 37.0541 124.49C37.0541 125.272 37.2468 125.89 37.6321 126.343C38.0174 126.796 38.5388 127.023 39.1961 127.023ZM45.6309 128.842V116.857H47.7559V121.736C48.0392 121.283 48.4189 120.943 48.8949 120.716C49.3709 120.478 49.8979 120.359 50.4759 120.359C52.4365 120.359 53.4169 121.498 53.4169 123.776V128.842H51.2919V123.878C51.2919 123.232 51.1672 122.762 50.9179 122.467C50.6799 122.172 50.3059 122.025 49.7959 122.025C49.1725 122.025 48.6739 122.223 48.2999 122.62C47.9372 123.005 47.7559 123.521 47.7559 124.167V128.842H45.6309ZM60.3952 128.842V116.857H62.2142L66.4642 124.694L70.6972 116.857H72.4822V128.842H70.5102V120.767L67.0762 127.023H65.8012L62.3672 120.801V128.842H60.3952ZM78.707 129.012C77.8457 129.012 77.0977 128.836 76.463 128.485C75.8284 128.134 75.3354 127.635 74.984 126.989C74.6327 126.332 74.457 125.561 74.457 124.677C74.457 123.793 74.6327 123.028 74.984 122.382C75.3354 121.736 75.8284 121.237 76.463 120.886C77.0977 120.535 77.8457 120.359 78.707 120.359C79.5684 120.359 80.3164 120.535 80.951 120.886C81.5857 121.237 82.0787 121.736 82.43 122.382C82.7814 123.028 82.957 123.793 82.957 124.677C82.957 125.561 82.7814 126.332 82.43 126.989C82.0787 127.635 81.5857 128.134 80.951 128.485C80.3164 128.836 79.5684 129.012 78.707 129.012ZM78.707 127.397C79.3417 127.397 79.8517 127.17 80.237 126.717C80.6224 126.252 80.815 125.572 80.815 124.677C80.815 123.77 80.6224 123.096 80.237 122.654C79.8517 122.201 79.3417 121.974 78.707 121.974C78.0724 121.974 77.5624 122.201 77.177 122.654C76.7917 123.096 76.599 123.77 76.599 124.677C76.599 125.572 76.7917 126.252 77.177 126.717C77.5624 127.17 78.0724 127.397 78.707 127.397ZM84.711 128.842V120.529H86.785V121.821C87.0683 121.345 87.448 120.982 87.924 120.733C88.4113 120.484 88.9553 120.359 89.556 120.359C91.5166 120.359 92.497 121.498 92.497 123.776V128.842H90.372V123.878C90.372 123.232 90.2473 122.762 89.998 122.467C89.76 122.172 89.386 122.025 88.876 122.025C88.2526 122.025 87.754 122.223 87.38 122.62C87.0173 123.005 86.836 123.521 86.836 124.167V128.842H84.711ZM94.5193 118.744V116.67H96.8993V118.744H94.5193ZM94.6553 128.842V120.529H96.7803V128.842H94.6553ZM102.796 129.012C100.598 129.012 99.4983 127.924 99.4983 125.748V122.127H97.9003V120.529H99.4983V118.047H101.623V120.529H104.139V122.127H101.623V125.629C101.623 126.173 101.742 126.581 101.98 126.853C102.218 127.125 102.604 127.261 103.136 127.261C103.295 127.261 103.459 127.244 103.629 127.21C103.799 127.165 103.975 127.119 104.156 127.074L104.479 128.638C104.275 128.751 104.015 128.842 103.697 128.91C103.391 128.978 103.091 129.012 102.796 129.012ZM109.221 129.012C108.359 129.012 107.611 128.836 106.977 128.485C106.342 128.134 105.849 127.635 105.498 126.989C105.146 126.332 104.971 125.561 104.971 124.677C104.971 123.793 105.146 123.028 105.498 122.382C105.849 121.736 106.342 121.237 106.977 120.886C107.611 120.535 108.359 120.359 109.221 120.359C110.082 120.359 110.83 120.535 111.465 120.886C112.099 121.237 112.592 121.736 112.944 122.382C113.295 123.028 113.471 123.793 113.471 124.677C113.471 125.561 113.295 126.332 112.944 126.989C112.592 127.635 112.099 128.134 111.465 128.485C110.83 128.836 110.082 129.012 109.221 129.012ZM109.221 127.397C109.855 127.397 110.365 127.17 110.751 126.717C111.136 126.252 111.329 125.572 111.329 124.677C111.329 123.77 111.136 123.096 110.751 122.654C110.365 122.201 109.855 121.974 109.221 121.974C108.586 121.974 108.076 122.201 107.691 122.654C107.305 123.096 107.113 123.77 107.113 124.677C107.113 125.572 107.305 126.252 107.691 126.717C108.076 127.17 108.586 127.397 109.221 127.397ZM115.225 128.842V120.529H117.299V121.991C117.707 121.005 118.579 120.461 119.917 120.359L120.563 120.308L120.699 122.11L119.475 122.229C118.081 122.365 117.384 123.079 117.384 124.371V128.842H115.225ZM121.746 118.744V116.67H124.126V118.744H121.746ZM121.882 128.842V120.529H124.007V128.842H121.882ZM126.215 128.842V120.529H128.289V121.821C128.572 121.345 128.952 120.982 129.428 120.733C129.915 120.484 130.459 120.359 131.06 120.359C133.021 120.359 134.001 121.498 134.001 123.776V128.842H131.876V123.878C131.876 123.232 131.751 122.762 131.502 122.467C131.264 122.172 130.89 122.025 130.38 122.025C129.757 122.025 129.258 122.223 128.884 122.62C128.521 123.005 128.34 123.521 128.34 124.167V128.842H126.215ZM140.035 132.072C139.265 132.072 138.539 131.981 137.859 131.8C137.191 131.63 136.601 131.364 136.091 131.001L136.703 129.522C137.179 129.839 137.689 130.072 138.233 130.219C138.777 130.378 139.321 130.457 139.865 130.457C141.384 130.457 142.143 129.726 142.143 128.264V127.125C141.905 127.59 141.537 127.958 141.038 128.23C140.551 128.502 140.007 128.638 139.406 128.638C138.658 128.638 138.007 128.468 137.451 128.128C136.896 127.777 136.465 127.289 136.159 126.666C135.853 126.043 135.7 125.317 135.7 124.49C135.7 123.663 135.853 122.943 136.159 122.331C136.465 121.708 136.896 121.226 137.451 120.886C138.007 120.535 138.658 120.359 139.406 120.359C140.03 120.359 140.585 120.501 141.072 120.784C141.56 121.056 141.917 121.424 142.143 121.889V120.529H144.217V128.009C144.217 129.358 143.86 130.372 143.146 131.052C142.432 131.732 141.395 132.072 140.035 132.072ZM139.984 127.023C140.642 127.023 141.163 126.796 141.548 126.343C141.934 125.89 142.126 125.272 142.126 124.49C142.126 123.708 141.934 123.096 141.548 122.654C141.163 122.201 140.642 121.974 139.984 121.974C139.327 121.974 138.806 122.201 138.42 122.654C138.035 123.096 137.842 123.708 137.842 124.49C137.842 125.272 138.035 125.89 138.42 126.343C138.806 126.796 139.327 127.023 139.984 127.023Z" fill="url(#paint2_linear_3154_18444)"/>
<defs>
<linearGradient id="paint0_linear_3154_18444" x1="101.739" y1="19.1052" x2="69.772" y2="76.7828" gradientUnits="userSpaceOnUse">
<stop stop-color="#008DD5"/>
<stop offset="0.995" stop-color="#1470A4"/>
</linearGradient>
<linearGradient id="paint1_linear_3154_18444" x1="74.8669" y1="0" x2="74.8669" y2="102" gradientUnits="userSpaceOnUse">
<stop stop-color="#38B6FF"/>
<stop offset="1" stop-color="#1470A4"/>
</linearGradient>
<linearGradient id="paint2_linear_3154_18444" x1="1.21467" y1="124.726" x2="149" y2="123.912" gradientUnits="userSpaceOnUse">
<stop offset="0.0193315" stop-color="#33ACF2"/>
<stop offset="1" stop-color="#1775AB"/>
</linearGradient>
<clipPath id="clip0_3154_18444">
<rect width="59.5044" height="58.3782" fill="white" transform="translate(54.7309 10.8731)"/>
</clipPath>
</defs>
</svg>
