<svg width="32" height="32" viewBox="0 0 32 32" fill="none" xmlns="http://www.w3.org/2000/svg">
<path d="M14.4521 20.0903H17.1426C18.3356 20.0889 19.4795 19.6144 20.3231 18.7708C21.1667 17.9271 21.6412 16.7833 21.6426 15.5903V12.9636C21.6922 12.9651 21.7406 12.9711 21.7905 12.9711C22.5286 12.9712 23.2575 12.8072 23.9244 12.4911C24.5914 12.1749 25.1797 11.7145 25.6469 11.1431C26.1142 10.5718 26.4485 9.90369 26.6259 9.18725C26.8033 8.4708 26.8193 7.72388 26.6726 7.00052C26.526 6.27715 26.2204 5.59542 25.778 5.00461C25.3356 4.41381 24.7674 3.92871 24.1146 3.5844C23.4617 3.24008 22.7405 3.04516 22.0031 3.01372C21.2657 2.98228 20.5305 3.11512 19.8507 3.40262C19.0722 2.81029 18.1208 2.48975 17.1426 2.49017H14.4521C13.2591 2.49152 12.1153 2.96605 11.2717 3.80968C10.428 4.6533 9.95349 5.79711 9.95215 6.99017V15.5903C9.95349 16.7833 10.428 17.9271 11.2717 18.7708C12.1153 19.6144 13.2591 20.0889 14.4521 20.0903ZM21.7905 4.00921C22.5779 4.00921 23.3476 4.24269 24.0022 4.68012C24.6569 5.11756 25.1671 5.7393 25.4685 6.46672C25.7698 7.19415 25.8486 7.99459 25.695 8.76682C25.5414 9.53905 25.1622 10.2484 24.6055 10.8051C24.0488 11.3619 23.3394 11.741 22.5672 11.8946C21.795 12.0482 20.9945 11.9694 20.2671 11.6681C19.5397 11.3668 18.9179 10.8565 18.4805 10.2019C18.0431 9.54721 17.8096 8.77753 17.8096 7.99017C17.8107 6.93472 18.2305 5.92282 18.9769 5.1765C19.7232 4.43017 20.7351 4.01038 21.7905 4.00921ZM10.9521 6.99017C10.9532 6.06225 11.3223 5.17264 11.9785 4.5165C12.6346 3.86035 13.5242 3.49126 14.4521 3.49017H17.1426C17.7528 3.4903 18.3523 3.65089 18.8808 3.95584C18.3127 4.36659 17.837 4.89196 17.4845 5.49801C17.4188 5.46574 17.3467 5.44855 17.2734 5.44769H14.5171C14.3845 5.44769 14.2573 5.50037 14.1635 5.59414C14.0698 5.6879 14.0171 5.81508 14.0171 5.94769C14.0171 6.0803 14.0698 6.20747 14.1635 6.30124C14.2573 6.39501 14.3845 6.44769 14.5171 6.44769H17.0569C16.8935 6.94555 16.81 7.46618 16.8096 7.99019C16.8096 8.03404 16.815 8.07649 16.8162 8.12007H13.1274C12.9948 8.12007 12.8677 8.17275 12.7739 8.26652C12.6801 8.36028 12.6274 8.48746 12.6274 8.62007C12.6274 8.75268 12.6801 8.87985 12.7739 8.97362C12.8677 9.06739 12.9948 9.12007 13.1274 9.12007H16.9438C17.0819 9.71727 17.3296 10.2837 17.6743 10.7905H13.126C12.9934 10.7905 12.8662 10.8432 12.7724 10.9369C12.6787 11.0307 12.626 11.1579 12.626 11.2905C12.626 11.4231 12.6787 11.5503 12.7724 11.644C12.8662 11.7378 12.9934 11.7905 13.126 11.7905H18.4688C18.499 11.7873 18.529 11.7813 18.5581 11.7724C19.1586 12.2867 19.8733 12.65 20.6426 12.8323V15.5903C20.6415 16.5182 20.2724 17.4078 19.6163 18.064C18.9601 18.7201 18.0705 19.0892 17.1426 19.0903H14.4521C13.5242 19.0892 12.6346 18.7201 11.9785 18.064C11.3223 17.4078 10.9532 16.5182 10.9521 15.5903V6.99017Z" fill="white"/>
<path d="M15.2974 22.4507V29.4902H10.4546C10.322 29.4902 10.1948 29.5428 10.101 29.6366C10.0073 29.7304 9.95459 29.8575 9.95459 29.9902C9.95459 30.1228 10.0073 30.2499 10.101 30.3437C10.1948 30.4375 10.322 30.4902 10.4546 30.4902H21.1401C21.2727 30.4902 21.3999 30.4375 21.4937 30.3437C21.5875 30.2499 21.6401 30.1228 21.6401 29.9902C21.6401 29.8575 21.5875 29.7304 21.4937 29.6366C21.3999 29.5428 21.2727 29.4902 21.1401 29.4902H16.2974V22.4507C18.463 22.3224 20.4982 21.3727 21.9875 19.7952C23.4768 18.2176 24.308 16.1313 24.3115 13.9618C24.3115 13.8292 24.2588 13.702 24.1651 13.6083C24.0713 13.5145 23.9441 13.4618 23.8115 13.4618C23.6789 13.4618 23.5517 13.5145 23.458 13.6083C23.3642 13.702 23.3115 13.8292 23.3115 13.9618C23.3115 15.9547 22.5199 17.866 21.1107 19.2751C19.7015 20.6843 17.7902 21.476 15.7974 21.476C13.8045 21.476 11.8932 20.6843 10.484 19.2751C9.07487 17.866 8.2832 15.9547 8.2832 13.9618C8.2832 13.8292 8.23052 13.702 8.13676 13.6083C8.04299 13.5145 7.91581 13.4618 7.7832 13.4618C7.65059 13.4618 7.52342 13.5145 7.42965 13.6083C7.33588 13.702 7.2832 13.8292 7.2832 13.9618C7.28673 16.1313 8.11795 18.2176 9.60725 19.7952C11.0966 21.3727 13.1317 22.3224 15.2974 22.4507Z" fill="white"/>
<path d="M13.126 17.1332H18.4688C18.6014 17.1332 18.7285 17.0806 18.8223 16.9868C18.9161 16.893 18.9688 16.7658 18.9688 16.6332C18.9688 16.5006 18.9161 16.3735 18.8223 16.2797C18.7285 16.1859 18.6014 16.1332 18.4688 16.1332H13.126C12.9934 16.1332 12.8662 16.1859 12.7724 16.2797C12.6787 16.3735 12.626 16.5006 12.626 16.6332C12.626 16.7658 12.6787 16.893 12.7724 16.9868C12.8662 17.0806 12.9934 17.1332 13.126 17.1332Z" fill="white"/>
<path d="M13.126 14.4618H18.4688C18.6014 14.4618 18.7285 14.4091 18.8223 14.3154C18.9161 14.2216 18.9688 14.0944 18.9688 13.9618C18.9688 13.8292 18.9161 13.702 18.8223 13.6083C18.7285 13.5145 18.6014 13.4618 18.4688 13.4618H13.126C12.9934 13.4618 12.8662 13.5145 12.7724 13.6083C12.6787 13.702 12.626 13.8292 12.626 13.9618C12.626 14.0944 12.6787 14.2216 12.7724 14.3154C12.8662 14.4091 12.9934 14.4618 13.126 14.4618Z" fill="white"/>
<path d="M20.7622 10.4794C20.8279 10.4794 20.8929 10.4665 20.9536 10.4414C21.0142 10.4163 21.0694 10.3794 21.1158 10.333C21.1622 10.2866 21.1991 10.2314 21.2242 10.1708C21.2493 10.1101 21.2622 10.0451 21.2622 9.97942V6.00092C21.2622 5.86831 21.2095 5.74113 21.1158 5.64736C21.022 5.55359 20.8948 5.50092 20.7622 5.50092C20.6296 5.50092 20.5024 5.55359 20.4087 5.64736C20.3149 5.74113 20.2622 5.86831 20.2622 6.00092V9.97942C20.2622 10.0451 20.2751 10.1101 20.3002 10.1708C20.3254 10.2314 20.3622 10.2866 20.4086 10.333C20.455 10.3794 20.5102 10.4163 20.5708 10.4414C20.6315 10.4665 20.6965 10.4794 20.7622 10.4794Z" fill="white"/>
<path d="M22.8262 10.4794C22.8918 10.4794 22.9569 10.4665 23.0175 10.4414C23.0782 10.4163 23.1333 10.3794 23.1798 10.333C23.2262 10.2866 23.263 10.2314 23.2881 10.1708C23.3133 10.1101 23.3262 10.0451 23.3262 9.97942V6.00092C23.3262 5.86831 23.2735 5.74113 23.1797 5.64736C23.086 5.55359 22.9588 5.50092 22.8262 5.50092C22.6936 5.50092 22.5664 5.55359 22.4726 5.64736C22.3788 5.74113 22.3262 5.86831 22.3262 6.00092V9.97942C22.3262 10.0451 22.3391 10.1101 22.3642 10.1708C22.3893 10.2314 22.4261 10.2866 22.4726 10.333C22.519 10.3794 22.5741 10.4163 22.6348 10.4414C22.6955 10.4665 22.7605 10.4794 22.8262 10.4794Z" fill="white"/>
</svg>
