<svg width="200" height="32" viewBox="0 0 200 32" fill="none" xmlns="http://www.w3.org/2000/svg">
<rect opacity="0.66" y="15" width="2" height="2" rx="1" fill="black"/>
<rect opacity="0.66" x="6" y="12" width="2" height="8" rx="1" fill="black"/>
<rect opacity="0.66" x="12" y="9" width="2" height="14" rx="1" fill="black"/>
<rect opacity="0.66" x="18" y="14" width="2" height="4" rx="1" fill="black"/>
<rect opacity="0.66" x="24" y="8" width="2" height="16" rx="1" fill="black"/>
<rect opacity="0.66" x="30" y="9" width="2" height="14" rx="1" fill="black"/>
<rect opacity="0.66" x="36" y="11" width="2" height="10" rx="1" fill="black"/>
<rect opacity="0.66" x="42" y="11" width="2" height="10" rx="1" fill="black"/>
<rect opacity="0.66" x="48" y="11" width="2" height="10" rx="1" fill="black"/>
<rect opacity="0.66" x="54" y="9" width="2" height="14" rx="1" fill="black"/>
<rect opacity="0.66" x="60" y="11" width="2" height="10" rx="1" fill="black"/>
<rect opacity="0.66" x="66" y="8" width="2" height="16" rx="1" fill="black"/>
<rect opacity="0.66" x="72" y="11" width="2" height="10" rx="1" fill="black"/>
<rect opacity="0.66" x="78" y="8" width="2" height="16" rx="1" fill="black"/>
<rect opacity="0.66" x="84" y="11" width="2" height="10" rx="1" fill="black"/>
<rect opacity="0.66" x="90" y="8" width="2" height="16" rx="1" fill="black"/>
<rect opacity="0.66" x="96" y="11" width="2" height="10" rx="1" fill="black"/>
<rect opacity="0.66" x="102" y="8" width="2" height="16" rx="1" fill="black"/>
<rect opacity="0.66" x="108" y="11" width="2" height="10" rx="1" fill="black"/>
<rect opacity="0.66" x="114" y="8" width="2" height="16" rx="1" fill="black"/>
<rect opacity="0.66" x="120" y="11" width="2" height="10" rx="1" fill="black"/>
<rect opacity="0.66" x="126" y="8" width="2" height="16" rx="1" fill="black"/>
<rect opacity="0.66" x="132" y="11" width="2" height="10" rx="1" fill="black"/>
<rect opacity="0.66" x="138" y="8" width="2" height="16" rx="1" fill="black"/>
<rect opacity="0.66" x="144" y="11" width="2" height="10" rx="1" fill="black"/>
<rect opacity="0.66" x="150" y="8" width="2" height="16" rx="1" fill="black"/>
<rect opacity="0.66" x="156" y="11" width="2" height="10" rx="1" fill="black"/>
<rect opacity="0.66" x="162" y="11" width="2" height="10" rx="1" fill="black"/>
<rect opacity="0.66" x="168" y="11" width="2" height="10" rx="1" fill="black"/>
<rect opacity="0.66" x="174" y="11" width="2" height="10" rx="1" fill="black"/>
<rect opacity="0.66" x="180" y="11" width="2" height="10" rx="1" fill="black"/>
<rect opacity="0.66" x="186" y="11" width="2" height="10" rx="1" fill="black"/>
<rect opacity="0.66" x="192" y="14" width="2" height="4" rx="1" fill="black"/>
<rect opacity="0.66" x="198" y="14" width="2" height="4" rx="1" fill="black"/>
</svg>
