<svg width="19" height="19" viewBox="0 0 19 19" fill="none" xmlns="http://www.w3.org/2000/svg">
<path d="M8 1V3H3C2.44772 3 2 3.44772 2 4V16C2 16.5523 2.44772 17 3 17H15C15.5523 17 16 16.5523 16 16V11H18V16C18 17.6569 16.6569 19 15 19H3C1.34315 19 0 17.6569 0 16V4C0 2.34315 1.34315 1 3 1H8ZM15.9979 -0.000457764C17.6548 -0.000457764 18.9979 1.34269 18.9979 2.99954V8.99954C17.6646 8.99954 16.9979 8.33288 16.9979 6.99954V3.41376L6.95424 13.4575L5.54003 12.0432L15.5837 1.99954H11.9979C10.6646 1.99954 9.99794 1.33288 9.99794 -0.000457764H15.9979Z" fill="#2F6FA7"/>
</svg>
