<svg width="24" height="24" viewBox="0 0 24 24" fill="none" xmlns="http://www.w3.org/2000/svg">
<path d="M16.8 19.3H3.80005C2.40005 19.3 1.30005 18.2 1.30005 16.8V3.80005C1.30005 2.40005 2.40005 1.30005 3.80005 1.30005H16.8C18.2 1.30005 19.3 2.40005 19.3 3.80005V16.8C19.3 18.1 18.1 19.3 16.8 19.3ZM3.80005 3.30005C3.50005 3.30005 3.30005 3.50005 3.30005 3.80005V16.8C3.30005 17.1 3.50005 17.3 3.80005 17.3H16.8C17.1 17.3 17.3 17.1 17.3 16.8V3.80005C17.3 3.50005 17.1 3.30005 16.8 3.30005H3.80005Z" fill="#1470A4"/>
<path d="M20.8 22.8H6.30005C5.70005 22.8 5.30005 22.4 5.30005 21.8C5.30005 21.2 5.70005 20.8 6.30005 20.8H20.8V6.30005C20.8 5.70005 21.2 5.30005 21.8 5.30005C22.4 5.30005 22.8 5.70005 22.8 6.30005V20.8C22.8 21.9 21.9 22.8 20.8 22.8Z" fill="#1470A4"/>
<path d="M20.8003 22.8003H6.30029C5.70029 22.8003 5.30029 22.4003 5.30029 21.8003C5.30029 21.2003 5.70029 20.8003 6.30029 20.8003H20.8003V6.30029C20.8003 5.70029 21.2003 5.30029 21.8003 5.30029C22.4003 5.30029 22.8003 5.70029 22.8003 6.30029V20.8003C22.8003 21.9003 21.9003 22.8003 20.8003 22.8003Z" fill="#1470A4"/>
</svg>
